<svg xmlns="http://www.w3.org/2000/svg" width="569.179" height="569.18" viewBox="0 0 569.179 569.18"><path d="M227.662 570.033h84.84l6.646-42.459s-6.067.465-34.569 1.318c-.119.004-.242.004-.361.004-1.315-10.521-1.974-21.044-.96-31.311.881-8.956 3.822-17.546 6.668-25.856 2.784-8.134 5.664-16.543 6.631-25.321.942-8.538.187-17.399-2.246-26.338a90.11 90.11 0 0 0-2.133-6.75l.585-.483c.829-.688 1.655-1.377 2.509-2.035 2.283-1.757 4.963-3.672 7.745-3.452 2.114.145 4.177 1.922 5.019 4.327.33.942.894 3.317-.988 5.037-1.711 1.566-5.028 1.863-6.35.511-.539-.554-.799-1.334-.774-2.322a.762.762 0 0 0-.677-.777.755.755 0 0 0-.838.6c-.31 1.444-.037 2.745.786 3.761 1.077 1.331 3.026 2.093 5.353 2.093 3.733 0 7.72-2.01 8.121-5.856.287-2.732-.648-5.499-2.632-7.791-2.185-2.527-5.346-4.115-8.623-4.244-1.83 0-4.021 1.147-6.145 2.259-2.075 1.083-4.271 2.188-5.545 1.974-1.401-3.369-3.032-6.724-4.612-9.967-3.308-6.796-6.726-13.822-8.191-21.307-2.038-10.423 1.857-24.354 11.904-29.63.823-.432 1.939-.658 3.231-.658 3.721 0 7.53 1.766 8.494 3.938.532 1.205.175 2.512-1.067 3.886-1.218 1.344-2.935 2.179-4.48 2.179-.661 0-1.569-.156-2.151-.899-.59-.759-.7-1.968-.314-3.497a.766.766 0 0 0-1.326-.682c-1.285 1.502-1.595 3.194-.869 4.771.998 2.166 3.933 3.804 6.827 3.804 1.882 0 3.521-.691 4.617-1.949 3.238-3.709 2.864-6.922 1.978-8.966-1.834-4.223-7.259-7.062-12.015-7.702 9.896-11.83 17.348-21.978 23.397-31.846 6.563-10.71 13.106-22.157 14.73-33.979.102-.729.193-1.515.294-2.341.851-7.133 2.008-16.913 10.536-16.524 2.285.11 4.728 1.989 5.336 4.107.417 1.457-.119 2.748-1.545 3.736-.581.4-1.34.624-2.142.624-1.402 0-2.917-.695-2.944-2.212.013-.269.052-.554.116-.851a.766.766 0 0 0-1.487-.365c-.109.41-.165.811-.162 1.196-.052 1.383.396 2.61 1.292 3.543 1.863 1.94 5.59 2.105 8.014.306 2.359-1.75 3.231-4.367 2.384-7.172-1.086-3.614-4.719-6.595-8.265-6.784-2.537-.128-5.04.331-7.457.78-.548.104-1.096.205-1.646.3-.594 0-1.417-2.451-2.442-7.28-.29-1.365-.538-2.543-.786-3.268-2.788-8.161-7.371-16.414-14.422-25.964-6.441-8.724-11.573-15.178-16.641-20.928-.719-.817-1.588-1.704-2.512-2.65-4.036-4.122-9.061-9.253-7.504-14.428.652-2.167 2.843-4.296 4.419-4.296.918 0 1.57.765 1.931 2.271.346 1.42.15 3.125-.443 3.88-.232.297-.44.331-.575.331-.248 0-.79-.135-1.658-1.041a.764.764 0 0 0-1.222.899c.655 1.181 1.668 1.833 2.853 1.833 1.242 0 2.619-.731 3.687-1.958 1.084-1.245 1.622-2.745 1.444-4.012-.603-4.305-3.311-4.948-4.868-4.948-3.354 0-7.521 2.876-9.376 5.643-10.765-15.444-19.382-31.619-26.325-49.401-1-2.564-1.854-8.516.006-11.242.96-1.401 2.54-1.674 4.779-.894 1.402.493 3.018 1.423 2.739 3.066-.242 1.407-1.882 2.846-3.252 2.846-.799 0-1.344-.514-1.625-1.527a.756.756 0 0 0-.869-.551.767.767 0 0 0-.633.808c.15 2.114 1.579 3.43 3.733 3.43 2.323 0 5.089-1.652 5.499-4.112.358-2.13.024-3.816-.991-5.019-1.044-1.236-2.794-1.888-5.059-1.888-2.742 0-5.74.937-7.727 2.004-4.825-21.803-5.315-43.207-1.371-60.383.78-3.4 3.409-8.189 6.818-8.189 1.104 0 2.255.508 3.415 1.509.609.523.56.937.447 1.239-.361.973-2.071 2.004-3.329 2.004-.147 0-.278-.016-.389-.046-.187-.374-.275-.872-.257-1.463a.766.766 0 0 0-.649-.777.748.748 0 0 0-.851.551c-.471 1.695.165 2.5.691 2.864 1.249 1.656 4.226 1.353 5.799-.496.881-1.041 1.242-2.369 1.016-3.746-.475-2.754-1.757-4.091-3.923-4.091-.994 0-2.078.281-3.124.554-1.27.331-2.638.658-3.645.499 3.302-14.899 9-29.447 16.943-43.247a.766.766 0 0 0-1.289-.823c-4.057 5.731-7.433 11.708-10.239 16.956-.743-1.083-1.937-1.757-3.262-1.757-1.377 0-2.598.756-3.342 2.075-.477.839-.45 1.833.071 2.727.633 1.086 1.842 1.692 2.803 1.42.474-.049.869-.395 1.172-1.034l.012-.031c.006-.012.012-.031.021-.046l.028-.061c.015-.037.027-.067.03-.07a.767.767 0 0 0-.426-1.001.77.77 0 0 0-.939.318c-.229-.768-.3-2.126.089-2.58.493.037 1.659 1.906 1.833 2.543.539 2.191-.783 4.526-1.952 6.585-.224.395-.441.777-.64 1.151-6.735 12.598-10.762 29.339-12.301 51.151a11.264 11.264 0 0 0-1.343-.456c-1.307-.364-2.871-.566-4.406-.566-3.837 0-6.858 1.16-8.287 3.182-1.123 1.588-1.264 3.605-.419 5.989.658 1.854 2.396 2.962 4.645 2.962 1.891 0 3.642-.835 4.357-2.081.526-.918.484-1.995-.122-3.032a.759.759 0 0 0-.958-.318.765.765 0 0 0-.44.909c.153.554.263 1.31-.08 1.766-.315.413-.942.475-1.289.475-1.64 0-3.742-1.227-3.999-2.812-.107-.673.101-1.325.618-1.934 1.236-1.454 3.645-2.154 5.055-1.953 3.186.456 5.251 3.847 6.053 6.61.741 2.543.731 5.474.726 8.305-.003 1.512-.009 3.072.101 4.544a153.303 153.303 0 0 0 2.436 17.925 155.801 155.801 0 0 0 10.615 33.467c-3.639.45-8.03 2.075-10.04 4.881-1.163 1.622-1.472 3.464-.921 5.48 1.297 4.755 4.59 5.269 5.942 5.269 2.032 0 4.085-1.074 5-2.613.606-1.019.658-2.124.147-3.118-.232-.661-.891-1.291-2.004-1.921a.765.765 0 1 0-.784 1.313c.597.333 1.034.704 1.303 1.099a.726.726 0 0 0 .025.11c-.318.431-1.763.894-3.531.894-.762 0-1.451-.092-1.94-.257-1.172-.401-2.534-1.095-2.362-2.118.312-1.87 4.777-4.443 7.705-4.443l.248.006c3.464.217 5.407 3.926 6.964 6.91l.3.572c2.766 5.248 6.056 10.713 10.355 17.203 6.049 9.131 12.714 18.036 19.159 26.646 1.506 2.011 3.011 4.024 4.511 6.041-5.875-.272-12.017 5.93-13.547 11.408-1.093 3.908.107 7.258 3.286 9.186.894.542 1.968.817 3.188.817 3.326 0 7.494-2.218 8.097-5.184.242-1.193.05-3.442-3.94-5.138l-.021-.009a.773.773 0 0 0-1.004.407.766.766 0 0 0 .407 1.003c1.578.667 1.462 2.158 1.34 2.767-.324 1.597-1.915 3.21-3.675 2.729-1.649-.459-2.877-1.659-3.372-3.292-.526-1.75-.102-3.712 1.113-5.117 2.121-2.448 4.392-3.69 6.748-3.69 5.823 0 11.104 7.515 13.105 10.744 12.378 20.098 11.068 42.289-3.892 65.983-1.632-7.053-9.235-13.427-16.607-13.427-3.568 0-6.659 1.49-8.941 4.309-2.583 3.188-2.225 5.743-1.469 7.331 1.42 2.978 5.208 4.584 8.051 4.584 1.579 0 2.85-.453 3.676-1.312.682-.707 1.019-1.671.979-2.785a.765.765 0 0 0-.67-.73.752.752 0 0 0-.829.544c-.496 1.714-2.326 2.479-3.92 2.479-1.31 0-2.913-.544-3.482-2.056-.594-1.723-.475-3.339.349-4.676.881-1.429 2.534-2.405 4.529-2.678 3.405-.453 6.245.799 8.375 3.553 2.867 3.706 4.042 9.862 2.8 14.639-.915 3.504-4.792 7.525-8.216 11.074-1.401 1.457-2.729 2.834-3.736 4.061-3.954 4.823-8.146 9.566-12.198 14.153l-2.573 2.919c-6.046 6.869-14.079 17.421-14.942 30.48-3.354-1.478-7.258-2.286-11.123-2.286-4.997 0-9.639 1.362-13.072 3.831-3.871 2.788-5.961 7.736-5.322 12.604.588 4.477 3.296 7.947 7.521 9.547 3.715.897 8.55-1.486 10.202-4.908 1.05-2.172.765-4.461-.811-6.447a.766.766 0 0 0-1.26.861c.74 1.275.795 2.481.162 3.58-.9 1.561-3.161 2.692-5.376 2.692-1.007 0-1.928-.232-2.662-.676-3.755-2.259-3.66-5.361-3.268-7.011.826-3.482 4.189-6.318 7.821-6.598 8.871-.685 15.875 3.431 18.754 11.053 4.336 11.466 6.738 23.422 7.99 31.43l.56 3.528c1.601 10.055 3.256 20.45 2.736 30.159-.211 3.88-1.564 7.359-2.996 11.044l-.554 1.432c-2.714 7.096-4.483 14.303-5.263 21.417-1.72 15.683 1.539 31.457 4.572 43.449.147.581.309 1.153.459 1.731-36.437 2.743-45.705 2.71-45.705 2.71z"/></svg>