<?xml version="1.0" encoding="UTF-8" standalone="no"?>
<!-- Generator: Adobe Illustrator 16.0.0, SVG Export Plug-In . SVG Version: 6.00 Build 0)  -->

<svg
   xmlns:dc="http://purl.org/dc/elements/1.1/"
   xmlns:cc="http://creativecommons.org/ns#"
   xmlns:rdf="http://www.w3.org/1999/02/22-rdf-syntax-ns#"
   xmlns:svg="http://www.w3.org/2000/svg"
   xmlns="http://www.w3.org/2000/svg"
   xmlns:sodipodi="http://sodipodi.sourceforge.net/DTD/sodipodi-0.dtd"
   xmlns:inkscape="http://www.inkscape.org/namespaces/inkscape"
   version="1.1"
   id="Capa_1"
   x="0px"
   y="0px"
   width="573.85px"
   height="573.85px"
   viewBox="0 0 573.85 573.85"
   style="enable-background:new 0 0 573.85 573.85;"
   xml:space="preserve"
   inkscape:version="0.91 r13725"
   sodipodi:docname="tree-with-growing-leaves-of-spring.svg"><metadata
     id="metadata671"><rdf:RDF><cc:Work
         rdf:about=""><dc:format>image/svg+xml</dc:format><dc:type
           rdf:resource="http://purl.org/dc/dcmitype/StillImage" /></cc:Work></rdf:RDF></metadata><defs
     id="defs669" /><sodipodi:namedview
     pagecolor="#ffffff"
     bordercolor="#666666"
     borderopacity="1"
     objecttolerance="10"
     gridtolerance="10"
     guidetolerance="10"
     inkscape:pageopacity="0"
     inkscape:pageshadow="2"
     inkscape:window-width="640"
     inkscape:window-height="507"
     id="namedview667"
     showgrid="false"
     inkscape:zoom="1.1632113"
     inkscape:cx="369.32933"
     inkscape:cy="-19.701744"
     inkscape:window-x="0"
     inkscape:window-y="25"
     inkscape:window-maximized="0"
     inkscape:current-layer="Capa_1" /><g
     id="g631"><g
       id="g633"><path
         d="m 554.047,110.737 c -0.832,-0.153 -1.576,0.358 -1.766,1.145 -3.002,12.402 -7.573,24.642 -13.593,36.436 -1.227,-2.393 -3.99,-4.061 -6.668,-5.677 -2.276,-1.374 -4.855,-2.931 -4.901,-4.253 -0.019,-0.521 0.364,-1.687 3.14,-3.632 0.643,-0.45 0.838,-1.31 0.459,-1.995 -0.38,-0.686 -1.219,-0.976 -1.938,-0.664 -7.629,3.241 -10.392,13.195 -8.571,20.56 1.004,4.063 3.96,6.515 6.093,8.005 3.871,2.702 3.871,2.702 1.215,6.756 -9.611,14.661 -21.854,28.917 -36.387,42.378 -23.118,21.408 -49.168,36.218 -76.754,51.9 -3.329,1.891 -6.664,3.788 -10,5.701 -0.514,-3.363 -2.022,-6.484 -3.494,-9.522 -1.836,-3.792 -3.568,-7.372 -3.25,-11.068 0.272,-2.925 3.868,-3.54 6.836,-3.54 1.857,0 3.507,0.248 4.327,0.395 0.78,0.138 1.515,-0.321 1.738,-1.068 0.22,-0.747 -0.153,-1.539 -0.869,-1.845 -2.14,-0.909 -4.449,-1.478 -6.854,-1.692 -10.229,-0.988 -20.634,5.279 -26.39,15.368 -4.299,7.252 -2.671,12.653 -0.948,18.372 0.795,2.632 1.612,5.352 1.891,8.415 0.386,4.253 -2.142,6.239 -6.301,9.125 -0.988,0.686 -1.988,1.383 -2.943,2.139 -4.293,3.394 -8.52,6.919 -12.559,10.48 -7.897,6.971 -15.171,14.181 -21.615,21.423 -15.294,17.277 -27.571,36.209 -36.562,56.375 1.481,-42.553 7.259,-78.346 17.602,-109.141 12.047,5.422 22.359,4.367 32.978,-3.296 9.204,-6.637 17.99,-18.642 15.046,-32.424 -0.162,-0.737 -0.786,-1.245 -1.582,-1.208 -0.75,0.043 -1.361,0.624 -1.438,1.374 -1.053,10.282 -3.94,14.431 -9.186,13.091 -3.709,-0.958 -6.949,-3.06 -10.383,-5.282 -2.834,-1.836 -5.746,-3.724 -9.002,-4.966 11.652,-17.393 26.649,-33.746 44.603,-48.626 14.718,-12.197 30.422,-21.54 47.053,-31.429 3.348,-1.989 6.702,-3.987 10.062,-6.013 11.193,-6.762 20.86,-13.231 29.551,-19.78 4.312,-3.25 8.562,-6.649 12.638,-10.107 0.68,-0.576 1.312,-1.169 1.931,-1.75 2.516,-2.362 4.4,-4.021 7.543,-3.045 1.955,0.603 3.636,1.692 5.413,2.843 2.519,1.637 5.126,3.326 8.715,3.69 4.416,0.272 8.847,-0.734 13.354,-2.983 6.986,-3.482 16.649,-12.222 14.643,-22.026 -0.146,-0.707 -0.762,-1.215 -1.481,-1.224 -0.737,0.08 -1.349,0.487 -1.508,1.19 -0.444,1.934 -2.161,8.247 -5.674,8.247 -0.982,0 -2.114,-0.459 -3.372,-1.362 -0.4,-0.287 -1.025,-0.826 -1.809,-1.49 -2.864,-2.436 -7.347,-6.252 -11.175,-7.399 25.067,-25.679 43.097,-62.029 47.387,-95.906 0.102,-0.805 -0.443,-1.551 -1.239,-1.698 -0.838,-0.163 -1.575,0.358 -1.766,1.144 -3.001,12.405 -7.573,24.646 -13.592,36.438 -1.228,-2.393 -3.99,-4.061 -6.668,-5.676 -2.276,-1.374 -4.856,-2.931 -4.902,-4.253 -0.019,-0.52 0.364,-1.686 3.14,-3.632 0.643,-0.45 0.839,-1.31 0.459,-1.995 -0.383,-0.686 -1.221,-0.979 -1.937,-0.664 -7.629,3.24 -10.393,13.194 -8.571,20.56 1.004,4.063 3.959,6.515 6.092,8.005 3.871,2.702 3.871,2.702 1.215,6.753 -9.611,14.661 -21.854,28.917 -36.386,42.378 -23.118,21.408 -49.175,36.221 -76.761,51.904 -3.326,1.891 -6.661,3.785 -9.997,5.698 -0.511,-3.363 -2.02,-6.484 -3.491,-9.523 -1.836,-3.791 -3.567,-7.372 -3.25,-11.068 0.272,-2.928 3.868,-3.541 6.833,-3.541 1.857,0 3.511,0.251 4.33,0.398 0.777,0.138 1.515,-0.321 1.738,-1.068 0.221,-0.747 -0.153,-1.542 -0.869,-1.845 -2.139,-0.909 -4.452,-1.481 -6.857,-1.692 -10.187,-0.991 -20.627,5.275 -26.387,15.367 -4.299,7.252 -2.671,12.653 -0.948,18.373 0.796,2.631 1.612,5.352 1.892,8.415 0.382,4.25 -2.143,6.236 -6.301,9.122 -0.985,0.688 -1.989,1.386 -2.947,2.142 -4.309,3.409 -8.531,6.934 -12.555,10.48 -7.901,6.974 -15.175,14.18 -21.616,21.426 -29.851,33.718 -48.155,73.884 -52.94,116.151 -1.157,10.208 -1.741,20.512 -1.744,30.723 -0.591,-1.404 -1.181,-2.812 -1.769,-4.22 -11.879,-28.449 -19.144,-53.391 -22.191,-76.005 0.074,-3.454 0.074,-6.554 0,-9.479 -0.006,-0.205 -0.015,-0.41 -0.024,-0.618 8.632,-0.254 14.804,-3.932 19.357,-11.512 4.205,-7.004 6.601,-17.451 0.716,-25.768 -0.438,-0.618 -1.258,-0.82 -1.928,-0.49 -0.676,0.333 -1.007,1.111 -0.784,1.83 1.377,4.394 1.57,7.438 0.566,9.048 -0.49,0.79 -1.319,1.264 -2.524,1.45 -2.638,0.401 -5.26,-0.055 -8.082,-0.539 -2.191,-0.376 -4.318,-0.777 -6.772,-0.737 2.742,-14.339 7.883,-28.926 15.294,-43.394 6.145,-11.992 13.73,-22.423 21.763,-33.467 1.628,-2.24 3.265,-4.489 4.893,-6.756 5.413,-7.546 9.899,-14.461 13.721,-21.142 1.889,-3.298 3.709,-6.701 5.413,-10.119 0.285,-0.569 0.533,-1.138 0.774,-1.692 1.059,-2.426 1.658,-3.604 3.693,-3.825 1.401,-0.147 2.742,0.088 4.189,0.336 2.212,0.379 4.647,0.664 6.919,-0.052 2.974,-1.056 5.679,-3.005 8.044,-5.795 3.663,-4.318 7.589,-12.928 3.4,-18.951 -0.413,-0.59 -1.182,-0.817 -1.846,-0.539 -0.664,0.279 -1.047,0.979 -0.918,1.689 0.505,2.767 0.318,5.003 -0.502,5.989 -0.315,0.382 -1.212,0.875 -2.919,0.496 -0.331,-0.073 -0.875,-0.248 -1.555,-0.456 -2.374,-0.734 -6.001,-1.863 -8.794,-1.771 8.947,-23.648 10.443,-52.103 3.818,-75.2 -0.224,-0.777 -1.016,-1.251 -1.809,-1.071 -0.792,0.181 -1.307,0.948 -1.172,1.747 1.457,8.62 1.916,17.549 1.368,26.585 -1.515,-0.903 -3.513,-1.181 -5.462,-1.451 -1.484,-0.205 -3.736,-0.517 -4.027,-1.147 -0.034,-0.067 -0.281,-0.734 1.004,-2.812 0.413,-0.667 0.257,-1.536 -0.364,-2.017 -0.615,-0.483 -1.503,-0.413 -2.041,0.153 -4.22,4.407 -3.22,11.913 0.132,16.337 1.875,2.479 4.583,3.284 6.456,3.675 0.829,0.171 2.365,0.489 2.604,0.725 0.159,0.346 -0.135,2.01 -0.275,2.809 -2.157,12.185 -6.13,24.835 -11.806,37.602 -9.036,20.318 -21.833,37.197 -35.379,55.067 -1.509,1.989 -3.02,3.987 -4.529,5.992 -1.276,-1.842 -2.99,-3.326 -4.657,-4.78 -2.203,-1.913 -4.281,-3.718 -5.067,-6.089 -0.171,-0.526 -0.132,-0.964 0.128,-1.42 0.811,-1.432 3.562,-2.623 5.93,-3.167 0.759,-0.174 1.267,-0.894 1.178,-1.668 -0.089,-0.771 -0.744,-1.353 -1.521,-1.353 l -0.006,0 c -1.689,0.006 -3.394,0.288 -5.061,0.835 -8.005,2.567 -12.39,10.765 -13.183,17.721 -0.799,6.111 1.955,9.388 4.614,12.558 1.233,1.472 2.509,2.996 3.525,4.872 1.319,2.442 0.327,4.253 -1.536,7.24 -0.456,0.731 -0.921,1.472 -1.334,2.237 -1.863,3.439 -3.632,6.916 -5.254,10.337 -2.714,5.729 -5.08,11.429 -7.056,16.986 -5.095,-14.012 -12.344,-27.411 -21.598,-39.896 -4.116,-5.523 -8.81,-11.062 -13.957,-16.466 -2.623,-2.754 -5.392,-5.505 -8.225,-8.173 -0.634,-0.597 -1.304,-1.157 -1.968,-1.71 -2.708,-2.252 -4.214,-3.66 -3.724,-6.393 0.376,-2.099 1.111,-3.944 1.824,-5.731 1.533,-3.843 3.121,-7.815 0.459,-13.345 -2.919,-6.337 -9.599,-12.729 -18.063,-12.729 -1.763,0.003 -3.476,0.27 -5.083,0.792 -0.738,0.242 -1.182,1.001 -1.022,1.766 0.156,0.759 0.796,1.282 1.637,1.215 0.459,-0.042 1.007,-0.07 1.594,-0.07 1.677,0 5.579,0.248 5.594,2.519 -0.003,2.509 -1.414,4.875 -2.907,7.38 -1.132,1.9 -2.295,3.85 -2.932,5.998 -2.056,-1.429 -4.116,-2.849 -6.172,-4.266 C 147.618,123.526 130.179,111.5 115.234,95.029 105.843,84.68 98.11,73.905 92.251,63.015 91.868,62.299 91.067,60.811 91.1,60.46 c 0.163,-0.325 1.524,-1.111 2.255,-1.53 1.656,-0.955 3.975,-2.564 4.985,-5.511 1.793,-5.251 0.395,-12.693 -4.994,-15.557 -0.682,-0.364 -1.545,-0.156 -1.983,0.496 -0.44,0.649 -0.318,1.524 0.285,2.029 1.87,1.573 1.845,2.28 1.836,2.356 -0.083,0.688 -2.121,1.689 -3.47,2.35 -1.744,0.857 -3.535,1.735 -4.725,3.112 -3.354,-8.424 -5.716,-17.057 -7.032,-25.704 -0.119,-0.802 -0.829,-1.368 -1.658,-1.291 -0.808,0.076 -1.414,0.771 -1.383,1.582 0.942,24.015 11.27,50.567 27.17,70.224 -2.415,0.71 -5.156,2.555 -7.8,4.437 -0.575,0.413 -1.04,0.747 -1.334,0.918 -0.777,0.465 -1.462,0.701 -2.026,0.701 -1.808,0 -2.867,-2.986 -3.252,-5.783 -0.098,-0.713 -0.683,-1.261 -1.398,-1.316 -0.713,-0.043 -1.377,0.398 -1.585,1.089 -2.09,7.029 4.333,13.978 9.162,16.934 3.121,1.91 6.3,2.916 9.507,2.99 2.619,-0.037 4.611,-1.093 6.536,-2.118 1.294,-0.688 2.518,-1.34 3.874,-1.631 1.979,-0.432 2.95,0.511 4.703,2.472 0.404,0.45 0.82,0.915 1.264,1.368 2.678,2.702 5.471,5.364 8.311,7.916 5.737,5.162 12.167,10.328 19.648,15.784 2.246,1.64 4.498,3.256 6.738,4.868 11.096,7.978 21.576,15.514 31.172,24.988 11.563,11.417 21.01,23.663 28.109,36.426 -2.206,0.697 -4.232,1.774 -6.203,2.821 -2.521,1.34 -4.905,2.604 -7.503,3.039 -0.315,0.052 -0.686,0.03 -0.884,0.076 -1.031,0 -4.131,-0.027 -4.266,-9.434 -0.012,-0.752 -0.569,-1.386 -1.316,-1.493 -0.744,-0.119 -1.459,0.346 -1.68,1.068 -2.987,9.746 2.564,18.914 8.751,24.248 7.007,6.05 14.278,7.506 23.014,4.593 5.643,23.583 7.326,49.85 5.27,82.259 -2.366,-2.151 -4.621,-4.125 -6.83,-5.995 -4.131,-3.485 -8.43,-6.919 -12.775,-10.205 -0.97,-0.734 -1.986,-1.407 -2.993,-2.074 -4.217,-2.797 -6.79,-4.729 -6.494,-8.987 0.208,-3.072 0.97,-5.811 1.708,-8.461 1.601,-5.752 3.112,-11.19 -1.331,-18.323 -5.961,-9.945 -16.652,-15.967 -26.717,-14.816 -2.414,0.266 -4.712,0.887 -6.827,1.842 -0.71,0.321 -1.068,1.123 -0.83,1.863 0.236,0.741 0.982,1.178 1.76,1.028 0.909,-0.184 2.735,-0.493 4.752,-0.493 4.04,0 6.218,1.145 6.478,3.384 0.398,3.7 -1.254,7.316 -3.005,11.147 -1.404,3.069 -2.849,6.224 -3.286,9.596 -3.375,-1.839 -6.745,-3.66 -10.107,-5.477 -27.922,-15.086 -54.296,-29.33 -77.871,-50.236 -14.82,-13.14 -27.366,-27.13 -37.295,-41.582 -2.742,-3.99 -2.742,-3.99 1.071,-6.778 2.103,-1.533 4.997,-4.048 5.921,-8.133 1.658,-7.402 -1.316,-17.295 -9.012,-20.371 -0.726,-0.293 -1.558,0.013 -1.922,0.707 -0.364,0.691 -0.15,1.548 0.502,1.983 2.818,1.885 3.228,3.042 3.219,3.562 -0.016,1.322 -2.562,2.935 -4.804,4.357 -2.613,1.655 -5.3,3.36 -6.536,5.845 -6.286,-11.677 -11.12,-23.822 -14.388,-36.157 -0.208,-0.783 -1.004,-1.27 -1.787,-1.107 -0.796,0.165 -1.325,0.921 -1.206,1.723 5.018,33.779 23.825,69.728 49.443,94.86 -3.442,1.111 -7.433,4.464 -11.01,7.644 -0.768,0.682 -1.383,1.233 -1.775,1.53 -1.264,0.955 -2.411,1.435 -3.409,1.435 -3.47,0 -5.303,-6.218 -5.784,-8.124 -0.177,-0.695 -0.67,-1.243 -1.536,-1.154 -0.719,0.021 -1.325,0.545 -1.457,1.255 -1.799,9.847 8.054,18.375 15.11,21.708 3.896,1.839 7.772,2.772 11.521,2.772 0.63,0 1.264,-0.024 1.958,-0.086 3.522,-0.435 6.092,-2.179 8.577,-3.871 1.75,-1.19 3.406,-2.317 5.346,-2.959 3.112,-1.025 5.034,0.563 7.607,2.883 0.63,0.566 1.279,1.147 1.968,1.708 4.146,3.369 8.473,6.677 12.852,9.832 8.816,6.347 18.62,12.607 29.976,19.134 3.421,1.968 6.839,3.901 10.254,5.833 16.814,9.517 32.699,18.507 47.656,30.367 18.268,14.489 33.614,30.515 45.643,47.65 -3.231,1.31 -6.102,3.262 -8.896,5.159 -3.381,2.298 -6.576,4.468 -10.263,5.505 -5.229,1.479 -8.192,-2.622 -9.468,-12.889 -0.092,-0.747 -0.713,-1.315 -1.466,-1.34 l -0.052,0 c -0.731,0 -1.365,0.52 -1.502,1.242 -2.644,13.847 6.401,25.658 15.747,32.09 10.79,7.436 21.123,8.266 33.045,2.583 12.506,34.712 19.076,74.554 20.67,125.178 l 0.101,3.97 -3.685,-0.043 c -16.30594,1.37369 -63.03845,-0.40569 -63.03845,-0.40569 l 17.04827,63.64607 c 53.46596,3.88587 70.77401,-0.47979 124.33905,1.64038 0.389,-0.4 16.51065,-63.93677 16.51065,-63.93677 0,0 -50.78007,1.99308 -64.47652,-0.58599 l -3.18,-0.036 0.016,-4.327 c 0.498,-50.646 6.208,-90.616 17.962,-125.595 12.044,5.419 22.362,4.367 32.978,-3.296 9.204,-6.637 17.989,-18.642 15.046,-32.424 -0.159,-0.734 -0.731,-1.251 -1.582,-1.208 -0.75,0.04 -1.361,0.624 -1.438,1.371 -1.053,10.284 -3.938,14.437 -9.183,13.09 -3.709,-0.957 -6.949,-3.06 -10.383,-5.284 -2.833,-1.836 -5.75,-3.724 -9.006,-4.967 11.656,-17.396 26.653,-33.745 44.603,-48.626 14.713,-12.191 30.411,-21.53 47.032,-31.417 3.354,-1.995 6.717,-3.997 10.083,-6.025 11.19,-6.759 20.857,-13.231 29.551,-19.777 4.293,-3.237 8.546,-6.637 12.638,-10.107 0.679,-0.575 1.312,-1.169 1.928,-1.75 2.516,-2.368 4.4,-4.018 7.546,-3.048 1.955,0.603 3.636,1.692 5.413,2.843 2.519,1.637 5.126,3.327 8.715,3.69 4.409,0.27 8.847,-0.731 13.354,-2.98 6.989,-3.482 16.653,-12.222 14.643,-22.029 -0.146,-0.704 -0.762,-1.215 -1.481,-1.221 -0.624,-0.003 -1.349,0.486 -1.508,1.187 -0.444,1.934 -2.161,8.247 -5.674,8.247 -0.982,0 -2.114,-0.459 -3.372,-1.361 -0.4,-0.288 -1.025,-0.826 -1.809,-1.49 -2.864,-2.436 -7.35,-6.252 -11.175,-7.399 25.07,-25.679 43.097,-62.026 47.387,-95.906 0.136,-0.832 -0.405,-1.579 -1.204,-1.726 z"
         id="path635"
         inkscape:connector-curvature="0"
         sodipodi:nodetypes="ccccccccccccccccscccccccccccccccccccccccccccccccccsccccccccccccccccccccscccccccccccccccccccccccccccccccccccccccccccccccccccccccccccccccsccccccccccscccccccccscccccccccccccccccccccscccccccccccccccccccccccccccccccccsccccccccccccccccccccsccccsccccccccccccccsccccccccccccccccccccccccccccccccccsccccc" /></g></g><g
     id="g637" /><g
     id="g639" /><g
     id="g641" /><g
     id="g643" /><g
     id="g645" /><g
     id="g647" /><g
     id="g649" /><g
     id="g651" /><g
     id="g653" /><g
     id="g655" /><g
     id="g657" /><g
     id="g659" /><g
     id="g661" /><g
     id="g663" /><g
     id="g665" /></svg>