<svg xmlns="http://www.w3.org/2000/svg" width="582.545" height="582.545" viewBox="0 0 582.545 582.545"><path d="M265.063 584.344l97.757-1.006 19.392-60.757c-7.213-1.022-14.562-2.124-22.02-2.827-3.73-.398-7.479-.796-11.248-1.197-3.773-.339-7.57-.562-11.383-.854-8.734-.7-17.559-1.089-26.42-1.34-.965-16.903-6.598-33.7-14.225-49.942-5.367-11.426-11.242-22.764-16.582-34.192-2.172-4.66-7.279-11.249-5.777-16.025.961-3.045 1.628-6.12 2.262-9.192 2.885-14.049 3.675-32.583 22.251-42.913-13.833 4.651-22.466 13.779-27.432 22.402 4.826-23.99 6.071-46.702-4.229-70.258-9.605-21.986-23.384-43.525-28.109-66.191-4.453-21.359-.055-43.59 15.327-63.134 3.642-4.603 7.834-9.033 12.436-13.308 2.831-2.638 2.928-4.667 8.562-3.626 3.721.686 7.372 1.438 11.297.756 13.583-2.289 23.188-10.588 27.86-18.177-8.588 4.501-24.344 11.157-36.477 11.157 45.002-22.381 79.336-57.669 91.417-91.904 3.363-9.547 5.205-19.293 5.484-29.061.125-4.424-.404-8.853-.605-13.28-.605-13.28-3.854-7.481-3.854-7.481.23 3.675.713 7.316.641 10.988-.127 6.383-1.148 12.745-2.486 19.073-7.664-6.903-16.287-13.237-19.947-21.411 2.252 12.879 15.881 24.866 14.102 37.938-1.674 12.255-12.078 24.917-21.881 35.533-19.752 21.389-50.076 37.442-74.397 56.72-47.586 37.727-50.398 84.444-30.995 128.851-11.475-4.59-26.659-4.245-37.644-9.612 9.446 6.448 19.021 12.819 29.4 18.826 4.719 2.714 10.529 4.853 14.474 8.029 4.648 3.733 5.627 8.815 7.204 13.253 3.604 10.116 6 20.435 5.101 30.802-1.815 21.126-16.754 41.279-13.36 62.669 5.563 35.594 35.667 67.589 46.91 102.369-14.382.199-28.752.523-42.883 1.661-3.81.282-7.607.561-11.383.842z"/><path d="M346.248 323.941c2.309-1.47 4.506-3.131 6.477-5.04 3.406-3.299 6.926-8.082 6.885-13.082-9.975 12.225-28.068 10.377-41.328 16.188-10.244 4.492-18.369 13.066-23.824 22.712-.846 1.499-8.562 20.152-4.627 20.281.976.03 2.038-4.89 2.295-5.615.914-2.576 2.527-4.835 4.424-6.796 3.914-4.042 9.139-6.595 14.535-7.999 9.914-2.583 23.088-2.83 29.967-11.641 1.426-1.829 2.408-4.191 2.1-6.548-.181-1.368 2.061-1.802 3.096-2.46zM155.71 238.769c1.034.661 3.277 1.095 3.097 2.457-.312 2.356.673 4.719 2.099 6.548 6.876 8.813 20.049 9.061 29.967 11.64 5.398 1.405 10.621 3.957 14.535 7.999 1.9 1.961 3.51 4.22 4.425 6.796.257.725 1.319 5.646 2.295 5.615 3.938-.128-3.779-18.782-4.627-20.281-5.456-9.646-13.577-18.223-23.825-22.711-13.259-5.811-31.35-3.963-41.328-16.188-.04 5 3.476 9.783 6.885 13.082 1.97 1.913 4.167 3.574 6.477 5.043zm215.397-149.2c.596.104 1.67-2.821 1.891-3.244.783-1.5 1.965-2.745 3.299-3.782 2.744-2.139 6.166-3.253 9.592-3.648 6.299-.728 14.389.257 19.361-4.55 1.031-.997 1.836-2.359 1.852-3.831.006-.851 1.416-.924 2.107-1.239 1.543-.701 3.033-1.53 4.404-2.527 2.371-1.729 4.938-4.354 5.346-7.42-7.166 6.631-18.092 3.938-26.715 6.355-6.664 1.87-12.377 6.423-16.551 11.86-.654.845-6.988 11.607-4.586 12.026zm-33.232 78.254c-5.773-3.819-12.957-5.159-19.801-4.758-1.062.064-13.348 2.313-12.094 4.403.312.517 3.225-.581 3.689-.691 1.646-.389 3.361-.309 5.02.019 3.414.676 6.492 2.533 9.035 4.868 4.67 4.287 9.221 11.05 16.109 11.665 1.428.129 2.986-.153 4.105-1.107.648-.551 1.625.468 2.316.783 1.539.707 3.141 1.292 4.793 1.674 2.857.664 6.523.887 9.109-.814-9.699-1.079-14.812-11.1-22.281-16.042zm-1.9-155.715c.588.48 1.934.912 1.723 1.735-.363 1.426.068 2.947.811 4.177 3.58 5.915 11.656 7.029 17.559 9.339 3.213 1.258 6.236 3.207 8.346 5.977 1.023 1.343 1.848 2.849 2.221 4.498.104.465.398 3.565 1 3.617 2.43.208-.951-11.815-1.361-12.797-2.646-6.325-7.01-12.185-12.977-15.691C345.574 8.424 334.322 8.241 329.086 0c-.391 3.069 1.424 6.264 3.275 8.541 1.075 1.313 2.303 2.497 3.614 3.567zm-24.834 67.434c-.311 6.909 5.785 12.322 9.408 17.521 1.975 2.831 3.402 6.129 3.617 9.605.104 1.686-.045 3.396-.652 4.976-.17.443-1.648 3.185-1.178 3.564 1.904 1.521 5.775-10.352 5.98-11.396 1.312-6.729.941-14.027-2.072-20.257-3.898-8.063-13.148-14.468-12.926-24.226-2.031 2.334-2.299 5.998-2.023 8.92.16 1.689.527 3.354 1.02 4.973.221.725 1.102 1.833.469 2.399-1.091.98-1.577 2.485-1.643 3.921zM150.627 372.09c2.76 2.011 5.762 3.679 8.865 5.092 1.393.634 4.232.78 4.244 2.494.024 2.962 1.649 5.704 3.724 7.711 10.012 9.676 26.304 7.696 38.981 9.162 6.9.795 13.785 3.038 19.314 7.344 2.684 2.09 5.062 4.596 6.637 7.616.444.851 2.607 6.735 3.807 6.53 4.835-.845-7.919-22.513-9.223-24.214-8.403-10.952-19.908-20.119-33.327-23.883-17.362-4.866-39.357.551-53.786-12.797.82 6.181 5.988 11.469 10.764 14.945z"/></svg>