<?xml version="1.0" encoding="UTF-8" standalone="no"?>
<!-- Generator: Adobe Illustrator 16.0.0, SVG Export Plug-In . SVG Version: 6.00 Build 0)  -->

<svg
   xmlns:dc="http://purl.org/dc/elements/1.1/"
   xmlns:cc="http://creativecommons.org/ns#"
   xmlns:rdf="http://www.w3.org/1999/02/22-rdf-syntax-ns#"
   xmlns:svg="http://www.w3.org/2000/svg"
   xmlns="http://www.w3.org/2000/svg"
   xmlns:sodipodi="http://sodipodi.sourceforge.net/DTD/sodipodi-0.dtd"
   xmlns:inkscape="http://www.inkscape.org/namespaces/inkscape"
   version="1.1"
   id="Capa_1"
   x="0px"
   y="0px"
   width="548.467px"
   height="548.467px"
   viewBox="0 0 548.467 548.467"
   style="enable-background:new 0 0 548.467 548.467;"
   xml:space="preserve"
   inkscape:version="0.91 r13725"
   sodipodi:docname="plant-on-ground.svg"><metadata
     id="metadata57"><rdf:RDF><cc:Work
         rdf:about=""><dc:format>image/svg+xml</dc:format><dc:type
           rdf:resource="http://purl.org/dc/dcmitype/StillImage" /></cc:Work></rdf:RDF></metadata><defs
     id="defs55" /><sodipodi:namedview
     pagecolor="#ffffff"
     bordercolor="#666666"
     borderopacity="1"
     objecttolerance="10"
     gridtolerance="10"
     guidetolerance="10"
     inkscape:pageopacity="0"
     inkscape:pageshadow="2"
     inkscape:window-width="640"
     inkscape:window-height="507"
     id="namedview53"
     showgrid="false"
     inkscape:zoom="1.2170446"
     inkscape:cx="258.95981"
     inkscape:cy="38.71074"
     inkscape:window-x="0"
     inkscape:window-y="25"
     inkscape:window-maximized="0"
     inkscape:current-layer="Capa_1" /><g
     id="g3"><g
       id="g5"><path
         d="M383.698,310.82c-6.307-2.616-13.035-4.391-19.838-5.174c5.074-10.016-3.861-8.69-9.657-6.139    c-3.666,1.612-7.261,3.62-10.697,5.915c3.277-9.376-6.126-4.535-10.056-2.044c-5.208,3.305-9.755,7.772-14.256,12.305    c-6.24,6.285-8.495,12.013-8.685,16.734c4.728-4.819,23.739-14.59,37.179-9.944c0,0-28.801,6.955-33.596,20.224    c3.477,3.705,7.273,1.196,11.723,0.125c5.254-1.264,10.563-1.371,15.692-0.832c15.089,1.575,32.938,8.782,48.259-1.408    c3.18-2.117,6.132-5.343,7.344-9.309c0.701-2.295,4.009-1.701,5.854-2.163c4.116-1.028,8.217-2.43,12.176-4.357    c6.854-3.335,14.881-8.987,18.284-17.051C417.166,318.039,400.271,313.254,383.698,310.82z"
         id="path7" /><path
         d="M64.532,326.531c6.353,3.093,12.925,5.336,19.522,6.988c2.959,0.741,8.262-0.211,9.385,3.471    c1.943,6.361,6.677,11.533,11.775,14.927c24.565,16.337,53.186,4.782,77.384,2.255c8.222-0.86,16.735-0.691,25.159,1.334    c7.133,1.717,13.222,5.74,18.798-0.202c-7.687-21.272-53.869-32.427-53.869-32.427c21.552-7.448,52.036,8.22,59.618,15.946    c-0.303-7.571-3.917-16.757-13.923-26.834c-7.219-7.271-14.514-14.431-22.861-19.73c-6.301-3.99-21.377-11.757-16.12,3.277    c-5.511-3.682-11.276-6.9-17.154-9.483c-9.293-4.094-23.624-6.218-15.487,9.845c-10.903,1.254-21.695,4.104-31.809,8.299    c-26.57,3.898-53.663,11.572-79.729-4.997C40.669,312.118,53.54,321.182,64.532,326.531z"
         id="path9" /><path
         d="M463.454,133.653c-6.016-3.228-12.536-5.664-19.226-7.114c6.04-9.465-2.98-9.03-9.003-7.066    c-3.81,1.243-7.585,2.883-11.232,4.826c4.191-9.005-5.646-5.119-9.802-3.029c-5.508,2.772-10.478,6.766-15.407,10.83    c-6.833,5.636-9.642,11.114-10.3,15.792c5.184-4.327,25.067-12.164,37.983-6.209c0,0-29.351,4.067-35.435,16.793    c3.091,4.033,7.121,1.913,11.652,1.288c5.353-0.737,10.646-0.315,15.695,0.729c14.859,3.066,31.906,12.004,48.161,3.384    c3.372-1.79,6.631-4.709,8.231-8.534c0.924-2.215,4.155-1.294,6.037-1.573c4.198-0.615,8.415-1.604,12.55-3.13    c7.15-2.641,15.697-7.47,19.884-15.153C496.04,144.152,479.703,137.717,463.454,133.653z"
         id="path11" /><path
         d="M377.07,66.85c0,0-23.577,4.706-27.892,15.309c2.699,3.118,5.86,1.206,9.498,0.48c4.3-0.854,8.608-0.768,12.748-0.168    c12.182,1.769,26.42,8.189,39.171,0.422c2.647-1.612,5.145-4.134,6.255-7.311c0.643-1.839,3.305-1.248,4.816-1.563    c3.369-0.701,6.738-1.704,10.013-3.14c5.664-2.481,12.356-6.805,15.376-13.231c-13.513,7.852-27.06,3.424-40.413,0.918    c-5.027-2.325-10.429-3.984-15.915-4.838c4.437-7.956-2.849-7.172-7.632-5.291c-3.023,1.187-6.004,2.699-8.864,4.449    c2.962-7.497-4.82-3.874-8.085-1.983c-4.33,2.509-8.161,5.985-11.958,9.514c-5.264,4.893-7.277,9.464-7.583,13.287    C350.596,69.956,366.324,62.648,377.07,66.85z"
         id="path13" /><path
         d="M175.466,161.355c-9.354-0.128-19.095,1.013-27.143-6.129c1.163,4.746,5.086,8.577,8.571,11.025    c2.014,1.414,4.149,2.552,6.328,3.482c0.976,0.419,2.852,0.382,3.036,1.713c0.318,2.295,1.658,4.336,3.222,5.787    c7.546,6.977,18.026,4.587,26.487,5.055c2.876,0.159,5.795,0.688,8.577,1.851c2.359,0.985,4.229,2.705,6.475,0.97    c-1.466-7.742-16.732-14.131-16.732-14.131c7.825-1.371,17.442,5.704,19.621,8.782c0.315-2.619-0.419-5.979-3.305-10    c-2.081-2.901-4.192-5.765-6.771-8.051c-1.946-1.72-6.702-5.227-5.726,0.236c-1.692-1.57-3.498-2.996-5.376-4.21    c-2.971-1.922-7.778-3.446-5.872,2.527C183.045,160.088,179.174,160.471,175.466,161.355z"
         id="path15" /><path
         d="M67.081,187.028c2.623,6.598,9.036,11.322,14.538,14.146c3.179,1.634,6.481,2.84,9.801,3.746    c1.49,0.407,4.183-0.019,4.709,1.857c0.915,3.237,3.253,5.906,5.796,7.677c12.252,8.531,26.857,2.993,39.125,1.974    c4.168-0.346,8.476-0.171,12.714,0.946c3.589,0.945,6.628,3.048,9.51,0.101c-3.66-10.845-26.903-16.986-26.903-16.986    c10.982-3.537,26.236,4.716,29.991,8.709c-0.07-3.834-1.802-8.519-6.756-13.724c-3.574-3.755-7.188-7.458-11.356-10.227    c-3.146-2.087-10.688-6.178-8.191,1.484c-2.748-1.921-5.63-3.611-8.577-4.981c-4.658-2.169-11.885-3.4-7.941,4.813    c-5.529,0.517-11.019,1.842-16.181,3.855C93.88,192.102,80.088,195.694,67.081,187.028z"
         id="path17" /><path
         d="M74.541,28.845c2.748,0.422,5.48,0.499,8.155,0.352c1.199-0.067,3.081-1.043,3.932,0.211    c1.472,2.164,3.855,3.559,6.166,4.238c11.142,3.277,20.551-4.403,29.355-8.176c2.989-1.282,6.211-2.212,9.614-2.433    c2.879-0.187,5.64,0.618,7.044-2.268c-5.37-7.103-24.033-5.909-24.033-5.909c7.234-5.312,20.521-2.978,24.272-0.958    c-0.998-2.809-3.427-5.841-8.363-8.464c-3.562-1.891-7.139-3.733-10.896-4.752c-2.834-0.765-9.407-1.928-5.68,3.112    c-2.5-0.741-5.043-1.279-7.555-1.563c-3.972-0.456-9.605,0.416-4.672,5.505c-3.954,1.744-7.678,4.073-10.992,6.827    c-9.535,4.565-18.825,10.609-30.554,7.417C63.889,26.21,69.786,28.117,74.541,28.845z"
         id="path19" /><path
         d="m 134.832,14.842 c -0.435,-0.138 -0.9,0.104 -1.038,0.539 -0.128,0.404 0.07,0.832 0.447,1 0,0 3.498,1.582 9.321,5.016 2.913,1.695 6.38,3.88 10.297,6.441 3.883,2.623 8.204,5.661 12.717,9.217 4.504,3.565 9.281,7.546 14.021,12.075 4.792,4.465 9.59,9.419 14.281,14.747 2.292,2.714 4.667,5.425 6.842,8.351 1.095,1.453 2.273,2.858 3.332,4.36 1.068,1.493 2.139,2.996 3.216,4.504 1.107,1.481 2.083,3.069 3.09,4.633 1.001,1.567 2.004,3.14 3.011,4.715 l 2.785,4.869 c 0.945,1.613 1.863,3.241 2.671,4.933 1.658,3.354 3.406,6.652 4.737,10.135 0.704,1.72 1.444,3.415 2.114,5.135 0.603,1.744 1.206,3.482 1.802,5.214 1.294,3.421 2.167,6.955 3.222,10.367 1.09,3.399 1.857,6.851 2.767,10.196 1.08,3.302 1.585,6.692 2.497,9.915 0.899,3.228 1.456,6.459 2.148,9.59 0.331,1.567 0.661,3.115 1.016,4.636 0.303,1.53 0.514,3.054 0.771,4.547 0.511,2.986 1.102,5.875 1.521,8.675 0.664,5.609 1.683,10.78 2.078,15.422 0.278,2.329 0.539,4.507 0.777,6.524 0.15,0.952 0.257,1.857 0.349,2.735 0.073,1.986 0.3,3.938 0.474,5.875 0.006,0.073 0.019,0.144 0.024,0.217 -0.743,-0.885 -1.496,-1.748 -2.255,-2.58 -3.112,-3.528 -6.261,-6.649 -9.226,-9.44 -2.968,-2.791 -5.863,-5.144 -8.433,-7.191 -2.601,-2.02 -4.909,-3.708 -6.888,-5 -3.902,-2.619 -6.316,-3.889 -6.316,-3.889 l -0.015,-0.009 c -0.487,-0.257 -1.086,-0.067 -1.344,0.416 -0.223,0.422 -0.11,0.937 0.245,1.227 0,0 1.995,1.656 5.196,4.951 1.601,1.631 3.476,3.681 5.578,6.05 2.075,2.399 4.33,5.168 6.665,8.259 2.325,3.1 4.749,6.512 7.05,10.27 2.344,3.724 4.617,7.748 6.741,11.992 1.022,2.146 2.093,4.296 2.999,6.555 0.976,2.225 1.867,4.504 2.742,6.802 0.894,2.292 1.594,4.673 2.381,7.014 0.615,2.405 1.401,4.755 1.885,7.185 0.493,2.426 1.086,4.816 1.316,7.276 0.058,0.465 0.116,4.373 0.174,9.079 -1.099,-1.604 -2.203,-3.188 -3.277,-4.66 -2.692,-3.685 -5.382,-6.885 -7.788,-9.682 -2.445,-2.769 -4.633,-5.119 -6.536,-6.961 -3.745,-3.718 -6.132,-5.624 -6.132,-5.624 l -0.012,-0.009 c -0.318,-0.254 -0.78,-0.248 -1.092,0.037 -0.343,0.312 -0.367,0.845 -0.052,1.188 0,0 1.983,2.169 5.046,6.355 3.06,4.165 7.23,10.27 11.459,17.983 2.968,5.367 5.924,11.57 8.604,18.302 0.013,0.566 0.028,0.988 0.04,1.114 0.073,1.218 0.147,2.43 0.22,3.639 0.315,4.812 0.285,9.525 0.416,14.061 0.175,2.264 0.08,4.504 0.229,6.695 0.123,1.643 0.159,3.259 0.205,4.859 l -1.554,-3.798 c -0.82,-2.146 -1.775,-4.235 -2.763,-6.304 -0.97,-2.074 -1.937,-4.146 -2.901,-6.215 -1.062,-2.017 -2.121,-4.03 -3.176,-6.037 -1.065,-1.998 -2.087,-4.009 -3.277,-5.921 -2.289,-3.865 -4.52,-7.712 -7.06,-11.301 -2.387,-3.682 -5.018,-7.121 -7.543,-10.533 -5.208,-6.708 -10.435,-13.002 -15.841,-18.534 -5.309,-5.615 -10.667,-10.569 -15.704,-14.991 -5.043,-4.418 -9.927,-8.149 -14.275,-11.386 -4.394,-3.188 -8.287,-5.857 -11.606,-7.889 -6.567,-4.134 -10.597,-6.102 -10.597,-6.102 l -0.021,-0.009 c -0.529,-0.26 -1.181,-0.101 -1.53,0.398 -0.382,0.551 -0.248,1.307 0.303,1.689 0,0 3.546,2.469 9.299,7.473 2.882,2.476 6.273,5.612 10.083,9.259 3.767,3.7 7.895,7.98 12.188,12.812 4.275,4.844 8.767,10.202 13.103,16.15 4.409,5.888 8.718,12.319 12.828,19.138 1.986,3.451 4.063,6.912 5.878,10.575 0.918,1.823 1.934,3.602 2.806,5.465 0.881,1.857 1.769,3.721 2.656,5.594 0.93,1.852 1.689,3.788 2.494,5.707 0.792,1.922 1.588,3.85 2.387,5.777 0.701,1.965 1.405,3.932 2.105,5.902 0.722,1.962 1.414,3.93 1.968,5.949 1.153,4.018 2.438,7.978 3.185,12.074 0.426,2.032 0.894,4.039 1.282,6.06 0.306,2.034 0.612,4.066 0.915,6.086 0.398,2.188 0.643,4.388 0.863,6.576 -0.146,-0.08 -0.288,-0.181 -0.438,-0.257 -0.759,-0.42 -1.502,-0.83 -2.234,-1.23 -0.771,-0.318 -1.527,-0.631 -2.261,-0.934 -1.457,-0.603 -2.809,-1.156 -4.155,-1.429 -1.319,-0.327 -2.491,-0.658 -3.543,-0.875 -1.074,-0.123 -2.011,-0.229 -2.779,-0.315 -1.508,-0.165 -2.372,-0.26 -2.372,-0.26 0,0 0.787,0.37 2.164,1.019 0.673,0.318 1.487,0.707 2.424,1.153 0.893,0.529 1.857,1.203 2.904,1.879 1.074,0.625 2.096,1.53 3.155,2.47 0.523,0.459 1.062,0.934 1.613,1.417 0.489,0.548 0.991,1.107 1.502,1.677 1.049,1.071 1.967,2.341 2.852,3.632 0.915,1.163 1.607,2.562 2.362,3.85 0.135,1.796 0.26,3.583 0.453,5.343 0.517,3.822 0.557,7.632 0.952,11.337 0.425,3.706 0.551,7.359 0.786,10.928 0.107,1.784 0.217,3.547 0.374,5.288 0.092,1.741 0.083,3.457 0.128,5.152 0.104,3.391 0.303,6.684 0.352,9.859 -0.034,3.167 0.019,6.23 0.061,9.159 0,1.462 0.129,29.415 0.077,30.802 -0.046,1.386 -0.073,2.738 -0.08,4.058 -0.083,3.524 -0.003,6.774 0.003,9.709 -0.226,1.909 -0.355,3.816 -0.502,5.701 -0.25,3.02 -0.067,5.991 0.074,8.893 0.089,2.906 0.551,5.716 0.988,8.439 0,0 -39.46046,-2.75273 -51.3043,-3.59988 l 13.52625,66.25088 96.13452,0 15.50044,-65.40996 c -15.37358,-2.2191 -52.19391,1.25396 -52.19391,1.25396 0.098,-2.387 0.107,-4.826 0.294,-7.301 0.168,-2.476 0.064,-5.007 0.267,-7.559 0.152,-5.119 0.122,-10.438 0.483,-15.872 0.082,-1.365 0.168,-2.732 0.251,-4.106 0.141,-1.368 0.346,-29.238 0.517,-30.615 0.264,-2.775 0.937,-5.472 1.493,-8.213 0.548,-2.745 1.438,-5.398 2.136,-8.112 0.891,-2.645 1.687,-5.331 2.696,-7.916 0.988,-2.596 1.998,-5.169 3.103,-7.678 1.025,-2.549 2.24,-4.976 3.394,-7.396 2.402,-4.789 4.973,-9.33 7.626,-13.531 2.601,-4.238 5.343,-8.088 7.968,-11.585 2.641,-3.488 5.187,-6.612 7.534,-9.317 2.374,-2.672 4.495,-4.982 6.307,-6.824 3.613,-3.715 5.869,-5.581 5.869,-5.581 0.4,-0.331 0.529,-0.909 0.278,-1.387 -0.288,-0.551 -0.967,-0.762 -1.518,-0.471 l -0.019,0.009 c 0,0 -2.727,1.429 -7.136,4.385 -2.234,1.454 -4.841,3.36 -7.782,5.637 -2.903,2.311 -6.175,4.967 -9.531,8.112 -3.351,3.146 -6.91,6.668 -10.426,10.648 -0.859,0.939 -1.707,1.913 -2.549,2.91 0.006,-0.082 0.021,-0.162 0.027,-0.245 0.199,-2.185 0.456,-4.391 0.542,-6.631 0.104,-0.991 0.229,-2.017 0.397,-3.087 0.272,-2.274 0.569,-4.734 0.885,-7.366 0.449,-5.241 1.606,-11.08 2.362,-17.411 0.474,-3.161 1.145,-6.42 1.726,-9.792 0.291,-1.686 0.532,-3.405 0.875,-5.132 0.404,-1.72 0.777,-3.464 1.15,-5.232 0.784,-3.531 1.417,-7.182 2.437,-10.823 1.031,-3.635 1.604,-7.466 2.827,-11.19 1.028,-3.772 1.9,-7.671 3.134,-11.509 1.193,-3.85 2.182,-7.84 3.647,-11.701 0.679,-1.955 1.358,-3.917 2.041,-5.887 0.759,-1.94 1.594,-3.853 2.393,-5.793 1.506,-3.929 3.482,-7.65 5.358,-11.435 0.911,-1.906 1.952,-3.746 3.02,-5.566 l 3.149,-5.496 c 1.138,-1.778 2.273,-3.549 3.402,-5.318 1.142,-1.766 2.243,-3.552 3.494,-5.226 1.218,-1.702 2.43,-3.397 3.636,-5.083 1.199,-1.695 2.527,-3.277 3.767,-4.92 2.46,-3.302 5.144,-6.358 7.732,-9.422 5.3,-6.013 10.723,-11.6 16.139,-16.634 5.355,-5.107 10.753,-9.596 15.842,-13.62 5.101,-4.012 9.979,-7.439 14.366,-10.395 4.429,-2.889 8.342,-5.352 11.632,-7.261 6.575,-3.871 10.529,-5.652 10.529,-5.652 0.425,-0.19 0.648,-0.676 0.505,-1.129 -0.156,-0.493 -0.68,-0.765 -1.169,-0.609 l -0.019,0.006 c 0,0 -4.257,1.34 -11.337,4.446 -3.571,1.508 -7.8,3.571 -12.592,6.065 -4.762,2.546 -10.093,5.529 -15.731,9.1 -5.628,3.581 -11.646,7.629 -17.715,12.335 -6.153,4.608 -12.24,9.997 -18.363,15.78 -2.992,2.962 -6.092,5.934 -8.99,9.177 -1.459,1.612 -3.014,3.164 -4.403,4.872 -1.407,1.695 -2.821,3.399 -4.241,5.11 -1.456,1.686 -2.766,3.498 -4.115,5.288 -1.341,1.799 -2.687,3.605 -4.036,5.417 l -3.792,5.63 c -1.282,1.873 -2.539,3.764 -3.669,5.737 l -3.527,5.838 c -0.606,0.964 -1.151,1.962 -1.674,2.972 l -1.635,2.989 c -1.083,2.001 -2.163,3.997 -3.243,5.989 -0.977,2.044 -1.952,4.082 -2.923,6.111 -2.031,4.033 -3.684,8.188 -5.271,12.322 -1.313,3.051 -2.229,6.193 -3.144,9.303 0.028,-7.699 0.083,-17.871 0.083,-18.688 0.043,-2.595 0.089,-5.306 0.062,-8.112 0.046,-2.812 0.223,-5.731 0.318,-8.733 0.042,-1.5 0.033,-3.021 0.119,-4.562 0.138,-1.542 0.238,-3.103 0.333,-4.682 0.212,-3.161 0.328,-6.395 0.707,-9.676 0.353,-3.283 0.392,-6.655 0.851,-10.04 0.374,-3.394 0.486,-6.882 0.955,-10.371 0.438,-3.491 0.637,-7.087 1.282,-10.636 0.272,-1.79 0.541,-3.589 0.816,-5.392 0.347,-1.79 0.763,-3.568 1.142,-5.367 0.664,-3.626 1.806,-7.136 2.831,-10.691 0.492,-1.787 1.107,-3.531 1.747,-5.267 0.624,-1.744 1.248,-3.488 1.869,-5.226 0.707,-1.71 1.414,-3.415 2.121,-5.117 0.713,-1.701 1.386,-3.415 2.212,-5.055 0.79,-1.659 1.576,-3.311 2.356,-4.954 0.777,-1.649 1.677,-3.226 2.491,-4.838 1.609,-3.241 3.451,-6.304 5.214,-9.361 3.647,-6.034 7.467,-11.729 11.377,-16.94 3.847,-5.267 7.828,-10.006 11.619,-14.296 3.807,-4.278 7.467,-8.066 10.805,-11.337 3.375,-3.229 6.38,-6.004 8.938,-8.191 5.101,-4.428 8.243,-6.613 8.243,-6.613 0.487,-0.34 0.609,-1.01 0.27,-1.497 -0.306,-0.44 -0.885,-0.581 -1.353,-0.354 l -0.019,0.009 c 0,0 -3.57,1.738 -9.391,5.395 -2.944,1.796 -6.393,4.159 -10.288,6.977 -3.853,2.867 -8.183,6.166 -12.653,10.077 -4.464,3.914 -9.213,8.296 -13.92,13.265 -4.795,4.896 -9.431,10.468 -14.048,16.405 -2.24,3.02 -4.572,6.065 -6.692,9.324 -2.252,3.176 -4.232,6.582 -6.261,10.003 -1.053,1.692 -1.962,3.47 -2.907,5.242 -0.937,1.778 -1.879,3.559 -2.818,5.346 -0.856,1.83 -1.717,3.666 -2.576,5.502 -0.875,1.833 -1.726,3.681 -2.451,5.581 l -2.319,5.655 c -0.404,0.936 -0.75,1.894 -1.074,2.861 l -1.047,2.87 c -0.691,1.922 -1.38,3.837 -2.068,5.747 -0.594,1.943 -1.188,3.883 -1.774,5.814 -0.398,1.221 -0.753,2.448 -1.093,3.675 -0.046,-0.618 -0.089,-1.233 -0.135,-1.851 -0.015,-1.239 -0.033,-2.482 -0.049,-3.727 -0.104,-2.503 0.129,-5 0.272,-7.512 0.125,-2.516 0.566,-4.997 0.826,-7.5 0.443,-2.469 0.796,-4.963 1.35,-7.393 0.538,-2.436 1.086,-4.854 1.747,-7.219 0.581,-2.39 1.344,-4.697 2.057,-6.989 3.014,-9.104 6.793,-17.359 10.565,-24.165 3.752,-6.83 7.451,-12.234 10.166,-15.918 2.717,-3.706 4.477,-5.625 4.477,-5.625 0.278,-0.303 0.257,-0.774 -0.046,-1.053 -0.275,-0.251 -0.686,-0.257 -0.967,-0.034 l -0.013,0.009 c 0,0 -2.114,1.686 -5.435,4.976 -1.686,1.631 -3.626,3.708 -5.796,6.16 -2.133,2.476 -4.516,5.309 -6.906,8.571 -2.384,3.262 -4.887,6.876 -7.273,10.878 -2.457,3.966 -4.706,8.354 -6.891,12.984 -1.111,2.433 -2.188,4.948 -3.192,7.527 -0.006,-0.067 -0.015,-0.134 -0.021,-0.202 -0.165,-1.781 -0.6,-3.543 -0.896,-5.346 -0.321,-1.803 -0.661,-3.623 -1.065,-5.447 -0.343,-1.836 -0.857,-3.656 -1.365,-5.489 -1.138,-3.635 -2.06,-7.402 -3.611,-11.016 -1.404,-3.663 -2.867,-7.344 -4.66,-10.918 -0.86,-1.799 -1.72,-3.605 -2.586,-5.417 -0.955,-1.766 -1.909,-3.534 -2.867,-5.306 l -1.444,-2.65 c -0.462,-0.894 -0.942,-1.778 -1.481,-2.631 l -3.121,-5.174 c -0.998,-1.748 -2.112,-3.424 -3.247,-5.083 l -3.354,-4.988 c -1.193,-1.603 -2.384,-3.204 -3.571,-4.798 -1.193,-1.588 -2.354,-3.192 -3.642,-4.688 -1.258,-1.515 -2.506,-3.026 -3.751,-4.529 -1.227,-1.515 -2.604,-2.889 -3.896,-4.318 -2.564,-2.876 -5.309,-5.511 -7.956,-8.136 -5.419,-5.128 -10.805,-9.905 -16.254,-13.994 -5.374,-4.174 -10.701,-7.763 -15.683,-10.939 -4.991,-3.167 -9.709,-5.814 -13.926,-8.072 -4.244,-2.215 -7.986,-4.042 -11.147,-5.382 -6.27,-2.757 -10.04,-3.948 -10.04,-3.948 z"
         id="path21"
         inkscape:connector-curvature="0"
         sodipodi:nodetypes="ccccccccccccccccccccccccccccccccccccccccccccccccccccccccccccccccccccccccccccccccccccccccccccccccccccccccccccccccccccccccccccccccccccccccccccccccccccccccccccccccccccccccccccccccccccccccccccccccccccccccccccccccccccccccccccccccccccccccccccccccccccccccccccccccccccccccccccccccccccccccccccccc" /></g></g><g
     id="g23" /><g
     id="g25" /><g
     id="g27" /><g
     id="g29" /><g
     id="g31" /><g
     id="g33" /><g
     id="g35" /><g
     id="g37" /><g
     id="g39" /><g
     id="g41" /><g
     id="g43" /><g
     id="g45" /><g
     id="g47" /><g
     id="g49" /><g
     id="g51" /></svg>