<svg xmlns="http://www.w3.org/2000/svg" width="585.561" height="585.562" viewBox="0 0 585.561 585.562"><path d="M288.015 13.647c-2.038-4.951-9.888-.119-6.173 3.611 2.051 3.385 7.51-.364 6.173-3.611zm6.426-8.751c-2.476-3.143-7.8 1.043-4.756 3.699 2.534 2.485 7.011-.844 4.756-3.699zm-23.339 53.636c1.876-1.457-1.043-3.623-1.952-1.769-.435.881.906 3.195 1.952 1.769zm18.491-31.806c3.302 1.793 6.84-2.313 4.591-5.321-3.327-4.413-9.278 2.775-4.591 5.321zm7.804-9.605c5.146-.9 1.658-10.251-3.128-6.108-2.913 2.221-.422 7.053 3.128 6.108zm-26.182 46.031c1.408-1.038.422-3.804-1.365-3.097-2.151.392-.988 4.254 1.365 3.097zm29.992-55.493c2.94-3.008-3.216-6.154-3.963-2.463-.484 2.396 2.052 3.813 3.963 2.463zm-25.448 53.828c1.481-1.493.701-4.66-1.802-3.791-2.623 1.025-.749 4.939 1.802 3.791zm-2.282 4.924c1.821 1.215 4.373-.872 2.974-2.843-1.704-2.738-5.352 1.258-2.974 2.843zm7.588-1.683c2.345-1.86-.945-4.969-2.662-2.94-1.49 1.762.725 4.09 2.662 2.94zm-3.886 4.278c.649 2.641 4.921.9 3.599-1.582-.991-1.931-4.33-.618-3.599 1.582zm-31.98 93.709c-1.818-2.237-4.884 1.102-2.463 2.482 1.618.921 3.357-.863 2.463-2.482zm86.467-76.408c1.619.921 3.356-.863 2.463-2.481-1.815-2.237-4.883 1.101-2.463 2.481zm-80.182 80.683c3.014-1.447-1.046-6.34-3.112-3.164-1.199 1.845 1.194 4.584 3.112 3.164zm73.294-85.166c-1.2 1.845 1.196 4.584 3.111 3.164 3.018-1.45-1.043-6.343-3.111-3.164zm-76.611 92.256c2.35 2.424 5.838-.817 4.477-3.595-2.114-3.376-7.28.706-4.477 3.595zm6.5-7.405c-1.94 2.996 1.346 6.778 4.516 4.884 4.162-3.173-2.041-8.697-4.516-4.884zm.333 12.696c2.417 3.008 7.476-.584 5.453-3.994-2.105-4.103-8.252.512-5.453 3.994zm8.682-7.188c-2.883 2.546.866 7.332 4.128 5.049 3.524-2.791-.563-8.195-4.128-5.049zm-1.561 13.384c2.524 3.011 7.209-.857 5.266-4.165-2.748-3.353-8.241.61-5.266 4.165zm53.384-93.987c-3.06-1.466-5.006 3.476-2.209 5.003 2.99.826 5.405-3.556 2.209-5.003zm4.153-1.096c2.877 1.319 5.064-3.58 2.1-4.981-2.966-.909-5.325 3.433-2.1 4.981zm-4.153 12.46c3.283 1.188 5.205-3.43 2.24-4.899-3.007-.624-5.504 3.379-2.24 4.899zm8.372-7.374c1.57-3.234-3.411-4.795-4.841-1.913-1.328 3.217 3.483 4.863 4.841 1.913zm.763-6.977c-.985 2.867 2.763 4.474 4.051 1.57 1.309-2.751-2.8-3.972-4.051-1.57zm-93.452 329.752c-2.623 1.854 1.303 5.034 2.656 2.564.823-1.509-1.099-3.69-2.656-2.564zm5.544 11.582c1.75-2.057-.783-5.178-3.173-3.923-3.51 1.236.324 7.265 3.173 3.923zm8.55 3.387c3.966-1.549-.242-7.993-3.703-4.93-2.552 2.265.698 7.336 3.703 4.93zm-5.071 9.701c2.99 3.375 8.314-.569 6.463-4.522-3.24-3.928-10.468-.001-6.463 4.522zm10.144-10.086c-4.314 3.234.303 10.08 5.086 7.586 5.239-3.119.077-11.463-5.086-7.586zM249 450.802c2.91 4.541 10.267-.238 7.809-5.049-2.356-5.633-11.041.006-7.809 5.049zm17.993-1.613c5.324-3.054.076-11.273-5.067-7.519-4.364 3.196.314 10.096 5.067 7.519zm-8.795 10.775c3.081 4.479 10.199-.092 7.739-4.976-2.996-5.248-11.328-.245-7.739 4.976z"/><path d="M265.092 188.637c5.077 1.558 11.288-3.274 16.294-2.065-1.777-1.249-3.381-2.681-4.195-4.743-1.75-4.443-1.215-8.354-5.949-11.126 2.519 3.923-2.644 9.284 1.047 12.674-.039-.044-7.197 4.55-7.197 5.26zm62.797 182.149c-2.576 1.971.175 6.466 2.926 4.755 3.054-1.894-.192-7.196-2.926-4.755zm6.816-5.278c-1.797-3.437-6.754-.251-4.719 2.794 1.946 2.589 6.221.073 4.719-2.794zm2.888 8.091c3.341-1.414.44-5.413-2.335-4.122-2.026 1.661-.159 5.174 2.335 4.122zm-11.42-6.347c-1.818-3.366-6.787-.27-4.691 2.763 1.906 2.626 6.23.095 4.691-2.763zm-5.619 6.178c-2.598 2.011.077 6.328 2.904 4.7 3.296-1.903.074-6.769-2.904-4.7zm20.08-8.116c-1.083-2.555-5.03-.152-3.28 1.714 1.007 2.081 4.079.175 3.28-1.714zm2.231 2.091c.68 2.549 4.315.272 2.733-1.304-.971-1.3-3.152-.266-2.733 1.304zm-136.5-91.537c-.799 1.888 2.273 3.794 3.283 1.713 1.748-1.863-2.203-4.268-3.283-1.713zm3.044 8.283c2.494 1.056 4.357-2.46 2.335-4.122-2.775-1.291-5.676 2.709-2.335 4.122zm2.886-8.09c-1.502 2.87 2.772 5.385 4.719 2.793 2.034-3.044-2.923-6.229-4.719-2.793zm-8.161 1.897c.417-1.567-1.762-2.604-2.732-1.304-1.583 1.576 2.056 3.853 2.732 1.304zm19.407 10.722c2.831 1.631 5.502-2.689 2.907-4.7-2.981-2.065-6.203 2.803-2.907 4.7zm-7.357-2.582c2.751 1.708 5.502-2.785 2.925-4.755-2.732-2.446-5.979 2.857-2.925 4.755zm4.645-8.293c-1.539 2.861 2.782 5.392 4.691 2.763 2.093-3.032-2.876-6.129-4.691-2.763zM206.34 158.064c1.787.523 3.069-1.61 1.827-2.98-2.283-1.76-4.501 2.194-1.827 2.98zm-3.978-.419c2.601-2.102-2.476-5.93-3.755-2.362-.746 2.068 2.213 4.186 3.755 2.362zm-11.539 14.636c3.1.12 4.44-4.7 1.001-5.376-3.314-.722-4.076 4.537-1.001 5.376zm4.789-7.393c3.103.621 4.106-4.648.896-5.331-3.093-.204-4.391 4.563-.896 5.331zm-1.181 13.078c3.47.404 4.278-4.535 1.056-5.281-3.073.083-4.581 4.553-1.056 5.281zm6.456-9.1c.783-3.507-4.422-3.883-5.15-.75-.557 3.434 4.505 3.935 5.15.75zm-.863-6.962c-.3 3.018 3.715 3.721 4.302.597.646-2.98-3.635-3.222-4.302-.597z"/><path d="M203.005 255.638c-.376-.906-1.206-1.732-2.402-2.301-2.276-1.08-5.636-1.062-8.742-.462-4.137.799-7.433 2.476-10.374 4.4-3.317 2.169-6.625 4.293-10.184 6.34 4.002.915 7.788 1.971 11.594 3.075 3.375.977 7.02 1.613 11.209 1.163 3.146-.337 6.362-1.307 8.222-3.005.866-.792 1.346-1.668 1.545-2.537a73.77 73.77 0 0 1 25.116 9.945c3.369 3.807 6.812 7.577 10.401 11.279-6.845-1.006-6.539-8.001-13.253-9.051 2.721 2.194.872 8.43 4.804 9.318-1.102.04-3.506 5.422-4.088 6.423 3.608-.337 6.095-2.212 8.295-4.954 1.089-1.355 1.907-1.741 3.645-1.249 2.938.829 5.398 5.847 7.09 8.311a152.637 152.637 0 0 1 5.309 8.313c3.369 5.634 6.814 11.595 9.208 17.742-1.748 36.258 3.957 71.301 13.333 106.005a117.28 117.28 0 0 0-25.102-24.453c-.003-.039-.009-.079-.012-.119 1.08-1.401 2.506-2.457 2.61-4.247.083-1.484-.499-3.161-1.76-4.73-2.393-2.98-6.992-5.175-11.631-6.408-6.175-1.643-11.784-1.533-17.069-.848-5.964.771-11.882 1.484-18.094 1.928 4.859 3.893 9.33 7.84 13.801 11.861 3.962 3.564 8.519 6.839 14.532 8.993 4.52 1.618 9.547 2.424 13.213 1.328 1.704-.508 2.94-1.39 3.782-2.442 12.301 9.244 22.405 20.793 29.979 34.067 2.424 8.1 5.006 16.19 7.729 24.278-9.565-6.423-4.085-16.717-13.421-23.109 2.512 5.251-4.737 13.296.532 17.448-1.686-.734-9.155 5.633-10.753 6.717 5.667 2.08 10.747 1.049 16.022-1.494 2.613-1.254 4.112-1.251 6.371.741 3.821 3.354 3.92 12.659 4.69 17.573a249.722 249.722 0 0 1 2.014 16.301c1.064 11.344 2.05 23.299 1.04 34.676-.281 3.188-1.312 7.405 1.316 9.942 0 0 .003.003.006.003-31.155.042-37.397-.44-37.397-.44s11.874 31.628 11.874 44.221l68.092-.62c0-17.45 8.405-43.002 8.405-43.002s-24.401.604-37.391.098c1.864-9.073 3.204-18.244 3.761-27.497 1.025-12.913.53-25.683-1.095-38.293 7.886-16.145 19.312-30.031 33.685-40.829.851 1.062 2.099 1.952 3.821 2.466 3.7 1.104 8.779.291 13.342-1.344 6.074-2.175 10.673-5.479 14.676-9.082 4.514-4.061 9.027-8.044 13.936-11.977-6.271-.449-12.249-1.166-18.271-1.946-5.337-.691-11.001-.802-17.237.857-4.685 1.245-9.326 3.461-11.744 6.472-1.272 1.585-1.863 3.277-1.777 4.776.104 1.809 1.542 2.877 2.634 4.29-.003.04-.009.08-.012.119-14.192 10.19-25.75 23.195-34.201 38.312-3.342-20.07-9.419-39.719-16.809-58.85a294.348 294.348 0 0 1-2.85-7.659c2.065-4.254 4.471-8.403 6.849-12.381a150.28 150.28 0 0 1 5.309-8.314c1.689-2.463 4.149-7.481 7.091-8.311 1.737-.493 2.552-.107 3.645 1.248 2.199 2.742 4.685 4.618 8.295 4.954-.584-1-2.986-6.383-4.088-6.423 3.933-.887 2.084-7.123 4.805-9.317-6.714 1.05-6.408 8.045-13.253 9.052 1.169-1.206 2.276-2.445 3.424-3.66 9.762-8.351 21.312-13.936 33.858-16.396.199.866.68 1.744 1.546 2.537 1.86 1.701 5.076 2.668 8.222 3.005 4.189.449 7.834-.184 11.209-1.163 3.807-1.102 7.595-2.16 11.595-3.075-3.559-2.047-6.867-4.171-10.184-6.34-2.941-1.925-6.236-3.602-10.374-4.4-3.105-.6-6.466-.618-8.742.462-1.199.569-2.025 1.398-2.402 2.301-.452 1.093.089 2.13.328 3.271-.013.024-.028.043-.04.067a77.093 77.093 0 0 0-25.683 9.388c17.509-20.257 31.906-42.225 42.228-67.754 6.157-15.227 11.044-61.417 11.044-61.417-.734 6.016-2.993 12.029-4.776 17.785-2.647 8.528-5.459 17.004-8.317 25.462-4.382 12.972-9.088 25.499-16.233 37.256-7.2 11.845-16.104 22.604-26.175 32.114-13.74 12.975-26.13 27.396-34.257 44.446-4.875-16.604-8.097-33.562-9.413-50.786 7.718-19.357 20.315-35.86 36.821-48.263.842 1.053 2.081 1.934 3.785 2.442 3.663 1.092 8.693.287 13.213-1.329 6.017-2.154 10.569-5.428 14.532-8.993 4.471-4.021 8.938-7.968 13.801-11.86-6.212-.444-12.13-1.157-18.094-1.928-5.285-.685-10.894-.795-17.069.848-4.639 1.233-9.234 3.427-11.631 6.408-1.261 1.57-1.845 3.247-1.76 4.731.102 1.79 1.53 2.849 2.61 4.247l-.012.12c-15.734 11.297-28.214 26.074-36.735 43.394-.175-5.661-.181-11.341.085-17.054 1.821-39.088 11.111-77.537 20.376-115.408 4.379-17.895 8.097-35.866 9.776-54.236.854-9.333 1.215-18.678.787-28.042-.037-.799-.113-1.548-.175-2.249.006-.93.064-1.848.104-2.77.343-1.046 1.282-1.579 3.629-1.264 2.708.361 5.881 1.401 8.464-.031-2.279 1.484-6.328-3.002-6.35-4.764-.006-.661-.376-8.287-.786-8.287-3.908 3.626-1.598 9.823-4.902 12.797.863-13.342 5.211-25.949 12.684-36.919.75.478 1.708.765 2.88.719 2.519-.095 5.486-1.667 7.962-3.638 3.296-2.623 5.443-5.634 7.157-8.703 1.934-3.461 3.886-6.873 6.093-10.334-3.969 1.043-7.815 1.857-11.702 2.644-3.445.694-6.967 1.821-10.471 4.159-2.632 1.756-5.037 4.103-5.896 6.472-.453 1.246-.463 2.417-.092 3.326.443 1.096 1.558 1.454 2.53 2.096l.019.077a76.852 76.852 0 0 0-13.177 31.38c-3.103-17.103-6.53-34.293-15.661-49.352-1.555-2.564-3.953-6.077-4.947-9.584 4.382-2.87 11.153-2.39 13.77-8.201-.985 2.512-10.561 1.613-13.018 1.772-3.616.242-3.497-6.469-6.823-6.227-.453 2.362-.242 4.764.523 6.983C265.992 17.696 251.75 5.955 235.422 0c28.896 14.376 48.369 42.066 56.91 72.541-4.061-2.987-5.236-9.792-9.085-11.588-.315.863.346 7.699.544 7.607-.272-.144-4.442 2.861-4.442 3.079 4.097 1.322 6.435-3.611 10.049-.511 3.222 2.76 4.29 6.289 5.036 10.331 2.262 12.158 3.143 24.483 2.88 36.843-.505 22.742-5.146 45.123-10.909 67.057-2.438-8.685-6.34-16.885-11.692-24.309.006-.024.009-.052.018-.077.97-.649 2.081-1.01 2.521-2.108.364-.909.352-2.081-.11-3.326-.873-2.365-3.287-4.7-5.927-6.444-3.516-2.319-7.044-3.427-10.493-4.106-3.889-.768-7.738-1.563-11.713-2.589 2.222 3.452 4.189 6.854 6.141 10.306 1.729 3.06 3.89 6.062 7.2 8.669 2.485 1.958 5.462 3.516 7.98 3.602 1.172.04 2.13-.251 2.876-.734a73.7 73.7 0 0 1 11.402 26.558c-.01 2.497-1.145 5.472-1.576 7.057a1076.46 1076.46 0 0 0-5.122 19.339c-6.598 25.946-12.173 52.25-15.508 78.829-8.127-16.429-20.171-30.435-33.525-43.045-10.074-9.51-18.975-20.269-26.175-32.115-7.145-11.756-11.854-24.284-16.233-37.255l-.529-1.588c.508-.257 1.16-.462 2.139-.557 2.717-.269 6.043.012 8.231-1.974-1.879 1.968-6.849-1.469-7.274-3.179-.159-.643-2.271-7.98-2.668-7.886-2.509 3.736-.291 8.234-1.044 11.75-2.457-7.32-4.883-14.651-7.169-22.026-1.787-5.756-4.042-11.772-4.776-17.785 0 0 4.887 46.19 11.043 61.417 9.657 23.883 22.846 44.67 38.84 63.838-6.462-3.13-13.335-5.392-20.526-6.64-.012-.024-.027-.043-.04-.067.22-1.146.765-2.183.309-3.276z"/></svg>