<svg xmlns="http://www.w3.org/2000/svg" width="573.841" height="573.842" viewBox="0 0 573.841 573.842"><path d="M560.773 160.215c-3.62-1.518-8.103-1.995-11.751-.303-1.817.845-4.005.566-5.948.591-2.24.027-4.395.486-6.523 1.166-2.345.747-4.624 1.71-6.821 2.809-.651.328-1.304.539-1.961.71a181.854 181.854 0 0 0 6.202-13.528c.242.062.489.098.726.19 1.606.621 3.191 1.267 4.887 1.616 2.017.416 3.969.012 5.97.251 1.436.171 2.867.823 4.296 1.104 1.741.343 3.531.609 5.31.606 2.834-.009 7.904-.328 9.088-3.565.939-2.57-2.225-4.446-4.164-5.26-3.005-1.261-6.729-1.655-9.756-.251-1.508.701-3.326.471-4.938.49-1.86.024-3.647.404-5.416.967-1.83.584-3.604 1.334-5.331 2.179 4.924-12.417 8.351-25.147 9.921-37.546a1.534 1.534 0 0 0-1.239-1.698c-.829-.135-1.576.358-1.766 1.144-3.002 12.405-7.57 24.646-13.593 36.438-1.227-2.393-3.99-4.061-6.668-5.676-2.276-1.374-4.859-2.932-4.904-4.256-.019-.52.367-1.683 3.143-3.632a1.53 1.53 0 0 0 .459-1.992 1.526 1.526 0 0 0-1.938-.667c-7.635 3.244-10.392 13.195-8.571 20.561 1.007 4.066 3.96 6.518 6.093 8.005 3.871 2.705 3.871 2.705 1.215 6.75-6.701 10.227-14.716 20.248-23.862 29.948.251-1.016.444-2.044.536-3.097.181-2.139.03-4.571 1.15-6.512 2.252-3.892 2.053-8.871.572-12.978-.955-2.65-3.28-7.02-6.962-6.003-4.639 1.282-5.565 7.986-5.845 11.747-.174 2.362.031 4.762.343 7.105.258 1.925 1.038 3.883 1.139 5.805.144 2.678-.605 5.236-.214 7.95.211 1.475.618 2.901 1.062 4.317a271.579 271.579 0 0 1-4.303 4.094c-2.539 2.35-5.128 4.593-7.735 6.796a47.161 47.161 0 0 0 1.188-4.03c.587-2.405.915-4.82.737-7.289-.156-2.142-.683-4.526.125-6.604 1.622-4.167.646-9.063-1.456-12.913-1.358-2.488-4.339-6.481-7.821-4.957-4.389 1.918-4.263 8.681-3.95 12.438.192 2.359.771 4.703 1.447 6.977.554 1.867 1.631 3.696 2.031 5.582.558 2.628.218 5.263 1.025 7.895.658 2.145 1.704 4.128 2.724 6.129a262.78 262.78 0 0 1-11.536 8.8c.379-2.035.682-4.085.799-6.147.137-2.466.018-4.896-.609-7.298-.545-2.084-1.503-4.345-1.086-6.524.832-4.37-1.022-9.033-3.798-12.479-1.793-2.225-5.459-5.667-8.61-3.592-.799.526-1.335 1.245-1.748 2.038a27.042 27.042 0 0 0-.4-1.142c-2.273-5.878-6.714-11.594-12.727-13.926-2.999-1.163-5.113-4.002-7.302-6.224-2.524-2.559-5.452-4.541-8.604-6.249-2.656-1.438-5.435-2.641-8.25-3.746 2.473-1.481 4.958-2.965 7.47-4.458 2.179-1.297 4.37-2.61 6.558-3.92 1.475 2.151 2.929 4.306 4.749 6.19 2.332 2.417 5.331 3.675 7.807 5.835 1.774 1.552 3.1 3.749 4.764 5.444 2.029 2.065 4.189 4.073 6.589 5.704 3.818 2.598 10.939 6.839 15.514 3.574 3.633-2.592 1.102-8.029-.759-10.915-2.882-4.464-7.53-8.424-12.897-9.324-2.678-.447-4.908-2.43-7.097-3.889-2.521-1.68-5.281-2.818-8.179-3.688-2.057-.618-4.159-1.077-6.273-1.475a400.502 400.502 0 0 0 13.914-8.816c1.787 1.824 3.559 3.644 5.637 5.153 2.714 1.974 5.887 2.69 8.702 4.391 2.017 1.218 3.703 3.152 5.64 4.532 2.356 1.68 4.835 3.283 7.479 4.474 4.214 1.895 11.962 4.835 15.9.823 3.124-3.182-.312-8.1-2.647-10.615-3.617-3.895-8.88-6.989-14.32-6.937-2.715.025-5.258-1.539-7.666-2.598-2.778-1.218-5.691-1.857-8.696-2.209a60.154 60.154 0 0 0-5.092-.367c3.477-2.399 6.849-4.792 10.034-7.191 1.502-1.132 2.986-2.304 4.471-3.47.122.083.263.135.382.227 2.243 1.689 4.443 3.412 6.943 4.712 2.978 1.551 6.221 1.79 9.254 3.054 2.172.905 4.131 2.57 6.248 3.647 2.58 1.312 5.267 2.53 8.061 3.317 4.445 1.251 12.546 3.011 15.844-1.539 2.62-3.611-1.505-7.965-4.186-10.107-4.152-3.317-9.816-5.597-15.189-4.743-2.681.425-5.426-.747-7.966-1.436-2.929-.792-5.902-.994-8.926-.899-2.185.07-4.36.309-6.527.612 1.42-1.157 2.846-2.31 4.229-3.482a50.777 50.777 0 0 0 1.934-1.754c2.516-2.362 4.409-4.005 7.54-3.044 1.955.603 3.635 1.695 5.413 2.849 2.519 1.634 5.129 3.326 8.715 3.687 4.428.272 8.85-.731 13.357-2.983 6.985-3.479 16.648-12.219 14.642-22.026a1.532 1.532 0 0 0-1.481-1.221c-.682.064-1.349.487-1.508 1.19-.444 1.934-2.16 8.244-5.677 8.244-.979 0-2.114-.456-3.372-1.358-.397-.291-1.025-.826-1.806-1.49-2.864-2.436-7.35-6.255-11.178-7.402 4.177-4.278 8.14-8.877 11.895-13.688 1.267-.006 2.524.162 3.705.634 2.185.872 4.343 1.781 6.649 2.283 2.748.6 5.423.08 8.155.435 1.958.254 3.904 1.168 5.854 1.576 2.375.496 4.813.888 7.246.909 3.871.034 10.805-.327 12.473-4.73 1.325-3.498-2.972-6.108-5.609-7.252-4.085-1.769-9.167-2.365-13.326-.493-2.071.934-4.55.591-6.753.594-2.54.003-4.991.496-7.415 1.236-2.668.817-5.266 1.882-7.775 3.1-.845.41-1.677.67-2.53.857 4.976-6.457 9.532-13.326 13.62-20.465 1.12.138 2.212.428 3.2.976 1.846 1.019 3.66 2.072 5.655 2.775 2.375.842 4.811.68 7.2 1.301 1.711.447 3.339 1.478 5.024 2.056 2.057.707 4.18 1.331 6.337 1.622 3.437.465 9.643.924 11.619-2.803 1.57-2.959-1.955-5.762-4.171-7.075-3.433-2.032-7.882-3.133-11.79-1.934-1.946.597-4.112.016-6.071-.232-2.258-.281-4.491-.119-6.729.266-2.463.429-4.893 1.081-7.262 1.882-.896.303-1.763.444-2.644.505a184.916 184.916 0 0 0 5.924-11.334c1.781-.508 3.73-.835 5.526-.275 1.698.526 3.379 1.083 5.147 1.325 2.105.288 4.091-.263 6.169-.159 1.49.077 3.011.649 4.504.839 1.818.232 3.682.382 5.515.254 2.916-.205 8.121-.888 9.115-4.306.79-2.711-2.601-4.425-4.657-5.128-3.186-1.089-7.047-1.236-10.067.422-1.506.826-3.394.716-5.052.848-1.913.153-3.73.67-5.511 1.374-1.962.774-3.856 1.732-5.674 2.797-1.304.765-2.61 1.043-4.098 1.294a9.036 9.036 0 0 1-.605.07c7.451-15.719 12.573-32.261 14.6-48.265a1.535 1.535 0 0 0-1.239-1.698c-.823-.131-1.576.358-1.766 1.145-3.002 12.405-7.574 24.645-13.593 36.438-1.23-2.393-3.993-4.061-6.671-5.676-2.276-1.371-4.856-2.929-4.902-4.253-.019-.521.367-1.683 3.143-3.632.64-.447.839-1.31.459-1.992a1.524 1.524 0 0 0-1.937-.667c-7.632 3.241-10.392 13.195-8.571 20.56 1.007 4.064 3.96 6.515 6.093 8.002 3.871 2.705 3.871 2.705 1.215 6.753-3.237 4.939-6.8 9.826-10.621 14.657.07-.309.152-.618.269-.933.716-1.983 1.31-4.018 1.714-6.089.367-1.882.542-3.761.343-5.67-.175-1.656-.627-3.492-.092-5.123 1.077-3.274.227-7.044-1.426-9.976-1.068-1.891-3.372-4.912-5.894-3.642-3.177 1.604-2.898 6.842-2.564 9.749.208 1.824.697 3.626 1.258 5.374.459 1.432 1.304 2.824 1.649 4.275.483 2.022.306 4.076.973 6.092.561 1.695 1.414 3.244 2.243 4.816.367.695.56 1.447.68 2.219a230.731 230.731 0 0 1-9.937 11.585c-.149-1.019-.205-2.025-.049-3.115.355-2.472.551-4.981.523-7.481-.027-2.271-.278-4.495-.967-6.665-.6-1.882-1.57-3.902-1.341-5.924.466-4.061-1.432-8.231-4.058-11.236-1.694-1.94-5.098-4.89-7.717-2.806-3.302 2.625-1.717 8.642-.631 11.934.683 2.068 1.684 4.042 2.755 5.934.878 1.551 2.19 2.965 2.943 4.565 1.05 2.234 1.334 4.657 2.595 6.839 1.059 1.833 2.424 3.427 3.764 5.052.826 1.003 1.331 2.2 1.671 3.452a259.496 259.496 0 0 1-14.458 14.492c-1.084 1.003-2.204 1.925-3.299 2.897-.019-1.123.063-2.225.382-3.381.738-2.69 1.307-5.438 1.625-8.21.288-2.519.321-5.019-.138-7.516-.4-2.167-1.19-4.541-.651-6.747 1.08-4.431-.435-9.315-2.923-13.011-1.606-2.384-4.96-6.129-8.154-4.189-4.024 2.445-3.109 9.327-2.368 13.127.465 2.387 1.297 4.713 2.218 6.956.756 1.842 2.011 3.589 2.62 5.465.847 2.619.826 5.343 1.918 7.938.915 2.179 2.203 4.134 3.461 6.12.769 1.215 1.16 2.598 1.365 4.018-4.092 3.611-8.253 7.075-12.51 10.349.165-3.069.165-6.157-.11-9.22-.272-2.993-.835-5.903-1.971-8.69-.988-2.417-2.476-4.985-2.384-7.678.19-5.404-2.747-10.71-6.523-14.4-2.438-2.384-7.234-5.921-10.475-2.898-4.082 3.807-1.364 11.576.41 15.812 1.114 2.656 2.644 5.159 4.25 7.54 1.319 1.956 3.198 3.681 4.357 5.716 1.616 2.836 2.246 6.003 4.138 8.751 1.588 2.307 3.553 4.266 5.489 6.273.178.184.3.407.462.603-5.067 3.81-10.254 7.409-15.526 10.888a12.611 12.611 0 0 1-.006-1.628c.208-3.299.208-6.628-.092-9.923-.272-2.993-.835-5.903-1.971-8.69-.988-2.417-2.476-4.985-2.384-7.678.189-5.404-2.748-10.71-6.523-14.4-2.439-2.384-7.234-5.921-10.475-2.898-4.082 3.807-1.365 11.576.41 15.811 1.113 2.656 2.641 5.159 4.25 7.54 1.319 1.956 3.198 3.681 4.357 5.716 1.616 2.836 2.246 6.003 4.138 8.751 1.588 2.307 3.552 4.266 5.489 6.273.588.606 1.064 1.291 1.487 2.014-5.407 3.534-10.925 6.934-16.519 10.272-.012-.382-.03-.759-.003-1.16.208-3.299.208-6.628-.092-9.923-.272-2.993-.832-5.903-1.971-8.69-.988-2.417-2.476-4.985-2.384-7.678.19-5.404-2.747-10.71-6.523-14.4-2.438-2.384-7.234-5.921-10.475-2.898-4.082 3.807-1.364 11.576.41 15.812 1.114 2.656 2.641 5.159 4.25 7.54 1.319 1.956 3.198 3.681 4.357 5.716 1.616 2.836 2.246 6.003 4.138 8.751 1.585 2.307 3.553 4.266 5.489 6.273.475.49.866 1.034 1.228 1.601-5.918 3.513-11.935 6.979-18.029 10.453.003-.174-.013-.339-.004-.517.208-3.299.208-6.628-.092-9.923-.271-2.993-.832-5.903-1.971-8.69-.988-2.417-2.475-4.985-2.383-7.678.189-5.404-2.748-10.71-6.524-14.4-2.438-2.384-7.233-5.921-10.475-2.898-4.082 3.807-1.364 11.576.41 15.811 1.114 2.656 2.641 5.159 4.25 7.54.239.355.512.698.78 1.041-.18-.021-.352-.074-.535-.089a23.784 23.784 0 0 0-2.123-.098c-9.376 0-18.908 6.077-24.267 15.468-4.299 7.25-2.671 12.653-.948 18.373.793 2.628 1.609 5.352 1.888 8.418.386 4.253-2.142 6.239-6.3 9.122-.985.688-1.989 1.383-2.947 2.139-.281.22-.551.453-.832.676-.019-.894.021-1.796.198-2.739.615-3.271 1.025-6.597 1.133-9.926.095-3.023-.107-6.001-.899-8.926-.688-2.537-1.861-5.285-1.436-7.965.854-5.376-1.426-11.037-4.743-15.189-2.142-2.681-6.496-6.809-10.107-4.187-4.55 3.299-2.787 11.399-1.536 15.845.787 2.791 2.005 5.48 3.317 8.057 1.077 2.118 2.742 4.073 3.647 6.246 1.264 3.032 1.503 6.276 3.054 9.253 1.301 2.5 3.026 4.7 4.713 6.943.768 1.022 1.272 2.188 1.658 3.397-3.656 2.94-7.268 5.949-10.719 8.993a287.09 287.09 0 0 0-5.863 5.324c-.175-1.487-.217-2.94.08-4.501.614-3.271 1.024-6.598 1.132-9.927.095-3.023-.107-6-.899-8.926-.688-2.537-1.86-5.284-1.436-7.965.854-5.376-1.426-11.038-4.743-15.19-2.142-2.681-6.496-6.809-10.107-4.186-.627.456-1.11 1.016-1.515 1.628a12.933 12.933 0 0 0-1.774-1.117c-2.897-1.493-6.576-2.182-9.706-1.019-1.561.578-3.354.208-4.961.098-1.854-.122-3.669.113-5.474.539-1.609.376-3.186.896-4.737 1.478a210.288 210.288 0 0 0 5.945-9.74c.686-1.197 1.35-2.417 2.014-3.635.817.156 1.604.422 2.305.875 1.294.835 2.57 1.692 3.99 2.307 1.692.731 3.479.734 5.192 1.307 1.228.41 2.365 1.246 3.568 1.75 1.466.618 2.986 1.178 4.547 1.496 2.488.508 6.995 1.15 8.623-1.472 1.291-2.084-1.142-4.306-2.695-5.374-2.408-1.652-5.604-2.677-8.514-1.995-1.45.34-3.002-.193-4.422-.468-1.634-.318-3.273-.309-4.926-.138-1.821.19-3.626.548-5.396 1.016-.691.184-1.353.236-2.02.229a205.927 205.927 0 0 0 3.14-6.016c.285-.569.536-1.141.78-1.701.343-.783.646-1.393.955-1.925.915.144 1.802.41 2.579.912 1.295.835 2.57 1.692 3.99 2.307 1.692.731 3.479.734 5.193 1.307 1.227.41 2.365 1.245 3.567 1.75 1.466.618 2.987 1.178 4.548 1.496 2.487.508 6.995 1.15 8.623-1.472 1.291-2.084-1.142-4.306-2.696-5.374-2.408-1.652-5.6-2.678-8.513-1.995-1.35.315-2.778-.116-4.112-.401.22-.052.446-.07.664-.141 2.974-1.056 5.679-3.002 8.048-5.796 3.659-4.321 7.585-12.935 3.396-18.951a1.544 1.544 0 0 0-1.846-.542 1.535 1.535 0 0 0-.918 1.689c.505 2.766.318 5.006-.502 5.985-.318.385-1.212.881-2.922.496-.331-.074-.875-.245-1.558-.453-2.368-.731-6.037-1.848-8.792-1.769.233-.615.441-1.249.664-1.87 1.271-.912 2.69-1.674 4.254-1.806 1.717-.144 3.424-.254 5.101-.679 1.995-.505 3.577-1.72 5.48-2.38 1.365-.475 2.938-.511 4.349-.881 1.717-.453 3.442-.992 5.04-1.772 2.546-1.242 6.971-3.745 6.622-7.172-.275-2.724-3.941-3.03-6.044-2.917-3.253.178-6.778 1.447-8.886 4.033-1.053 1.288-2.788 1.876-4.229 2.595-1.661.833-3.105 1.956-4.452 3.234-1.481 1.408-2.834 2.953-4.079 4.572-.811 1.056-1.793 1.744-2.897 2.439a120.26 120.26 0 0 0 3.635-12.54c.79-.385 1.622-.667 2.503-.74 1.717-.144 3.425-.254 5.102-.68 1.995-.505 3.577-1.72 5.48-2.38 1.364-.475 2.938-.511 4.348-.881 1.717-.453 3.443-.992 5.04-1.772 2.546-1.242 6.971-3.745 6.622-7.172-.275-2.724-3.941-3.029-6.044-2.916-3.256.177-6.777 1.447-8.886 4.033-1.053 1.289-2.788 1.876-4.229 2.595-1.662.832-3.106 1.955-4.453 3.234-1.48 1.407-2.833 2.953-4.079 4.571-.363.475-.779.845-1.205 1.206a129.173 129.173 0 0 0 2.197-12.672c.036-.003.067-.018.104-.021 1.717-.144 3.425-.254 5.102-.679 1.995-.505 3.577-1.72 5.48-2.38 1.364-.475 2.938-.511 4.348-.881 1.717-.453 3.442-.992 5.04-1.772 2.546-1.242 6.971-3.745 6.622-7.172-.275-2.724-3.941-3.03-6.044-2.917-3.256.178-6.777 1.447-8.886 4.033-1.053 1.288-2.788 1.876-4.229 2.595-1.661.833-3.105 1.956-4.452 3.234-.982.937-1.891 1.946-2.769 2.984.363-3.706.584-7.417.63-11.114.637-.26 1.291-.468 1.982-.526 1.717-.144 3.425-.254 5.102-.68 1.995-.505 3.577-1.72 5.48-2.38 1.364-.475 2.938-.511 4.349-.881 1.716-.453 3.442-.992 5.039-1.772 2.546-1.242 6.971-3.746 6.622-7.172-.275-2.724-3.941-3.03-6.043-2.917-3.253.178-6.778 1.448-8.887 4.033-1.053 1.288-2.788 1.876-4.229 2.595-1.662.833-3.106 1.956-4.453 3.235-1.48 1.407-2.833 2.953-4.078 4.571-.27.352-.588.609-.894.894.049-10.906-1.282-21.622-4.082-31.38-.224-.78-1.007-1.267-1.809-1.071a1.529 1.529 0 0 0-1.172 1.744c1.456 8.623 1.915 17.549 1.367 26.585-1.515-.903-3.513-1.181-5.462-1.451-1.487-.205-3.736-.52-4.027-1.147-.033-.067-.281-.731 1.004-2.812a1.527 1.527 0 0 0-.364-2.014 1.522 1.522 0 0 0-2.041.153c-4.22 4.407-3.219 11.913.132 16.337 1.879 2.485 4.587 3.287 6.457 3.672.829.174 2.365.489 2.604.725.159.346-.135 2.013-.275 2.812a143.363 143.363 0 0 1-1.852 8.733c-.525-.713-.994-1.435-1.291-2.323a35.655 35.655 0 0 0-2.103-5.07c-.759-1.478-1.652-2.852-2.812-4.048-1.007-1.034-2.301-2.041-2.812-3.442-1.021-2.809-3.629-4.924-6.331-6.031-1.744-.716-4.936-1.536-5.97.686-1.304 2.796 1.701 6.218 3.488 8.02 1.123 1.132 2.424 2.096 3.742 2.986 1.083.729 2.402 1.224 3.418 2.029 1.417 1.12 2.396 2.613 3.936 3.629 1.291.854 2.708 1.45 4.115 2.078 1.001.444 1.806 1.196 2.497 2.041-.982 3.969-2.212 7.99-3.556 12.029 0-.027.009-.04.006-.073-.046-.557-.813-1.2-1.147-1.606-.829-1.013-1.521-1.943-1.934-3.188a35.445 35.445 0 0 0-2.105-5.071c-.762-1.478-1.652-2.852-2.812-4.048-1.007-1.034-2.302-2.041-2.812-3.442-1.022-2.809-3.629-4.923-6.331-6.031-1.744-.716-4.936-1.536-5.97.686-1.307 2.797 1.701 6.218 3.488 8.02 1.123 1.132 2.424 2.096 3.743 2.987 1.083.728 2.405 1.224 3.418 2.029 1.417 1.12 2.396 2.613 3.935 3.629 1.292.854 2.709 1.451 4.116 2.078 1.548.688 2.662 2.087 3.55 3.485.03.046.6.823.795.725-1.783 5.331-3.81 10.701-6.211 16.104-.135.303-.288.587-.426.891-.211-.312-.446-.612-.591-.838-.774-1.239-1.413-2.365-1.695-3.801-.395-2.001-.921-3.99-1.618-5.909-.637-1.744-1.43-3.391-2.549-4.877-.971-1.289-2.265-2.583-2.635-4.208-.74-3.256-3.33-5.958-6.166-7.564-1.83-1.038-5.251-2.393-6.708-.077-1.836 2.917 1.013 7.124 2.738 9.37 1.083 1.411 2.39 2.663 3.727 3.832 1.096.96 2.488 1.692 3.501 2.723 1.411 1.438 2.289 3.229 3.85 4.572 1.31 1.126 2.794 1.986 4.269 2.876 1.618.979 2.656 2.684 3.442 4.357.006.015.055.101.116.205a165.296 165.296 0 0 1-5.171 10.281c-.272-.428-.566-.829-.774-1.328-.942-2.231-2.029-4.41-3.302-6.469-1.156-1.87-2.476-3.592-4.131-5.046-1.435-1.261-3.25-2.454-4.07-4.247-1.643-3.599-5.3-6.114-8.978-7.298-2.375-.762-6.67-1.515-7.806 1.524-1.429 3.828 2.892 8.026 5.435 10.217 1.597 1.377 3.415 2.516 5.248 3.55 1.506.851 3.299 1.365 4.722 2.319 1.986 1.331 3.434 3.198 5.569 4.379 1.793.992 3.721 1.634 5.646 2.313.698.248 1.325.627 1.922 1.053a208.93 208.93 0 0 1-7.408 12.316c-.444-.606-.845-1.239-1.16-1.983-.942-2.231-2.028-4.41-3.305-6.469-1.157-1.87-2.476-3.592-4.131-5.046-1.435-1.261-3.25-2.454-4.07-4.248-1.643-3.599-5.3-6.114-8.978-7.298-2.375-.762-6.671-1.515-7.806 1.524-1.429 3.828 2.892 8.026 5.438 10.217 1.598 1.377 3.415 2.515 5.248 3.549 1.502.851 3.299 1.365 4.722 2.32 1.986 1.328 3.433 3.197 5.569 4.379 1.793.991 3.721 1.634 5.646 2.313.887.312 1.667.823 2.393 1.411a312.362 312.362 0 0 1-8.054 11.732c-.18-.315-.401-.591-.551-.943-.942-2.23-2.029-4.409-3.302-6.469-1.157-1.87-2.476-3.592-4.131-5.046-1.435-1.261-3.25-2.454-4.07-4.247-1.643-3.599-5.3-6.114-8.978-7.298-2.375-.762-6.671-1.515-7.806 1.524-1.429 3.828 2.892 8.026 5.438 10.217 1.598 1.377 3.415 2.516 5.248 3.55 1.502.851 3.299 1.365 4.722 2.319 1.986 1.331 3.433 3.198 5.569 4.379 1.793.991 3.721 1.634 5.646 2.313a7.464 7.464 0 0 1 1.481.722 728.337 728.337 0 0 1-8.874 11.98c-.906-2.108-1.937-4.171-3.143-6.123-1.157-1.87-2.476-3.593-4.131-5.046-1.435-1.261-3.25-2.454-4.07-4.248-1.643-3.599-5.3-6.114-8.978-7.298-2.375-.762-6.671-1.515-7.806 1.524-1.429 3.828 2.892 8.026 5.438 10.217 1.598 1.377 3.415 2.515 5.248 3.549.184.104.392.178.582.272-.062.019-.125.024-.19.046-8.005 2.57-12.39 10.765-13.182 17.724-.799 6.107 1.952 9.385 4.611 12.558 1.236 1.469 2.512 2.996 3.528 4.869 1.322 2.445.328 4.256-1.539 7.24a42.841 42.841 0 0 0-1.334 2.237 219.338 219.338 0 0 0-5.251 10.337c-2.708 5.71-5.074 11.411-7.06 16.992-4.667-12.852-11.175-25.181-19.357-36.769.597-.625 1.239-1.203 1.986-1.652 2.207-1.331 4.425-2.613 6.389-4.296 2.341-2.004 3.654-4.682 5.768-6.83 1.518-1.539 3.602-2.635 5.245-4.066 2.001-1.744 3.957-3.614 5.582-5.722 2.588-3.357 6.857-9.648 4.116-14.015-2.176-3.467-7.295-1.444-10.037.104-4.244 2.399-8.124 6.438-9.238 11.307-.557 2.426-2.494 4.363-3.948 6.288-1.677 2.219-2.867 4.685-3.822 7.289-1.05 2.87-1.839 5.841-2.436 8.834a11.59 11.59 0 0 1-.441 1.598c-.471-.655-.924-1.316-1.404-1.968a174.298 174.298 0 0 0-10.064-12.258c.364-.306.719-.621 1.129-.869 2.204-1.331 4.425-2.613 6.39-4.296 2.341-2.004 3.653-4.682 5.768-6.83 1.518-1.54 3.602-2.635 5.245-4.067 2.001-1.744 3.957-3.617 5.582-5.722 2.585-3.357 6.857-9.648 4.116-14.015-2.176-3.467-7.295-1.444-10.037.104-4.247 2.399-8.124 6.438-9.238 11.307-.554 2.426-2.494 4.363-3.948 6.288-1.677 2.219-2.867 4.685-3.822 7.289-1.049 2.87-1.839 5.841-2.436 8.834-.034.168-.092.321-.129.484-.829-.906-1.655-1.815-2.512-2.714a213.595 213.595 0 0 0-8.225-8.173c-.425-.404-.875-.774-1.322-1.147.349-.288.682-.591 1.074-.829 2.204-1.332 4.425-2.613 6.39-4.296 2.341-2.004 3.653-4.682 5.768-6.83 1.518-1.539 3.602-2.635 5.245-4.066 2.001-1.744 3.957-3.617 5.584-5.723 2.586-3.356 6.857-9.648 4.116-14.015-2.176-3.467-7.295-1.444-10.037.104-4.248 2.399-8.127 6.438-9.238 11.307-.554 2.427-2.494 4.364-3.947 6.289-1.677 2.218-2.867 4.685-3.822 7.289-1.049 2.87-1.839 5.841-2.436 8.834-.046.232-.123.444-.181.667-2.167-1.863-3.32-3.25-2.885-5.686.376-2.099 1.11-3.944 1.827-5.731 1.533-3.843 3.118-7.815.456-13.341-2.919-6.337-9.599-12.729-18.063-12.729-.698 0-1.377.076-2.053.159.86-1.723 1.558-3.51 2.613-5.156 1.166-1.818 2.983-3.317 4.296-5.058 1.6-2.121 3.13-4.352 4.287-6.748 1.842-3.816 4.73-10.851 1.147-14.56-2.843-2.947-7.436.086-9.801 2.164-3.663 3.219-6.628 7.971-6.717 12.962-.046 2.488-1.542 4.783-2.57 6.965-1.184 2.519-1.845 5.171-2.243 7.919-.438 3.023-.6 6.092-.566 9.146.021 1.879-.422 3.51-1.022 5.229-5.729-3.957-11.359-7.882-16.824-11.918.639-1.781 1.521-3.479 2.907-4.768 1.885-1.756 3.794-3.467 5.37-5.517 1.879-2.442 2.613-5.333 4.241-7.87 1.166-1.818 2.984-3.317 4.296-5.059 1.601-2.12 3.13-4.351 4.287-6.747 1.842-3.816 4.731-10.851 1.15-14.56-2.843-2.947-7.436.086-9.801 2.164-3.663 3.219-6.628 7.971-6.72 12.962-.046 2.488-1.542 4.783-2.57 6.965-1.184 2.518-1.845 5.171-2.24 7.919-.438 3.023-.6 6.092-.569 9.146.019 1.775-.37 3.326-.921 4.939-5.159-3.825-10.159-7.791-15.003-11.974.615-1.481 1.423-2.867 2.598-3.96 1.885-1.756 3.794-3.467 5.37-5.517 1.879-2.442 2.613-5.333 4.241-7.87 1.166-1.818 2.984-3.317 4.296-5.058 1.601-2.121 3.13-4.352 4.287-6.748 1.842-3.816 4.731-10.851 1.147-14.56-2.843-2.947-7.436.086-9.801 2.164-3.663 3.219-6.628 7.971-6.72 12.962-.046 2.488-1.542 4.783-2.57 6.965-1.184 2.519-1.845 5.171-2.24 7.919-.438 3.023-.6 6.093-.569 9.146.015 1.444-.251 2.739-.64 4.039-4.676-4.069-9.192-8.369-13.5-13.026.239-.284.447-.59.722-.844 1.885-1.756 3.794-3.467 5.37-5.517 1.879-2.442 2.613-5.334 4.241-7.871 1.169-1.818 2.983-3.317 4.296-5.058 1.6-2.121 3.13-4.352 4.287-6.747 1.842-3.816 4.73-10.851 1.15-14.56-2.843-2.947-7.436.085-9.801 2.163-3.663 3.219-6.631 7.972-6.72 12.962-.046 2.488-1.542 4.783-2.57 6.964-1.184 2.519-1.845 5.171-2.243 7.919-.413 2.849-.563 5.737-.554 8.617a179.491 179.491 0 0 1-10.303-12.589c.208-.459.435-.909.729-1.325 1.254-1.772 2.54-3.513 3.488-5.478 1.132-2.338 1.246-4.853 2.154-7.228.652-1.702 1.897-3.253 2.681-4.915.958-2.025 1.842-4.131 2.387-6.307.869-3.467 2.047-9.773-1.545-12.222-2.852-1.946-6.126 1.344-7.723 3.467-2.473 3.286-4.11 7.717-3.33 11.857.389 2.062-.456 4.213-.93 6.193-.548 2.283-.636 4.587-.496 6.925.141 2.292.49 4.572.945 6.824-3.865-5.376-7.286-10.823-10.232-16.301-.383-.713-1.184-2.203-1.151-2.555.163-.325 1.524-1.108 2.255-1.533 1.659-.955 3.978-2.57 4.982-5.511 1.796-5.254.397-12.69-4.991-15.557a1.526 1.526 0 0 0-1.983.496 1.52 1.52 0 0 0 .285 2.025c1.87 1.573 1.845 2.28 1.836 2.356-.083.691-2.121 1.689-3.47 2.353-1.748.854-3.538 1.735-4.728 3.112-3.356-8.43-5.716-17.059-7.029-25.701-.119-.802-.805-1.34-1.658-1.294a1.532 1.532 0 0 0-1.383 1.585c.942 24.012 11.27 50.563 27.167 70.221-2.414.709-5.156 2.558-7.8 4.437-.575.413-1.041.743-1.331.918-.777.462-1.459.701-2.026.701-1.808 0-2.867-2.99-3.256-5.787a1.536 1.536 0 0 0-1.398-1.316c-.688-.061-1.38.404-1.585 1.089-2.09 7.029 4.336 13.975 9.165 16.934 3.115 1.907 6.298 2.913 9.508 2.987 2.619-.037 4.611-1.093 6.536-2.115 1.294-.688 2.518-1.34 3.874-1.631 1.967-.407 2.947.511 4.7 2.476.404.45.823.915 1.267 1.365.86.869 1.784 1.683 2.665 2.54-1.23.033-2.408-.043-3.653-.41-2.47-.731-5-1.304-7.552-1.646-2.322-.309-4.626-.385-6.943-.006-2.007.33-4.214 1.019-6.243.48-4.073-1.077-8.611.235-12.065 2.466-2.231 1.441-5.75 4.471-4.015 7.454 2.185 3.761 8.559 3.039 12.081 2.42 2.209-.386 4.376-1.114 6.463-1.925 1.713-.664 3.351-1.793 5.095-2.322 2.436-.738 4.951-.667 7.362-1.628 2.026-.805 3.856-1.962 5.713-3.085 1.31-.792 2.815-1.12 4.342-1.242 1.68 1.622 3.335 3.271 5.062 4.823 2.237 2.013 4.621 4.033 7.096 6.068-.68.043-1.365.046-2.087-.055-2.549-.355-5.135-.551-7.714-.511-2.341.037-4.633.303-6.867 1.022-1.937.624-4.018 1.631-6.104 1.401-4.186-.462-8.479 1.505-11.57 4.223-1.992 1.753-5.025 5.272-2.868 7.965 2.717 3.394 8.914 1.738 12.305.609 2.129-.71 4.162-1.75 6.107-2.858 1.598-.912 3.048-2.268 4.694-3.048 2.298-1.089 4.795-1.392 7.041-2.702 1.885-1.095 3.522-2.509 5.196-3.898.799-.664 1.726-1.114 2.699-1.459a276.896 276.896 0 0 0 11.72 9.027l.175.125c-.729.193-1.472.331-2.28.358-2.574.092-5.153.349-7.684.838-2.298.443-4.511 1.102-6.585 2.2-1.799.952-3.672 2.304-5.768 2.438-4.204.272-8.09 2.959-10.658 6.169-1.659 2.075-4.03 6.065-1.438 8.345 3.265 2.871 9.079.162 12.222-1.539 1.974-1.068 3.794-2.445 5.517-3.877 1.414-1.175 2.607-2.763 4.095-3.819 2.074-1.472 4.482-2.207 6.465-3.883 1.665-1.408 3.033-3.084 4.437-4.74.683-.805 1.53-1.417 2.445-1.931a1523.87 1523.87 0 0 0 5.805 4.192c1.98 1.426 3.935 2.836 5.878 4.247-.695.321-1.411.606-2.204.802-2.965.729-5.899 1.646-8.721 2.821-2.562 1.068-4.973 2.366-7.115 4.14-1.857 1.539-3.708 3.559-6.107 4.22-4.813 1.328-8.678 5.38-10.888 9.728-1.42 2.793-3.195 7.959.3 10a25.877 25.877 0 0 0-2.197 2.093c-4.287 4.617-7.482 11.11-6.946 17.543.266 3.207-1.359 6.349-2.396 9.29-1.193 3.391-1.695 6.891-1.848 10.474-.168 3.944.024 7.914.465 11.833.251 2.216-.027 4.211-.496 6.294a264.619 264.619 0 0 1-19.783-14.498c.48-.955 1.031-1.87 1.741-2.684 2.194-2.503 4.425-4.951 6.185-7.794 2.096-3.384 2.665-7.197 4.428-10.673 1.264-2.491 3.403-4.654 4.865-7.065 1.781-2.935 3.458-6.004 4.633-9.235 1.87-5.147 4.664-14.569-.422-18.871-4.04-3.415-9.55 1.08-12.32 4.061-4.287 4.617-7.481 11.111-6.946 17.543.267 3.207-1.361 6.35-2.396 9.29-1.193 3.391-1.695 6.891-1.848 10.475-.168 3.944.024 7.913.465 11.833.07.624.085 1.227.083 1.824-2.118-1.741-4.241-3.473-6.319-5.312a265.16 265.16 0 0 1-9.352-8.727c.147-1.787.523-3.543 1.408-5.104 1.383-2.442 2.806-4.847 3.773-7.497 1.15-3.155.967-6.401 1.827-9.572.618-2.273 2.014-4.428 2.806-6.667.967-2.727 1.827-5.551 2.243-8.421.664-4.571 1.358-12.83-3.581-15.514-3.919-2.13-7.702 2.527-9.479 5.462-2.751 4.547-4.278 10.459-2.733 15.679.768 2.601-.037 5.478-.389 8.082-.407 3.005-.22 5.982.267 8.969.539 3.287 1.374 6.53 2.411 9.694.459 1.401.615 2.748.652 4.128-10.468-10.318-19.578-21.071-27.154-32.093-2.742-3.994-2.742-3.994 1.074-6.781 2.103-1.536 5-4.052 5.918-8.134 1.662-7.399-1.312-17.289-9.012-20.367a1.524 1.524 0 0 0-1.921.704 1.527 1.527 0 0 0 .502 1.983c2.818 1.888 3.228 3.045 3.222 3.565-.019 1.325-2.562 2.935-4.808 4.357-2.61 1.655-5.3 3.363-6.536 5.845-6.282-11.671-11.114-23.816-14.385-36.157-.208-.783-1.001-1.294-1.787-1.104a1.528 1.528 0 0 0-1.206 1.72c5.018 33.782 23.825 69.731 49.443 94.86-3.442 1.108-7.43 4.461-11.007 7.638-.768.686-1.383 1.236-1.778 1.533-1.264.955-2.411 1.438-3.409 1.438-3.47 0-5.303-6.218-5.784-8.124a1.533 1.533 0 0 0-1.484-1.157h-.052a1.538 1.538 0 0 0-1.457 1.255c-1.799 9.844 8.054 18.375 15.11 21.708 3.898 1.842 7.775 2.772 11.527 2.772.627 0 1.258-.027 1.953-.085 3.519-.435 6.086-2.179 8.571-3.871 1.753-1.193 3.409-2.316 5.352-2.962 3.118-1.037 5.037.566 7.604 2.876.63.569 1.279 1.15 1.971 1.71a281.33 281.33 0 0 0 7.5 5.863c-.964.034-1.934-.003-2.953-.196-3.271-.615-6.598-1.025-9.927-1.132-3.023-.095-6.001.107-8.926.899-2.537.688-5.285 1.86-7.965 1.435-5.376-.854-11.038 1.426-15.19 4.743-2.681 2.142-6.809 6.496-4.186 10.107 3.298 4.55 11.398 2.788 15.845 1.54 2.793-.787 5.48-2.004 8.06-3.317 2.117-1.077 4.073-2.742 6.249-3.647 3.032-1.264 6.276-1.502 9.253-3.054 2.5-1.301 4.7-3.023 6.943-4.712 1.166-.878 2.506-1.444 3.908-1.836 1.411 1.056 2.812 2.121 4.241 3.152 4.22 3.039 8.678 6.053 13.396 9.082-.572.058-1.157.08-1.769.058-3.326-.125-6.677-.04-9.985.349-3.005.352-5.918.992-8.696 2.209-2.408 1.056-4.951 2.623-7.663 2.598-5.443-.049-10.707 3.042-14.324 6.938-2.334 2.515-5.771 7.433-2.647 10.615 3.936 4.012 11.687 1.071 15.9-.823 2.647-1.19 5.123-2.791 7.479-4.474 1.934-1.38 3.623-3.314 5.64-4.532 2.812-1.698 5.985-2.414 8.7-4.391 2.283-1.655 4.201-3.687 6.169-5.688.78-.792 1.705-1.392 2.677-1.913a397.124 397.124 0 0 0 15.089 9.104c.542.312 1.083.615 1.625.924-.795.275-1.616.508-2.512.63-3.299.456-6.582 1.123-9.771 2.078-2.898.869-5.655 2.007-8.18 3.688-2.188 1.459-4.421 3.442-7.096 3.889-5.368.896-10.016 4.859-12.898 9.324-1.861 2.882-4.391 8.322-.759 10.914 4.575 3.266 11.695-.976 15.515-3.573 2.399-1.631 4.559-3.642 6.588-5.704 1.665-1.695 2.99-3.895 4.765-5.443 2.476-2.164 5.474-3.418 7.806-5.835 1.958-2.029 3.498-4.36 5.086-6.674.713-1.037 1.64-1.873 2.647-2.613 2.479 1.414 4.96 2.828 7.43 4.226 2.962 1.677 5.881 3.335 8.785 4.997-.805.468-1.643.897-2.583 1.23-3.718 1.322-7.369 2.889-10.842 4.768-3.155 1.707-6.083 3.69-8.604 6.249-2.188 2.221-4.302 5.061-7.301 6.224-6.016 2.334-10.456 8.051-12.727 13.926-1.466 3.794-3.094 10.719 1.747 12.852 6.096 2.69 13.342-3.947 17.148-7.885 2.39-2.473 4.416-5.325 6.273-8.211 1.527-2.368 2.534-5.241 4.22-7.466 2.353-3.106 5.529-5.287 7.656-8.653 1.784-2.824 3.008-5.903 4.299-8.972.508-1.212 1.264-2.271 2.099-3.268 7.029 4.036 13.893 8.109 20.579 12.472-1.454 1.104-2.95 2.044-4.774 2.692-3.718 1.322-7.368 2.889-10.841 4.765-3.155 1.707-6.083 3.69-8.608 6.248-2.188 2.222-4.302 5.059-7.301 6.225-6.016 2.335-10.456 8.051-12.729 13.926-1.466 3.795-3.094 10.719 1.747 12.852 6.096 2.69 13.342-3.947 17.148-7.885 2.39-2.473 4.416-5.325 6.273-8.21 1.524-2.369 2.534-5.242 4.22-7.467 2.353-3.105 5.533-5.288 7.656-8.653 1.784-2.825 3.008-5.903 4.299-8.973.814-1.942 2.169-3.559 3.721-4.981 5.484 3.605 10.857 7.405 16.111 11.57 1.11.881 2.175 1.783 3.265 2.677-1.166.802-2.39 1.487-3.819 1.995-3.718 1.322-7.368 2.889-10.841 4.768-3.155 1.708-6.083 3.69-8.605 6.249-2.188 2.222-4.302 5.061-7.301 6.224-6.016 2.335-10.456 8.051-12.726 13.927-1.466 3.794-3.094 10.719 1.744 12.852 6.095 2.689 13.341-3.947 17.148-7.886 2.39-2.473 4.416-5.324 6.273-8.21 1.527-2.368 2.534-5.242 4.22-7.467 2.354-3.105 5.53-5.287 7.653-8.653 1.784-2.824 3.008-5.902 4.299-8.972.652-1.558 1.658-2.904 2.824-4.116 6.548 5.413 12.696 11.025 18.427 16.824-.235.098-.45.214-.694.303-3.718 1.322-7.369 2.889-10.842 4.768-3.155 1.708-6.083 3.69-8.604 6.249-2.188 2.221-4.303 5.058-7.301 6.224-6.016 2.335-10.456 8.051-12.727 13.926-1.466 3.795-3.094 10.72 1.747 12.853 6.096 2.689 13.342-3.947 17.148-7.886 2.39-2.473 4.416-5.324 6.273-8.21 1.527-2.368 2.534-5.242 4.22-7.467 2.353-3.105 5.529-5.287 7.653-8.653 1.784-2.824 3.008-5.903 4.299-8.972.187-.447.465-.836.701-1.252 7.91 8.186 15.012 16.72 21.212 25.557-3.231 1.311-6.105 3.263-8.898 5.163-3.381 2.295-6.576 4.464-10.264 5.502-5.232 1.475-8.198-2.623-9.467-12.89a1.528 1.528 0 0 0-1.466-1.34h-.052a1.53 1.53 0 0 0-1.502 1.242c-2.644 13.85 6.398 25.658 15.747 32.091 10.783 7.43 21.114 8.253 33.042 2.585 12.506 34.71 19.079 74.548 20.674 125.176l.101 3.969-3.684-.046c-20.089.086-38.746.53-55.936 1.324l1.206 60.584h149.539l1.3-59.92c-19.16-1.05-40.956-1.629-65.732-1.629l-3.182-.04.018-4.324c.493-50.646 6.206-90.615 17.963-125.598 12.035 5.423 22.356 4.37 32.98-3.295 9.201-6.638 17.986-18.642 15.043-32.424-.159-.734-.759-1.316-1.582-1.209-.75.04-1.361.621-1.438 1.371-1.05 10.284-3.947 14.458-9.186 13.088-3.709-.955-6.949-3.058-10.383-5.282-2.834-1.839-5.747-3.727-9.006-4.966 6.744-10.064 14.64-19.765 23.547-29.049.189.346.422.661.575 1.025 1.288 3.068 2.513 6.147 4.3 8.972 2.123 3.366 5.303 5.548 7.655 8.653 1.687 2.228 2.696 5.099 4.22 7.467 1.857 2.886 3.884 5.737 6.273 8.21 3.807 3.935 11.053 10.575 17.148 7.886 4.841-2.136 3.213-9.058 1.747-12.853-2.273-5.878-6.714-11.594-12.727-13.926-2.999-1.163-5.113-4.003-7.301-6.224-2.524-2.559-5.453-4.541-8.608-6.249-3.473-1.879-7.123-3.442-10.842-4.765-.18-.063-.336-.152-.511-.22 5.691-5.796 11.806-11.411 18.299-16.84 1.139 1.197 2.127 2.521 2.767 4.052 1.288 3.069 2.512 6.147 4.299 8.972 2.124 3.366 5.304 5.548 7.656 8.654 1.687 2.228 2.696 5.098 4.22 7.466 1.857 2.886 3.883 5.737 6.273 8.21 3.81 3.936 11.053 10.576 17.148 7.886 4.841-2.136 3.213-9.058 1.747-12.852-2.273-5.879-6.714-11.595-12.727-13.927-2.999-1.162-5.113-4.002-7.302-6.224-2.524-2.558-5.452-4.541-8.607-6.248-3.473-1.879-7.124-3.443-10.842-4.765-1.407-.499-2.619-1.172-3.767-1.955 6.267-5.19 12.721-9.851 19.339-14.269 1.546 1.416 2.892 3.029 3.703 4.966 1.288 3.069 2.512 6.147 4.299 8.972 2.124 3.366 5.304 5.548 7.656 8.653 1.687 2.229 2.696 5.099 4.22 7.467 1.857 2.886 3.883 5.737 6.273 8.21 3.81 3.936 11.053 10.575 17.147 7.886 4.842-2.136 3.214-9.058 1.748-12.852-2.273-5.879-6.714-11.595-12.729-13.927-2.999-1.162-5.113-4.002-7.302-6.224-2.524-2.559-5.453-4.541-8.607-6.248-3.474-1.879-7.124-3.442-10.842-4.768-1.814-.646-3.305-1.579-4.749-2.674 6.083-4.033 12.313-7.879 18.685-11.708.195.229.392.254.523-.254.003-.018-.007-.042 0-.061.385-.232.765-.462 1.153-.694.924 1.059 1.747 2.194 2.295 3.498 1.288 3.069 2.513 6.147 4.299 8.972 2.124 3.366 5.304 5.547 7.656 8.654 1.687 2.228 2.696 5.098 4.22 7.466 1.857 2.886 3.884 5.737 6.273 8.21 3.81 3.936 11.053 10.575 17.148 7.886 4.841-2.136 3.213-9.058 1.747-12.852-2.273-5.879-6.714-11.595-12.729-13.927-2.999-1.162-5.113-4.002-7.302-6.223-2.524-2.558-5.452-4.541-8.607-6.249-3.473-1.879-7.124-3.443-10.842-4.765-1.064-.376-2.001-.872-2.9-1.417 1.729-1.031 3.464-2.066 5.214-3.106 3.356-1.995 6.72-4 10.089-6.031.211-.128.4-.251.612-.379 1.267.835 2.405 1.839 3.265 3.093 1.591 2.313 3.127 4.646 5.086 6.674 2.331 2.417 5.33 3.672 7.806 5.835 1.775 1.552 3.1 3.749 4.765 5.444 2.028 2.065 4.189 4.072 6.588 5.704 3.819 2.598 10.939 6.839 15.515 3.573 3.632-2.592 1.102-8.029-.759-10.915-2.883-4.464-7.531-8.424-12.898-9.324-2.677-.447-4.908-2.43-7.096-3.889-2.524-1.68-5.281-2.818-8.18-3.688-3.191-.955-6.475-1.625-9.771-2.078-1.248-.171-2.365-.52-3.448-.973a389.965 389.965 0 0 0 16.19-10.398c1.536.618 2.978 1.441 4.14 2.623 1.968 2.001 3.89 4.033 6.169 5.688 2.718 1.974 5.888 2.69 8.7 4.391 2.017 1.218 3.702 3.152 5.64 4.532 2.355 1.68 4.835 3.284 7.479 4.474 4.214 1.894 11.961 4.834 15.899.823 3.124-3.182-.312-8.1-2.646-10.615-3.617-3.896-8.88-6.989-14.321-6.937-2.714.024-5.257-1.54-7.665-2.598-2.778-1.218-5.691-1.857-8.696-2.209-3.309-.389-6.659-.474-9.982-.349-1.358.052-2.601-.132-3.837-.428 3.834-2.625 7.527-5.239 11.001-7.855a280.488 280.488 0 0 0 5.866-4.56c2.405.294 4.807.924 6.747 2.387 2.243 1.689 4.443 3.412 6.943 4.712 2.978 1.551 6.221 1.79 9.253 3.054 2.173.906 4.128 2.571 6.249 3.648 2.579 1.312 5.266 2.53 8.06 3.317 4.446 1.251 12.546 3.011 15.845-1.539 2.619-3.611-1.506-7.965-4.186-10.107-4.152-3.317-9.816-5.597-15.19-4.743-2.681.425-5.425-.747-7.965-1.435-2.929-.792-5.903-.994-8.926-.899-3.33.107-6.656.517-9.927 1.132-2.121.401-4.039.199-6.12-.153a298.83 298.83 0 0 0 5.988-4.93c.676-.575 1.31-1.169 1.928-1.744 2.519-2.372 4.431-4.002 7.543-3.051 1.955.603 3.636 1.692 5.413 2.846 2.521 1.634 5.129 3.326 8.718 3.688 4.413.269 8.847-.729 13.357-2.98 6.982-3.482 16.646-12.225 14.639-22.029a1.532 1.532 0 0 0-1.481-1.221h-.018c-.713 0-1.334.493-1.49 1.19-.444 1.934-2.16 8.247-5.674 8.247-.982 0-2.117-.459-3.375-1.362-.397-.291-1.021-.826-1.806-1.487-2.864-2.439-7.35-6.255-11.178-7.405 3.134-3.21 6.16-6.588 9.061-10.107 2.454-.45 5.037-.593 7.378.312 2.479.955 4.923 1.955 7.536 2.491 3.112.643 6.123.018 9.211.385 2.213.263 4.422 1.27 6.628 1.705 2.687.526 5.447.942 8.191.933 4.37-.012 12.194-.505 14.021-5.499 1.45-3.963-3.431-6.857-6.423-8.115-4.636-1.943-10.38-2.555-15.05-.385-2.328 1.08-5.131.725-7.616.756-2.867.037-5.627.621-8.354 1.49-3.002.958-5.921 2.191-8.739 3.599-1.986.995-3.933 1.282-6.129 1.506a177.245 177.245 0 0 0 12.145-16.876c1.025.024 2.041.156 3.002.526 2.057.792 4.092 1.625 6.261 2.068 2.583.533 5.086.015 7.65.321 1.839.217 3.672 1.056 5.505 1.414 2.23.438 4.525.78 6.802.774 3.63-.009 10.129-.419 11.644-4.565 1.206-3.293-2.849-5.695-5.337-6.738-3.853-1.616-8.62-2.121-12.5-.321-1.934.896-4.259.603-6.325.627-2.383.03-4.675.517-6.939 1.239-2.494.795-4.918 1.821-7.259 2.99-.636.318-1.272.532-1.912.707a185.251 185.251 0 0 0 7.702-13.541c.979.019 1.949.144 2.87.499 1.934.747 3.847 1.527 5.885 1.946 2.43.501 4.779.015 7.19.3 1.729.205 3.452.991 5.175 1.331 2.099.413 4.253.734 6.396.728 3.412-.009 9.522-.395 10.945-4.293 1.156-3.12-2.653-5.378-4.991-6.361zm-256.089-37.099c1.408-.138 2.742.085 4.189.336.037.006.073.009.11.016a37.098 37.098 0 0 0-4.483.878c-.773.205-1.515.235-2.264.217.585-.826 1.27-1.318 2.448-1.447zM203.325 203.04c-2.207.701-4.232 1.775-6.203 2.821-2.519 1.34-4.902 2.607-7.5 3.039-.315.052-.502.08-.885.077-1.006 0-3.978-.052-4.241-8.816 1.891-1.763 4.061-3.146 5.71-5.251 1.542-1.971 2.699-4.167 3.889-6.355 3.413 4.742 6.501 9.574 9.23 14.485zm-47.696-73.73c1.591-1.481 3.155-2.971 4.565-4.621.006 0 .012.003.019.003.456-.043 1.003-.07 1.594-.07 1.677 0 5.578.248 5.594 2.519-.003 2.512-1.414 4.877-2.904 7.38-1.132 1.9-2.295 3.85-2.931 5.998-2.05-1.423-4.101-2.839-6.148-4.25-.939-.646-1.86-1.288-2.793-1.931.642-1.88 1.55-3.676 3.004-5.028zm-26.567 43.583c2.035-1.717 3.816-3.754 5.471-5.829 1.358-1.705 2.359-3.837 3.831-5.419 2.053-2.206 4.673-3.638 6.57-6.065 1.594-2.035 2.778-4.312 4.012-6.573.505-.924 1.196-1.708 1.952-2.43 5.052 3.684 9.958 7.396 14.688 11.343-1.172.71-2.368 1.294-3.782 1.64-2.965.729-5.899 1.646-8.721 2.821-2.562 1.068-4.973 2.366-7.115 4.14-1.857 1.54-3.708 3.559-6.107 4.22-4.813 1.328-8.678 5.38-10.888 9.728a20.944 20.944 0 0 0-.783 1.781c-.135-2.585-.918-4.951-2.825-6.591a37.503 37.503 0 0 0 3.697-2.766zm-5.49 75.628c-7.148-4.125-14.165-8.378-21.007-12.901.594-2.32 1.496-4.56 3.075-6.359 2.194-2.503 4.425-4.951 6.184-7.794 2.096-3.384 2.666-7.197 4.428-10.673 1.264-2.491 3.402-4.654 4.862-7.066 1.781-2.934 3.458-6.003 4.633-9.235.606-1.668 1.307-3.788 1.805-6.034a3.841 3.841 0 0 0 1.76 2.044c4.483 2.546 10.578-1.998 13.819-4.731 2.035-1.716 3.816-3.754 5.471-5.829 1.359-1.705 2.359-3.837 3.831-5.419 2.053-2.209 4.673-3.638 6.57-6.065 1.594-2.035 2.779-4.312 4.012-6.573.762-1.396 1.891-2.515 3.155-3.473 3.091 2.601 6.117 5.303 9.048 8.198a179.4 179.4 0 0 1 4.367 4.465c-.814.41-1.662.756-2.613.991-2.965.729-5.899 1.646-8.718 2.821-2.561 1.068-4.973 2.365-7.114 4.14-1.857 1.54-3.706 3.559-6.108 4.22-3.048.838-5.71 2.775-7.818 5.184-4.036-3.36-9.523 1.114-12.283 4.085-4.287 4.617-7.482 11.111-6.946 17.543.266 3.207-1.359 6.349-2.396 9.29-1.196 3.391-1.695 6.891-1.848 10.474-.168 3.945.024 7.914.465 11.833.275 2.418-.083 4.575-.634 6.864zm24.033 13.342c-7.892-4.269-15.649-8.522-23.25-12.895.584-2.506 1.518-4.942 3.216-6.876 2.194-2.503 4.425-4.951 6.184-7.793 2.096-3.385 2.666-7.197 4.428-10.673 1.264-2.491 3.403-4.654 4.866-7.066 1.781-2.934 3.458-6.003 4.633-9.235a58.702 58.702 0 0 0 1.227-3.761c3.516-.655 7.151-3.384 9.403-5.288 2.035-1.717 3.816-3.755 5.471-5.829 1.359-1.705 2.359-3.837 3.831-5.419 2.053-2.209 4.673-3.638 6.57-6.065 1.594-2.035 2.779-4.312 4.012-6.573.536-.982 1.276-1.809 2.093-2.562a169.597 169.597 0 0 1 12.059 14.37c-2.742.701-5.45 1.548-8.063 2.638-2.561 1.068-4.973 2.365-7.114 4.14-1.857 1.539-3.709 3.559-6.108 4.22-2.772.765-5.214 2.448-7.222 4.553-1.903 1.095-3.635 2.684-4.844 3.984-4.287 4.618-7.482 11.111-6.946 17.543.266 3.207-1.362 6.35-2.396 9.291-1.193 3.39-1.695 6.891-1.848 10.474-.168 3.944.024 7.913.465 11.833.273 2.46-.101 4.651-.667 6.989zm17.804-1.732c-1.405 3.069-2.849 6.224-3.287 9.596-3.372-1.836-6.738-3.654-10.101-5.472-1.218-.658-2.42-1.312-3.632-1.967.582-2.54 1.524-5.016 3.244-6.974 2.194-2.503 4.425-4.951 6.185-7.793.336-.542.584-1.111.854-1.674.921-.132 2.05-.248 3.274-.248 4.036 0 6.215 1.145 6.475 3.384.393 3.7-1.259 7.316-3.012 11.148zm53.106 50.089a252.226 252.226 0 0 0-6.83-5.995 306.795 306.795 0 0 0-12.775-10.205c-.97-.734-1.986-1.41-2.993-2.077-4.217-2.797-6.791-4.728-6.494-8.987.208-3.072.97-5.811 1.708-8.461 1.601-5.756 3.112-11.187-1.331-18.32-5.967-9.951-16.695-16.001-26.717-14.82-.964.107-1.891.312-2.815.529.582-1.701 1.145-3.409 1.974-5.04 1.264-2.491 3.402-4.654 4.865-7.066 1.781-2.935 3.458-6.003 4.633-9.235.78-2.145 1.71-5.031 2.176-7.978.134-.11.291-.235.419-.343 2.035-1.716 3.816-3.754 5.471-5.829.309-.386.594-.796.873-1.215.211 7.377 4.675 13.975 9.553 18.186 7.007 6.046 14.271 7.506 23.017 4.59 5.639 23.596 7.322 49.86 5.266 82.266zm186.183-136.103c2.123 3.366 5.303 5.548 7.653 8.654 1.686 2.228 2.695 5.098 4.22 7.466 1.857 2.885 3.883 5.737 6.272 8.21.07.073.15.153.224.229-1.604-.294-3.174-.07-4.425 1.181-.34.339-.557.731-.796 1.117-2.295-2.925-5.184-5.367-8.607-6.695-2.999-1.163-5.113-4.002-7.302-6.224-2.524-2.558-5.452-4.541-8.607-6.248-3.354-1.815-6.876-3.323-10.462-4.615 5.805-3.935 11.744-7.662 17.818-11.346 1.19 2.83 2.362 5.658 4.012 8.271zm-23.765-38.02c.272-2.928 3.868-3.541 6.833-3.541.78 0 1.503.049 2.164.11.095.15.208.291.297.443 1.615 2.837 2.246 6.004 4.137 8.752 1.585 2.307 3.553 4.266 5.49 6.273.33.343.584.74.859 1.123-1.021.581-2.032 1.16-3.06 1.744-3.32 1.888-6.649 3.779-9.982 5.686-.511-3.363-2.022-6.484-3.494-9.523-1.827-3.79-3.558-7.371-3.244-11.067zm-93.369 14.369c.15.058.31.089.456.159 1.552.744 3.081 1.515 4.743 1.995 1.977.572 3.956.324 5.933.719 1.417.281 2.794 1.046 4.198 1.438 1.711.478 3.471.888 5.245 1.022 1.634.125 4.015.184 6.02-.379.162 2.662.786 5.34 1.34 7.304.786 2.791 2.004 5.48 3.317 8.057 1.08 2.118 2.741 4.073 3.647 6.246 1.267 3.032 1.502 6.276 3.057 9.253 1.301 2.5 3.023 4.7 4.713 6.943 1.107 1.469 1.713 3.213 2.087 5.012a245.83 245.83 0 0 0-12.531 12.681c.027-2.638-.049-5.281-.354-7.897-.353-3.005-.992-5.918-2.21-8.697-1.056-2.408-2.619-4.951-2.595-7.666.043-4.829-2.39-9.51-5.661-13.032 1.02-.318 1.916-.851 2.562-1.726 1.922-2.613-1.059-5.798-2.996-7.368-3.005-2.43-7.111-4.116-11.021-3.519-1.949.297-3.941-.566-5.783-1.08-2.124-.591-4.288-.75-6.484-.695a43.902 43.902 0 0 0-3.899.291 290.955 290.955 0 0 0 6.216-9.061zm-11.344 16.151c.903-1.239 1.806-2.491 2.708-3.74 1.276.97 2.562 1.925 3.987 2.678 2.157 1.142 4.514 1.331 6.714 2.265 1.576.67 2.989 1.888 4.525 2.68.563.291 1.15.554 1.729.827-.548 1.086-.759 2.332-.784 3.632-1.196-.202-2.411-.254-3.607-.07-1.949.297-3.941-.566-5.783-1.08-2.124-.591-4.287-.75-6.484-.695-2.42.062-4.841.346-7.221.777-.386.07-.762.107-1.132.128a1000.73 1000.73 0 0 1 5.348-7.402zm-6.065 8.397c.606.254 1.19.554 1.72.955 1.622 1.236 3.213 2.5 5.028 3.458 2.157 1.141 4.513 1.331 6.713 2.264 1.576.67 2.99 1.888 4.526 2.681 1.87.967 3.815 1.864 5.842 2.448 1.374.395 3.228.841 5.092.991a53.332 53.332 0 0 0 3.289 5.263c1.38 1.934 3.314 3.623 4.532 5.64 1.698 2.812 2.414 5.985 4.391 8.7 1.656 2.28 3.688 4.201 5.688 6.169.067.064.11.147.175.214a233.13 233.13 0 0 0-9.759 11.82 60.44 60.44 0 0 0-1.242-4.93c-.869-2.897-2.007-5.655-3.688-8.179-1.459-2.188-3.442-4.418-3.889-7.096-.26-1.551-.799-3.032-1.509-4.44.572-.315 1.102-.701 1.509-1.251 1.922-2.613-1.059-5.799-2.999-7.369-3.002-2.43-7.108-4.116-11.022-3.519-1.949.297-3.941-.566-5.784-1.08-2.124-.59-4.287-.75-6.484-.694-2.42.061-4.841.346-7.222.777-1.227.224-2.359.171-3.528.009a279.362 279.362 0 0 1 8.621-12.831zm9.808 41.028c2.775.799 7.497 1.867 10.309.064.997.792 1.979 1.594 2.787 2.519 2.164 2.475 3.422 5.474 5.836 7.806 1.527 1.475 3.24 2.699 4.976 3.902a222.462 222.462 0 0 0-8.262 12.09 71.605 71.605 0 0 0-2.647-5.465c-1.707-3.155-3.689-6.083-6.248-8.608-2.222-2.188-5.062-4.302-6.224-7.301-.939-2.427-2.448-4.581-4.278-6.454 1.223.56 2.466 1.077 3.751 1.447zm-8.277-13.011c-2.124-.591-4.287-.75-6.484-.695-2.42.061-4.841.346-7.222.777-1.704.312-3.219.098-4.92-.22.456-.927.894-1.854 1.368-2.782 2.09-4.082 4.397-7.95 6.781-11.753 1.34.275 2.638.725 3.727 1.558 1.622 1.236 3.213 2.5 5.027 3.458 2.158 1.142 4.514 1.331 6.714 2.265.165.07.324.168.486.248.055 2.714 1.316 5.661 2.724 8.152-.808-.055-1.616-.052-2.42.071-1.947.298-3.939-.565-5.781-1.079zm-22.06-44.257c.744-1.307 3.1-2.408 5.306-3.008 1.75 1.294 3.148 2.944 5.113 4.027 1.793.991 3.721 1.634 5.646 2.313.08.028.147.08.223.11-.719.949-1.429 1.894-2.154 2.846-1.509 1.992-3.023 3.99-4.532 5.992-1.276-1.842-2.989-3.326-4.657-4.78-2.203-1.91-4.281-3.718-5.067-6.086-.172-.526-.135-.964.122-1.414zm14.685 171.05a275.119 275.119 0 0 0-1.741 30.726c-.591-1.404-1.181-2.812-1.769-4.22-11.879-28.451-19.144-53.391-22.191-76.006.073-3.397.073-6.497 0-9.483-.006-.202-.015-.41-.024-.615 8.632-.254 14.804-3.929 19.354-11.512 4.208-7.001 6.606-17.448.719-25.771a1.54 1.54 0 0 0-1.928-.486 1.534 1.534 0 0 0-.784 1.83c1.38 4.395 1.57 7.439.566 9.049-.49.79-1.319 1.264-2.525 1.45-2.65.401-5.263-.055-8.084-.539-2.194-.373-4.575-.747-6.769-.737 2.537-13.247 7.142-26.711 13.672-40.098 1.796.214 3.602.679 5.046 1.781.74.566 1.478 1.129 2.23 1.674-2.687-.107-5.227.597-6.374 3.201-2.687 6.096 3.951 13.342 7.886 17.148 2.473 2.39 5.324 4.416 8.21 6.273 2.369 1.524 5.242 2.534 7.466 4.22 3.106 2.353 5.288 5.529 8.654 7.656 1.91 1.208 3.941 2.151 6 3.039-14.958 25.288-24.38 52.867-27.614 81.42zm44.881 12.113c-.037-.086-.049-.175-.089-.261-.7-1.594-1.735-3.28-1.72-5.076.034-3.604-2.017-7.093-4.596-9.486-1.665-1.545-4.924-3.821-7.032-1.753-2.656 2.607-.71 7.741.545 10.532.789 1.754 1.848 3.394 2.962 4.954.915 1.282 2.197 2.399 3.002 3.736.842 1.393 1.318 2.916 2.053 4.349-6.82 10.202-12.738 20.823-17.644 31.827 1.2-34.468 5.272-64.435 12.249-90.968-.079 3.706 1.561 7.925 2.791 10.664 1.19 2.646 2.794 5.122 4.474 7.479 1.38 1.934 3.313 3.623 4.532 5.64 1.698 2.812 2.414 5.985 4.391 8.699 1.503 2.068 3.317 3.838 5.132 5.615a231.246 231.246 0 0 0-11.05 14.049zm14.425-17.966c-.033-2.035-.125-4.069-.364-6.089-.352-3.005-.991-5.918-2.209-8.697-1.056-2.408-2.619-4.95-2.595-7.665.049-5.443-3.045-10.706-6.94-14.32-2.516-2.334-7.433-5.771-10.615-2.647-.386.38-.654.82-.918 1.264 1.344-4.835 2.754-9.593 4.303-14.202 5.052 2.277 9.792 3.342 14.388 3.326.214.955.438 1.864.658 2.641.786 2.791 2.004 5.48 3.316 8.057 1.081 2.117 2.742 4.072 3.647 6.245 1.268 3.032 1.503 6.276 3.058 9.254 1.3 2.5 3.023 4.7 4.712 6.942.762 1.013 1.261 2.167 1.646 3.363-4.269 4.137-8.327 8.321-12.087 12.528zm21.236-21.013a272.751 272.751 0 0 0-8.143 7.519c-.006-.833.033-1.671.199-2.546.614-3.271 1.024-6.598 1.132-9.927.095-3.023-.107-6.001-.899-8.926-.688-2.537-1.86-5.285-1.436-7.965.569-3.583-.272-7.286-1.866-10.591a43.524 43.524 0 0 0 3.412-2.203c.321-.233.643-.487.964-.734a57.925 57.925 0 0 0 2.117 4.685c1.077 2.118 2.742 4.073 3.647 6.246 1.264 3.032 1.503 6.276 3.054 9.253 1.301 2.5 3.026 4.7 4.713 6.943.373.495.661 1.04.937 1.591-2.659 2.203-5.294 4.418-7.831 6.655zm20.857-48.534c-4.3 7.249-2.672 12.653-.949 18.372.793 2.628 1.609 5.352 1.889 8.418.385 4.253-2.143 6.236-6.301 9.125-.988.686-1.989 1.383-2.947 2.136-.951.753-1.875 1.527-2.814 2.289.012-.07.009-.135.024-.205.614-3.271 1.024-6.598 1.132-9.927.095-3.023-.107-6-.899-8.926-.688-2.537-1.86-5.285-1.436-7.965.759-4.78-.964-9.783-3.69-13.751 2.702-5.374 3.981-11.527 2.577-18.094-.159-.734-.812-1.307-1.582-1.209-.75.04-1.362.622-1.438 1.371-.71 6.958-2.289 11.056-4.844 12.595-1.879-1.163-3.979-1.667-5.875-.288-.077.055-.12.138-.193.199-3.005-1.089-5.771-2.828-8.656-4.694-2.834-1.839-5.747-3.727-9.003-4.966 10.508-15.676 23.749-30.496 39.397-44.165.713 1.671 1.453 3.323 2.43 4.869 1.606 2.546 4.012 4.195 5.789 6.545 1.276 1.683 2.038 3.855 3.192 5.648 1.404 2.182 2.938 4.339 4.746 6.209 1.691 1.747 4.283 4.171 7.068 5.486-3.721 3.975-.539 11.224 1.515 15.184.146.281.343.542.502.82-7.838 1.61-15.151 7.062-19.634 14.924zm27.95 12.974c-.511-3.363-2.022-6.484-3.491-9.522-1.836-3.789-3.567-7.369-3.25-11.065.107-1.163.75-1.949 1.659-2.488.367.477.713.976 1.089 1.441 1.473 1.824 3.504 3.39 4.816 5.3 1.83 2.662 2.672 5.707 4.78 8.265.927 1.129 1.961 2.154 3.035 3.143-2.879 1.637-5.758 3.274-8.638 4.926zm14.251-8.124a54.261 54.261 0 0 0-.511-4.461c-.466-2.895-1.222-5.688-2.559-8.335-1.16-2.292-2.846-4.7-2.916-7.323-.141-5.263-3.479-10.251-7.573-13.617-1.004-.823-2.366-1.787-3.838-2.497 1.998-2.173.988-6.334.04-8.785-1.72-4.446-5.076-8.77-9.627-10.536-2.268-.881-3.868-3.03-5.523-4.707-1.909-1.937-4.125-3.437-6.508-4.728-1.732-.937-3.535-1.738-5.358-2.485.597-.505 1.172-1.022 1.774-1.521 4.845-4.015 9.808-7.702 14.862-11.218.145.275.334.523.456.811 1.288 3.069 2.513 6.147 4.3 8.972 2.123 3.366 5.303 5.548 7.656 8.654 1.686 2.228 2.695 5.098 4.22 7.466a61.812 61.812 0 0 0 4.333 5.912c-.046.043-.102.058-.147.104-3.947 3.941-.679 11.337 1.401 15.346 1.307 2.519 3.026 4.859 4.819 7.081 1.476 1.824 3.504 3.391 4.816 5.3 1.83 2.662 2.672 5.707 4.78 8.265 1.371 1.667 2.975 3.109 4.605 4.532a1631.159 1631.159 0 0 1-13.502 7.77zm17.64-10.199c-.092-2.215-.257-4.428-.608-6.619-.466-2.895-1.222-5.688-2.559-8.333-1.16-2.292-2.846-4.7-2.916-7.322-.049-1.79-.486-3.541-1.179-5.214a7.195 7.195 0 0 0 1.938-.529c1.031-.456 1.717-1.157 2.225-1.971a59.32 59.32 0 0 0 2.417 3.195c1.476 1.824 3.504 3.39 4.816 5.3 1.83 2.662 2.672 5.707 4.78 8.265 1.453 1.766 3.164 3.283 4.896 4.789a549.174 549.174 0 0 1-13.81 8.439zm17.666-10.869c-.086-2.301-.255-4.602-.618-6.875-.466-2.895-1.222-5.689-2.559-8.333-1.16-2.292-2.846-4.7-2.916-7.323-.092-3.351-1.481-6.585-3.531-9.363 2.147.759 4.339.93 6.401.021.927-.41 1.558-1.031 2.057-1.738.076.303.152.618.223.887.625 2.292 1.622 4.504 2.705 6.634.888 1.747 2.283 3.372 3.023 5.159 1.031 2.497 1.179 5.147 2.454 7.604 1.071 2.062 2.513 3.889 3.923 5.747.007.009.01.019.016.024a341.9 341.9 0 0 1-11.178 7.556z"/></svg>