<svg xmlns="http://www.w3.org/2000/svg" width="590.844" height="590.844" viewBox="0 0 590.844 590.844"><path d="M590.471 121.31c-.272-.331-.621-.866-1.199-1.429-.539-.609-1.267-1.264-2.13-1.995a32.153 32.153 0 0 0-3.104-2.188c-2.368-1.472-5.324-2.885-8.589-4.109-3.269-1.218-6.846-2.265-10.459-3.13-7.231-1.747-14.603-2.766-20.15-3.345a188.34 188.34 0 0 0-2.313-.226c12.146-7.837 20.202-19.707 17.947-37.562-.119 48.92-70.022 45.009-111.616 43.28 41.358-16.86 82.394-34.719 110.432-67.222-12.243 11.606-26.695 20.523-42.359 27.959.019-.073.043-.132.062-.205.281-.958.44-2.014.67-3.069.141-1.083.349-2.182.413-3.32.076-1.135.171-2.28.119-3.434.019-1.144-.073-2.289-.211-3.402-.073-1.117-.331-2.197-.532-3.231-.166-1.043-.521-2.01-.796-2.932-.251-.927-.597-1.766-.942-2.524-.343-.759-.6-1.472-.927-2.06l-.86-1.508c-.472-.826-.74-1.301-.74-1.301l.465 1.426.526 1.619c.199.624.303 1.368.478 2.148.178.78.34 1.628.395 2.546.076.909.224 1.852.175 2.843-.013.989.024 1.992-.126 3.014a21.752 21.752 0 0 1-.44 3.057c-.159 1.016-.456 2.007-.726 2.977-.257.97-.646 1.897-.951 2.794-.398.875-.704 1.738-1.12 2.509a28.054 28.054 0 0 1-1.147 2.157 28.942 28.942 0 0 1-1.959 3.008c-.257.352-.446.584-.562.716-.073.085-.129.153-.165.196-59.832 25.713-134.215 33.62-174.022 83.223 5.38-15.946 13.629-31.224 18.382-48.626.113-.098.229-.187.333-.3.162-.177.303-.37.423-.569l.027-.046.177-.3c.083-.153.239-.41.48-.771a30.148 30.148 0 0 1 2.167-2.864c.48-.584 1.031-1.19 1.64-1.812.582-.655 1.289-1.233 1.978-1.906.74-.594 1.478-1.27 2.304-1.842.82-.581 1.655-1.196 2.556-1.692a22.273 22.273 0 0 1 2.726-1.451c.912-.486 1.87-.795 2.794-1.138.918-.386 1.852-.563 2.732-.802.882-.26 1.732-.398 2.528-.493.792-.098 1.529-.254 2.182-.278l1.701-.055c.955-.031 1.499-.046 1.499-.046s-.535-.092-1.475-.257c-.475-.083-1.05-.181-1.711-.297-.663-.11-1.419-.107-2.249-.174-.832-.067-1.737-.11-2.695-.031-.958.055-1.989.049-3.026.248-1.044.159-2.146.285-3.22.597-1.095.251-2.199.551-3.271.958-1.104.343-2.146.817-3.188 1.276-1.05.45-2.011 1.016-2.98 1.518-.667.419-1.331.811-1.962 1.215 2.718-16.726 1.447-35.68-8.607-58.973 8.89 26.98 7.133 47.424 1.153 65.233a3.555 3.555 0 0 0-.891 2.549c-8.157 22.488-22.724 40.964-30.346 63.529-.162-.291-.315-.569-.486-.872-1.261-2.127-2.791-4.566-4.691-7.001-.474-.606-.954-1.224-1.444-1.848l-1.609-1.796c-1.034-1.239-2.311-2.319-3.482-3.458-1.239-1.083-2.567-2.071-3.864-3.023-1.42-.802-2.688-1.766-4.122-2.35-1.435-.572-2.714-1.322-4.113-1.588-.673-.177-1.331-.352-1.964-.517l-.927-.242c-.315-.031-.624-.058-.927-.088-1.196-.11-2.295-.211-3.268-.303-.973.034-1.821.128-2.509.174-1.377.11-2.163.171-2.163.171l2.167.135c.682.052 1.515.073 2.454.174.921.217 1.958.465 3.09.734.282.067.566.135.857.202.278.116.56.235.848.358.572.242 1.163.49 1.769.747 1.243.413 2.356 1.31 3.58 2.001 1.227.704 2.28 1.784 3.452 2.671 1.062 1.046 2.136 2.105 3.121 3.244.928 1.203 1.931 2.31 2.718 3.589l1.229 1.83c.361.633.723 1.258 1.074 1.873 1.414 2.451 2.491 4.877 3.36 6.961.829 2.102 1.456 3.877 1.817 5.119.38 1.221.523 1.873.542 1.919.149.447.382.844.667 1.181 0 .012-.007.024-.01.034-8.372 37.616-.184 86.43-3.319 127.404-8.415-23.924-26.423-46.287-35.089-70.179a3.835 3.835 0 0 0-.961-2.751c-6.454-19.229-8.351-41.304 1.246-70.438-10.857 25.153-12.225 45.619-9.293 63.679-.682-.438-1.396-.86-2.118-1.313-1.049-.542-2.087-1.153-3.219-1.64-1.126-.496-2.252-1.006-3.443-1.377-1.156-.438-2.35-.765-3.534-1.034-1.16-.336-2.35-.471-3.476-.643-1.12-.214-2.234-.208-3.268-.266-1.031-.086-2.01-.04-2.91.034-.896.07-1.713.07-2.43.187-.713.123-1.337.229-1.848.318l-1.591.278 1.619.052c.511.015 1.129.037 1.839.058.707.027 1.5.196 2.356.3.86.104 1.778.251 2.729.532.952.257 1.962.45 2.953.866.998.373 2.032.707 3.017 1.23 1.004.459 1.998.964 2.944 1.567.973.532 1.873 1.199 2.76 1.827.89.618 1.689 1.35 2.488 1.989.743.725 1.505 1.353 2.136 2.056a29.02 29.02 0 0 1 1.771 1.955 32.272 32.272 0 0 1 2.338 3.091c.26.392.432.667.521.833.125.211.189.324.189.324l.031.049c.128.214.281.422.456.615.11.122.238.22.358.324 5.131 18.792 14.042 35.288 19.847 52.507-42.996-53.555-123.312-62.092-187.918-89.855l-.177-.214a11.708 11.708 0 0 1-.606-.774 31.623 31.623 0 0 1-2.114-3.25 31.033 31.033 0 0 1-1.239-2.329c-.45-.832-.784-1.763-1.212-2.708-.331-.967-.75-1.968-1.028-3.014-.291-1.046-.612-2.118-.783-3.216-.248-1.092-.386-2.2-.474-3.302-.159-1.104-.123-2.191-.135-3.256-.055-1.071.104-2.087.187-3.069.058-.992.232-1.906.425-2.748.19-.841.303-1.646.514-2.319l.569-1.75.501-1.539-.802 1.404a695.69 695.69 0 0 1-.927 1.628c-.355.634-.63 1.402-1.001 2.222-.373.82-.75 1.726-1.019 2.727-.293.992-.679 2.038-.86 3.164-.22 1.12-.496 2.286-.575 3.491-.146 1.206-.245 2.439-.226 3.675-.055 1.246.046 2.479.128 3.706.07 1.23.293 2.415.447 3.586.251 1.141.419 2.28.725 3.314.019.08.043.144.064.22-16.913-8.029-32.519-17.659-45.738-30.19 30.275 35.098 74.584 54.382 119.242 72.586-44.912 1.863-120.393 6.086-120.521-46.735-2.436 19.281 6.264 32.096 19.376 40.56-.792.074-1.616.153-2.5.245-5.988.627-13.948 1.726-21.757 3.61-3.901.937-7.763 2.066-11.291 3.381-3.528 1.322-6.717 2.849-9.275 4.44a33.764 33.764 0 0 0-3.351 2.365c-.933.792-1.72 1.5-2.298 2.157-.624.606-1.004 1.184-1.297 1.542l-.435.56.502-.505c.333-.318.768-.838 1.457-1.358.639-.569 1.493-1.166 2.484-1.821a33.892 33.892 0 0 1 3.507-1.885c5.285-2.503 12.944-4.244 20.673-5.101 7.729-.9 15.542-1.025 21.368-.924 2.916.049 5.34.156 7.026.251l2.613.174.125.009a3.819 3.819 0 0 0 3.246-1.475c12.139 5.175 26.062 7.828 38.195 9.055 28.877 2.938 58.317 4.697 84.93 10.603-5.171 2.824-11.695 6.671-17.84 11.129-3.252 2.353-6.392 4.865-9.155 7.426-2.76 2.564-5.125 5.19-6.885 7.635a34.907 34.907 0 0 0-2.2 3.461c-.56 1.086-1.019 2.042-1.307 2.868-.346.798-.477 1.478-.612 1.918-.123.447-.187.686-.187.686s.095-.229.269-.658c.187-.422.392-1.068.829-1.812.376-.771.937-1.646 1.604-2.628a34.05 34.05 0 0 1 2.528-3.079c3.935-4.327 10.352-8.853 17.172-12.586 6.809-3.776 13.981-6.863 19.41-8.99a179.753 179.753 0 0 1 6.591-2.442l.658-.22c14.639 4.073 28.231 9.7 40.095 17.944 32.531 22.598 49.762 56.635 51.262 104.692-.774-.664-1.622-1.37-2.564-2.133a121.867 121.867 0 0 0-3.602-2.711c-1.34-.884-2.677-1.897-4.198-2.77-1.478-.924-3.035-1.829-4.685-2.641-1.594-.894-3.345-1.572-5.049-2.307-1.708-.726-3.537-1.19-5.257-1.775-1.814-.34-3.546-.82-5.282-.991-1.747-.07-3.399-.404-4.991-.224-1.585.165-3.082.098-4.422.444-1.331.317-2.549.608-3.629.868-1.05.337-1.913.793-2.647 1.084-1.441.621-2.264.979-2.264.979s.863-.241 2.375-.667c.756-.189 1.646-.517 2.705-.707 1.068-.106 2.276-.232 3.592-.363 1.3-.163 2.742.104 4.223.141 1.49.021 3.026.562 4.608.829 1.573.37 3.137 1.05 4.734 1.563 1.53.771 3.127 1.401 4.614 2.286 1.484.894 2.99 1.713 4.354 2.744 1.411.943 2.732 1.968 3.978 3.005 1.282.977 2.402 2.097 3.516 3.063a110.474 110.474 0 0 1 2.971 2.935c1.775 1.879 3.194 3.491 4.118 4.654.928 1.132 1.371 1.769 1.405 1.806l.382.392.016.015a3.8 3.8 0 0 0 1.074.753c-.006.566.012 1.108 0 1.681-.688 32.692-3.329 67.065.973 96.638a102.02 102.02 0 0 1-3.362-1.576c-6.056-2.993-11.206-4.446-15.753-4.446-7.815 0-12.509 4.271-17.047 8.406-4.538 4.131-13.832-1.982-21.253-1.982l29.623 76.28c45.402.423 85.815-1.315 85.815-1.315l20.108-77.838c-30.637 5.488-43.93 6.636-53.238 7.309l-.832.055c-15.572-33.274-10.337-80.854-9.664-125.423 10.096-22.858 10.747-52.354 9.948-82.673.535-.548 1.053-1.123 1.595-1.658 1.267-.958 2.401-2.124 3.727-2.886 1.325-.747 2.524-1.713 3.868-2.16l1.909-.805c.31-.132.615-.26.915-.386.315-.073.621-.147.924-.22l3.336-.792c1.013-.107 1.912-.132 2.649-.187l2.338-.144-2.335-.184c-.746-.049-1.658-.153-2.711-.189l-3.528.327c-.327.031-.66.064-1 .095-.331.086-.664.175-1.004.263-.686.181-1.396.367-2.124.56-1.508.288-2.889 1.099-4.437 1.717-1.479.603-2.797 1.573-4.244 2.411-.318-10.621-.756-21.301-.979-31.796-.009-.529.006-1.031 0-1.555.358-.171.701-.395.994-.694l.016-.015.352-.364c.031-.031.444-.621 1.301-1.671.854-1.074 2.17-2.57 3.812-4.309a96.275 96.275 0 0 1 2.755-2.717c1.03-.896 2.068-1.934 3.255-2.836a44.29 44.29 0 0 1 3.688-2.785c1.264-.955 2.659-1.713 4.03-2.543 1.38-.82 2.858-1.401 4.274-2.117 1.481-.478 2.929-1.105 4.386-1.448 1.466-.248 2.886-.747 4.269-.768 1.374-.034 2.708-.278 3.91-.131l3.33.339c.979.175 1.802.48 2.506.655 1.398.395 2.2.618 2.2.618s-.762-.331-2.097-.906c-.676-.27-1.478-.689-2.451-1.001l-3.359-.805c-1.239-.321-2.629-.257-4.095-.413-1.475-.168-3.005.144-4.623.205-1.604.159-3.21.606-4.89.918-1.592.542-3.287.973-4.869 1.643-1.579.68-3.2 1.307-4.676 2.136-1.526.75-2.968 1.588-4.339 2.445-1.407.808-2.646 1.744-3.889 2.564a104.91 104.91 0 0 0-3.336 2.512 98.889 98.889 0 0 0-2.374 1.974c1.392-44.508 17.347-76.032 47.476-96.959 10.988-7.635 23.577-12.846 37.133-16.616l.609.205c1.478.514 3.592 1.276 6.104 2.261 5.027 1.968 11.671 4.829 17.975 8.326 6.315 3.458 12.261 7.65 15.905 11.656a31.685 31.685 0 0 1 2.341 2.849c.618.909 1.139 1.72 1.484 2.436.404.688.597 1.288.769 1.68.162.398.251.609.251.609l-.175-.634c-.126-.41-.245-1.037-.566-1.778-.263-.765-.688-1.649-1.208-2.656a32.599 32.599 0 0 0-2.038-3.207c-1.631-2.265-3.822-4.697-6.377-7.072-2.562-2.372-5.469-4.697-8.479-6.875-5.691-4.128-11.732-7.693-16.524-10.306 24.648-5.468 51.913-7.099 78.654-9.82 9.786-.988 20.823-2.983 30.937-6.643-.615 4.893-1.156 8.938 1.15 11.591.188.214.463.181.558-.089.079-.229.132-.462.165-.713.037-.285.181-.331.352-.104.922 1.221 3.048 3.978 5.086 4.997.254.129.459-.024.443-.312a8.33 8.33 0 0 0-.061-.658c-.037-.285.092-.355.315-.178 1.478 1.188 3.849 2.46 5.235 2.788a.407.407 0 0 0 .502-.438 3.775 3.775 0 0 0-.037-.315c-.043-.282.098-.392.358-.272 1.426.649 4.669 1.64 6.077 1.732.284.019.597-.248.618-.532.119-1.405-.38-4.758-.808-6.267-.08-.275.049-.397.32-.315.107.034.209.061.31.083a.409.409 0 0 0 .508-.432c-.116-1.423-1.021-3.953-1.977-5.594-.144-.248-.052-.364.224-.284.257.073.459.119.636.156.279.058.463-.119.377-.392-.615-1.894-2.488-3.996-3.675-5.239 5.379-.089 12.518.034 19.602.857 7.158.792 14.248 2.405 19.146 4.725a31.04 31.04 0 0 1 3.247 1.744c.918.606 1.707 1.157 2.301 1.686.637.483 1.041.964 1.35 1.258l.465.468s-.107-.179-.37-.519zm-55.37-7.004l-4.575-3.387c.667-.263 1.344-.508 1.998-.79.377.48.882.851 1.457 1.086l1.413 2.836c.091.276-.04.389-.293.255z"/><path d="M403.799 248.988c2.989-.508 9.266-2.433 11.618-3.81.478-.278.683-1.043.413-1.527-1.334-2.381-5.771-7.219-8.09-9.168-.423-.355-.353-.688.177-.851.205-.064.398-.128.578-.199a.79.79 0 0 0 .35-1.243c-1.727-2.154-5.928-5.232-9.232-6.82-.499-.239-.478-.523.046-.695.493-.159.872-.306 1.196-.44.512-.208.609-.695.175-1.035-3.477-2.714-10.067-4.125-12.965-4.718-.542-.11-.579-.401-.113-.704a6.933 6.933 0 0 0 1.107-.885c.392-.389.224-.899-.31-1.046-7.398-2.053-14.862 3.708-24.369 9.667-.469.294-.48.808-.037 1.138l13.302 7.062c.444.331.358.655-.189.726l-14.829-.251c-.548.07-.792.529-.529 1.016 5.202 9.691 8.58 18.299 15.891 20.242.535.141.937-.211.796-.747a6.611 6.611 0 0 0-.511-1.322c-.251-.493-.067-.728.455-.551 2.801.955 9.199 3.072 13.571 2.494.548-.074.707-.542.374-.982a17.386 17.386 0 0 0-.809-.982c-.367-.413-.238-.67.312-.624 3.656.303 8.834-.227 11.414-1.208a.79.79 0 0 0 .33-1.249 8.49 8.49 0 0 0-.404-.468c-.373-.403-.263-.728.282-.82zm66.331-72.408c.272.224.493.386.691.523.307.214.618.095.655-.278.278-2.978-1.328-7.259-2.047-9.131-.135-.349.018-.477.357-.321.304.138.6.239.909.309.367.08.597-.199.483-.557-1.533-4.976-7.555-7.13-14.434-10.38-.34-.159-.637.021-.664.395l.832 10.177c-.024.374-.242.444-.483.159l-5.281-8.559c-.242-.288-.594-.257-.774.07-3.633 6.515-7.311 11.591-5.747 16.478.113.358.462.456.716.181.215-.229.396-.48.569-.774.189-.324.392-.306.48.058.478 1.949 1.609 6.377 3.541 8.66.241.288.568.205.697-.147.083-.224.171-.483.267-.82.101-.361.293-.382.471-.049 1.166 2.197 3.363 4.96 4.865 6.074a.534.534 0 0 0 .833-.266c.043-.125.082-.26.119-.401.095-.364.318-.419.572-.141 1.383 1.521 4.779 4.4 6.426 5.242.334.171.845.009 1.022-.321.872-1.631 2.01-5.937 2.273-7.975.049-.373.266-.453.551-.211.11.095.22.18.324.26.3.224.719.098.838-.257.597-1.775.82-5.297.518-7.766-.038-.379.131-.471.421-.232zm-214.423-20.545c.355.123.389.352.092.582a4.251 4.251 0 0 0-.318.266.533.533 0 0 0 .08.872c1.612.949 5.018 1.888 7.494 2.1.374.03.432.217.138.453-.275.22-.477.404-.652.569-.275.257-.22.587.138.698 2.858.881 7.375.189 9.354-.132.371-.061.462.116.242.419a4.346 4.346 0 0 0-.486.827c-.156.342.073.624.447.59 5.184-.48 8.528-5.93 13.118-11.998.227-.3.11-.627-.251-.731l-10.135-1.273c-.361-.101-.385-.328-.055-.505l9.462-3.415c.33-.177.373-.526.092-.771-5.63-4.89-9.847-9.532-14.948-9.002-.374.04-.542.361-.324.664.184.257.389.484.643.713.278.254.22.447-.156.459-2.004.07-6.57.269-9.201 1.689-.331.178-.318.514 0 .713.202.125.438.267.75.429.331.174.312.367-.049.471-2.39.688-5.545 2.273-6.943 3.516a.534.534 0 0 0 .092.869c.113.067.236.135.367.199.337.168.343.398.021.588-1.775 1.04-5.288 3.776-6.447 5.214-.236.291-.181.826.107 1.068 1.41 1.184 5.388 3.179 7.328 3.859zm301.064-112.85l6.255-4.633c.254-.135.386-.021.297.251l-3.418 6.86c-.089.272.07.487.355.475 5.676-.27 10.443.07 12.978-2.907.187-.217.109-.483-.172-.539a3.328 3.328 0 0 0-.731-.055c-.284.006-.354-.131-.156-.333 1.068-1.092 3.479-3.607 4.184-5.774.089-.272-.095-.45-.377-.392a8.525 8.525 0 0 0-.636.156c-.275.08-.364-.037-.224-.285.954-1.637 1.86-4.17 1.977-5.594a.406.406 0 0 0-.508-.431 8.217 8.217 0 0 0-.31.083c-.271.086-.4-.04-.321-.315.429-1.506.928-4.863.809-6.267-.024-.285-.334-.551-.618-.532-1.408.092-4.651 1.086-6.077 1.732-.261.119-.401.009-.358-.272.016-.11.03-.214.037-.315a.406.406 0 0 0-.502-.438c-1.39.328-3.761 1.601-5.236 2.788-.223.178-.352.107-.314-.177.033-.266.052-.474.061-.658.016-.285-.189-.438-.443-.312-2.041 1.019-4.164 3.776-5.086 4.997-.171.227-.314.181-.352-.104a3.612 3.612 0 0 0-.165-.713c-.095-.27-.37-.306-.558-.089-2.604 2.993-1.578 7.757-.914 13.516.033.289.269.409.523.277zm-56.993-4.183a3.416 3.416 0 0 0-.713-.168c-.284-.034-.438.196-.327.459 1.526 3.663 6.251 4.853 11.71 6.814.27.098.48-.064.475-.349l-1.377-7.659c-.009-.285.153-.355.355-.156l4.633 6.104c.205.199.468.153.581-.11 2.276-5.208 4.694-9.33 3.151-12.919-.113-.263-.385-.312-.557-.085a3.303 3.303 0 0 0-.373.63c-.119.26-.275.26-.37-.009-.508-1.441-1.689-4.719-3.32-6.31-.205-.199-.447-.113-.518.163a7.682 7.682 0 0 0-.141.643c-.052.281-.195.312-.352.073-1.047-1.582-2.913-3.516-4.138-4.25a.406.406 0 0 0-.611.263 7.838 7.838 0 0 0-.062.312c-.046.281-.211.339-.422.15-1.16-1.053-3.948-2.987-5.261-3.504-.266-.104-.643.055-.753.318-.541 1.3-1.089 4.648-1.141 6.215-.01.285-.169.364-.404.199a4.876 4.876 0 0 0-.267-.171.406.406 0 0 0-.614.257c-.325 1.389-.233 4.079.177 5.93.062.278-.061.361-.297.202a7.821 7.821 0 0 0-.562-.346c-.248-.141-.478-.024-.478.26.006 2.28 1.539 5.407 2.222 6.775.131.254.024.361-.246.269zm-368.13 270.232c-.067.548.349.82.856.605.325-.138.695-.3 1.154-.535.493-.251.707-.064.526.459-1.209 3.464-1.995 8.61-1.689 11.353a.788.788 0 0 0 1.123.634c.178-.08.361-.172.554-.272.486-.261.774-.073.725.478-.257 3.02.034 9.58.777 12.203.15.532.838.924 1.374.783 2.638-.694 8.433-3.776 10.903-5.536.45-.321.756-.168.78.386.009.215.024.42.046.612a.789.789 0 0 0 1.117.648c2.519-1.132 6.551-4.428 8.92-7.228.355-.422.627-.333.661.221.03.517.08.921.128 1.27.073.548.52.765.958.429 3.498-2.687 6.518-8.712 7.818-11.368.242-.496.533-.459.71.064.156.462.343.888.579 1.294.278.478.814.444 1.089-.036 3.843-6.646.134-15.318-3.25-26.017-.168-.526-.664-.667-1.092-.321l-10.171 11.109c-.432.346-.725.184-.655-.364l3.957-14.294c.067-.548-.315-.9-.851-.768-10.683 2.607-19.866 3.721-23.581 10.309-.272.48-.031.961.523.958.462 0 .915-.055 1.407-.162.542-.119.722.116.419.578-1.629 2.468-5.282 8.129-5.815 12.508zm60.334 82.553c-.328.651-.006 1.649.639 1.989 3.192 1.677 11.595 3.843 15.569 4.332.726.089.888.512.417 1.071-.184.218-.349.432-.502.637-.432.591-.184 1.401.511 1.628 3.464 1.142 10.337 1.53 15.147.912.726-.092.909.235.45.805-.432.532-.744.967-1.01 1.353-.417.6-.175 1.208.551 1.272 5.808.505 14.128-2.677 17.769-4.106.68-.266.931.027.634.698a9.017 9.017 0 0 0-.591 1.777c-.153.713.398 1.157 1.092.939 9.679-3.051 13.801-14.813 20.049-28.265.309-.664-.049-1.243-.78-1.289l-19.829 1.754c-.729-.046-.869-.469-.312-.939l16.616-10.404c.557-.475.496-1.156-.144-1.509-12.742-6.995-22.687-14.104-32.191-10.991-.694.227-.884.909-.346 1.401.453.413.943.762 1.518 1.096.633.367.6.759-.107.939-3.791.958-12.408 3.219-16.836 7.011-.554.474-.392 1.11.294 1.355.438.156.945.327 1.603.508.704.195.747.569.104.915-4.269 2.298-9.63 6.615-11.781 9.562-.432.59-.162 1.393.533 1.621.245.08.505.156.783.23.707.18.82.617.281 1.113-2.946 2.71-8.515 9.365-10.131 12.585zM93.771 169.046l5.171-5.649c.22-.177.367-.095.333.187l-2.013 7.268c-.034.278.159.456.431.392 5.432-1.325 10.101-1.891 11.989-5.242.138-.245.015-.487-.266-.487-.236 0-.465.028-.716.083-.275.062-.367-.061-.214-.293.826-1.258 2.684-4.137 2.956-6.362.034-.278-.177-.416-.438-.309-.165.07-.352.153-.587.272-.251.128-.361.034-.266-.233.615-1.762 1.013-4.379.86-5.771a.4.4 0 0 0-.572-.321c-.092.04-.184.085-.282.138-.248.131-.392.037-.37-.242.131-1.536-.019-4.872-.395-6.206-.077-.27-.426-.468-.698-.398-1.34.352-4.287 1.922-5.545 2.815-.229.162-.382.085-.395-.196a3.298 3.298 0 0 0-.024-.312.405.405 0 0 0-.569-.331c-1.279.576-3.329 2.252-4.535 3.675-.18.214-.318.168-.336-.11a8.03 8.03 0 0 0-.064-.646c-.037-.278-.263-.389-.486-.217-1.778 1.365-3.314 4.431-3.975 5.78-.122.254-.272.232-.361-.034a3.65 3.65 0 0 0-.294-.658c-.141-.242-.413-.227-.554.019-1.956 3.378-.067 7.788 1.652 13.228.092.264.346.334.563.16zm-79.74 82.825l-4.036 4.626c-.175.15-.297.086-.275-.144l1.518-6.047c.021-.226-.141-.367-.361-.303-4.467 1.27-8.308 1.964-9.728 4.807-.101.205.009.398.236.386.192-.009.382-.043.578-.095.22-.058.3.034.184.229-.621 1.056-2.014 3.473-2.145 5.291-.015.229.159.333.367.232a7.6 7.6 0 0 0 .468-.245c.199-.113.291-.04.227.177-.429 1.457-.646 3.602-.465 4.728a.327.327 0 0 0 .478.239c.07-.037.146-.077.223-.123.196-.12.318-.046.312.181-.042 1.254.211 3.959.572 5.027a.507.507 0 0 0 .582.297c1.077-.34 3.409-1.735 4.394-2.512.181-.141.309-.086.331.141.009.089.019.174.031.254a.325.325 0 0 0 .474.245c1.019-.521 2.616-1.965 3.538-3.17.138-.181.254-.15.278.077.024.211.052.376.08.52.042.224.229.306.404.159 1.389-1.181 2.515-3.736 2.996-4.859.092-.211.214-.202.297.012.074.196.159.364.263.523.125.19.346.165.45-.037 1.429-2.785-.278-6.212-1.814-10.496-.074-.218-.282-.27-.457-.12zm197.893-19.07c-.113.257.031.633.288.75 1.261.575 4.535 1.227 6.074 1.331.281.019.352.178.184.401a5.944 5.944 0 0 0-.181.257.402.402 0 0 0 .232.615c1.356.364 4.002.367 5.835.024.275-.052.355.07.19.3a9.497 9.497 0 0 0-.358.539c-.147.239-.043.468.238.478 2.24.067 5.368-1.331 6.735-1.958.254-.116.358-.006.26.254a3.132 3.132 0 0 0-.189.695c-.043.278.177.438.44.336 3.599-1.358 4.866-5.887 6.999-11.056.107-.26-.04-.48-.321-.486l-7.488.887c-.282-.009-.34-.168-.132-.358l6.365-4.256c.208-.19.175-.45-.076-.576-5.117-2.524-9.187-5.058-12.825-3.638-.26.101-.318.367-.101.545.187.15.383.278.606.392.251.128.248.278-.021.361-1.435.45-4.697 1.502-6.316 3.054-.202.196-.128.435.141.514.171.052.37.107.63.163.275.061.3.202.058.349-1.591.973-3.556 2.748-4.321 3.926a.402.402 0 0 0 .239.612c.095.024.196.049.303.07.275.055.331.22.135.422-1.074 1.106-3.069 3.78-3.623 5.053zM384.077 93.957c.189.129.162.267-.064.306l-6.157.174c-.226.04-.317.236-.201.432 2.341 3.923 3.904 7.43 6.974 8.1.223.049.382-.104.314-.324a2.93 2.93 0 0 0-.235-.539c-.113-.199-.043-.3.181-.239 1.178.343 3.874 1.102 5.677.78.226-.04.284-.239.134-.413a6.138 6.138 0 0 0-.352-.392c-.159-.165-.113-.272.116-.263 1.524.055 3.663-.26 4.713-.716a.326.326 0 0 0 .113-.523 4.834 4.834 0 0 0-.175-.187c-.162-.163-.122-.297.101-.346 1.23-.266 3.798-1.184 4.749-1.799.193-.125.264-.447.145-.64-.6-.964-2.531-2.886-3.528-3.651-.184-.141-.159-.278.058-.358.086-.03.162-.061.239-.092a.33.33 0 0 0 .122-.523c-.759-.859-2.558-2.059-3.96-2.656-.211-.089-.208-.208.007-.288a8.33 8.33 0 0 0 .489-.205c.208-.098.239-.3.052-.432-1.493-1.059-4.253-1.521-5.468-1.713-.227-.037-.248-.156-.062-.291.165-.12.312-.245.444-.389.155-.168.076-.376-.147-.429-3.108-.713-6.096 1.818-9.93 4.471-.189.132-.184.346.006.475l5.645 2.67z"/></svg>