<svg xmlns="http://www.w3.org/2000/svg" width="560.619" height="560.619" viewBox="0 0 560.619 560.619"><path d="M550.669 118.08c-.502-.569-1.184-1.181-1.988-1.867a30.318 30.318 0 0 0-2.904-2.047c-2.215-1.377-4.979-2.699-8.033-3.843-3.057-1.138-6.4-2.118-9.779-2.928-6.762-1.634-13.652-2.586-18.84-3.127-.766-.08-1.479-.15-2.164-.211 11.355-7.329 18.891-18.427 16.781-35.123-.109 45.744-65.479 42.087-104.373 40.472 38.676-15.765 77.047-32.463 103.266-62.858-11.452 10.852-24.964 19.187-39.613 26.142.018-.067.039-.123.055-.189.264-.897.41-1.882.627-2.871.133-1.013.324-2.041.389-3.106.07-1.062.16-2.129.111-3.21a23.808 23.808 0 0 0-.197-3.182c-.066-1.043-.309-2.053-.498-3.023-.152-.976-.486-1.882-.744-2.739-.232-.866-.557-1.649-.881-2.362-.32-.71-.561-1.377-.865-1.925-.311-.544-.578-1.019-.803-1.411-.439-.774-.695-1.215-.695-1.215s.156.484.436 1.334c.135.419.303.93.492 1.515.188.584.285 1.279.447 2.007.168.731.318 1.524.367 2.381.07.851.211 1.729.162 2.659-.01.924.021 1.863-.117 2.818a20.015 20.015 0 0 1-.41 2.858c-.146.948-.424 1.878-.676 2.785-.242.909-.602 1.771-.891 2.61-.369.82-.656 1.625-1.045 2.347a25.538 25.538 0 0 1-1.074 2.017 27.712 27.712 0 0 1-1.83 2.812 9.482 9.482 0 0 1-.527.67l-.152.184c-55.949 24.045-125.504 31.438-162.729 77.822 5.027-14.912 12.746-29.199 17.189-45.472.105-.089.217-.174.311-.282.154-.168.285-.346.395-.532l.025-.043.166-.278a9.42 9.42 0 0 1 .449-.722 27.952 27.952 0 0 1 2.025-2.678c.449-.544.965-1.114 1.533-1.695.545-.612 1.205-1.154 1.852-1.781.691-.554 1.383-1.187 2.154-1.723.768-.545 1.545-1.12 2.389-1.582a20.201 20.201 0 0 1 2.551-1.355c.854-.453 1.746-.744 2.613-1.065.855-.358 1.73-.526 2.555-.75.822-.245 1.619-.371 2.365-.462.744-.092 1.428-.239 2.041-.26l1.59-.052 1.402-.043s-.502-.085-1.381-.239c-.443-.076-.98-.171-1.6-.275-.621-.104-1.328-.101-2.105-.162-.779-.064-1.625-.101-2.521-.027-.896.052-1.859.046-2.83.229-.977.15-2.008.266-3.012.557a23.429 23.429 0 0 0-3.059.894c-1.031.321-2.008.765-2.98 1.194-.98.419-1.883.951-2.789 1.419-.623.392-1.242.759-1.832 1.135 2.539-15.64 1.352-33.363-8.049-55.147 8.312 25.23 6.672 44.349 1.08 60.998a3.335 3.335 0 0 0-.834 2.384c-7.627 21.028-21.25 38.305-28.375 59.404-.15-.272-.295-.532-.457-.817-1.182-1.989-2.609-4.271-4.389-6.545l-1.35-1.729c-.494-.554-.996-1.114-1.504-1.68-.967-1.157-2.16-2.169-3.26-3.231-1.156-1.013-2.402-1.937-3.614-2.827-1.328-.75-2.512-1.652-3.853-2.197-1.34-.532-2.537-1.236-3.843-1.484-.63-.165-1.246-.327-1.839-.486l-.869-.227a117.86 117.86 0 0 1-.866-.083l-3.057-.285c-.912.031-1.702.123-2.347.162l-2.022.159 2.022.125c.64.049 1.417.07 2.295.163.86.205 1.83.434 2.889.685.263.061.529.125.802.19l.792.333c.533.227 1.086.459 1.652.698 1.163.385 2.204 1.224 3.351 1.873 1.147.658 2.129 1.667 3.225 2.497.995.979 1.999 1.967 2.916 3.036.865 1.126 1.805 2.16 2.539 3.356.387.575.771 1.147 1.152 1.711.338.59.676 1.178 1.002 1.753 1.322 2.292 2.33 4.562 3.143 6.509.777 1.968 1.363 3.626 1.703 4.789.352 1.141.486 1.753.504 1.793.139.419.355.79.625 1.104l-.01.034c-7.83 35.174-.172 80.82-3.105 119.135-7.871-22.369-24.71-43.281-32.813-65.625a3.588 3.588 0 0 0-.899-2.573c-6.038-17.98-7.809-38.624 1.166-65.867-10.153 23.52-11.432 42.66-8.69 59.545-.637-.41-1.307-.805-1.98-1.227-.982-.505-1.953-1.077-3.011-1.533-1.053-.462-2.105-.942-3.219-1.288-1.083-.41-2.197-.713-3.305-.967-1.086-.312-2.197-.44-3.253-.603-1.046-.202-2.09-.193-3.057-.248-.967-.08-1.882-.04-2.72.031-.839.067-1.604.064-2.274.174-.667.116-1.249.214-1.729.3l-1.49.26 1.511.049 1.72.055c.661.024 1.402.18 2.204.281.801.098 1.665.236 2.552.499.891.239 1.833.422 2.76.811.933.349 1.9.661 2.821 1.15.939.428 1.87.899 2.754 1.466.912.499 1.753 1.123 2.58 1.708.833.578 1.579 1.264 2.326 1.86.694.676 1.408 1.264 1.998 1.925a28.764 28.764 0 0 1 1.659 1.83 29.681 29.681 0 0 1 2.188 2.892c.245.368.404.625.486.781l.178.303.027.046c.119.202.263.395.425.575.104.113.22.205.336.303 4.798 17.57 13.131 32.996 18.559 49.098-40.178-50.08-115.282-58.061-175.696-84.025a7.825 7.825 0 0 0-.166-.199 10.756 10.756 0 0 1-.566-.722 29.605 29.605 0 0 1-1.977-3.039 27.899 27.899 0 0 1-1.157-2.179c-.422-.777-.731-1.649-1.132-2.534-.309-.906-.701-1.839-.961-2.821-.272-.979-.572-1.983-.731-3.008-.232-1.022-.361-2.057-.444-3.088-.15-1.034-.113-2.047-.125-3.044-.052-1.004.098-1.952.175-2.871.052-.927.217-1.781.397-2.57.178-.786.282-1.539.484-2.169.205-.63.385-1.181.532-1.637l.468-1.438-.75 1.312c-.242.422-.532.937-.866 1.524-.333.594-.587 1.313-.937 2.078-.352.768-.701 1.613-.952 2.549-.275.927-.636 1.906-.802 2.959-.205 1.046-.465 2.136-.539 3.265-.138 1.126-.229 2.279-.211 3.436-.052 1.166.043 2.32.119 3.467.067 1.15.275 2.258.419 3.354.232 1.068.392 2.133.676 3.1.019.073.043.134.061.208-15.814-7.509-30.407-16.512-42.77-28.232 28.311 32.819 69.744 50.852 111.503 67.874-41.999 1.744-112.578 5.692-112.7-43.703-2.277 18.029 5.857 30.012 18.118 37.925-.741.067-1.512.141-2.335.229-5.6.584-13.042 1.616-20.343 3.378-3.647.875-7.258 1.931-10.56 3.161-3.299 1.236-6.282 2.662-8.675 4.149a33.094 33.094 0 0 0-3.133 2.209c-.872.741-1.606 1.401-2.148 2.017-.584.566-.939 1.108-1.212 1.441l-.407.523s.162-.165.468-.471c.312-.3.719-.783 1.362-1.27.6-.532 1.398-1.092 2.323-1.701a31.967 31.967 0 0 1 3.28-1.763c4.942-2.341 12.102-3.969 19.33-4.771 7.23-.841 14.532-.958 19.981-.863a168 168 0 0 1 6.57.236l2.445.165.119.009a3.563 3.563 0 0 0 3.033-1.38c11.349 4.837 24.37 7.319 35.716 8.467 27.004 2.748 54.532 4.391 79.419 9.915-4.838 2.641-10.937 6.239-16.683 10.407-3.042 2.2-5.976 4.55-8.562 6.943-2.579 2.399-4.792 4.853-6.438 7.139a32.265 32.265 0 0 0-2.056 3.237c-.523 1.016-.952 1.909-1.221 2.684-.324.747-.447 1.383-.572 1.795l-.174.641.254-.615c.174-.395.367-1 .777-1.696.352-.722.875-1.539 1.5-2.457a31.64 31.64 0 0 1 2.362-2.876c3.678-4.045 9.682-8.277 16.059-11.769 6.365-3.531 13.076-6.417 18.149-8.406a162.013 162.013 0 0 1 6.163-2.283c.232-.077.416-.141.615-.208 13.69 3.807 26.399 9.07 37.494 16.778 30.419 21.129 46.531 52.959 47.935 97.899a101.253 101.253 0 0 0-2.399-1.992 102.185 102.185 0 0 0-3.369-2.537c-1.251-.828-2.503-1.775-3.926-2.588a49.212 49.212 0 0 0-4.379-2.471c-1.49-.834-3.127-1.471-4.722-2.156-1.597-.676-3.308-1.113-4.915-1.662-1.695-.314-3.317-.768-4.938-.928-1.634-.064-3.176-.375-4.667-.207-1.481.156-2.883.092-4.134.416-1.242.297-2.384.568-3.394.811-.982.314-1.79.74-2.473 1.014-1.346.58-2.117.914-2.117.914l2.222-.623c.707-.176 1.539-.484 2.53-.662l3.36-.342c1.218-.15 2.564.098 3.951.131 1.396.021 2.827.525 4.309.773 1.472.346 2.931.98 4.428 1.463 1.432.723 2.922 1.312 4.314 2.139 1.386.836 2.794 1.602 4.073 2.568 1.319.881 2.555 1.842 3.721 2.812 1.199.912 2.246 1.957 3.29 2.863 1.006.959 1.937 1.883 2.778 2.746 1.662 1.756 2.99 3.264 3.85 4.35.866 1.059 1.282 1.656 1.312 1.689l.358.367.016.016c.297.303.643.529 1.004.703-.007.529.012 1.039 0 1.57-.726 34.4-3.786 70.809 2.736 100.545-.459-.008-.918-.021-1.375-.027-15.942.268-31.9.637-47.531 2.342 10.368 26.554 36.737 67.602 36.737 67.602l69.307-.433 19.23-67.602c-14.693-2.922-14.575 1.852-30.217.449-7.322-.795-14.721-1.287-22.15-1.633-18.6-31.203-13.033-79.01-12.363-123.588 9.438-21.375 10.049-48.955 9.303-77.308.502-.515.982-1.053 1.49-1.552 1.184-.894 2.246-1.985 3.484-2.695 1.24-.701 2.359-1.604 3.617-2.02.613-.257 1.209-.511 1.785-.752.289-.123.574-.245.855-.361l.867-.205 3.121-.74c.947-.101 1.787-.123 2.479-.175l2.184-.134-2.182-.174c-.697-.046-1.551-.144-2.533-.178l-3.299.306c-.307.03-.617.058-.936.088-.311.08-.621.163-.938.245l-1.982.523c-1.41.27-2.701 1.028-4.148 1.604-1.385.563-2.617 1.469-3.969 2.255-.301-9.933-.707-19.92-.916-29.731-.01-.493.006-.964 0-1.454.336-.162.654-.37.93-.652l.016-.015.33-.34c.031-.03.414-.581 1.219-1.563.799-1.004 2.029-2.402 3.564-4.03.781-.802 1.645-1.656 2.574-2.543.963-.838 1.934-1.809 3.045-2.653a42.183 42.183 0 0 1 3.445-2.604c1.182-.894 2.484-1.604 3.77-2.377 1.289-.765 2.672-1.313 3.996-1.98 1.387-.447 2.738-1.034 4.102-1.355 1.369-.232 2.697-.701 3.99-.719 1.285-.03 2.529-.263 3.656-.122 1.141.116 2.184.223 3.111.315.918.165 1.686.447 2.344.612l2.057.579-1.961-.848c-.633-.251-1.383-.646-2.293-.937-.936-.223-1.988-.477-3.143-.752-1.158-.3-2.457-.242-3.828-.386-1.379-.156-2.809.131-4.322.193-1.5.15-3.002.566-4.572.86-1.488.508-3.072.912-4.553 1.539-1.477.633-2.994 1.224-4.373 1.998-1.43.701-2.775 1.484-4.059 2.286-1.314.756-2.475 1.631-3.635 2.399a103.188 103.188 0 0 0-3.117 2.347c-.814.658-1.549 1.273-2.223 1.845 1.301-41.619 16.221-71.096 44.395-90.665 10.275-7.139 22.045-12.01 34.725-15.539.184.061.355.119.57.193 1.379.48 3.359 1.19 5.709 2.114 4.701 1.842 10.912 4.517 16.809 7.785 5.906 3.234 11.467 7.151 14.871 10.9a29.784 29.784 0 0 1 2.189 2.665c.578.851 1.064 1.609 1.389 2.277.379.646.557 1.203.719 1.57.152.37.232.569.232.569l-.162-.593c-.115-.383-.229-.97-.529-1.662-.248-.716-.643-1.542-1.129-2.484a30.112 30.112 0 0 0-1.906-2.999c-1.523-2.117-3.574-4.391-5.965-6.612-2.393-2.219-5.113-4.395-7.932-6.432-5.324-3.862-10.969-7.191-15.449-9.639 23.049-5.113 48.541-6.637 73.551-9.183 10.508-1.062 22.566-3.36 33.078-7.84a3.286 3.286 0 0 0 2.809 1.276l.111-.009 2.264-.15c1.459-.083 3.559-.178 6.084-.217 5.049-.086 11.811.021 18.506.802 6.693.74 13.324 2.249 17.9 4.416a28.66 28.66 0 0 1 3.037 1.631c.859.566 1.596 1.083 2.15 1.576.598.453.973.9 1.262 1.178l.434.438-.377-.486c-.25-.298-.58-.8-1.119-1.326z"/><path d="M153.062 179.821c-5.352-4.437-11.646-7.197-17.791-10.331-4.89-2.494-10-5.71-12.812-10.615 1.242 6.065 3.476 12.632 7.518 17.405 5.805 6.854 13.804 11.034 20.667 16.643 4.565 3.73 8.366 8.767 10.854 14.122 2.219-9.709-.657-20.77-8.436-27.224z"/><path d="M148.503 193.542c-8.29-6.989-19.29-11.967-23.461-22.699-.502 4.786-.156 9.801 1.025 14.458 2.075 8.191 7.739 13.858 15.067 17.769 1.903 1.016 3.92 1.793 5.946 2.531 2.038.741 4.104 1.429 6.095 2.292 1.861.808 3.651 1.643 5.074 3.136.86.903 1.665 1.873 2.411 2.874-.003-.003-1.756-11.591-12.157-20.361zM356.804 90.013c6.734 1.49 13.348 3.36 20.299 3.338 10.107-.034 19.361-6.744 23.822-15.649-5.32 2.549-11.459 4.021-17.355 3.997-8.861-.037-17.697-1.897-26.533-.297-6.156 1.117-12.057 4.761-16.871 8.654 5.288-1.992 11.276-1.227 16.638-.043z"/><path d="M400.944 72.562c-2.051.248-3.963-.245-5.912-.805-2.088-.6-4.115-1.383-6.16-2.108-2.029-.719-4.082-1.401-6.197-1.827-8.139-1.64-16.117-.869-22.926 4.134-3.869 2.846-7.328 6.497-9.98 10.508 10.045-5.631 21.701-2.479 32.543-2.604 13.605-.156 22.326-7.983 22.326-7.983a31.99 31.99 0 0 1-3.694.685zM236.141 190.623c-3.078 2.197-6.79 3.803-10.517 4.44-5.6.955-11.38.756-16.784 2.742-3.764 1.383-7.087 4.336-9.697 7.326 3.118-1.845 6.986-2.022 10.499-1.867 4.416.199 8.797.649 13.186-.131 6.38-1.139 11.481-6.396 13.313-12.51z"/><path d="M237.843 186.535c-.734.321-1.487.606-2.252.838-1.267.383-2.527.285-3.822.144-1.383-.15-2.751-.419-4.122-.652-1.362-.229-2.733-.435-4.113-.471-5.321-.138-10.272 1.23-14.018 5.141a26.874 26.874 0 0 0-5.144 7.736c5.722-4.664 13.427-3.959 20.26-5.236 8.569-1.595 13.211-7.5 13.211-7.5zm.994-26.962c3.724.636 7.438 2.243 10.517 4.44-1.833-6.114-6.937-11.371-13.314-12.509-4.388-.78-8.767-.331-13.186-.132-3.516.156-7.381-.021-10.499-1.866 2.61 2.989 5.933 5.942 9.697 7.326 5.405 1.985 11.185 1.783 16.785 2.741z"/><path d="M244.979 167.116c1.292-.138 2.555-.239 3.822.144a20.22 20.22 0 0 1 2.252.838s-4.642-5.906-13.213-7.506c-6.83-1.273-14.538-.572-20.26-5.236a26.78 26.78 0 0 0 5.144 7.736c3.749 3.911 8.7 5.278 14.018 5.141 1.383-.037 2.754-.239 4.112-.471 1.374-.227 2.742-.496 4.125-.646zm43.026-69.985c5.404 1.986 11.188 1.784 16.785 2.742 3.723.633 7.438 2.243 10.516 4.44-1.832-6.114-6.936-11.371-13.312-12.509-4.389-.78-8.771-.331-13.186-.131-3.518.156-7.381-.021-10.5-1.867 2.613 2.989 5.933 5.942 9.697 7.325z"/><path d="M302.696 108.535c1.383-.037 2.754-.239 4.113-.471 1.371-.232 2.738-.502 4.121-.651 1.291-.138 2.555-.239 3.822.144.766.232 1.521.517 2.252.838 0 0-4.643-5.906-13.213-7.506-6.83-1.272-14.539-.572-20.26-5.235a26.772 26.772 0 0 0 5.143 7.735c3.751 3.919 8.7 5.284 14.022 5.146zm-23.286 91.69c-2.491-1.102-5.159-1.472-7.812-1.995-2.111-.419-4.382-1.086-5.967-2.635 1.117 2.154 2.659 4.391 4.694 5.762 2.922 1.964 6.386 2.687 9.571 4.07 2.121.918 4.091 2.414 5.603 4.165-.199-3.899-2.467-7.763-6.089-9.367z"/><path d="M279.156 205.889c-3.871-1.75-8.553-2.454-11.273-6.056a16.381 16.381 0 0 0 1.931 5.343c1.659 2.867 4.4 4.4 7.58 5.092.826.181 1.671.257 2.513.318.848.061 1.701.101 2.542.214.787.104 1.551.229 2.25.643.422.248.826.529 1.217.826-.001.001-1.901-4.183-6.76-6.38zm-213.72-45.618c3.825 3.124 7.007 7.344 9.088 11.824 1.857-8.127-.551-17.393-7.065-22.797-4.48-3.715-9.752-6.028-14.896-8.65-4.094-2.087-8.372-4.783-10.728-8.889 1.041 5.08 2.91 10.578 6.294 14.575 4.862 5.742 11.56 9.243 17.307 13.937z"/><path d="M63.643 160.788c-6.94-5.851-16.154-10.021-19.648-19.009a35.003 35.003 0 0 0 .857 12.108c1.738 6.86 6.481 11.606 12.616 14.881 1.594.851 3.284 1.502 4.979 2.117 1.707.622 3.436 1.197 5.104 1.919 1.558.676 3.057 1.374 4.25 2.628.722.756 1.393 1.57 2.02 2.405 0 .001-1.469-9.705-10.178-17.049zM442.024 41.206c1.604 11.129 10.428 20.288 20.928 23.822-3.633-5.468-6.207-12.004-7.09-18.504-1.334-9.768-.65-19.789-3.783-29.278C449.897 10.637 444.966 4.7 439.931 0c3.018 5.518 3.104 12.237 2.629 18.324-.596 7.653-1.635 15.226-.536 22.882z"/><path d="M469.962 50.505c.477-2.347.912-4.715 1.053-7.111.547-9.223-1.535-17.892-8.104-24.621-3.732-3.825-8.291-7.069-13.123-9.373 7.76 10.196 6.092 23.525 7.906 35.45 2.277 14.963 12.256 23.36 12.256 23.36a35.678 35.678 0 0 1-1.326-3.957c-.59-2.218-.342-4.403-.027-6.637.338-2.386.884-4.745 1.365-7.111zM101.688 271.636c7.491 1.658 14.85 3.739 22.586 3.715 11.246-.036 21.542-7.503 26.502-17.408-5.921 2.836-12.751 4.474-19.309 4.446-9.859-.04-19.688-2.111-29.52-.331-6.849 1.242-13.412 5.3-18.77 9.63 5.883-2.221 12.547-1.371 18.511-.052z"/><path d="M130.063 260.342c15.135-.171 24.838-8.883 24.838-8.883-1.35.33-2.727.593-4.104.762-2.28.278-4.409-.272-6.576-.896-2.32-.667-4.581-1.539-6.854-2.344-2.258-.798-4.541-1.557-6.895-2.032-9.057-1.827-17.931-.967-25.508 4.599-4.309 3.164-8.155 7.228-11.108 11.692 11.177-6.267 24.145-2.761 36.207-2.898zm244.803-68.119c5.479-5.373 11.236-10.404 15.436-16.9 6.104-9.443 5.465-22.148-.133-31.71-.854 6.511-3.207 13.127-6.809 18.608-5.412 8.24-12.508 15.349-16.379 24.56-2.697 6.417-2.877 14.131-2.17 20.982 1.346-6.139 5.696-11.262 10.055-15.54z"/><path d="M386.987 136.617a34.928 34.928 0 0 1-1.602 3.856c-1.012 2.062-2.631 3.546-4.338 5.024-1.826 1.582-3.789 2.999-5.703 4.464-1.904 1.457-3.787 2.956-5.467 4.67-6.471 6.594-10.594 14.498-10.061 23.886.303 5.336 1.607 10.777 3.74 15.686.846-12.785 10.861-21.741 17.324-31.922 8.115-12.779 6.107-25.664 6.107-25.664zM29.451 213.154c3.996.193 8.1 1.411 11.616 3.329-2.702-6.19-8.733-11.068-15.579-11.454-4.709-.263-9.256.768-13.871 1.536-3.675.612-7.76.915-11.27-.627 3.125 2.809 6.989 5.49 11.12 6.466 5.927 1.402 11.98.456 17.984.75z"/><path d="M12.963 218.903c4.434 3.635 9.81 4.443 15.386 3.62 1.447-.214 2.861-.603 4.262-1.016 1.411-.416 2.815-.875 4.25-1.206 1.34-.309 2.653-.575 4.033-.333a21.45 21.45 0 0 1 2.476.597s-5.627-5.618-14.841-6.208c-7.341-.471-15.352 1.245-21.955-2.929a28.51 28.51 0 0 0 6.389 7.475zm515.042-127.88c-4.188 1.539-7.883 4.826-10.791 8.152 3.471-2.053 7.773-2.249 11.684-2.075 4.914.22 9.789.722 14.67-.147 7.096-1.264 12.771-7.114 14.812-13.917-3.424 2.445-7.555 4.231-11.701 4.938-6.231 1.063-12.662.839-18.674 3.049z"/><path d="M553.513 79.582c-1.539-.165-3.064-.465-4.588-.725-1.514-.257-3.037-.483-4.578-.523-5.92-.153-11.428 1.368-15.596 5.719a29.775 29.775 0 0 0-5.723 8.608c6.365-5.19 14.939-4.407 22.541-5.823 9.537-1.778 14.703-8.351 14.703-8.351-.818.358-1.656.676-2.506.933-1.412.428-2.816.315-4.253.162zM351.735 260.373c-2.041-6.802-7.717-12.653-14.812-13.917-4.881-.869-9.756-.367-14.67-.147-3.91.175-8.211-.024-11.684-2.075 2.904 3.327 6.602 6.613 10.789 8.152 6.014 2.209 12.445 1.986 18.676 3.051 4.143.704 8.276 2.494 11.701 4.936z"/><path d="M337.702 265.076c1.537-.04 3.064-.266 4.578-.523 1.523-.257 3.049-.557 4.588-.725 1.438-.153 2.842-.266 4.25.159.85.257 1.691.575 2.506.934 0 0-5.166-6.57-14.703-8.351-7.602-1.417-16.176-.636-22.541-5.823a29.876 29.876 0 0 0 5.723 8.608c4.173 4.353 9.681 5.874 15.599 5.721zM305.595 54.282c4.143.707 8.273 2.494 11.701 4.938-2.041-6.802-7.717-12.653-14.814-13.917-4.881-.869-9.754-.368-14.67-.147-3.91.174-8.209-.024-11.682-2.075 2.904 3.326 6.6 6.613 10.79 8.152 6.013 2.207 12.444 1.984 18.675 3.049z"/><path d="M304.483 55.42c-7.602-1.417-16.176-.637-22.539-5.823a29.85 29.85 0 0 0 5.721 8.608c4.172 4.351 9.68 5.872 15.598 5.719 1.535-.04 3.062-.266 4.578-.523 1.523-.257 3.047-.557 4.586-.725 1.439-.153 2.844-.267 4.25.159.852.257 1.693.575 2.506.933.004 0-5.162-6.57-14.7-8.348zm-46.812 271.924c-4.535-2.004-9.388-2.678-14.213-3.633-3.84-.758-7.972-1.977-10.854-4.795 2.032 3.92 4.838 7.994 8.541 10.484 5.315 3.576 11.616 4.889 17.415 7.402 3.858 1.67 7.445 4.391 10.189 7.578-.365-7.089-4.486-14.12-11.078-17.036z"/><path d="M257.209 337.645c-7.044-3.186-15.56-4.465-20.508-11.018a29.727 29.727 0 0 0 3.513 9.723c3.014 5.217 8.005 8.004 13.791 9.262 1.502.328 3.039.469 4.572.582 1.542.113 3.094.184 4.627.389 1.432.193 2.824.416 4.091 1.166.765.453 1.505.961 2.212 1.502-.003-.001-3.457-7.61-12.298-11.606zm-54.923-173.084c3.972 3.244 7.276 7.625 9.44 12.283 1.931-8.442-.572-18.066-7.338-23.678-4.654-3.859-10.128-6.261-15.475-8.984-4.253-2.169-8.696-4.966-11.145-9.232 1.081 5.275 3.023 10.985 6.54 15.141 5.049 5.957 12.007 9.592 17.978 14.47z"/><path d="M194.011 173.383c1.655.884 3.409 1.561 5.171 2.2 1.772.646 3.571 1.242 5.3 1.992 1.619.701 3.176 1.429 4.413 2.729.75.786 1.447 1.631 2.099 2.5 0 0-1.524-10.08-10.572-17.705-7.209-6.077-16.778-10.41-20.407-19.743a36.395 36.395 0 0 0 .891 12.577c1.804 7.124 6.731 12.05 13.105 15.45zm-8.43 117.515c5.857 1.295 11.609 2.924 17.656 2.904 8.791-.031 16.839-5.865 20.719-13.611-4.63 2.218-9.967 3.498-15.095 3.476-7.708-.029-15.392-1.648-23.079-.256-5.355.969-10.486 4.143-14.672 7.527 4.599-1.735 9.807-1.067 14.471-.04z"/><path d="M207.763 282.07c11.833-.135 19.419-6.946 19.419-6.946-1.056.258-2.13.466-3.207.594-1.784.218-3.445-.211-5.141-.7-1.814-.521-3.58-1.203-5.358-1.833-1.766-.625-3.55-1.218-5.389-1.588-7.081-1.429-14.018-.756-19.942 3.595a36.449 36.449 0 0 0-8.684 9.14c8.736-4.896 18.874-2.154 28.302-2.262zM496.251 43.223c-2.568 4.798-3.27 10.79-3.219 16.175 1.496-4.685 5.254-8.354 8.959-11.365 4.654-3.786 9.504-7.28 13.244-12.029 5.438-6.907 5.865-16.839 2.209-24.691-1.139 5.006-3.451 9.985-6.656 13.987-4.812 6.019-10.853 11.034-14.537 17.923z"/><path d="M491.278 36.267a36.347 36.347 0 0 0 1.766 12.482c1.592-9.89 10.037-16.129 15.811-23.583 7.246-9.354 6.621-19.529 6.621-19.529a27.248 27.248 0 0 1-1.525 2.882c-.939 1.533-2.309 2.567-3.742 3.593-1.537 1.099-3.168 2.059-4.766 3.06-1.588.994-3.16 2.025-4.592 3.234-5.522 4.664-9.303 10.514-9.573 17.861zm-224.647 90.108c-1.76-5.734-3.176-11.542-6.172-16.793-4.357-7.635-13.403-11.763-22.053-11.325 4.21 2.935 7.956 6.949 10.462 11.423 3.77 6.723 6.148 14.205 11.148 20.208 3.482 4.18 8.77 7.084 13.779 9.061-3.776-3.149-5.765-8.011-7.164-12.574z"/><path d="M263.932 134.937c-8.565-5.19-11.178-15.361-15.915-23.516-5.949-10.229-15.612-13.476-15.612-13.476a27.654 27.654 0 0 1 2.1 2.497c1.068 1.444 1.511 3.103 1.924 4.819.441 1.836.716 3.708 1.047 5.566.327 1.845.688 3.69 1.273 5.475 2.246 6.863 6.249 12.57 12.953 15.582 3.812 1.71 8.056 2.762 12.23 3.053zm227.751-8.577c-6.154-.551-12.727 1.377-18.33 3.822 5.561-.517 11.062 1.781 15.857 4.312 6.021 3.183 11.83 6.695 18.455 8.495 9.633 2.613 20.201-1.353 26.781-8.663-5.734 1.034-11.965.829-17.574-.738-8.43-2.354-16.355-6.439-25.189-7.228z"/><path d="M530.392 127.122c-1.83-1.117-3.559-2.396-5.316-3.62-1.744-1.215-3.521-2.402-5.422-3.363-7.322-3.696-15.119-5.049-22.914-2.068-4.43 1.695-8.68 4.266-12.258 7.393 11.041-2.729 21.312 3.323 31.668 6.043 12.996 3.415 23.352-1.756 23.352-1.756a31.827 31.827 0 0 1-3.691-.315c-2.017-.301-3.71-1.27-5.419-2.314zM334.905 59.22c2.715-1.604 6.074-1.759 9.131-1.622 3.842.171 7.654.566 11.469-.116 5.549-.989 9.986-5.563 11.58-10.878-2.678 1.913-5.906 3.308-9.146 3.862-4.869.832-9.898.658-14.6 2.384-3.274 1.202-6.162 3.77-8.434 6.37z"/><path d="M368.563 43.045a17.46 17.46 0 0 1-1.959.728c-1.102.333-2.201.245-3.324.125-1.201-.128-2.393-.364-3.586-.566-1.184-.199-2.377-.376-3.576-.41-4.627-.12-8.932 1.068-12.195 4.471a23.289 23.289 0 0 0-4.473 6.729c4.975-4.058 11.68-3.446 17.619-4.553 7.457-1.386 11.494-6.524 11.494-6.524zm165.565 14.397c4.699 1.729 9.727 1.555 14.598 2.384 3.242.551 6.469 1.949 9.146 3.862-1.594-5.318-6.031-9.89-11.578-10.878-3.816-.679-7.625-.288-11.467-.116-3.057.138-6.42-.018-9.131-1.622 2.268 2.597 5.157 5.165 8.432 6.37z"/><path d="M530.237 56.164a23.356 23.356 0 0 0 4.475 6.729c3.258 3.402 7.564 4.59 12.193 4.47 1.203-.03 2.396-.208 3.578-.41 1.193-.202 2.383-.438 3.586-.566 1.123-.119 2.221-.208 3.322.125.668.202 1.322.45 1.959.729 0 0-4.039-5.138-11.494-6.527-5.941-1.108-12.642-.496-17.619-4.55zM94.42 210.069c-3.816-.679-7.625-.288-11.466-.113-3.057.138-6.42-.019-9.131-1.622 2.271 2.598 5.159 5.168 8.433 6.371 4.7 1.729 9.728 1.555 14.6 2.384 3.24.551 6.469 1.949 9.146 3.862-1.597-5.322-6.034-9.893-11.582-10.882z"/><path d="M78.365 213.423a23.258 23.258 0 0 0 4.474 6.729c3.259 3.403 7.564 4.59 12.194 4.471 1.202-.031 2.393-.208 3.577-.41 1.193-.202 2.383-.438 3.586-.566 1.123-.12 2.222-.208 3.323.125.667.202 1.322.45 1.958.728 0 0-4.039-5.138-11.494-6.527-5.939-1.104-12.643-.493-17.618-4.55zM431.216 70.34c3.018 1.307 5.82 3.434 7.965 5.924-.283-5.545-3.506-11.041-8.658-13.32-3.545-1.567-7.338-2.093-11.111-2.839-3.002-.594-6.23-1.545-8.486-3.749 1.588 3.066 3.783 6.249 6.678 8.195 4.155 2.8 9.081 3.825 13.612 5.789z"/><path d="M427.655 77.229c1.174.254 2.373.367 3.574.453 1.205.089 2.416.144 3.615.303 1.121.15 2.207.327 3.199.912.6.355 1.178.753 1.729 1.175 0 0-2.699-5.949-9.611-9.073-5.508-2.491-12.164-3.489-16.031-8.611a23.28 23.28 0 0 0 2.744 7.602c2.355 4.074 6.258 6.253 10.781 7.239zm-11.558 128.608c4.158-4.082 8.535-7.901 11.723-12.837 4.637-7.173 4.15-16.821-.098-24.082-.648 4.945-2.436 9.969-5.172 14.134-4.109 6.258-9.5 11.656-12.441 18.654-2.047 4.875-2.186 10.735-1.648 15.937 1.022-4.667 4.325-8.556 7.636-11.806z"/><path d="M425.304 163.603c-.348.995-.752 1.98-1.215 2.929-.768 1.566-2 2.692-3.295 3.815-1.387 1.2-2.877 2.277-4.332 3.391-1.445 1.108-2.875 2.246-4.15 3.546-4.914 5.009-8.047 11.013-7.641 18.143a35.313 35.313 0 0 0 2.84 11.916c.643-9.709 8.25-16.512 13.16-24.245 6.158-9.709 4.633-19.495 4.633-19.495zm-194.46 60.903c-3.706-.661-7.408-.278-11.141-.11-2.971.132-6.236-.018-8.874-1.576 2.206 2.524 5.012 5.021 8.195 6.19 4.565 1.677 9.452 1.508 14.183 2.316 3.149.536 6.286 1.894 8.887 3.751-1.546-5.167-5.861-9.61-11.25-10.571z"/><path d="M215.245 227.765a22.673 22.673 0 0 0 4.345 6.536c3.167 3.305 7.35 4.461 11.845 4.342 1.169-.031 2.326-.202 3.476-.398 1.16-.196 2.316-.425 3.482-.551 1.092-.116 2.157-.202 3.228.123.646.196 1.285.438 1.903.71 0 0-3.923-4.991-11.166-6.34-5.764-1.074-12.278-.48-17.113-4.422z"/></svg>