<svg xmlns="http://www.w3.org/2000/svg" width="553.146" height="553.146" viewBox="0 0 553.146 553.146"><path d="M468.418 13.854c-4.737-.893-9.584-.829-14.339-.07A189.231 189.231 0 0 1 457.392 12c1.714-.138 3.424-.202 5.116-.123 5.845.272 11.585 2.007 16.925 4.327 3.17 1.38 6.387 3.105 9.795 3.855a54.436 54.436 0 0 0-13.445-11.086c4.385-3.865-.765-5.444-4.373-5.597a38.292 38.292 0 0 0-6.851.336c3.292-3.99-2.675-3.877-5.239-3.592-3.402.382-6.692 1.353-9.825 2.72-5.625 2.454-10.677 6.193-14.569 10.942-1.261 1.542-4.21 4.413-4.036 6.677-.526.272-1.027.523-1.563.802-6.438 3.442-13.645 7.476-21.264 12.301-7.607 4.837-15.744 10.312-23.947 16.674-8.32 6.227-16.546 13.513-24.826 21.334-4.045 4.006-8.237 8.021-12.157 12.405-1.971 2.179-4.076 4.275-5.952 6.585-1.903 2.292-3.812 4.596-5.734 6.906-1.971 2.28-3.739 4.728-5.566 7.148l-5.455 7.32-5.129 7.61c-1.735 2.531-3.434 5.089-4.96 7.754l-4.771 7.895c-.82 1.304-1.555 2.653-2.265 4.015l-2.21 4.042-4.382 8.094c-1.321 2.763-2.641 5.517-3.953 8.262-2.745 5.453-4.981 11.071-7.13 16.659-2.375 5.518-3.785 11.264-5.526 16.812-.78 2.8-1.563 5.575-2.09 8.378-.618 2.782-1.139 5.56-1.631 8.311-.456 2.754-1.117 5.444-1.374 8.161-.013.104-.021.202-.034.306a218.014 218.014 0 0 0-4.862-11.494c-3.326-7.068-6.756-13.773-10.499-19.829-3.381-5.676-6.906-10.823-10.306-15.523a24.432 24.432 0 0 1 2.164-5.272c2.169-3.947 5.633-7.09 9.364-9.55 7.781-5.141 19.055-9.229 22.384-18.84.691-1.995.842-4.317-.119-6.255-.558-1.12 1.245-2.154 1.942-3.026 1.558-1.946 2.963-4.024 4.098-6.246 1.965-3.843 3.587-8.997 2.081-13.292-4.997 13.464-21.124 17.191-30.833 26.095-7.503 6.882-11.977 16.656-13.837 26.567-.095.501-.279 2.797-.367 5.618-.468-.609-.93-1.193-1.396-1.781.141-1.34.208-2.604.266-2.962 1.34-8.442 4.728-17.234 10.214-23.896 3.718-4.517 8.546-8.075 13.602-10.961 3.002-1.714 6.312-3.256 8.954-5.533a54.558 54.558 0 0 0-16.935 4.128c-.468-5.826-4.816-2.647-7.099.153a38.571 38.571 0 0 0-3.834 5.688c-1.224-5.024-4.707-.181-6.013 2.044-1.732 2.953-2.925 6.169-3.706 9.499-1.215 5.174-1.331 10.569-.404 15.802a267.904 267.904 0 0 0-1.836-2.154c-3.305-3.746-6.264-6.922-8.837-9.413-5.064-5.028-8.29-7.604-8.29-7.604l-.018-.016a1.137 1.137 0 0 0-1.549 1.655s2.681 2.935 6.824 8.589a219.311 219.311 0 0 1 15.493 24.312c5.75 10.395 11.509 22.999 16.096 36.897 1.08 3.498 2.243 7.023 3.127 10.67 1.004 3.611 1.839 7.304 2.656 11.022.845 3.709 1.377 7.512 2.05 11.285.398 3.822 1.062 7.607 1.251 11.448.22 3.834.569 7.644.407 11.466-.028 1.9-.055 3.797-.08 5.689-.071.945-.138 1.885-.208 2.827a125.56 125.56 0 0 0-1.661-5.612l-2.702-8.874c-1.046-2.916-2.096-5.845-3.149-8.776l-1.591-4.382c-.496-1.472-1.019-2.935-1.634-4.367l-3.534-8.635c-1.108-2.901-2.399-5.726-3.733-8.522-1.31-2.803-2.616-5.606-3.923-8.399l-4.296-8.161c-1.441-2.702-2.824-5.419-4.428-8.002-3.097-5.227-6.111-10.425-9.544-15.275-3.229-4.976-6.787-9.627-10.199-14.238-7.038-9.067-14.106-17.577-21.417-25.058-7.179-7.592-14.421-14.287-21.23-20.264-6.821-5.973-13.421-11.016-19.296-15.395a353.062 353.062 0 0 0-7.219-5.104c-.587-2.904-3.908-6.236-5.425-8.127-5.312-6.601-12.228-11.818-19.954-15.27-4.306-1.925-8.832-3.305-13.516-3.874-3.534-.425-11.756-.655-7.268 4.887a52.998 52.998 0 0 0-9.443-.548c-4.979.166-12.099 2.277-6.102 7.663-6.925 3.954-13.381 9.171-18.678 15.123 4.707-.995 9.162-3.335 13.553-5.196 7.39-3.133 15.328-5.453 23.391-5.759 8.094-.306 16.441 1.307 24.229 4.11a205.605 205.605 0 0 1 4.783 3.935c-11.598-5.138-24.643-7.644-37.182-5.395-17.88 3.21-35.447 17.782-54.389 12.014 3.452 5.242 10.462 7.766 16.319 8.825 3.385.612 6.839.808 10.272.725 1.54-.037 4.18-1.147 4.945.398 1.322 2.674 3.999 4.446 6.762 5.358 13.327 4.379 27.231-4.568 39.37-8.81 5.817-2.032 12.154-3.207 18.299-2.289 3.415.511 6.793 1.5 9.875 3.066.683.346 2.675 2.004 4.541 3.442a351.468 351.468 0 0 1 13.807 14.654c5.78 6.551 11.851 13.792 17.714 21.833 5.96 7.962 11.784 16.656 17.341 25.869 2.687 4.67 5.493 9.345 7.947 14.296 1.239 2.463 2.613 4.869 3.794 7.39 1.19 2.509 2.39 5.03 3.592 7.564 1.258 2.5 2.286 5.123 3.372 7.717 1.074 2.598 2.148 5.202 3.229 7.812.949 2.656 1.897 5.318 2.849 7.98.977 2.65 1.913 5.312 2.663 8.039 1.557 5.432 3.295 10.787 4.305 16.322.575 2.745 1.209 5.462 1.732 8.192.123.82.245 1.634.37 2.454a70.512 70.512 0 0 0-3.194-1.673c-.934-.456-1.885-.918-2.846-1.389-.995-.404-2.004-.817-3.021-1.23-1.986-.89-4.18-1.453-6.276-2.136-2.145-.581-4.348-1-6.484-1.386-1.273-.08-2.506-.242-3.724-.349-.009-.021 0-.043-.013-.064-1.315-2.494-6.573-2.98-9.012-3.503-7.233-1.548-14.792-1.276-21.928.636-3.978 1.065-7.803 2.623-11.292 4.816-2.628 1.656-8.329 6.028-2.234 7.314a46.41 46.41 0 0 0-6.701 4.825c-3.283 2.852-6.946 8.204.083 8.55a65.638 65.638 0 0 0-4.333 20.532c2.641-3.265 4.373-7.304 6.322-10.982 3.283-6.19 7.387-12.133 12.68-16.777 6.145-5.393 13.926-9.242 21.885-11.592.413-.076.814-.146 1.251-.226l1.147-.208c.401-.006.808-.009 1.221-.015.82-.012 1.667-.021 2.54-.034 1.123-.104 2.292.074 3.479.26-2.124.177-3.709.367-4.143.465-11.858 2.613-23.452 8.363-31.454 17.65-10.349 12.021-14.232 31.564-30.248 38.085 5.227 1.652 11.365-.495 15.918-3.002 2.631-1.45 5.08-3.219 7.362-5.165 1.022-.872 2.2-3.078 3.571-2.451 2.369 1.083 5.159.814 7.534-.092 11.441-4.369 15.939-18.088 21.83-27.644 2.824-4.581 6.472-8.865 11.142-11.625 2.595-1.533 5.428-2.724 8.381-3.357.107-.021.306-.037.489-.052.873.358 1.741.729 2.592 1.138 1.756.967 3.549 1.769 5.177 2.901.823.526 1.64 1.047 2.448 1.561l2.289 1.695c2.999 2.213 5.584 4.578 7.733 6.634.643.64 1.23 1.24 1.787 1.818.282 2.72.521 5.428.854 8.097.713 5.324.878 10.648 1.444 15.826.698 5.168.753 10.315 1.288 15.324.576 5.01.744 9.948 1.065 14.771.144 2.412.294 4.795.502 7.148.125 2.354.11 4.676.174 6.965.141 4.58.41 9.036.478 13.329-.046 4.281.021 8.421.083 12.381 0 1.977.174 39.765.104 41.641a188.366 188.366 0 0 0-.107 5.486c-.113 4.765-.006 9.158.003 13.128-.306 2.582-.478 5.158-.676 7.705-.34 4.085-.089 8.1.098 12.022.12 3.929.744 7.727 1.334 11.407.281 1.843.566 3.654.906 5.429.367 1.769.823 3.491 1.224 5.189.027.099.049.193.076.294-15.928 1.332-30.859 4.54-44.156 9.244l3.716 62.452 117.672 1.657 11.148-63.28c-14.533-4.871-44.176-9.64-61.617-10.511.024-1.01.049-2.014.07-3.045.013-1.536-.03-3.091.021-4.669.113-1.582.172-3.177.224-4.789.132-3.229.144-6.524.395-9.872.229-3.348.086-6.766.358-10.22.205-6.922.165-14.113.654-21.457l.34-5.551c.189-1.849.469-39.526.698-41.387.354-3.751 1.264-7.399 2.02-11.102.74-3.712 1.942-7.295 2.885-10.964 1.206-3.574 2.28-7.206 3.645-10.704 1.338-3.51 2.702-6.989 4.195-10.379 1.387-3.446 3.026-6.727 4.587-10.001a216.698 216.698 0 0 1 10.307-18.292 163.306 163.306 0 0 1 3.378-5.251c1.414-1.025 5.013-7.433 6.004-8.458 2.576-2.668 5.658-4.854 8.941-6.563 5.908-3.082 12.748-4.106 19.354-4.082 13.791.052 31.019 4.259 42.999-4.845 2.484-1.891 4.578-4.623 4.984-7.8.232-1.836 3.299-1.631 4.875-2.136 3.51-1.12 6.943-2.524 10.162-4.33 5.569-3.122 11.793-8.137 13.458-14.658-17.188 12.479-40.099 3.85-59.349 6.852-5.875.915-11.524 2.803-16.87 5.373.067-.33.027-.688-.141-1.013a1.504 1.504 0 0 0-.945-.75c2.849-1.374 5.771-2.54 8.745-3.443 8.28-2.509 17.143-2.938 25.731-2.344 5.104.352 10.438 1.166 15.561.529-7.454-4.18-15.823-7.212-24.229-8.797 4.198-7.558-3.761-7.207-8.864-5.633a56.587 56.587 0 0 0-9.382 3.858c2.612-7.191-5.646-4.082-9.079-2.411-4.551 2.215-8.657 5.199-12.351 8.657-6.625 6.203-11.814 13.914-14.89 22.463-.802 2.24-2.708 6.228-2.708 9.303-.896.802-1.8 1.609-2.709 2.463-4.528 4.254-9.342 9.012-14.094 14.395a131.49 131.49 0 0 0-3.445 3.935c.009-.109.03-.22.039-.333.27-2.953.618-5.937.734-8.966a85.22 85.22 0 0 1 .539-4.177c.37-3.075.768-6.401 1.196-9.954.609-7.087 2.173-14.979 3.191-23.538.643-4.272 1.549-8.678 2.332-13.238.395-2.28.719-4.602 1.185-6.94a315.657 315.657 0 0 0 1.557-7.075c1.06-4.774 1.916-9.707 3.29-14.633 1.396-4.917 2.169-10.092 3.825-15.129 1.392-5.101 2.567-10.37 4.238-15.557 1.615-5.205 2.949-10.6 4.929-15.817.919-2.644 1.837-5.297 2.761-7.956 1.025-2.619 2.157-5.208 3.234-7.833 2.035-5.312 4.706-10.343 7.243-15.459 1.233-2.579 2.641-5.061 4.085-7.524l4.256-7.43c1.536-2.402 3.072-4.801 4.603-7.191 1.542-2.387 3.029-4.804 4.725-7.065 1.646-2.301 3.283-4.593 4.915-6.873 1.621-2.292 3.418-4.431 5.092-6.649 3.326-4.465 6.952-8.596 10.456-12.736 7.166-8.127 14.498-15.683 21.817-22.488 7.24-6.904 14.535-12.975 21.417-18.412 6.895-5.422 13.488-10.055 19.419-14.052 1.783-.704 3.632-1.249 5.526-1.512 4.461-.627 9.051.267 13.256 1.778 8.775 3.152 18.801 9.731 28.491 6.644 2.011-.643 3.963-1.913 4.939-3.84.562-1.117 2.472-.294 3.586-.257 2.491.083 4.997-.037 7.454-.459 4.253-.728 9.354-2.515 11.892-6.294-13.779 4.054-26.424-6.626-39.367-9.071z"/></svg>