<svg xmlns="http://www.w3.org/2000/svg" width="573.85" height="573.85" viewBox="0 0 573.85 573.85"><path d="M554.047 110.737a1.51 1.51 0 0 0-1.766 1.145c-3.002 12.402-7.573 24.642-13.593 36.436-1.227-2.393-3.99-4.061-6.668-5.677-2.276-1.374-4.855-2.931-4.901-4.253-.019-.521.364-1.687 3.14-3.632.643-.45.838-1.31.459-1.995a1.525 1.525 0 0 0-1.938-.664c-7.629 3.241-10.392 13.195-8.571 20.56 1.004 4.063 3.96 6.515 6.093 8.005 3.871 2.702 3.871 2.702 1.215 6.756-9.611 14.661-21.854 28.917-36.387 42.378-23.118 21.408-49.168 36.218-76.754 51.9a2823.01 2823.01 0 0 0-10 5.701c-.514-3.363-2.022-6.484-3.494-9.522-1.836-3.792-3.568-7.372-3.25-11.068.272-2.925 3.868-3.54 6.836-3.54 1.857 0 3.507.248 4.327.395a1.523 1.523 0 0 0 1.738-1.068 1.534 1.534 0 0 0-.869-1.845 22.64 22.64 0 0 0-6.854-1.692c-10.229-.988-20.634 5.279-26.39 15.368-4.299 7.252-2.671 12.653-.948 18.372.795 2.632 1.612 5.352 1.891 8.415.386 4.253-2.142 6.239-6.301 9.125-.988.686-1.988 1.383-2.943 2.139a306.575 306.575 0 0 0-12.559 10.48c-7.897 6.971-15.171 14.181-21.615 21.423-15.294 17.277-27.571 36.209-36.562 56.375 1.481-42.553 7.259-78.346 17.602-109.141 12.047 5.422 22.359 4.367 32.978-3.296 9.204-6.637 17.99-18.642 15.046-32.424a1.508 1.508 0 0 0-1.582-1.208 1.534 1.534 0 0 0-1.438 1.374c-1.053 10.282-3.94 14.431-9.186 13.091-3.709-.958-6.949-3.06-10.383-5.282-2.834-1.836-5.746-3.724-9.002-4.966 11.652-17.393 26.649-33.746 44.603-48.626 14.718-12.197 30.422-21.54 47.053-31.429a1788.7 1788.7 0 0 0 10.062-6.013c11.193-6.762 20.86-13.231 29.551-19.78a281.783 281.783 0 0 0 12.638-10.107 50.68 50.68 0 0 0 1.931-1.75c2.516-2.362 4.4-4.021 7.543-3.045 1.955.603 3.636 1.692 5.413 2.843 2.519 1.637 5.126 3.326 8.715 3.69 4.416.272 8.847-.734 13.354-2.983 6.986-3.482 16.649-12.222 14.643-22.026a1.532 1.532 0 0 0-1.481-1.224c-.737.08-1.349.487-1.508 1.19-.444 1.934-2.161 8.247-5.674 8.247-.982 0-2.114-.459-3.372-1.362-.4-.287-1.025-.826-1.809-1.49-2.864-2.436-7.347-6.252-11.175-7.399 25.067-25.679 43.097-62.029 47.387-95.906a1.532 1.532 0 0 0-1.239-1.698c-.838-.163-1.575.358-1.766 1.144-3.001 12.405-7.573 24.646-13.592 36.438-1.228-2.393-3.99-4.061-6.668-5.676-2.276-1.374-4.856-2.931-4.902-4.253-.019-.52.364-1.686 3.14-3.632.643-.45.839-1.31.459-1.995a1.523 1.523 0 0 0-1.937-.664c-7.629 3.24-10.393 13.194-8.571 20.56 1.004 4.063 3.959 6.515 6.092 8.005 3.871 2.702 3.871 2.702 1.215 6.753-9.611 14.661-21.854 28.917-36.386 42.378-23.118 21.408-49.175 36.221-76.761 51.904-3.326 1.891-6.661 3.785-9.997 5.698-.511-3.363-2.02-6.484-3.491-9.523-1.836-3.791-3.567-7.372-3.25-11.068.272-2.928 3.868-3.541 6.833-3.541 1.857 0 3.511.251 4.33.398a1.524 1.524 0 0 0 1.738-1.068 1.532 1.532 0 0 0-.869-1.845 22.564 22.564 0 0 0-6.857-1.692c-10.187-.991-20.627 5.275-26.387 15.367-4.299 7.252-2.671 12.653-.948 18.373.796 2.631 1.612 5.352 1.892 8.415.382 4.25-2.143 6.236-6.301 9.122-.985.688-1.989 1.386-2.947 2.142a309.81 309.81 0 0 0-12.555 10.48c-7.901 6.974-15.175 14.18-21.616 21.426-29.851 33.718-48.155 73.884-52.94 116.151a274.14 274.14 0 0 0-1.744 30.723c-.591-1.404-1.181-2.812-1.769-4.22-11.879-28.449-19.144-53.391-22.191-76.005.074-3.454.074-6.554 0-9.479-.006-.205-.015-.41-.024-.618 8.632-.254 14.804-3.932 19.357-11.512 4.205-7.004 6.601-17.451.716-25.768a1.535 1.535 0 0 0-1.928-.49 1.534 1.534 0 0 0-.784 1.83c1.377 4.394 1.57 7.438.566 9.048-.49.79-1.319 1.264-2.524 1.45-2.638.401-5.26-.055-8.082-.539-2.191-.376-4.318-.777-6.772-.737 2.742-14.339 7.883-28.926 15.294-43.394 6.145-11.992 13.73-22.423 21.763-33.467 1.628-2.24 3.265-4.489 4.893-6.756 5.413-7.546 9.899-14.461 13.721-21.142a199.824 199.824 0 0 0 5.413-10.119 34.17 34.17 0 0 0 .774-1.692c1.059-2.426 1.658-3.604 3.693-3.825 1.401-.147 2.742.088 4.189.336 2.212.379 4.647.664 6.919-.052 2.974-1.056 5.679-3.005 8.044-5.795 3.663-4.318 7.589-12.928 3.4-18.951a1.534 1.534 0 0 0-1.846-.539 1.534 1.534 0 0 0-.918 1.689c.505 2.767.318 5.003-.502 5.989-.315.382-1.212.875-2.919.496-.331-.073-.875-.248-1.555-.456-2.374-.734-6.001-1.863-8.794-1.771 8.947-23.648 10.443-52.103 3.818-75.2a1.532 1.532 0 0 0-2.981.676c1.457 8.62 1.916 17.549 1.368 26.585-1.515-.903-3.513-1.181-5.462-1.451-1.484-.205-3.736-.517-4.027-1.147-.034-.067-.281-.734 1.004-2.812a1.53 1.53 0 0 0-2.405-1.864c-4.22 4.407-3.22 11.913.132 16.337 1.875 2.479 4.583 3.284 6.456 3.675.829.171 2.365.489 2.604.725.159.346-.135 2.01-.275 2.809-2.157 12.185-6.13 24.835-11.806 37.602-9.036 20.318-21.833 37.197-35.379 55.067a1949.21 1949.21 0 0 0-4.529 5.992c-1.276-1.842-2.99-3.326-4.657-4.78-2.203-1.913-4.281-3.718-5.067-6.089-.171-.526-.132-.964.128-1.42.811-1.432 3.562-2.623 5.93-3.167a1.53 1.53 0 0 0-.343-3.021h-.006a16.42 16.42 0 0 0-5.061.835c-8.005 2.567-12.39 10.765-13.183 17.721-.799 6.111 1.955 9.388 4.614 12.558 1.233 1.472 2.509 2.996 3.525 4.872 1.319 2.442.327 4.253-1.536 7.24-.456.731-.921 1.472-1.334 2.237a216.873 216.873 0 0 0-5.254 10.337c-2.714 5.729-5.08 11.429-7.056 16.986-5.095-14.012-12.344-27.411-21.598-39.896-4.116-5.523-8.81-11.062-13.957-16.466a214.439 214.439 0 0 0-8.225-8.173 42.848 42.848 0 0 0-1.968-1.71c-2.708-2.252-4.214-3.66-3.724-6.393.376-2.099 1.111-3.944 1.824-5.731 1.533-3.843 3.121-7.815.459-13.345-2.919-6.337-9.599-12.729-18.063-12.729-1.763.003-3.476.27-5.083.792a1.53 1.53 0 0 0-1.022 1.766c.156.759.796 1.282 1.637 1.215.459-.042 1.007-.07 1.594-.07 1.677 0 5.579.248 5.594 2.519-.003 2.509-1.414 4.875-2.907 7.38-1.132 1.9-2.295 3.85-2.932 5.998a1900.84 1900.84 0 0 0-6.172-4.266c-18.458-12.733-35.897-24.759-50.842-41.23-9.391-10.349-17.124-21.124-22.983-32.014-.383-.716-1.184-2.204-1.151-2.555.163-.325 1.524-1.111 2.255-1.53 1.656-.955 3.975-2.564 4.985-5.511 1.793-5.251.395-12.693-4.994-15.557a1.529 1.529 0 0 0-1.698 2.525c1.87 1.573 1.845 2.28 1.836 2.356-.083.688-2.121 1.689-3.47 2.35-1.744.857-3.535 1.735-4.725 3.112-3.354-8.424-5.716-17.057-7.032-25.704a1.515 1.515 0 0 0-1.658-1.291 1.529 1.529 0 0 0-1.383 1.582c.942 24.015 11.27 50.567 27.17 70.224-2.415.71-5.156 2.555-7.8 4.437-.575.413-1.04.747-1.334.918-.777.465-1.462.701-2.026.701-1.808 0-2.867-2.986-3.252-5.783a1.531 1.531 0 0 0-1.398-1.316 1.55 1.55 0 0 0-1.585 1.089c-2.09 7.029 4.333 13.978 9.162 16.934 3.121 1.91 6.3 2.916 9.507 2.99 2.619-.037 4.611-1.093 6.536-2.118 1.294-.688 2.518-1.34 3.874-1.631 1.979-.432 2.95.511 4.703 2.472.404.45.82.915 1.264 1.368a199.328 199.328 0 0 0 8.311 7.916c5.737 5.162 12.167 10.328 19.648 15.784 2.246 1.64 4.498 3.256 6.738 4.868 11.096 7.978 21.576 15.514 31.172 24.988 11.563 11.417 21.01 23.663 28.109 36.426-2.206.697-4.232 1.774-6.203 2.821-2.521 1.34-4.905 2.604-7.503 3.039-.315.052-.686.03-.884.076-1.031 0-4.131-.027-4.266-9.434a1.534 1.534 0 0 0-1.316-1.493c-.744-.119-1.459.346-1.68 1.068-2.987 9.746 2.564 18.914 8.751 24.248 7.007 6.05 14.278 7.506 23.014 4.593 5.643 23.583 7.326 49.85 5.27 82.259a255.669 255.669 0 0 0-6.83-5.995 308.357 308.357 0 0 0-12.775-10.205c-.97-.734-1.986-1.407-2.993-2.074-4.217-2.797-6.79-4.729-6.494-8.987.208-3.072.97-5.811 1.708-8.461 1.601-5.752 3.112-11.19-1.331-18.323-5.961-9.945-16.652-15.967-26.717-14.816a22.565 22.565 0 0 0-6.827 1.842 1.532 1.532 0 0 0-.83 1.863 1.524 1.524 0 0 0 1.76 1.028c.909-.184 2.735-.493 4.752-.493 4.04 0 6.218 1.145 6.478 3.384.398 3.7-1.254 7.316-3.005 11.147-1.404 3.069-2.849 6.224-3.286 9.596-3.375-1.839-6.745-3.66-10.107-5.477-27.922-15.086-54.296-29.33-77.871-50.236-14.82-13.14-27.366-27.13-37.295-41.582-2.742-3.99-2.742-3.99 1.071-6.778 2.103-1.533 4.997-4.048 5.921-8.133 1.658-7.402-1.316-17.295-9.012-20.371a1.527 1.527 0 0 0-1.922.707 1.528 1.528 0 0 0 .502 1.983c2.818 1.885 3.228 3.042 3.219 3.562-.016 1.322-2.562 2.935-4.804 4.357-2.613 1.655-5.3 3.36-6.536 5.845-6.286-11.677-11.12-23.822-14.388-36.157a1.538 1.538 0 0 0-1.787-1.107 1.531 1.531 0 0 0-1.206 1.723c5.018 33.779 23.825 69.728 49.443 94.86-3.442 1.111-7.433 4.464-11.01 7.644-.768.682-1.383 1.233-1.775 1.53-1.264.955-2.411 1.435-3.409 1.435-3.47 0-5.303-6.218-5.784-8.124-.177-.695-.67-1.243-1.536-1.154a1.532 1.532 0 0 0-1.457 1.255c-1.799 9.847 8.054 18.375 15.11 21.708 3.896 1.839 7.772 2.772 11.521 2.772.63 0 1.264-.024 1.958-.086 3.522-.435 6.092-2.179 8.577-3.871 1.75-1.19 3.406-2.317 5.346-2.959 3.112-1.025 5.034.563 7.607 2.883.63.566 1.279 1.147 1.968 1.708a280.216 280.216 0 0 0 12.852 9.832c8.816 6.347 18.62 12.607 29.976 19.134 3.421 1.968 6.839 3.901 10.254 5.833 16.814 9.517 32.699 18.507 47.656 30.367 18.268 14.489 33.614 30.515 45.643 47.65-3.231 1.31-6.102 3.262-8.896 5.159-3.381 2.298-6.576 4.468-10.263 5.505-5.229 1.479-8.192-2.622-9.468-12.889a1.527 1.527 0 0 0-1.466-1.34h-.052a1.53 1.53 0 0 0-1.502 1.242c-2.644 13.847 6.401 25.658 15.747 32.09 10.79 7.436 21.123 8.266 33.045 2.583 12.506 34.712 19.076 74.554 20.67 125.178l.101 3.97-3.685-.043c-16.306 1.374-63.038-.406-63.038-.406l17.048 63.646c53.466 3.886 70.774-.48 124.339 1.64.389-.4 16.51-63.936 16.51-63.936s-50.78 1.993-64.476-.586l-3.18-.036.016-4.327c.498-50.646 6.208-90.616 17.962-125.595 12.044 5.419 22.362 4.367 32.978-3.296 9.204-6.637 17.989-18.642 15.046-32.424-.159-.734-.731-1.251-1.582-1.208-.75.04-1.361.624-1.438 1.371-1.053 10.284-3.938 14.437-9.183 13.09-3.709-.957-6.949-3.06-10.383-5.284-2.833-1.836-5.75-3.724-9.006-4.967 11.656-17.396 26.653-33.745 44.603-48.626 14.713-12.191 30.411-21.53 47.032-31.417 3.354-1.995 6.717-3.997 10.083-6.025 11.19-6.759 20.857-13.231 29.551-19.777a283.924 283.924 0 0 0 12.638-10.107 48.305 48.305 0 0 0 1.928-1.75c2.516-2.368 4.4-4.018 7.546-3.048 1.955.603 3.636 1.692 5.413 2.843 2.519 1.637 5.126 3.327 8.715 3.69 4.409.27 8.847-.731 13.354-2.98 6.989-3.482 16.653-12.222 14.643-22.029a1.53 1.53 0 0 0-1.481-1.221c-.624-.003-1.349.486-1.508 1.187-.444 1.934-2.161 8.247-5.674 8.247-.982 0-2.114-.459-3.372-1.361-.4-.288-1.025-.826-1.809-1.49-2.864-2.436-7.35-6.252-11.175-7.399 25.07-25.679 43.097-62.026 47.387-95.906a1.491 1.491 0 0 0-1.204-1.726z"/></svg>