<svg xmlns="http://www.w3.org/2000/svg" width="556.748" height="556.747" viewBox="0 0 556.748 556.747"><path d="M405.602 228.07c-1.952.572-1.353.606-.392 1.692 1.347 1.392.34 3.21-.092 4.728-.48 3.8-.089 6.873 1.077 10.526 4.137 12.959 22.815 23.018 36.05 18.348.575-1.918-2.028-4.357-1.252-6.086.331.016 2.229 5.221 2.259 5.989a47.357 47.357 0 0 0 13.021-4.887c3.28-2.017 7.19-4.168 9.587-7.268 1.12-1.448 1.912-3.204 2.099-5.037.196-1.885 1.197-3.25 1.57-5.141.6-3.029-4.716-21.12-8.198-18.265.242-.881 1.582-2.546 1.512-3.708-6.555-10.857-18.767-19.492-32.344-16.341-7.305 1.695-15.734 6.093-17.234 14.303.01 1.438-.954 3.023 0 4.37 1.414 1.099 2.767 2.292 4.312 3.21 3.029 1.802 7.427 2.971 9.756 5.799-6.838-1.479-14.763-4.276-21.731-2.232zm-188.096 86.231c.233 1.913 1.129 3.351 1.185 5.245.052 1.839.713 3.653 1.72 5.178 2.157 3.268 5.896 5.707 9.021 7.959a47.358 47.358 0 0 0 12.62 5.842c.089-.766 2.365-5.814 2.695-5.806.646 1.781-2.133 4.021-1.701 5.977 12.849 5.64 32.222-3.002 37.313-15.615 1.436-3.556 2.054-6.591 1.858-10.416-.318-1.545-1.188-3.431.26-4.722 1.04-1.013 1.64-1.001-.267-1.717-6.796-2.555-14.908-.357-21.83.609 2.534-2.647 7.004-3.485 10.159-5.059 1.609-.799 3.045-1.888 4.538-2.879 1.053-1.271.208-2.926.324-4.357-.884-8.299-8.966-13.312-16.123-15.545-13.308-4.152-26.129 3.553-33.471 13.892-.159 1.157 1.056 2.914 1.23 3.813-3.258-3.109-9.904 14.535-9.531 17.601zm-29.207-121.353c-.003-1.243-1.288-1.79-1.91-2.674-4.507-4.373-11.591-3.378-16.805-1.224-9.694 4.005-13.397 14.633-12.663 24.143.465.744 2.014 1.175 2.546 1.613-3.381-.223 1.273 13.176 2.962 14.768 1.056.995 2.264 1.392 3.207 2.463.915 1.037 2.17 1.769 3.489 2.167 2.821.851 6.157.459 9.045.26a35.67 35.67 0 0 0 10.107-2.699c-.318-.483-1.432-4.501-1.236-4.654 1.23.719.704 3.351 1.895 4.272 10.144-2.925 17.185-17.246 14.054-26.992-.884-2.748-1.986-4.801-3.941-6.916-.927-.741-2.338-1.411-2.121-2.855.113-1.086.465-1.368-.979-.866-5.159 1.793-8.792 6.971-12.326 10.86.19-2.751 2.372-5.386 3.439-7.815.545-1.238.851-2.56 1.237-3.851zm78.666-69.208c-.192.572-1.135 1.616-1.132 2.387 3.91 7.39 11.628 13.528 20.686 11.958 4.872-.845 10.585-3.427 11.876-8.773.049-.946.743-1.956.162-2.876-.891-.777-1.735-1.613-2.721-2.273-1.928-1.298-4.776-2.231-6.205-4.18 4.439 1.227 9.553 3.36 14.217 2.273 1.307-.303.915-.349.321-1.098-.836-.967-.104-2.124.235-3.109.456-2.484.312-4.52-.318-6.971-2.243-8.684-14.164-15.998-23.048-13.415-.449 1.243 1.175 2.944.597 4.052-.217-.021-1.272-3.519-1.264-4.027a31.237 31.237 0 0 0-8.752 2.733c-2.233 1.206-4.89 2.476-6.582 4.428-.789.909-1.377 2.038-1.569 3.237-.199 1.233-.906 2.096-1.225 3.327-.504 1.972 2.32 14.077 4.722 12.327zM154.703 26.45c.52.251.921.878 1.576.771.646-.315 1.316-.594 1.919-.988 1.184-.774 2.383-2.151 3.812-2.494-1.738 2.2-4.146 4.565-4.642 7.436-.138.805-.021.597.542.44.74-.239 1.218.444 1.689.869 1.285.845 2.463 1.245 3.984 1.472 5.401.799 12.329-4.158 12.98-9.755-.59-.547-1.928-.037-2.414-.624.064-.116 2.273.119 2.558.245a19.01 19.01 0 0 0 .539-5.557c-.147-1.54-.232-3.33-.927-4.74-.324-.658-.817-1.254-1.444-1.646-.646-.404-.961-1.004-1.576-1.475-.985-.75-8.446-2.032-8.033-.27-.275-.241-.636-1.019-1.071-1.199-5.071.444-10.343 3.323-11.604 8.773-.679 2.934-.584 6.75 2.112 8.742zM19.448 126.02c.576 1.107-1.049 2.812-.597 4.051 8.883 2.583 20.805-4.731 23.048-13.415.63-2.448.777-4.486.318-6.971-.343-.982-1.071-2.142-.235-3.109.594-.75.985-.796-.321-1.099-4.661-1.086-9.777 1.046-14.217 2.273 1.429-1.949 4.278-2.879 6.206-4.18.982-.661 1.83-1.497 2.72-2.273.579-.921-.116-1.928-.162-2.876-1.291-5.349-7.004-7.929-11.876-8.773-9.054-1.57-16.775 4.568-20.686 11.958-.003.768.939 1.815 1.132 2.387-2.399-1.75-5.227 10.355-4.718 12.329.318 1.23 1.025 2.093 1.224 3.326.193 1.199.78 2.326 1.57 3.237 1.692 1.952 4.345 3.222 6.579 4.428a31.142 31.142 0 0 0 8.751 2.733c-.009-.511 1.047-4.005 1.264-4.026z"/><path d="M384.791 474.493c-28.412-16.304-40.781-6.755-49.912-6.755-1.619 0-3.124.083-4.593.181-9.594-34.779 2.157-78.782 13.596-121.405 8.415-31.353 17.111-63.768 17.398-92.617.007-.554-.033-1.095-.036-1.649.187-.358.492-.934.976-1.772.79-1.411 2.051-3.396 3.654-5.725 1.643-2.295 3.638-4.951 6.049-7.54.604-.652 1.215-1.312 1.836-1.98.664-.621 1.335-1.251 2.011-1.885 1.316-1.337 2.853-2.405 4.321-3.611 1.518-1.114 3.124-2.102 4.712-3.078 1.674-.75 3.262-1.772 4.954-2.286 1.689-.499 3.296-1.279 4.927-1.432 1.615-.196 3.155-.737 4.6-.618l3.975-.027c1.172.144 2.19.349 3.041.478l2.681.447s-.939-.303-2.585-.83c-.83-.254-1.833-.615-3.012-.933-1.211-.168-2.579-.361-4.072-.569-1.509-.336-3.146-.027-4.905-.058-1.781-.073-3.559.475-5.472.759-1.918.3-3.739 1.114-5.703 1.687-1.854.789-3.765 1.615-5.585 2.583-1.76 1.053-3.629 2.004-5.245 3.219-.835.581-1.661 1.16-2.481 1.729l-2.292 1.842c-2.751 2.209-5.079 4.489-7.108 6.57-1.625-14.994-5.612-29.263-9.507-43.17-10.053-35.885-20.447-72.987 10.067-123.07a1.53 1.53 0 0 0-2.537-1.704c-18.706 25.312-25.836 47.794-27.497 68.752-.165-.162-.331-.315-.496-.48-1.046-.887-2.065-1.852-3.219-2.696-1.147-.854-2.289-1.729-3.541-2.457-1.196-.796-2.463-1.479-3.732-2.09-1.228-.682-2.54-1.145-3.771-1.634-1.212-.536-2.476-.814-3.629-1.151-1.147-.364-2.265-.569-3.302-.719-1.034-.153-1.955-.367-2.797-.419l-2.173-.119-1.872-.101 1.814.489c.572.156 1.264.343 2.06.557.789.22 1.64.621 2.579.97.942.346 1.94.759 2.938 1.331 1.007.544 2.09 1.031 3.097 1.766 1.025.688 2.103 1.337 3.072 2.191 1.013.783 1.995 1.619 2.901 2.552.954.86 1.79 1.852 2.619 2.797.838.934 1.542 1.974 2.271 2.907.646 1.016 1.337 1.925 1.857 2.889.563.93 1.056 1.827 1.472 2.674a37.764 37.764 0 0 1 1.46 3.231c.214 14.477 2.567 28.314 4.896 41.98 1.05 6.163 2.06 12.096 2.864 18.002-25.683-46.35-74.805-75.563-122.391-103.862-22.053-13.115-44.48-26.457-64.704-41.588a38.4 38.4 0 0 1-.998-2.876c-.288-.9-.554-1.888-.796-2.947-.293-1.056-.425-2.191-.664-3.369-.122-1.178-.336-2.415-.379-3.669-.055-1.258-.141-2.549-.052-3.831.003-1.297.135-2.583.318-3.85.107-1.288.431-2.503.691-3.712.217-1.224.658-2.329 1.007-3.418.321-1.104.756-2.093 1.193-2.996.435-.903.768-1.781 1.184-2.488.422-.707.792-1.322 1.096-1.83l.967-1.609-1.279 1.371-1.481 1.591c-.569.622-1.086 1.417-1.726 2.243-.643.826-1.307 1.75-1.879 2.809-.597 1.043-1.313 2.121-1.814 3.348-.548 1.206-1.172 2.451-1.582 3.792-.49 1.322-.927 2.689-1.239 4.094-.395 1.392-.612 2.815-.845 4.226-.248 1.411-.312 2.809-.45 4.174-.012.71-.046 1.414-.067 2.105-16.441-13.219-31.071-27.858-42.305-44.884a1.527 1.527 0 0 0-2.053-.474 1.533 1.533 0 0 0-.578 2.029c23.519 44.863 63.733 76.638 110.319 109.835-37.751-7.169-91.794-18.225-110.414-46.729-6.515-9.981-8.303-21.625-5.306-34.62a1.53 1.53 0 0 0-2.926-.876c-4.927 13.308-4.654 25.897.817 37.421 2.341 4.93 5.539 9.422 9.284 13.553l-.324-.043c-6.934-.856-16.218-1.689-25.539-1.597-9.299.04-18.672 1.151-25.297 3.47-1.659.554-3.127 1.193-4.407 1.796-1.261.652-2.334 1.246-3.161 1.836-.866.523-1.444 1.077-1.87 1.404l-.636.52.698-.438c.462-.272 1.092-.74 2.007-1.147.875-.474 1.995-.921 3.287-1.396a39.08 39.08 0 0 1 4.458-1.196c6.628-1.42 15.729-1.355 24.676-.269 8.963 1.037 17.81 2.968 24.358 4.626 3.277.829 5.982 1.594 7.861 2.148l2.901.89.144.046a4.541 4.541 0 0 0 2.699-.037c12.815 9.498 28.366 16.264 41.644 20.805 7.066 2.424 14.174 4.783 21.279 7.142 23.816 7.91 48.03 15.977 69.909 26.304-6.16 1.793-13.516 4.207-20.667 7.233-8.583 3.581-16.83 8.173-22.072 12.837a40.309 40.309 0 0 0-3.391 3.338c-.918 1.083-1.683 2.041-2.225 2.901-.6.811-.924 1.545-1.193 2.01l-.392.726.48-.67c.324-.428.728-1.102 1.42-1.824.627-.771 1.496-1.609 2.509-2.543a39.613 39.613 0 0 1 3.666-2.803c5.587-3.837 14.03-7.24 22.718-9.642 8.685-2.451 17.598-4.033 24.284-4.994 2.441-.352 4.578-.615 6.319-.811 16.077 8.599 30.502 18.739 41.968 31.432 30.561 33.822 40.475 76.115 30.261 128.86-.331-.432-.661-.863-1.02-1.319a139.123 139.123 0 0 0-3.366-4.008c-1.282-1.353-2.53-2.847-4.026-4.229-1.43-1.432-2.956-2.861-4.608-4.21-1.567-1.427-3.375-2.653-5.11-3.93-1.744-1.267-3.693-2.271-5.483-3.381-1.965-.857-3.798-1.854-5.713-2.503-1.962-.536-3.739-1.344-5.588-1.555-1.833-.227-3.513-.691-5.116-.652l-4.33.034c-1.276.107-2.371.395-3.271.532l-2.812.515s1.04-.047 2.857-.123c.906-.012 1.995-.144 3.241-.076l4.149.541c1.512.166 3.065.848 4.728 1.282 1.674.42 3.262 1.438 4.976 2.157 1.677.836 3.256 2.017 4.924 3.021 1.521 1.276 3.151 2.411 4.596 3.804 1.436 1.401 2.913 2.724 4.18 4.25 1.341 1.438 2.559 2.944 3.688 4.446 1.188 1.441 2.151 3.002 3.151 4.389a127.996 127.996 0 0 1 2.571 4.097c1.502 2.589 2.677 4.786 3.405 6.338.743 1.523 1.071 2.355 1.102 2.404l.218.358c-.229.937-.41 1.846-.652 2.788-2.074 8.124-4.281 16.318-6.493 24.528-8.779 32.593-17.735 65.922-18.498 96.081-.762-.357-1.475-.67-2.279-1.067-6.695-3.309-12.387-4.915-17.405-4.915-8.605 0-13.789 4.719-18.804 9.281-5.062 4.605-9.841 8.957-18.14 8.957-4.958 0-10.683-1.543-17.504-4.716l5.889 78.316c55.46-4.44 104.31 1.91 142.935-.22 0 0-1.906-46.787 10.664-73.095z"/></svg>