<?xml version="1.0" encoding="UTF-8" standalone="no"?>
<!-- Generator: Adobe Illustrator 16.0.0, SVG Export Plug-In . SVG Version: 6.00 Build 0)  -->

<svg
   xmlns:dc="http://purl.org/dc/elements/1.1/"
   xmlns:cc="http://creativecommons.org/ns#"
   xmlns:rdf="http://www.w3.org/1999/02/22-rdf-syntax-ns#"
   xmlns:svg="http://www.w3.org/2000/svg"
   xmlns="http://www.w3.org/2000/svg"
   xmlns:sodipodi="http://sodipodi.sourceforge.net/DTD/sodipodi-0.dtd"
   xmlns:inkscape="http://www.inkscape.org/namespaces/inkscape"
   version="1.1"
   id="Capa_1"
   x="0px"
   y="0px"
   width="590.844px"
   height="590.844px"
   viewBox="0 0 590.844 590.844"
   style="enable-background:new 0 0 590.844 590.844;"
   xml:space="preserve"
   inkscape:version="0.91 r13725"
   sodipodi:docname="tree-shape-2.svg"><metadata
     id="metadata528"><rdf:RDF><cc:Work
         rdf:about=""><dc:format>image/svg+xml</dc:format><dc:type
           rdf:resource="http://purl.org/dc/dcmitype/StillImage" /></cc:Work></rdf:RDF></metadata><defs
     id="defs526" /><sodipodi:namedview
     pagecolor="#ffffff"
     bordercolor="#666666"
     borderopacity="1"
     objecttolerance="10"
     gridtolerance="10"
     guidetolerance="10"
     inkscape:pageopacity="0"
     inkscape:pageshadow="2"
     inkscape:window-width="640"
     inkscape:window-height="507"
     id="namedview524"
     showgrid="false"
     inkscape:zoom="0.79885724"
     inkscape:cx="398.90315"
     inkscape:cy="151.51465"
     inkscape:window-x="0"
     inkscape:window-y="25"
     inkscape:window-maximized="0"
     inkscape:current-layer="Capa_1" /><g
     id="g466"><g
       id="g468"><path
         d="m 590.471,121.31 c -0.272,-0.331 -0.621,-0.866 -1.199,-1.429 -0.539,-0.609 -1.267,-1.264 -2.13,-1.995 -0.885,-0.698 -1.916,-1.459 -3.104,-2.188 -2.368,-1.472 -5.324,-2.885 -8.589,-4.109 -3.269,-1.218 -6.846,-2.265 -10.459,-3.13 -7.231,-1.747 -14.603,-2.766 -20.15,-3.345 -0.817,-0.085 -1.582,-0.159 -2.313,-0.226 12.146,-7.837 20.202,-19.707 17.947,-37.562 -0.119,48.92 -70.022,45.009 -111.616,43.28 41.358,-16.86 82.394,-34.719 110.432,-67.222 -12.243,11.606 -26.695,20.523 -42.359,27.959 0.019,-0.073 0.043,-0.132 0.062,-0.205 0.281,-0.958 0.44,-2.014 0.67,-3.069 0.141,-1.083 0.349,-2.182 0.413,-3.32 0.076,-1.135 0.171,-2.28 0.119,-3.434 0.019,-1.144 -0.073,-2.289 -0.211,-3.402 -0.073,-1.117 -0.331,-2.197 -0.532,-3.231 -0.166,-1.043 -0.521,-2.01 -0.796,-2.932 -0.251,-0.927 -0.597,-1.766 -0.942,-2.524 -0.343,-0.759 -0.6,-1.472 -0.927,-2.06 -0.331,-0.581 -0.622,-1.089 -0.86,-1.508 -0.472,-0.826 -0.74,-1.301 -0.74,-1.301 0,0 0.168,0.518 0.465,1.426 0.146,0.45 0.324,0.995 0.526,1.619 0.199,0.624 0.303,1.368 0.478,2.148 0.178,0.78 0.34,1.628 0.395,2.546 0.076,0.909 0.224,1.852 0.175,2.843 -0.013,0.989 0.024,1.992 -0.126,3.014 -0.082,1.019 -0.211,2.044 -0.44,3.057 -0.159,1.016 -0.456,2.007 -0.726,2.977 -0.257,0.97 -0.646,1.897 -0.951,2.794 -0.398,0.875 -0.704,1.738 -1.12,2.509 -0.376,0.783 -0.762,1.508 -1.147,2.157 -0.747,1.31 -1.453,2.335 -1.959,3.008 -0.257,0.352 -0.446,0.584 -0.562,0.716 -0.073,0.085 -0.129,0.153 -0.165,0.196 -59.832,25.713 -134.215,33.62 -174.022,83.223 5.38,-15.946 13.629,-31.224 18.382,-48.626 0.113,-0.098 0.229,-0.187 0.333,-0.3 0.162,-0.177 0.303,-0.37 0.423,-0.569 l 0.027,-0.046 c 0,0 0.061,-0.104 0.177,-0.3 0.083,-0.153 0.239,-0.41 0.48,-0.771 0.466,-0.701 1.188,-1.717 2.167,-2.864 0.48,-0.584 1.031,-1.19 1.64,-1.812 0.582,-0.655 1.289,-1.233 1.978,-1.906 0.74,-0.594 1.478,-1.27 2.304,-1.842 0.82,-0.581 1.655,-1.196 2.556,-1.692 0.875,-0.557 1.793,-1.025 2.726,-1.451 0.912,-0.486 1.87,-0.795 2.794,-1.138 0.918,-0.386 1.852,-0.563 2.732,-0.802 0.882,-0.26 1.732,-0.398 2.528,-0.493 0.792,-0.098 1.529,-0.254 2.182,-0.278 0.657,-0.021 1.229,-0.04 1.701,-0.055 0.955,-0.031 1.499,-0.046 1.499,-0.046 0,0 -0.535,-0.092 -1.475,-0.257 -0.475,-0.083 -1.05,-0.181 -1.711,-0.297 -0.663,-0.11 -1.419,-0.107 -2.249,-0.174 -0.832,-0.067 -1.737,-0.11 -2.695,-0.031 -0.958,0.055 -1.989,0.049 -3.026,0.248 -1.044,0.159 -2.146,0.285 -3.22,0.597 -1.095,0.251 -2.199,0.551 -3.271,0.958 -1.104,0.343 -2.146,0.817 -3.188,1.276 -1.05,0.45 -2.011,1.016 -2.98,1.518 -0.667,0.419 -1.331,0.811 -1.962,1.215 2.718,-16.726 1.447,-35.68 -8.607,-58.973 8.89,26.98 7.133,47.424 1.153,65.233 -0.643,0.728 -0.939,1.646 -0.891,2.549 -8.157,22.488 -22.724,40.964 -30.346,63.529 -0.162,-0.291 -0.315,-0.569 -0.486,-0.872 -1.261,-2.127 -2.791,-4.566 -4.691,-7.001 -0.474,-0.606 -0.954,-1.224 -1.444,-1.848 -0.532,-0.594 -1.067,-1.19 -1.609,-1.796 -1.034,-1.239 -2.311,-2.319 -3.482,-3.458 -1.239,-1.083 -2.567,-2.071 -3.864,-3.023 -1.42,-0.802 -2.688,-1.766 -4.122,-2.35 -1.435,-0.572 -2.714,-1.322 -4.113,-1.588 -0.673,-0.177 -1.331,-0.352 -1.964,-0.517 -0.315,-0.083 -0.624,-0.162 -0.927,-0.242 -0.315,-0.031 -0.624,-0.058 -0.927,-0.088 -1.196,-0.11 -2.295,-0.211 -3.268,-0.303 -0.973,0.034 -1.821,0.128 -2.509,0.174 -1.377,0.11 -2.163,0.171 -2.163,0.171 0,0 0.786,0.049 2.167,0.135 0.682,0.052 1.515,0.073 2.454,0.174 0.921,0.217 1.958,0.465 3.09,0.734 0.282,0.067 0.566,0.135 0.857,0.202 0.278,0.116 0.56,0.235 0.848,0.358 0.572,0.242 1.163,0.49 1.769,0.747 1.243,0.413 2.356,1.31 3.58,2.001 1.227,0.704 2.28,1.784 3.452,2.671 1.062,1.046 2.136,2.105 3.121,3.244 0.928,1.203 1.931,2.31 2.718,3.589 0.413,0.615 0.823,1.227 1.229,1.83 0.361,0.633 0.723,1.258 1.074,1.873 1.414,2.451 2.491,4.877 3.36,6.961 0.829,2.102 1.456,3.877 1.817,5.119 0.38,1.221 0.523,1.873 0.542,1.919 0.149,0.447 0.382,0.844 0.667,1.181 0,0.012 -0.007,0.024 -0.01,0.034 -8.372,37.616 -0.184,86.43 -3.319,127.404 -8.415,-23.924 -26.423,-46.287 -35.089,-70.179 0.052,-0.973 -0.266,-1.964 -0.961,-2.751 -6.454,-19.229 -8.351,-41.304 1.246,-70.438 -10.857,25.153 -12.225,45.619 -9.293,63.679 -0.682,-0.438 -1.396,-0.86 -2.118,-1.313 -1.049,-0.542 -2.087,-1.153 -3.219,-1.64 -1.126,-0.496 -2.252,-1.006 -3.443,-1.377 -1.156,-0.438 -2.35,-0.765 -3.534,-1.034 -1.16,-0.336 -2.35,-0.471 -3.476,-0.643 -1.12,-0.214 -2.234,-0.208 -3.268,-0.266 -1.031,-0.086 -2.01,-0.04 -2.91,0.034 -0.896,0.07 -1.713,0.07 -2.43,0.187 -0.713,0.123 -1.337,0.229 -1.848,0.318 l -1.591,0.278 c 0,0 0.588,0.019 1.619,0.052 0.511,0.015 1.129,0.037 1.839,0.058 0.707,0.027 1.5,0.196 2.356,0.3 0.86,0.104 1.778,0.251 2.729,0.532 0.952,0.257 1.962,0.45 2.953,0.866 0.998,0.373 2.032,0.707 3.017,1.23 1.004,0.459 1.998,0.964 2.944,1.567 0.973,0.532 1.873,1.199 2.76,1.827 0.89,0.618 1.689,1.35 2.488,1.989 0.743,0.725 1.505,1.353 2.136,2.056 0.661,0.67 1.254,1.325 1.771,1.955 1.056,1.24 1.839,2.335 2.338,3.091 0.26,0.392 0.432,0.667 0.521,0.833 0.125,0.211 0.189,0.324 0.189,0.324 l 0.031,0.049 c 0.128,0.214 0.281,0.422 0.456,0.615 0.11,0.122 0.238,0.22 0.358,0.324 5.131,18.792 14.042,35.288 19.847,52.507 C 245.438,239.9 165.122,231.363 100.516,203.6 c -0.04,-0.049 -0.098,-0.12 -0.177,-0.214 -0.125,-0.141 -0.328,-0.395 -0.606,-0.774 -0.544,-0.729 -1.31,-1.836 -2.114,-3.25 -0.417,-0.701 -0.83,-1.484 -1.239,-2.329 -0.45,-0.832 -0.784,-1.763 -1.212,-2.708 -0.331,-0.967 -0.75,-1.968 -1.028,-3.014 -0.291,-1.046 -0.612,-2.118 -0.783,-3.216 -0.248,-1.092 -0.386,-2.2 -0.474,-3.302 -0.159,-1.104 -0.123,-2.191 -0.135,-3.256 -0.055,-1.071 0.104,-2.087 0.187,-3.069 0.058,-0.992 0.232,-1.906 0.425,-2.748 0.19,-0.841 0.303,-1.646 0.514,-2.319 0.22,-0.676 0.41,-1.264 0.569,-1.75 0.318,-0.979 0.501,-1.539 0.501,-1.539 0,0 -0.291,0.511 -0.802,1.404 -0.257,0.453 -0.569,1.001 -0.927,1.628 -0.355,0.634 -0.63,1.402 -1.001,2.222 -0.373,0.82 -0.75,1.726 -1.019,2.727 -0.293,0.992 -0.679,2.038 -0.86,3.164 -0.22,1.12 -0.496,2.286 -0.575,3.491 -0.146,1.206 -0.245,2.439 -0.226,3.675 -0.055,1.246 0.046,2.479 0.128,3.706 0.07,1.23 0.293,2.415 0.447,3.586 0.251,1.141 0.419,2.28 0.725,3.314 0.019,0.08 0.043,0.144 0.064,0.22 -16.913,-8.029 -32.519,-17.659 -45.738,-30.19 30.275,35.098 74.584,54.382 119.242,72.586 -44.912,1.863 -120.393,6.086 -120.521,-46.735 -2.436,19.281 6.264,32.096 19.376,40.56 -0.792,0.074 -1.616,0.153 -2.5,0.245 -5.988,0.627 -13.948,1.726 -21.757,3.61 -3.901,0.937 -7.763,2.066 -11.291,3.381 -3.528,1.322 -6.717,2.849 -9.275,4.44 -1.285,0.786 -2.396,1.609 -3.351,2.365 -0.933,0.792 -1.72,1.5 -2.298,2.157 -0.624,0.606 -1.004,1.184 -1.297,1.542 -0.285,0.367 -0.435,0.56 -0.435,0.56 0,0 0.174,-0.174 0.502,-0.505 0.333,-0.318 0.768,-0.838 1.457,-1.358 0.639,-0.569 1.493,-1.166 2.484,-1.821 1.016,-0.618 2.179,-1.276 3.507,-1.885 5.285,-2.503 12.944,-4.244 20.673,-5.101 7.729,-0.9 15.542,-1.025 21.368,-0.924 2.916,0.049 5.34,0.156 7.026,0.251 1.665,0.11 2.613,0.174 2.613,0.174 l 0.125,0.009 c 0.146,0.009 0.293,0.009 0.443,0 1.151,-0.064 2.142,-0.633 2.803,-1.475 12.139,5.175 26.062,7.828 38.195,9.055 28.877,2.938 58.317,4.697 84.93,10.603 -5.171,2.824 -11.695,6.671 -17.84,11.129 -3.252,2.353 -6.392,4.865 -9.155,7.426 -2.76,2.564 -5.125,5.19 -6.885,7.635 -0.887,1.218 -1.604,2.402 -2.2,3.461 -0.56,1.086 -1.019,2.042 -1.307,2.868 -0.346,0.798 -0.477,1.478 -0.612,1.918 -0.123,0.447 -0.187,0.686 -0.187,0.686 0,0 0.095,-0.229 0.269,-0.658 0.187,-0.422 0.392,-1.068 0.829,-1.812 0.376,-0.771 0.937,-1.646 1.604,-2.628 0.707,-0.958 1.53,-2.011 2.528,-3.079 3.935,-4.327 10.352,-8.853 17.172,-12.586 6.809,-3.776 13.981,-6.863 19.41,-8.99 2.714,-1.065 4.997,-1.888 6.591,-2.442 0.248,-0.083 0.447,-0.15 0.658,-0.22 14.639,4.073 28.231,9.7 40.095,17.944 32.531,22.598 49.762,56.635 51.262,104.692 -0.774,-0.664 -1.622,-1.37 -2.564,-2.133 -1.102,-0.862 -2.308,-1.774 -3.602,-2.711 -1.34,-0.884 -2.677,-1.897 -4.198,-2.77 -1.478,-0.924 -3.035,-1.829 -4.685,-2.641 -1.594,-0.894 -3.345,-1.572 -5.049,-2.307 -1.708,-0.726 -3.537,-1.19 -5.257,-1.775 -1.814,-0.34 -3.546,-0.82 -5.282,-0.991 -1.747,-0.07 -3.399,-0.404 -4.991,-0.224 -1.585,0.165 -3.082,0.098 -4.422,0.444 -1.331,0.317 -2.549,0.608 -3.629,0.868 -1.05,0.337 -1.913,0.793 -2.647,1.084 -1.441,0.621 -2.264,0.979 -2.264,0.979 0,0 0.863,-0.241 2.375,-0.667 0.756,-0.189 1.646,-0.517 2.705,-0.707 1.068,-0.106 2.276,-0.232 3.592,-0.363 1.3,-0.163 2.742,0.104 4.223,0.141 1.49,0.021 3.026,0.562 4.608,0.829 1.573,0.37 3.137,1.05 4.734,1.563 1.53,0.771 3.127,1.401 4.614,2.286 1.484,0.894 2.99,1.713 4.354,2.744 1.411,0.943 2.732,1.968 3.978,3.005 1.282,0.977 2.402,2.097 3.516,3.063 1.074,1.022 2.071,2.011 2.971,2.935 1.775,1.879 3.194,3.491 4.118,4.654 0.928,1.132 1.371,1.769 1.405,1.806 l 0.382,0.392 0.016,0.015 c 0.318,0.325 0.688,0.566 1.074,0.753 -0.006,0.566 0.012,1.108 0,1.681 -0.688,32.692 -3.329,67.065 0.973,96.638 -1.083,-0.49 -2.176,-0.988 -3.362,-1.576 -6.056,-2.993 -11.206,-4.446 -15.753,-4.446 -7.815,0 -12.509,4.271 -17.047,8.406 -4.538,4.131 -13.83215,-1.9823 -21.25315,-1.9823 l 29.62355,76.28109 c 45.40166,0.4222 85.81439,-1.31589 85.81439,-1.31589 l 20.10779,-77.83787 C 347.95336,497.745 334.66,498.893 325.352,499.566 c -0.278,0.018 -0.557,0.036 -0.832,0.055 -15.572,-33.274 -10.337,-80.854 -9.664,-125.423 10.096,-22.858 10.747,-52.354 9.948,-82.673 0.535,-0.548 1.053,-1.123 1.595,-1.658 1.267,-0.958 2.401,-2.124 3.727,-2.886 1.325,-0.747 2.524,-1.713 3.868,-2.16 0.654,-0.275 1.291,-0.545 1.909,-0.805 0.31,-0.132 0.615,-0.26 0.915,-0.386 0.315,-0.073 0.621,-0.147 0.924,-0.22 1.225,-0.291 2.345,-0.557 3.336,-0.792 1.013,-0.107 1.912,-0.132 2.649,-0.187 1.487,-0.092 2.338,-0.144 2.338,-0.144 0,0 -0.851,-0.067 -2.335,-0.184 -0.746,-0.049 -1.658,-0.153 -2.711,-0.189 -1.053,0.098 -2.236,0.208 -3.528,0.327 -0.327,0.031 -0.66,0.064 -1,0.095 -0.331,0.086 -0.664,0.175 -1.004,0.263 -0.686,0.181 -1.396,0.367 -2.124,0.56 -1.508,0.288 -2.889,1.099 -4.437,1.717 -1.479,0.603 -2.797,1.573 -4.244,2.411 -0.318,-10.621 -0.756,-21.301 -0.979,-31.796 -0.009,-0.529 0.006,-1.031 0,-1.555 0.358,-0.171 0.701,-0.395 0.994,-0.694 l 0.016,-0.015 0.352,-0.364 c 0.031,-0.031 0.444,-0.621 1.301,-1.671 0.854,-1.074 2.17,-2.57 3.812,-4.309 0.833,-0.856 1.757,-1.771 2.755,-2.717 1.03,-0.896 2.068,-1.934 3.255,-2.836 1.154,-0.961 2.381,-1.91 3.688,-2.785 1.264,-0.955 2.659,-1.713 4.03,-2.543 1.38,-0.82 2.858,-1.401 4.274,-2.117 1.481,-0.478 2.929,-1.105 4.386,-1.448 1.466,-0.248 2.886,-0.747 4.269,-0.768 1.374,-0.034 2.708,-0.278 3.91,-0.131 1.222,0.125 2.338,0.239 3.33,0.339 0.979,0.175 1.802,0.48 2.506,0.655 1.398,0.395 2.2,0.618 2.2,0.618 0,0 -0.762,-0.331 -2.097,-0.906 -0.676,-0.27 -1.478,-0.689 -2.451,-1.001 -1,-0.239 -2.129,-0.511 -3.359,-0.805 -1.239,-0.321 -2.629,-0.257 -4.095,-0.413 -1.475,-0.168 -3.005,0.144 -4.623,0.205 -1.604,0.159 -3.21,0.606 -4.89,0.918 -1.592,0.542 -3.287,0.973 -4.869,1.643 -1.579,0.68 -3.2,1.307 -4.676,2.136 -1.526,0.75 -2.968,1.588 -4.339,2.445 -1.407,0.808 -2.646,1.744 -3.889,2.564 -1.2,0.866 -2.317,1.713 -3.336,2.512 -0.872,0.704 -1.658,1.358 -2.374,1.974 1.392,-44.508 17.347,-76.032 47.476,-96.959 10.988,-7.635 23.577,-12.846 37.133,-16.616 0.196,0.067 0.383,0.128 0.609,0.205 1.478,0.514 3.592,1.276 6.104,2.261 5.027,1.968 11.671,4.829 17.975,8.326 6.315,3.458 12.261,7.65 15.905,11.656 0.921,0.988 1.687,1.961 2.341,2.849 0.618,0.909 1.139,1.72 1.484,2.436 0.404,0.688 0.597,1.288 0.769,1.68 0.162,0.398 0.251,0.609 0.251,0.609 0,0 -0.062,-0.221 -0.175,-0.634 -0.126,-0.41 -0.245,-1.037 -0.566,-1.778 -0.263,-0.765 -0.688,-1.649 -1.208,-2.656 -0.555,-0.982 -1.215,-2.078 -2.038,-3.207 -1.631,-2.265 -3.822,-4.697 -6.377,-7.072 -2.562,-2.372 -5.469,-4.697 -8.479,-6.875 -5.691,-4.128 -11.732,-7.693 -16.524,-10.306 24.648,-5.468 51.913,-7.099 78.654,-9.82 9.786,-0.988 20.823,-2.983 30.937,-6.643 -0.615,4.893 -1.156,8.938 1.15,11.591 0.188,0.214 0.463,0.181 0.558,-0.089 0.079,-0.229 0.132,-0.462 0.165,-0.713 0.037,-0.285 0.181,-0.331 0.352,-0.104 0.922,1.221 3.048,3.978 5.086,4.997 0.254,0.129 0.459,-0.024 0.443,-0.312 -0.009,-0.184 -0.027,-0.392 -0.061,-0.658 -0.037,-0.285 0.092,-0.355 0.315,-0.178 1.478,1.188 3.849,2.46 5.235,2.788 0.278,0.064 0.526,-0.153 0.502,-0.438 -0.006,-0.101 -0.021,-0.205 -0.037,-0.315 -0.043,-0.282 0.098,-0.392 0.358,-0.272 1.426,0.649 4.669,1.64 6.077,1.732 0.284,0.019 0.597,-0.248 0.618,-0.532 0.119,-1.405 -0.38,-4.758 -0.808,-6.267 -0.08,-0.275 0.049,-0.397 0.32,-0.315 0.107,0.034 0.209,0.061 0.31,0.083 0.278,0.064 0.529,-0.147 0.508,-0.432 -0.116,-1.423 -1.021,-3.953 -1.977,-5.594 -0.144,-0.248 -0.052,-0.364 0.224,-0.284 0.257,0.073 0.459,0.119 0.636,0.156 0.279,0.058 0.463,-0.119 0.377,-0.392 -0.615,-1.894 -2.488,-3.996 -3.675,-5.239 5.379,-0.089 12.518,0.034 19.602,0.857 7.158,0.792 14.248,2.405 19.146,4.725 1.23,0.563 2.308,1.172 3.247,1.744 0.918,0.606 1.707,1.157 2.301,1.686 0.637,0.483 1.041,0.964 1.35,1.258 0.303,0.306 0.465,0.468 0.465,0.468 0,0 -0.107,-0.179 -0.37,-0.519 z m -55.37,-7.004 -4.575,-3.387 c 0.667,-0.263 1.344,-0.508 1.998,-0.79 0.377,0.48 0.882,0.851 1.457,1.086 l 1.413,2.836 c 0.091,0.276 -0.04,0.389 -0.293,0.255 z"
         id="path470"
         inkscape:connector-curvature="0"
         sodipodi:nodetypes="cccccccccccccccccccccccccccccccccccccccccccccccccccccccccccccccccccccccccccccccccccccccccccccccccccccccccccccccccccccccccccccccccccccccccccccccccccccccccccccccccccccccccccccccccccccccccccccccccccccccccccccccccccccccccccccccccccccccccsccccccccccccccccccccccccccccccccccccccccccccccccccccccccccccccccccccccccccccccccccccccccccccccccccccccccccccccc" /><path
         d="M403.799,248.988c2.989-0.508,9.266-2.433,11.618-3.81c0.478-0.278,0.683-1.043,0.413-1.527    c-1.334-2.381-5.771-7.219-8.09-9.168c-0.423-0.355-0.353-0.688,0.177-0.851c0.205-0.064,0.398-0.128,0.578-0.199    c0.518-0.196,0.695-0.814,0.35-1.243c-1.727-2.154-5.928-5.232-9.232-6.82c-0.499-0.239-0.478-0.523,0.046-0.695    c0.493-0.159,0.872-0.306,1.196-0.44c0.512-0.208,0.609-0.695,0.175-1.035c-3.477-2.714-10.067-4.125-12.965-4.718    c-0.542-0.11-0.579-0.401-0.113-0.704c0.409-0.267,0.773-0.554,1.107-0.885c0.392-0.389,0.224-0.899-0.31-1.046    c-7.398-2.053-14.862,3.708-24.369,9.667c-0.469,0.294-0.48,0.808-0.037,1.138l13.302,7.062c0.444,0.331,0.358,0.655-0.189,0.726    l-14.829-0.251c-0.548,0.07-0.792,0.529-0.529,1.016c5.202,9.691,8.58,18.299,15.891,20.242c0.535,0.141,0.937-0.211,0.796-0.747    c-0.116-0.447-0.285-0.872-0.511-1.322c-0.251-0.493-0.067-0.728,0.455-0.551c2.801,0.955,9.199,3.072,13.571,2.494    c0.548-0.074,0.707-0.542,0.374-0.982c-0.215-0.278-0.466-0.597-0.809-0.982c-0.367-0.413-0.238-0.67,0.312-0.624    c3.656,0.303,8.834-0.227,11.414-1.208c0.517-0.196,0.676-0.817,0.33-1.249c-0.122-0.153-0.257-0.309-0.404-0.468    C403.144,249.405,403.254,249.08,403.799,248.988z"
         id="path472" /><path
         d="M470.13,176.58c0.272,0.224,0.493,0.386,0.691,0.523c0.307,0.214,0.618,0.095,0.655-0.278    c0.278-2.978-1.328-7.259-2.047-9.131c-0.135-0.349,0.018-0.477,0.357-0.321c0.304,0.138,0.6,0.239,0.909,0.309    c0.367,0.08,0.597-0.199,0.483-0.557c-1.533-4.976-7.555-7.13-14.434-10.38c-0.34-0.159-0.637,0.021-0.664,0.395l0.832,10.177    c-0.024,0.374-0.242,0.444-0.483,0.159l-5.281-8.559c-0.242-0.288-0.594-0.257-0.774,0.07c-3.633,6.515-7.311,11.591-5.747,16.478    c0.113,0.358,0.462,0.456,0.716,0.181c0.215-0.229,0.396-0.48,0.569-0.774c0.189-0.324,0.392-0.306,0.48,0.058    c0.478,1.949,1.609,6.377,3.541,8.66c0.241,0.288,0.568,0.205,0.697-0.147c0.083-0.224,0.171-0.483,0.267-0.82    c0.101-0.361,0.293-0.382,0.471-0.049c1.166,2.197,3.363,4.96,4.865,6.074c0.304,0.223,0.713,0.089,0.833-0.266    c0.043-0.125,0.082-0.26,0.119-0.401c0.095-0.364,0.318-0.419,0.572-0.141c1.383,1.521,4.779,4.4,6.426,5.242    c0.334,0.171,0.845,0.009,1.022-0.321c0.872-1.631,2.01-5.937,2.273-7.975c0.049-0.373,0.266-0.453,0.551-0.211    c0.11,0.095,0.22,0.18,0.324,0.26c0.3,0.224,0.719,0.098,0.838-0.257c0.597-1.775,0.82-5.297,0.518-7.766    C469.671,176.433,469.84,176.341,470.13,176.58z"
         id="path474" /><path
         d="M255.707,156.035c0.355,0.123,0.389,0.352,0.092,0.582c-0.116,0.089-0.223,0.177-0.318,0.266    c-0.282,0.248-0.245,0.683,0.08,0.872c1.612,0.949,5.018,1.888,7.494,2.1c0.374,0.03,0.432,0.217,0.138,0.453    c-0.275,0.22-0.477,0.404-0.652,0.569c-0.275,0.257-0.22,0.587,0.138,0.698c2.858,0.881,7.375,0.189,9.354-0.132    c0.371-0.061,0.462,0.116,0.242,0.419c-0.196,0.267-0.358,0.536-0.486,0.827c-0.156,0.342,0.073,0.624,0.447,0.59    c5.184-0.48,8.528-5.93,13.118-11.998c0.227-0.3,0.11-0.627-0.251-0.731l-10.135-1.273c-0.361-0.101-0.385-0.328-0.055-0.505    l9.462-3.415c0.33-0.177,0.373-0.526,0.092-0.771c-5.63-4.89-9.847-9.532-14.948-9.002c-0.374,0.04-0.542,0.361-0.324,0.664    c0.184,0.257,0.389,0.484,0.643,0.713c0.278,0.254,0.22,0.447-0.156,0.459c-2.004,0.07-6.57,0.269-9.201,1.689    c-0.331,0.178-0.318,0.514,0,0.713c0.202,0.125,0.438,0.267,0.75,0.429c0.331,0.174,0.312,0.367-0.049,0.471    c-2.39,0.688-5.545,2.273-6.943,3.516c-0.278,0.248-0.232,0.679,0.092,0.869c0.113,0.067,0.236,0.135,0.367,0.199    c0.337,0.168,0.343,0.398,0.021,0.588c-1.775,1.04-5.288,3.776-6.447,5.214c-0.236,0.291-0.181,0.826,0.107,1.068    C249.789,153.36,253.767,155.355,255.707,156.035z"
         id="path476" /><path
         d="M556.771,43.185l6.255-4.633c0.254-0.135,0.386-0.021,0.297,0.251l-3.418,6.86c-0.089,0.272,0.07,0.487,0.355,0.475    c5.676-0.27,10.443,0.07,12.978-2.907c0.187-0.217,0.109-0.483-0.172-0.539c-0.235-0.046-0.468-0.061-0.731-0.055    c-0.284,0.006-0.354-0.131-0.156-0.333c1.068-1.092,3.479-3.607,4.184-5.774c0.089-0.272-0.095-0.45-0.377-0.392    c-0.177,0.037-0.382,0.083-0.636,0.156c-0.275,0.08-0.364-0.037-0.224-0.285c0.954-1.637,1.86-4.17,1.977-5.594    c0.024-0.284-0.229-0.499-0.508-0.431c-0.098,0.024-0.202,0.052-0.31,0.083c-0.271,0.086-0.4-0.04-0.321-0.315    c0.429-1.506,0.928-4.863,0.809-6.267c-0.024-0.285-0.334-0.551-0.618-0.532c-1.408,0.092-4.651,1.086-6.077,1.732    c-0.261,0.119-0.401,0.009-0.358-0.272c0.016-0.11,0.03-0.214,0.037-0.315c0.024-0.285-0.224-0.505-0.502-0.438    c-1.39,0.328-3.761,1.601-5.236,2.788c-0.223,0.178-0.352,0.107-0.314-0.177c0.033-0.266,0.052-0.474,0.061-0.658    c0.016-0.285-0.189-0.438-0.443-0.312c-2.041,1.019-4.164,3.776-5.086,4.997c-0.171,0.227-0.314,0.181-0.352-0.104    c-0.033-0.251-0.086-0.483-0.165-0.713c-0.095-0.27-0.37-0.306-0.558-0.089c-2.604,2.993-1.578,7.757-0.914,13.516    C556.281,43.197,556.517,43.317,556.771,43.185z"
         id="path478" /><path
         d="M499.778,39.002c-0.238-0.083-0.471-0.138-0.713-0.168c-0.284-0.034-0.438,0.196-0.327,0.459    c1.526,3.663,6.251,4.853,11.71,6.814c0.27,0.098,0.48-0.064,0.475-0.349l-1.377-7.659c-0.009-0.285,0.153-0.355,0.355-0.156    l4.633,6.104c0.205,0.199,0.468,0.153,0.581-0.11c2.276-5.208,4.694-9.33,3.151-12.919c-0.113-0.263-0.385-0.312-0.557-0.085    c-0.144,0.189-0.263,0.392-0.373,0.63c-0.119,0.26-0.275,0.26-0.37-0.009c-0.508-1.441-1.689-4.719-3.32-6.31    c-0.205-0.199-0.447-0.113-0.518,0.163c-0.046,0.177-0.095,0.379-0.141,0.643c-0.052,0.281-0.195,0.312-0.352,0.073    c-1.047-1.582-2.913-3.516-4.138-4.25c-0.244-0.147-0.547-0.015-0.611,0.263c-0.021,0.098-0.043,0.202-0.062,0.312    c-0.046,0.281-0.211,0.339-0.422,0.15c-1.16-1.053-3.948-2.987-5.261-3.504c-0.266-0.104-0.643,0.055-0.753,0.318    c-0.541,1.3-1.089,4.648-1.141,6.215c-0.01,0.285-0.169,0.364-0.404,0.199c-0.092-0.064-0.181-0.119-0.267-0.171    c-0.244-0.147-0.551-0.021-0.614,0.257c-0.325,1.389-0.233,4.079,0.177,5.93c0.062,0.278-0.061,0.361-0.297,0.202    c-0.223-0.15-0.403-0.257-0.562-0.346c-0.248-0.141-0.478-0.024-0.478,0.26c0.006,2.28,1.539,5.407,2.222,6.775    C500.155,38.987,500.048,39.094,499.778,39.002z"
         id="path480" /><path
         d="M131.648,309.234c-0.067,0.548,0.349,0.82,0.856,0.605c0.325-0.138,0.695-0.3,1.154-0.535    c0.493-0.251,0.707-0.064,0.526,0.459c-1.209,3.464-1.995,8.61-1.689,11.353c0.061,0.551,0.621,0.859,1.123,0.634    c0.178-0.08,0.361-0.172,0.554-0.272c0.486-0.261,0.774-0.073,0.725,0.478c-0.257,3.02,0.034,9.58,0.777,12.203    c0.15,0.532,0.838,0.924,1.374,0.783c2.638-0.694,8.433-3.776,10.903-5.536c0.45-0.321,0.756-0.168,0.78,0.386    c0.009,0.215,0.024,0.42,0.046,0.612c0.061,0.551,0.612,0.875,1.117,0.648c2.519-1.132,6.551-4.428,8.92-7.228    c0.355-0.422,0.627-0.333,0.661,0.221c0.03,0.517,0.08,0.921,0.128,1.27c0.073,0.548,0.52,0.765,0.958,0.429    c3.498-2.687,6.518-8.712,7.818-11.368c0.242-0.496,0.533-0.459,0.71,0.064c0.156,0.462,0.343,0.888,0.579,1.294    c0.278,0.478,0.814,0.444,1.089-0.036c3.843-6.646,0.134-15.318-3.25-26.017c-0.168-0.526-0.664-0.667-1.092-0.321l-10.171,11.109    c-0.432,0.346-0.725,0.184-0.655-0.364l3.957-14.294c0.067-0.548-0.315-0.9-0.851-0.768c-10.683,2.607-19.866,3.721-23.581,10.309    c-0.272,0.48-0.031,0.961,0.523,0.958c0.462,0,0.915-0.055,1.407-0.162c0.542-0.119,0.722,0.116,0.419,0.578    C135.834,299.194,132.181,304.855,131.648,309.234z"
         id="path482" /><path
         d="M191.982,391.787c-0.328,0.651-0.006,1.649,0.639,1.989c3.192,1.677,11.595,3.843,15.569,4.332    c0.726,0.089,0.888,0.512,0.417,1.071c-0.184,0.218-0.349,0.432-0.502,0.637c-0.432,0.591-0.184,1.401,0.511,1.628    c3.464,1.142,10.337,1.53,15.147,0.912c0.726-0.092,0.909,0.235,0.45,0.805c-0.432,0.532-0.744,0.967-1.01,1.353    c-0.417,0.6-0.175,1.208,0.551,1.272c5.808,0.505,14.128-2.677,17.769-4.106c0.68-0.266,0.931,0.027,0.634,0.698    c-0.263,0.59-0.459,1.169-0.591,1.777c-0.153,0.713,0.398,1.157,1.092,0.939c9.679-3.051,13.801-14.813,20.049-28.265    c0.309-0.664-0.049-1.243-0.78-1.289l-19.829,1.754c-0.729-0.046-0.869-0.469-0.312-0.939l16.616-10.404    c0.557-0.475,0.496-1.156-0.144-1.509c-12.742-6.995-22.687-14.104-32.191-10.991c-0.694,0.227-0.884,0.909-0.346,1.401    c0.453,0.413,0.943,0.762,1.518,1.096c0.633,0.367,0.6,0.759-0.107,0.939c-3.791,0.958-12.408,3.219-16.836,7.011    c-0.554,0.474-0.392,1.11,0.294,1.355c0.438,0.156,0.945,0.327,1.603,0.508c0.704,0.195,0.747,0.569,0.104,0.915    c-4.269,2.298-9.63,6.615-11.781,9.562c-0.432,0.59-0.162,1.393,0.533,1.621c0.245,0.08,0.505,0.156,0.783,0.23    c0.707,0.18,0.82,0.617,0.281,1.113C199.167,381.912,193.598,388.567,191.982,391.787z"
         id="path484" /><path
         d="M93.771,169.046l5.171-5.649c0.22-0.177,0.367-0.095,0.333,0.187l-2.013,7.268c-0.034,0.278,0.159,0.456,0.431,0.392    c5.432-1.325,10.101-1.891,11.989-5.242c0.138-0.245,0.015-0.487-0.266-0.487c-0.236,0-0.465,0.028-0.716,0.083    c-0.275,0.062-0.367-0.061-0.214-0.293c0.826-1.258,2.684-4.137,2.956-6.362c0.034-0.278-0.177-0.416-0.438-0.309    c-0.165,0.07-0.352,0.153-0.587,0.272c-0.251,0.128-0.361,0.034-0.266-0.233c0.615-1.762,1.013-4.379,0.86-5.771    c-0.031-0.278-0.315-0.438-0.572-0.321c-0.092,0.04-0.184,0.085-0.282,0.138c-0.248,0.131-0.392,0.037-0.37-0.242    c0.131-1.536-0.019-4.872-0.395-6.206c-0.077-0.27-0.426-0.468-0.698-0.398c-1.34,0.352-4.287,1.922-5.545,2.815    c-0.229,0.162-0.382,0.085-0.395-0.196c-0.003-0.11-0.012-0.214-0.024-0.312c-0.031-0.278-0.312-0.443-0.569-0.331    c-1.279,0.576-3.329,2.252-4.535,3.675c-0.18,0.214-0.318,0.168-0.336-0.11c-0.015-0.263-0.04-0.468-0.064-0.646    c-0.037-0.278-0.263-0.389-0.486-0.217c-1.778,1.365-3.314,4.431-3.975,5.78c-0.122,0.254-0.272,0.232-0.361-0.034    c-0.08-0.235-0.174-0.45-0.294-0.658c-0.141-0.242-0.413-0.227-0.554,0.019c-1.956,3.378-0.067,7.788,1.652,13.228    C93.3,169.15,93.554,169.22,93.771,169.046z"
         id="path486" /><path
         d="M14.031,251.871l-4.036,4.626c-0.175,0.15-0.297,0.086-0.275-0.144l1.518-6.047c0.021-0.226-0.141-0.367-0.361-0.303    c-4.467,1.27-8.308,1.964-9.728,4.807c-0.101,0.205,0.009,0.398,0.236,0.386c0.192-0.009,0.382-0.043,0.578-0.095    c0.22-0.058,0.3,0.034,0.184,0.229c-0.621,1.056-2.014,3.473-2.145,5.291c-0.015,0.229,0.159,0.333,0.367,0.232    c0.131-0.064,0.281-0.138,0.468-0.245c0.199-0.113,0.291-0.04,0.227,0.177c-0.429,1.457-0.646,3.602-0.465,4.728    c0.037,0.226,0.275,0.343,0.478,0.239c0.07-0.037,0.146-0.077,0.223-0.123c0.196-0.12,0.318-0.046,0.312,0.181    c-0.042,1.254,0.211,3.959,0.572,5.027c0.074,0.217,0.364,0.364,0.582,0.297c1.077-0.34,3.409-1.735,4.394-2.512    c0.181-0.141,0.309-0.086,0.331,0.141c0.009,0.089,0.019,0.174,0.031,0.254c0.037,0.227,0.269,0.349,0.474,0.245    c1.019-0.521,2.616-1.965,3.538-3.17c0.138-0.181,0.254-0.15,0.278,0.077c0.024,0.211,0.052,0.376,0.08,0.52    c0.042,0.224,0.229,0.306,0.404,0.159c1.389-1.181,2.515-3.736,2.996-4.859c0.092-0.211,0.214-0.202,0.297,0.012    c0.074,0.196,0.159,0.364,0.263,0.523c0.125,0.19,0.346,0.165,0.45-0.037c1.429-2.785-0.278-6.212-1.814-10.496    C14.414,251.773,14.206,251.721,14.031,251.871z"
         id="path488" /><path
         d="M211.924,232.801c-0.113,0.257,0.031,0.633,0.288,0.75c1.261,0.575,4.535,1.227,6.074,1.331    c0.281,0.019,0.352,0.178,0.184,0.401c-0.067,0.089-0.125,0.174-0.181,0.257c-0.153,0.236-0.04,0.542,0.232,0.615    c1.356,0.364,4.002,0.367,5.835,0.024c0.275-0.052,0.355,0.07,0.19,0.3c-0.153,0.214-0.263,0.386-0.358,0.539    c-0.147,0.239-0.043,0.468,0.238,0.478c2.24,0.067,5.368-1.331,6.735-1.958c0.254-0.116,0.358-0.006,0.26,0.254    c-0.092,0.239-0.156,0.462-0.189,0.695c-0.043,0.278,0.177,0.438,0.44,0.336c3.599-1.358,4.866-5.887,6.999-11.056    c0.107-0.26-0.04-0.48-0.321-0.486l-7.488,0.887c-0.282-0.009-0.34-0.168-0.132-0.358l6.365-4.256    c0.208-0.19,0.175-0.45-0.076-0.576c-5.117-2.524-9.187-5.058-12.825-3.638c-0.26,0.101-0.318,0.367-0.101,0.545    c0.187,0.15,0.383,0.278,0.606,0.392c0.251,0.128,0.248,0.278-0.021,0.361c-1.435,0.45-4.697,1.502-6.316,3.054    c-0.202,0.196-0.128,0.435,0.141,0.514c0.171,0.052,0.37,0.107,0.63,0.163c0.275,0.061,0.3,0.202,0.058,0.349    c-1.591,0.973-3.556,2.748-4.321,3.926c-0.153,0.236-0.031,0.539,0.239,0.612c0.095,0.024,0.196,0.049,0.303,0.07    c0.275,0.055,0.331,0.22,0.135,0.422C214.473,228.854,212.478,231.528,211.924,232.801z"
         id="path490" /><path
         d="M384.077,93.957c0.189,0.129,0.162,0.267-0.064,0.306l-6.157,0.174c-0.226,0.04-0.317,0.236-0.201,0.432    c2.341,3.923,3.904,7.43,6.974,8.1c0.223,0.049,0.382-0.104,0.314-0.324c-0.058-0.184-0.134-0.355-0.235-0.539    c-0.113-0.199-0.043-0.3,0.181-0.239c1.178,0.343,3.874,1.102,5.677,0.78c0.226-0.04,0.284-0.239,0.134-0.413    c-0.095-0.113-0.201-0.239-0.352-0.392c-0.159-0.165-0.113-0.272,0.116-0.263c1.524,0.055,3.663-0.26,4.713-0.716    c0.211-0.092,0.266-0.352,0.113-0.523c-0.053-0.061-0.113-0.123-0.175-0.187c-0.162-0.163-0.122-0.297,0.101-0.346    c1.23-0.266,3.798-1.184,4.749-1.799c0.193-0.125,0.264-0.447,0.145-0.64c-0.6-0.964-2.531-2.886-3.528-3.651    c-0.184-0.141-0.159-0.278,0.058-0.358c0.086-0.03,0.162-0.061,0.239-0.092c0.211-0.092,0.272-0.349,0.122-0.523    c-0.759-0.859-2.558-2.059-3.96-2.656c-0.211-0.089-0.208-0.208,0.007-0.288c0.202-0.077,0.354-0.144,0.489-0.205    c0.208-0.098,0.239-0.3,0.052-0.432c-1.493-1.059-4.253-1.521-5.468-1.713c-0.227-0.037-0.248-0.156-0.062-0.291    c0.165-0.12,0.312-0.245,0.444-0.389c0.155-0.168,0.076-0.376-0.147-0.429c-3.108-0.713-6.096,1.818-9.93,4.471    c-0.189,0.132-0.184,0.346,0.006,0.475L384.077,93.957z"
         id="path492" /></g></g><g
     id="g494" /><g
     id="g496" /><g
     id="g498" /><g
     id="g500" /><g
     id="g502" /><g
     id="g504" /><g
     id="g506" /><g
     id="g508" /><g
     id="g510" /><g
     id="g512" /><g
     id="g514" /><g
     id="g516" /><g
     id="g518" /><g
     id="g520" /><g
     id="g522" /></svg>