<?xml version="1.0" encoding="UTF-8" standalone="no"?>
<!-- Generator: Adobe Illustrator 16.0.0, SVG Export Plug-In . SVG Version: 6.00 Build 0)  -->

<svg
   xmlns:dc="http://purl.org/dc/elements/1.1/"
   xmlns:cc="http://creativecommons.org/ns#"
   xmlns:rdf="http://www.w3.org/1999/02/22-rdf-syntax-ns#"
   xmlns:svg="http://www.w3.org/2000/svg"
   xmlns="http://www.w3.org/2000/svg"
   xmlns:sodipodi="http://sodipodi.sourceforge.net/DTD/sodipodi-0.dtd"
   xmlns:inkscape="http://www.inkscape.org/namespaces/inkscape"
   version="1.1"
   id="Capa_1"
   x="0px"
   y="0px"
   width="569.179px"
   height="569.18px"
   viewBox="0 0 569.179 569.18"
   style="enable-background:new 0 0 569.179 569.18;"
   xml:space="preserve"
   inkscape:version="0.91 r13725"
   sodipodi:docname="tree-trunk-growing-from-soil.svg"><metadata
     id="metadata628"><rdf:RDF><cc:Work
         rdf:about=""><dc:format>image/svg+xml</dc:format><dc:type
           rdf:resource="http://purl.org/dc/dcmitype/StillImage" /></cc:Work></rdf:RDF></metadata><defs
     id="defs626" /><sodipodi:namedview
     pagecolor="#ffffff"
     bordercolor="#666666"
     borderopacity="1"
     objecttolerance="10"
     gridtolerance="10"
     guidetolerance="10"
     inkscape:pageopacity="0"
     inkscape:pageshadow="2"
     inkscape:window-width="640"
     inkscape:window-height="507"
     id="namedview624"
     showgrid="false"
     inkscape:zoom="1.1727552"
     inkscape:cx="278.27565"
     inkscape:cy="98.851773"
     inkscape:window-x="0"
     inkscape:window-y="25"
     inkscape:window-maximized="0"
     inkscape:current-layer="Capa_1" /><g
     id="g588"><g
       id="g590"><path
         d="m 227.66193,570.03269 84.83958,0 6.64616,-42.45825 c 0,0 -6.06694,0.46487 -34.56867,1.31756 -0.11895,0.004 -0.242,0.004 -0.361,0.004 -1.315,-10.521 -1.974,-21.044 -0.96,-31.311 0.881,-8.956 3.822,-17.546 6.668,-25.856 2.784,-8.134 5.664,-16.543 6.631,-25.321 0.942,-8.538 0.187,-17.399 -2.246,-26.338 -0.605,-2.228 -1.325,-4.495 -2.133,-6.75 l 0.585,-0.483 c 0.829,-0.688 1.655,-1.377 2.509,-2.035 2.283,-1.757 4.963,-3.672 7.745,-3.452 2.114,0.145 4.177,1.922 5.019,4.327 0.33,0.942 0.894,3.317 -0.988,5.037 -1.711,1.566 -5.028,1.863 -6.35,0.511 -0.539,-0.554 -0.799,-1.334 -0.774,-2.322 0.009,-0.396 -0.281,-0.731 -0.677,-0.777 -0.392,-0.056 -0.756,0.211 -0.838,0.6 -0.31,1.444 -0.037,2.745 0.786,3.761 1.077,1.331 3.026,2.093 5.353,2.093 3.733,0 7.72,-2.01 8.121,-5.856 0.287,-2.732 -0.648,-5.499 -2.632,-7.791 -2.185,-2.527 -5.346,-4.115 -8.623,-4.244 -1.83,0 -4.021,1.147 -6.145,2.259 -2.075,1.083 -4.271,2.188 -5.545,1.974 -1.401,-3.369 -3.032,-6.724 -4.612,-9.967 -3.308,-6.796 -6.726,-13.822 -8.191,-21.307 -2.038,-10.423 1.857,-24.354 11.904,-29.63 0.823,-0.432 1.939,-0.658 3.231,-0.658 3.721,0 7.53,1.766 8.494,3.938 0.532,1.205 0.175,2.512 -1.067,3.886 -1.218,1.344 -2.935,2.179 -4.48,2.179 -0.661,0 -1.569,-0.156 -2.151,-0.899 -0.59,-0.759 -0.7,-1.968 -0.314,-3.497 0.085,-0.347 -0.077,-0.704 -0.392,-0.866 -0.312,-0.162 -0.701,-0.089 -0.934,0.184 -1.285,1.502 -1.595,3.194 -0.869,4.771 0.998,2.166 3.933,3.804 6.827,3.804 1.882,0 3.521,-0.691 4.617,-1.949 3.238,-3.709 2.864,-6.922 1.978,-8.966 -1.834,-4.223 -7.259,-7.062 -12.015,-7.702 9.896,-11.83 17.348,-21.978 23.397,-31.846 6.563,-10.71 13.106,-22.157 14.73,-33.979 0.102,-0.729 0.193,-1.515 0.294,-2.341 0.851,-7.133 2.008,-16.913 10.536,-16.524 2.285,0.11 4.728,1.989 5.336,4.107 0.417,1.457 -0.119,2.748 -1.545,3.736 -0.581,0.4 -1.34,0.624 -2.142,0.624 -1.402,0 -2.917,-0.695 -2.944,-2.212 0.013,-0.269 0.052,-0.554 0.116,-0.851 0.089,-0.407 -0.162,-0.811 -0.565,-0.909 -0.41,-0.101 -0.814,0.144 -0.922,0.544 -0.109,0.41 -0.165,0.811 -0.162,1.196 -0.052,1.383 0.396,2.61 1.292,3.543 1.863,1.94 5.59,2.105 8.014,0.306 2.359,-1.75 3.231,-4.367 2.384,-7.172 -1.086,-3.614 -4.719,-6.595 -8.265,-6.784 -2.537,-0.128 -5.04,0.331 -7.457,0.78 -0.548,0.104 -1.096,0.205 -1.646,0.3 -0.594,0 -1.417,-2.451 -2.442,-7.28 -0.29,-1.365 -0.538,-2.543 -0.786,-3.268 -2.788,-8.161 -7.371,-16.414 -14.422,-25.964 -6.441,-8.724 -11.573,-15.178 -16.641,-20.928 -0.719,-0.817 -1.588,-1.704 -2.512,-2.65 -4.036,-4.122 -9.061,-9.253 -7.504,-14.428 0.652,-2.167 2.843,-4.296 4.419,-4.296 0.918,0 1.57,0.765 1.931,2.271 0.346,1.42 0.15,3.125 -0.443,3.88 -0.232,0.297 -0.44,0.331 -0.575,0.331 -0.248,0 -0.79,-0.135 -1.658,-1.041 -0.27,-0.279 -0.701,-0.315 -1.007,-0.086 -0.31,0.229 -0.401,0.649 -0.215,0.985 0.655,1.181 1.668,1.833 2.853,1.833 1.242,0 2.619,-0.731 3.687,-1.958 1.084,-1.245 1.622,-2.745 1.444,-4.012 -0.603,-4.305 -3.311,-4.948 -4.868,-4.948 -3.354,0 -7.521,2.876 -9.376,5.643 -10.765,-15.444 -19.382,-31.619 -26.325,-49.401 -1,-2.564 -1.854,-8.516 0.006,-11.242 0.96,-1.401 2.54,-1.674 4.779,-0.894 1.402,0.493 3.018,1.423 2.739,3.066 -0.242,1.407 -1.882,2.846 -3.252,2.846 -0.799,0 -1.344,-0.514 -1.625,-1.527 -0.107,-0.379 -0.459,-0.618 -0.869,-0.551 -0.386,0.067 -0.661,0.417 -0.633,0.808 0.15,2.114 1.579,3.43 3.733,3.43 2.323,0 5.089,-1.652 5.499,-4.112 0.358,-2.13 0.024,-3.816 -0.991,-5.019 -1.044,-1.236 -2.794,-1.888 -5.059,-1.888 -2.742,0 -5.74,0.937 -7.727,2.004 -4.825,-21.803 -5.315,-43.207 -1.371,-60.383 0.78,-3.4 3.409,-8.189 6.818,-8.189 1.104,0 2.255,0.508 3.415,1.509 0.609,0.523 0.56,0.937 0.447,1.239 -0.361,0.973 -2.071,2.004 -3.329,2.004 -0.147,0 -0.278,-0.016 -0.389,-0.046 -0.187,-0.374 -0.275,-0.872 -0.257,-1.463 0.009,-0.385 -0.267,-0.719 -0.649,-0.777 -0.398,-0.067 -0.75,0.181 -0.851,0.551 -0.471,1.695 0.165,2.5 0.691,2.864 1.249,1.656 4.226,1.353 5.799,-0.496 0.881,-1.041 1.242,-2.369 1.016,-3.746 -0.475,-2.754 -1.757,-4.091 -3.923,-4.091 -0.994,0 -2.078,0.281 -3.124,0.554 -1.27,0.331 -2.638,0.658 -3.645,0.499 3.302,-14.899 9,-29.447 16.943,-43.247 0.202,-0.355 0.092,-0.805 -0.251,-1.025 -0.343,-0.22 -0.802,-0.131 -1.038,0.202 -4.057,5.731 -7.433,11.708 -10.239,16.956 -0.743,-1.083 -1.937,-1.757 -3.262,-1.757 -1.377,0 -2.598,0.756 -3.342,2.075 -0.477,0.839 -0.45,1.833 0.071,2.727 0.633,1.086 1.842,1.692 2.803,1.42 0.474,-0.049 0.869,-0.395 1.172,-1.034 0.003,-0.009 0.009,-0.021 0.012,-0.031 0.006,-0.012 0.012,-0.031 0.021,-0.046 0.009,-0.018 0.019,-0.04 0.028,-0.061 0.015,-0.037 0.027,-0.067 0.03,-0.07 l 0,0 c 0.003,-0.006 0.006,-0.012 0.006,-0.016 0.15,-0.389 -0.043,-0.829 -0.432,-0.985 -0.355,-0.134 -0.75,0 -0.939,0.318 -0.229,-0.768 -0.3,-2.126 0.089,-2.58 0.493,0.037 1.659,1.906 1.833,2.543 0.539,2.191 -0.783,4.526 -1.952,6.585 -0.224,0.395 -0.441,0.777 -0.64,1.151 -6.735,12.598 -10.762,29.339 -12.301,51.151 -0.459,-0.187 -0.899,-0.337 -1.343,-0.456 -1.307,-0.364 -2.871,-0.566 -4.406,-0.566 -3.837,0 -6.858,1.16 -8.287,3.182 -1.123,1.588 -1.264,3.605 -0.419,5.989 0.658,1.854 2.396,2.962 4.645,2.962 1.891,0 3.642,-0.835 4.357,-2.081 0.526,-0.918 0.484,-1.995 -0.122,-3.032 -0.193,-0.337 -0.615,-0.471 -0.958,-0.318 -0.355,0.15 -0.542,0.539 -0.44,0.909 0.153,0.554 0.263,1.31 -0.08,1.766 -0.315,0.413 -0.942,0.475 -1.289,0.475 -1.64,0 -3.742,-1.227 -3.999,-2.812 -0.107,-0.673 0.101,-1.325 0.618,-1.934 1.236,-1.454 3.645,-2.154 5.055,-1.953 3.186,0.456 5.251,3.847 6.053,6.61 0.741,2.543 0.731,5.474 0.726,8.305 -0.003,1.512 -0.009,3.072 0.101,4.544 0.453,5.979 1.273,12.01 2.436,17.925 2.255,11.487 5.826,22.742 10.615,33.467 -3.639,0.45 -8.03,2.075 -10.04,4.881 -1.163,1.622 -1.472,3.464 -0.921,5.48 1.297,4.755 4.59,5.269 5.942,5.269 2.032,0 4.085,-1.074 5,-2.613 0.606,-1.019 0.658,-2.124 0.147,-3.118 -0.232,-0.661 -0.891,-1.291 -2.004,-1.921 -0.012,-0.006 -0.024,-0.013 -0.037,-0.021 -0.367,-0.205 -0.835,-0.077 -1.041,0.293 -0.205,0.367 -0.073,0.833 0.294,1.041 0.597,0.333 1.034,0.704 1.303,1.099 0.006,0.037 0.013,0.073 0.025,0.11 -0.318,0.431 -1.763,0.894 -3.531,0.894 -0.762,0 -1.451,-0.092 -1.94,-0.257 -1.172,-0.401 -2.534,-1.095 -2.362,-2.118 0.312,-1.87 4.777,-4.443 7.705,-4.443 l 0.248,0.006 c 3.464,0.217 5.407,3.926 6.964,6.91 l 0.3,0.572 c 2.766,5.248 6.056,10.713 10.355,17.203 6.049,9.131 12.714,18.036 19.159,26.646 1.506,2.011 3.011,4.024 4.511,6.041 -5.875,-0.272 -12.017,5.93 -13.547,11.408 -1.093,3.908 0.107,7.258 3.286,9.186 0.894,0.542 1.968,0.817 3.188,0.817 3.326,0 7.494,-2.218 8.097,-5.184 0.242,-1.193 0.05,-3.442 -3.94,-5.138 -0.007,-0.003 -0.013,-0.006 -0.021,-0.009 -0.383,-0.159 -0.836,0.016 -1.004,0.407 -0.165,0.389 0.019,0.838 0.407,1.003 1.578,0.667 1.462,2.158 1.34,2.767 -0.324,1.597 -1.915,3.21 -3.675,2.729 -1.649,-0.459 -2.877,-1.659 -3.372,-3.292 -0.526,-1.75 -0.102,-3.712 1.113,-5.117 2.121,-2.448 4.392,-3.69 6.748,-3.69 5.823,0 11.104,7.515 13.105,10.744 12.378,20.098 11.068,42.289 -3.892,65.983 -1.632,-7.053 -9.235,-13.427 -16.607,-13.427 -3.568,0 -6.659,1.49 -8.941,4.309 -2.583,3.188 -2.225,5.743 -1.469,7.331 1.42,2.978 5.208,4.584 8.051,4.584 1.579,0 2.85,-0.453 3.676,-1.312 0.682,-0.707 1.019,-1.671 0.979,-2.785 -0.015,-0.376 -0.3,-0.685 -0.67,-0.73 -0.395,-0.046 -0.726,0.187 -0.829,0.544 -0.496,1.714 -2.326,2.479 -3.92,2.479 -1.31,0 -2.913,-0.544 -3.482,-2.056 -0.594,-1.723 -0.475,-3.339 0.349,-4.676 0.881,-1.429 2.534,-2.405 4.529,-2.678 3.405,-0.453 6.245,0.799 8.375,3.553 2.867,3.706 4.042,9.862 2.8,14.639 -0.915,3.504 -4.792,7.525 -8.216,11.074 -1.401,1.457 -2.729,2.834 -3.736,4.061 -3.954,4.823 -8.146,9.566 -12.198,14.153 l -2.573,2.919 c -6.046,6.869 -14.079,17.421 -14.942,30.48 -3.354,-1.478 -7.258,-2.286 -11.123,-2.286 -4.997,0 -9.639,1.362 -13.072,3.831 -3.871,2.788 -5.961,7.736 -5.322,12.604 0.588,4.477 3.296,7.947 7.521,9.547 3.715,0.897 8.55,-1.486 10.202,-4.908 1.05,-2.172 0.765,-4.461 -0.811,-6.447 -0.251,-0.318 -0.701,-0.382 -1.028,-0.156 -0.331,0.227 -0.435,0.671 -0.232,1.017 0.74,1.275 0.795,2.481 0.162,3.58 -0.9,1.561 -3.161,2.692 -5.376,2.692 -1.007,0 -1.928,-0.232 -2.662,-0.676 -3.755,-2.259 -3.66,-5.361 -3.268,-7.011 0.826,-3.482 4.189,-6.318 7.821,-6.598 8.871,-0.685 15.875,3.431 18.754,11.053 4.336,11.466 6.738,23.422 7.99,31.43 l 0.56,3.528 c 1.601,10.055 3.256,20.45 2.736,30.159 -0.211,3.88 -1.564,7.359 -2.996,11.044 l -0.554,1.432 c -2.714,7.096 -4.483,14.303 -5.263,21.417 -1.72,15.683 1.539,31.457 4.572,43.449 0.147,0.581 0.309,1.153 0.459,1.731 -36.43651,2.74269 -45.70461,2.7109 -45.70461,2.7109 z"
         id="path592"
         inkscape:connector-curvature="0"
         sodipodi:nodetypes="cccsccccccccccccccccsccccccccsccscccccscccccccccscccccccccccccsccssccscccsccscccccscccsccsccsccscccccccscccsccsccccccccccccccccccsccscccccsccccccccccsccccccccscccccccccccscccccccccsccsccsccccsccccccccccsccccccccscccccccccccccc" /></g></g><g
     id="g594" /><g
     id="g596" /><g
     id="g598" /><g
     id="g600" /><g
     id="g602" /><g
     id="g604" /><g
     id="g606" /><g
     id="g608" /><g
     id="g610" /><g
     id="g612" /><g
     id="g614" /><g
     id="g616" /><g
     id="g618" /><g
     id="g620" /><g
     id="g622" /></svg>