<svg xmlns="http://www.w3.org/2000/svg" width="567.063" height="567.063" viewBox="0 0 567.063 567.063"><path d="M519.673 328.193c-20.734.759-30.398-22.313-47.136-30.242-7.271-3.442-15.774-4.379-23.871-2.989a421.97 421.97 0 0 0 6.056-6.625c14.917-16.58 29.006-32.237 62.491-32.834a1.531 1.531 0 0 0 .082-3.057c-2.497-.178-4.969-.27-7.344-.27-29.948 0-45.307 13.85-60.159 27.243-1.8 1.622-3.553 3.204-5.307 4.738 8.816-17.77 11.271-37.981 11.671-58.698a20.772 20.772 0 0 1 3.023-2.396c3.586-2.298 7.684-3.703 11.436-5.701 4.186-2.23 7.772-4.954 10.56-8.828.523-.728 4.575-6.441 3.213-7.399-.752-.536-4.485 2.059-5.232 2.411-2.077.982-4.204 1.848-6.334 2.711-4.281 1.735-8.721 3.323-12.445 6.135-1.618 1.221-2.974 2.699-4.155 4.305l-.009-1.441c.71-.982 1.257-1.704 1.328-1.777 7.925-8.027 20.621-8.562 29.109-16.028 3.614-3.18 5.747-7.521 6.364-12.268.147-1.129.196-2.262.159-3.4-.021-.627-.033-2.081-1-1.998-.921.077-1.301 2.179-1.689 2.836-5.976 10.083-19.893 7.62-28.776 13.149-2.23 1.389-4.146 3.262-5.753 5.392-.052-1.967-.106-3.935-.165-5.896-.597-20.958-1.184-42.417 2.65-62.152 1.307-.643 2.695-1.129 4.131-1.374 3.277-.56 6.652-.321 9.96-.618 3.69-.331 7.1-1.197 10.282-3.134.6-.364 5.251-3.24 4.562-4.342-.38-.615-3.853.113-4.499.141-1.793.073-3.586.049-5.379.021-3.608-.055-7.283-.263-10.817.621-2.724.686-5.171 2.084-7.222 3.959.095-.401.193-.802.291-1.199 1.787-1.246 4.4-2.775 4.56-2.84 8.146-3.357 17.436.123 25.813-2.662 3.568-1.184 6.423-3.66 8.312-6.885.449-.768.829-1.566 1.15-2.396.178-.459.609-1.505-.11-1.741-.686-.226-1.601 1.172-2.08 1.527-7.369 5.432-16.629-.579-24.697.694-4.052.637-7.847 2.926-10.579 6.093.971-2.895 2.048-5.747 3.296-8.522a1.53 1.53 0 1 0-2.723-1.392c-2.139 3.712-4.006 7.519-5.683 11.401-1.548-5.37-5.015-10.242-9.669-13.139-8.884-5.53-22.801-3.066-28.776-13.149-.389-.658-.771-2.763-1.689-2.837-.967-.083-.979 1.371-1 1.999a20.98 20.98 0 0 0 .159 3.399c.617 4.749 2.75 9.091 6.364 12.268 4.333 3.81 9.762 5.817 15.092 7.935-3.556 2.13-6.49 4.951-8.729 8.504-2.98 4.725-4.548 10.291-5.175 16.107-1.809-3.001-4.251-5.603-7.17-7.417-8.883-5.53-22.8-3.066-28.776-13.149-.389-.658-.771-2.763-1.688-2.837-.964-.083-.979 1.371-1.001 1.999a21.094 21.094 0 0 0 .159 3.399c.618 4.749 2.751 9.091 6.365 12.268 8.488 7.463 21.184 8.002 29.109 16.028.125.128 1.717 2.252 3.103 4.317.518 5.021 1.438 9.878 2.476 14.192 1.001 4.183 2.044 8.372 3.088 12.555 7.093 28.458 13.794 55.337 7.148 79.239-7.62 27.424-27.647 46.075-61.228 57.014-4.532 1.479-9.138 2.913-13.749 4.352-13.394 4.18-27.219 8.488-39.409 13.901.811-8.075.74-15.657-.209-23.103-.498-3.911-1.235-7.886-2.172-11.968a38.124 38.124 0 0 1 3.562-.003c7.527.379 14.875 2.573 22.335 3.556 8.326 1.096 16.291.859 24.29-1.852 1.503-.511 13.217-4.574 12.24-7.354-.535-1.545-8.58-1.648-10.019-1.909-4.002-.719-7.959-1.664-11.912-2.61-7.953-1.906-15.982-4.186-24.238-3.969-6.031.159-11.827 1.867-17.062 4.71.786-.964 1.6-1.903 2.42-2.84 4.257-1.619 9.106-3.164 9.438-3.223 19.676-3.406 38.513 8.884 58.418 6.867 8.474-.86 16.014-4.921 21.79-11.124a37.501 37.501 0 0 0 3.728-4.731c.618-.927 2.09-3.029.615-3.907-1.401-.838-4.116 1.802-5.355 2.35-18.984 8.373-36.493-9.492-54.976-10.667-2.613-.166-5.251-.012-7.861.382 1.75-1.5 3.498-2.993 5.229-4.471 4.061-3.467 8.118-6.931 12.124-10.425 8.607-7.516 20.395-17.803 13.366-32.742a1.538 1.538 0 0 0-1.98-.759 1.532 1.532 0 0 0-.838 1.949c4.676 12.479-8.599 22.032-19.263 29.709-1.986 1.429-3.877 2.788-5.526 4.076-11.665 8.929-24.813 18.99-36.2 29.896-3.32-9.171-7.405-18.275-11.891-27.396 1.053-1.493 1.988-2.739 2.083-2.837 7.926-8.026 20.622-8.562 29.11-16.028 3.614-3.179 5.747-7.521 6.364-12.268.147-1.129.196-2.261.159-3.399-.021-.627-.033-2.081-1-1.998-.921.076-1.301 2.182-1.689 2.839-5.976 10.083-19.893 7.62-28.776 13.149-4.765 2.965-8.292 7.993-9.785 13.51a912.273 912.273 0 0 0-8.605-16.334c1.307-1.166 2.62-2.332 3.933-3.498 10.608-9.407 21.579-19.134 28.656-29.639 3.023-4.489 5.178-9.244 6.971-14.048a20.61 20.61 0 0 1 2.345.101c4.234.444 8.313 1.903 12.49 2.687 4.664.869 9.165.982 13.761-.306.863-.242 7.596-2.179 7.127-3.776-.254-.888-4.789-1.19-5.594-1.383-2.236-.529-4.439-1.181-6.64-1.836-4.428-1.316-8.89-2.846-13.553-2.978-2.69-.073-5.315.444-7.804 1.356.11-.337.224-.677.331-1.013 2.206-.673 4.409-1.246 4.577-1.267 11.203-1.322 21.454 6.184 32.745 5.652 4.808-.227 9.184-2.289 12.632-5.612.82-.79 1.563-1.646 2.246-2.555.377-.505 1.271-1.646.465-2.185-.765-.517-2.377.89-3.09 1.163-10.964 4.146-20.297-6.466-30.689-7.689-5.685-.67-11.691 1.153-16.343 4.669 4.685-13.954 10.756-26.907 30.939-36.42a1.53 1.53 0 0 0-1.178-2.822c-24.915 9.128-31.748 24.67-38.36 39.697-.48 1.09-.952 2.164-1.426 3.223.223-21.646-9.955-42.66-19.835-63.055-5.937-12.255-11.989-24.768-15.771-37.424a19.309 19.309 0 0 1 4.422-3.944c3.586-2.298 7.684-3.703 11.435-5.701 4.187-2.231 7.772-4.954 10.561-8.828.523-.728 4.574-6.441 3.213-7.399-.753-.536-4.486 2.059-5.232 2.411-2.078.982-4.205 1.848-6.334 2.711-4.281 1.735-8.722 3.323-12.445 6.136-3.226 2.433-5.542 5.78-7.008 9.504-.144-.588-.275-1.175-.41-1.763 1.331-2.35 4.4-6.475 4.578-6.659 7.926-8.026 20.621-8.562 29.109-16.028 3.614-3.179 5.747-7.521 6.365-12.268a21.1 21.1 0 0 0 .159-3.399c-.021-.627-.034-2.081-1.001-1.998-.921.076-1.3 2.182-1.688 2.839-5.977 10.083-19.894 7.62-28.776 13.149-5.429 3.378-9.211 9.437-10.245 15.845-.34-2.806-.538-5.615-.538-8.43 0-.817-.64-1.487-1.454-1.527-.762-.088-1.518.563-1.597 1.374-2.105 20.937 4.079 41.126 12.39 63.015-11.552-11.359-25.875-26.699-25.814-40.034.021-5.009 2.017-9.333 6.096-13.216.585-.56.637-1.472.119-2.093a1.535 1.535 0 0 0-2.077-.251c-2.815 2.069-5 4.443-6.533 7.103a33.63 33.63 0 0 0-.328-4.654c-1.181-8.391-5.627-15.468-13.213-21.035a1.526 1.526 0 0 0-2.077.251 1.533 1.533 0 0 0 .119 2.093c6.282 5.982 9.352 12.65 9.385 20.383.098 21.3-23.682 45.737-41.463 63.072 11.022-28.718 19.822-55.41 20.353-82.461 1.373-2.371 4.317-6.331 4.491-6.508 7.926-8.026 20.622-8.562 29.11-16.028 3.613-3.179 5.746-7.521 6.364-12.268.147-1.129.196-2.261.159-3.399-.021-.627-.033-2.081-1-1.999-.921.077-1.301 2.179-1.689 2.837-5.977 10.083-19.893 7.619-28.776 13.148-4.143 2.58-7.304 6.735-9.055 11.402-.061-.734-.092-1.469-.168-2.203-.079-.814-.823-1.429-1.598-1.374-.813.04-1.453.71-1.453 1.527 0 19.654-5.899 39.162-13.877 58.36-.909-5.211-3.314-10.168-7.001-13.807-8.391-8.29-24.303-9.042-28.366-21.613-.264-.82-.159-3.229-1.151-3.541-1.04-.331-1.416 1.264-1.597 1.949a24.09 24.09 0 0 0-.671 3.776c-.501 5.374.763 10.68 3.944 15.071 7.476 10.318 21.298 14.067 28.018 24.862.095.15 1.031 2.249 1.943 4.517-.184.404-.373.805-.557 1.209-.949-2.76-2.323-5.364-4.238-7.626-3.394-4.015-7.88-6.866-12.157-9.841-2.124-1.478-4.251-2.959-6.289-4.556-.734-.575-4.191-4.354-5.152-3.954-1.735.713 1.294 8.002 1.688 8.932 2.1 4.951 5.364 8.837 9.413 12.332 3.626 3.131 7.781 5.692 11.153 9.11a23.327 23.327 0 0 1 2.28 2.699 1565.162 1565.162 0 0 1-6.895 14.373c-3.772 7.791-7.65 15.796-11.248 23.779-1.179-10.68-3.666-22.191-10.343-31.996-8.614-12.656-22.161-22.02-35.249-31.068-.991-.701-2.117-1.432-3.302-2.2-4.293-2.785-9.312-6.053-11.175-10.095 1.074-2.167 4.694-7.038 4.887-7.234 7.926-8.026 20.621-8.562 29.11-16.028 3.613-3.18 5.746-7.521 6.364-12.268.147-1.129.196-2.261.159-3.4-.021-.627-.033-2.081-1-1.998-.922.077-1.301 2.179-1.689 2.836-5.977 10.083-19.894 7.62-28.776 13.149-5.875 3.657-9.838 10.447-10.45 17.43a1.532 1.532 0 0 0-1.857.869c-3.791 9.183 3.749 15.147 8.739 19.098 2.394 1.891 4.813 3.761 7.234 5.633 4.577 3.541 9.309 7.2 13.742 10.927 11.512 9.688 18.654 22.5 21.747 39.061-9.513-7.999-24.152-11.793-38.359-15.475-2.702-.701-5.401-1.398-8.061-2.124-19.257-5.26-31.068-15.224-36.104-30.453-4.4-13.308-1.334-28.764 1.916-45.129.48-2.42.961-4.844 1.417-7.261 1.496-7.914 2.221-18.862-2.833-26.078-2.574-3.675-6.362-5.945-11.258-6.744-.802-.15-1.558.383-1.738 1.166a1.536 1.536 0 0 0 1.053 1.812c3.987 1.19 6.744 3.36 8.43 6.637 4.348 8.442.569 22.641-3.152 33.978C92.096 28.955 89.233 13.737 80.848.696a1.525 1.525 0 0 0-2.047-.499 1.532 1.532 0 0 0-.603 2.02c7.093 13.935 7.439 31.2 7.77 47.898.052 2.671.119 5.355.199 8.039-2.209-2.43-4.804-4.48-7.729-5.838-10.695-4.97-25.927-.306-33.997-10.768-.526-.683-1.239-2.987-2.28-2.944-1.092.043-.909 1.668-.844 2.372.116 1.276.324 2.537.646 3.782 1.343 5.227 4.324 9.795 8.8 12.855 10.521 7.188 24.798 6.05 34.765 13.941.085.067.731.734 1.588 1.652.055.529.092 1.068.156 1.597-1.502-1.561-3.161-2.974-5.067-4.076-4.55-2.635-9.737-3.804-14.765-5.159-2.5-.673-5-1.35-7.457-2.167-.885-.294-5.417-2.684-6.185-1.983-1.392 1.258 3.92 7.096 4.608 7.84 3.647 3.95 8.033 6.508 13.023 8.43 4.471 1.723 9.248 2.732 13.574 4.81 1.454.698 2.806 1.595 4.085 2.589 1.053 4.511 2.448 8.886 4.431 13.011l-.731-.597c-8.485-6.94-17.258-14.11-33.005-14.11-2.172 0-4.458.144-6.793.426a1.525 1.525 0 0 0-1.343 1.631c.061.814.798 1.417 1.573 1.417 18.831-.575 27.243 7.876 36.123 16.836 4.477 4.517 9.104 9.186 15.129 12.534 8.42 4.672 19.183 7.469 29.589 10.177 14.38 3.743 29.245 7.607 37.296 16.374 10.229 11.136 9.85 27.604 8.158 42.078-1.864 7.91-2.932 15.291-3.253 22.409-.38 2.552-.744 5.101-1.065 7.638-.894-1.98-1.78-3.997-2.687-6.056-9.247-21.016-18.791-42.706-50.554-56.527-4.878-6.582-13.752-10.193-21.748-8.847-10.318 1.735-19.119 12.794-30.272 9.192-.729-.236-2.405-1.561-3.146-1.01-.777.578.171 1.674.572 2.16a21.12 21.12 0 0 0 2.372 2.442c3.608 3.149 8.079 4.994 12.892 4.985 11.304-.024 21.175-8.026 32.43-7.255.141.009 1.759.343 3.607.787 30.566 16.043 37.613 37.833 44.991 60.857a988.278 988.278 0 0 0 1.646 5.092c-7.987-10.156-21.301-16.34-34.043-15.53-18.482 1.175-35.994 19.042-54.976 10.667-1.236-.547-3.95-3.188-5.355-2.35-1.475.875-.003 2.98.615 3.907a37.05 37.05 0 0 0 3.727 4.731c5.774 6.203 13.314 10.263 21.79 11.123 19.908 2.017 38.742-10.272 58.418-6.867.447.08 9.257 2.91 13.557 4.93.357.93.713 1.86 1.092 2.785-5.93-3.834-12.729-6.175-19.854-6.359-8.256-.217-16.285 2.062-24.238 3.969-3.953.945-7.909 1.891-11.912 2.61-1.441.26-9.483.364-10.018 1.91-.976 2.778 10.734 6.842 12.24 7.353 7.999 2.711 15.964 2.947 24.29 1.852 7.46-.982 14.808-3.177 22.335-3.556 3.81-.192 7.687.19 11.35 1.292 1.383 2.644 2.889 5.251 4.603 7.791 10.562 15.673 26.977 30.23 42.852 44.31 10.242 9.085 20.833 18.474 29.655 28.008 5.881 10.389 12.304 20.218 19.636 30.053l1.202 1.622a54.754 54.754 0 0 1 1.102 3.485c5.886 21.101-15.829 73.884-41.884 124.706-5.63 10.979-68.568-5.097-66.43 5.477 1.9 9.39 19.01 79.032 19.01 79.032l137.092.046c3.389-4.545 21.924-65.408 25.039-73.21 2.927-7.334-68.17.317-65.46-8.8 4.894-16.473 1.805-12.053 6.095-29.484 5.673-23.058 11.034-44.835 15.783-55.615 5.188-11.766 11.014-25.723 14.982-40.136 14.048-14.201 38.155-21.734 61.472-29.021 13.446-4.204 27.237-8.513 39.284-14.138 3.859.318 7.653 1.408 11.166 3.015 6.854 3.137 12.871 7.892 19.438 11.563 7.332 4.095 14.819 6.824 23.253 7.262 1.585.082 13.969.637 14.091-2.308.074-1.634-7.362-4.706-8.602-5.48-3.451-2.148-6.78-4.489-10.104-6.83-6.687-4.712-13.302-9.798-21.053-12.649-4.688-1.727-9.624-2.396-14.541-2.182.7-.478 1.398-.958 2.077-1.454 3.987.119 7.846.395 8.128.453 19.538 4.112 32.497 22.494 51.738 27.98 8.191 2.335 16.698 1.35 24.357-2.279a37.56 37.56 0 0 0 5.214-3.018c.915-.633 3.063-2.044 2.017-3.402-1.006-1.301-4.504.15-5.857.198zm-277.281-57.402c-6.745-21.989-6.145-41.876 1.802-60.665 2.99-7.065 6.371-14.217 9.643-21.132 1.723-3.645 3.445-7.292 5.125-10.942 1.53-3.335 3.403-7.43 4.168-11.677.486-.187.967-.385 1.469-.517 2.788-.731 5.716-.78 8.547-1.285 3.161-.563 6.034-1.567 8.635-3.479.49-.358 4.287-3.192 3.611-4.091-.374-.502-3.317.389-3.871.462-1.542.199-3.091.312-4.643.425-3.117.224-6.307.321-9.287 1.353a14.127 14.127 0 0 0-4.158 2.301c-.016-.211-.03-.419-.052-.63 1.077-.817 2.068-1.518 2.157-1.564 6.774-3.513 15.055-1.211 22.074-4.244 2.99-1.291 5.267-3.641 6.652-6.57.331-.698.597-1.414.812-2.154.119-.41.41-1.346-.227-1.493-.609-.144-1.291 1.132-1.68 1.475-5.949 5.242-14.392.756-21.261 2.463-4.073 1.01-7.662 3.972-9.706 7.717-.873-1.965-2.225-3.865-4.278-5.625a1.53 1.53 0 0 0-2.114.12 1.525 1.525 0 0 0 .033 2.117c6.885 6.949.78 17.503-4.122 25.982-.93 1.606-1.812 3.134-2.549 4.532-9.969 18.47-20.275 37.567-22.821 57.531-2.077 16.301 2.292 31.827 8.029 46.351a589.69 589.69 0 0 1-3.164-2.855c-29.676-26.968-41.729-55.616-36.845-87.581.786-5.162 2.102-10.214 3.843-15.187.04-.037.095-.092.119-.11 1.79-1.3 3.868-2.197 6.004-2.757 3.938-1.031 8.075-1.102 12.075-1.815 4.464-.795 8.524-2.215 12.2-4.917.691-.508 6.056-4.51 5.101-5.78-.526-.71-4.685.551-5.468.652-2.179.282-4.37.441-6.558.6-4.403.315-8.908.453-13.121 1.913-2.764.955-5.19 2.564-7.28 4.55.26-.59.511-1.184.783-1.771 1.723-1.328 3.458-2.552 3.596-2.625 9.571-4.963 21.271-1.711 31.188-5.998 4.223-1.824 7.438-5.146 9.4-9.281a20.3 20.3 0 0 0 1.147-3.044c.165-.579.581-1.9-.321-2.112-.859-.202-1.824 1.601-2.371 2.084-8.403 7.405-20.331 1.068-30.034 3.479-1.331.331-2.607.854-3.853 1.457 7.895-12.687 17.717-25.178 27.824-38.018a1502.79 1502.79 0 0 0 9.024-11.539c6.031-7.806 12.598-17.95 16.043-28.581 1.295 9.208 7.008 18.387 12.146 25.037 1.989 2.58 4.012 5.147 6.031 7.711 13.666 17.362 26.576 33.758 29.388 52.179 3.226 21.12-4.755 40.062-24.397 57.91-.703.643-1.413 1.282-2.129 1.925l-.928-1.612c-7.487-12.95-16.812-29.07-6.064-39.909a1.527 1.527 0 0 0 .033-2.118 1.536 1.536 0 0 0-2.114-.119c-14.091 12.068-6.729 28.109-1.353 39.82 1.433 3.115 2.892 6.227 4.357 9.342l-.009.009c-14.898 13.168-30.247 26.749-36.281 42.3zm39.266 62.087a153.76 153.76 0 0 0-6.133-6.949c-10.899-16.334-21.312-35.654-15.89-55.102 3.332-11.946 13.231-22.623 23.729-32.396 4.257 9.005 8.963 19.03 13.121 28.853a123.365 123.365 0 0 1 7.761 25.999c-5.107 5.746-9.29 11.315-12.775 17.01-4.149 6.774-7.375 14.186-9.813 22.585zm20.34 15.766a67.86 67.86 0 0 0-6.405 5.312 91.087 91.087 0 0 0-1.312-2.586c2.121-14.64 6.02-27.482 11.87-39.073.25 11.714-1.143 23.907-4.153 36.347zm131.117-219.565c1.968-4.32 4.964-7.668 9.036-10.165 3.431 1.561 6.665 3.412 9.349 6.129.107.107 1.23 1.604 2.402 3.293-6.983 19.856-9.187 41.787-10.545 65.597-7.975-20.298-17.898-48.03-10.242-64.854z"/></svg>