<svg xmlns="http://www.w3.org/2000/svg" width="550.386" height="550.387" viewBox="0 0 550.386 550.387"><path d="M214.558 550.387l141.095 1.166 11.774-58.34c-20.667-1.957-44.698-3.436-72.612-4.289 2.992-4.076 6.016-8.137 9.036-12.188 20.214-27.114 36.423-54.776 49.554-84.565 11.766-26.699 23.978-57.841 19.93-89.604-3.947-30.955-19.97-60.646-35.459-89.346-1.157-2.191-2.524-4.562-3.966-7.053-7.788-13.47-17.482-30.233-6.295-41.521a1.528 1.528 0 0 0 .034-2.118 1.532 1.532 0 0 0-2.115-.123c-14.602 12.509-6.967 29.141-1.392 41.286 2.613 5.682 5.294 11.359 7.978 17.032 5.101 10.793 10.379 21.95 15.046 32.975 12.76 30.162 13.451 62.105 2.09 97.528-8.645-25.01-33.274-46.809-57.137-67.929-4.314-3.819-8.62-7.629-12.824-11.45-30.842-28.021-43.366-57.789-38.293-91.005 4.416-28.936 24.609-54.581 45.982-81.732 3.14-3.987 6.282-7.98 9.376-11.989 9.945-12.867 21.285-31.861 18.835-49.257-1.225-8.7-5.836-16.034-13.7-21.806a1.53 1.53 0 0 0-1.958 2.344c6.536 6.227 9.73 13.164 9.765 21.212.101 22.222-24.78 47.714-43.275 65.735 13.602-35.414 24.03-67.85 20.649-101.458-.079-.808-.771-1.398-1.598-1.374a1.532 1.532 0 0 0-1.453 1.53c0 32.552-15.578 64.71-30.646 95.812-15.998 33.023-32.5 67.09-30.695 102.127-1.346-2.895-2.65-5.856-3.993-8.908-10.229-23.256-20.808-47.304-59.288-61.402a1.53 1.53 0 0 0-1.175 2.819c35.766 16.854 43.348 40.523 51.377 65.582 3.957 12.353 8.048 25.125 15.848 36.698 10.964 16.27 28.011 31.387 44.498 46.007 23.051 20.441 46.886 41.577 53.596 65.631 10.594 37.987-16.08 75.01-41.876 110.812l-5 6.955c-5.896 8.229-10.814 15.138-15.587 22.313-19.992.095-38.56.546-55.669 1.346z"/><path d="M347.105 111.164c-12.77 10.591-17.488 28.749-13.847 44.682 4.079-8.785 10.318-17.053 17.815-23.176 11.264-9.202 24.395-16.062 33.92-27.314 6.635-7.836 10.301-18.614 12.338-28.568-4.617 8.048-13.002 13.333-21.028 17.423-10.085 5.138-20.416 9.67-29.198 16.953z"/><path d="M393.094 96.43c-6.849 17.616-24.902 25.787-38.508 37.259-17.071 14.394-19.948 33.412-19.948 33.412a52.281 52.281 0 0 1 3.96-4.716c2.338-2.454 5.275-3.825 8.329-5.15 3.269-1.417 6.659-2.543 10.004-3.761 3.319-1.208 6.634-2.485 9.755-4.152 12.025-6.417 21.325-15.716 24.728-29.162 1.937-7.644 2.506-15.878 1.68-23.73zm-270.559 61.925c-9.676.04-19.749-2.375-28.485-6.561 7.319 14.611 22.509 25.627 39.098 25.683 11.411.037 22.265-3.036 33.314-5.48 8.798-1.946 18.626-3.201 27.308.076-7.904-6.386-17.586-12.375-27.69-14.205-14.503-2.628-29.001.429-43.545.487z"/><path d="M178.013 159.606c-4.354-6.585-10.031-12.577-16.386-17.246-11.178-8.213-24.269-9.48-37.629-6.784-3.47.701-6.839 1.821-10.171 2.999-3.357 1.187-6.689 2.472-10.113 3.458-3.198.921-6.337 1.729-9.704 1.322a51.992 51.992 0 0 1-6.053-1.123s14.315 12.852 36.641 13.106c17.796.199 36.927-4.973 53.415 4.268zm48.552-77.577c6.429 6.31 12.843 13.865 14.835 22.929 1.041-10.107.777-21.487-3.201-30.955-5.713-13.589-16.181-24.073-24.165-36.23-5.315-8.087-8.785-17.849-10.042-27.451-8.253 14.106-9.195 32.846-.193 46.778 6.194 9.58 14.688 17.001 22.766 24.929z"/><path d="M243.252 84.949c3.143-7.243 5.067-15.27 5.514-23.14.786-13.849-5.297-25.511-14.844-35.236-2.479-2.527-5.257-4.74-8.063-6.888-2.828-2.164-5.722-4.257-8.415-6.588-2.516-2.179-4.908-4.367-6.398-7.411A51.982 51.982 0 0 1 208.684 0s-2.959 19.005 9.008 37.858C227.229 52.88 242 66.09 243.252 84.949zm-47.534 213.649c-10.582 2.959-22.338 3.348-33.161 1.396 12.411 13.794 32.359 21.279 50.536 16.344 12.503-3.394 23.461-10.024 34.823-16.031 9.045-4.78 19.428-9.113 29.92-8.137-10.575-4.614-22.977-8.253-34.59-7.216-16.671 1.492-31.625 9.2-47.528 13.644z"/><path d="M190.46 273.218c-3.589 1.812-6.94 4.052-10.232 6.347-3.317 2.311-6.579 4.722-10.031 6.83-3.225 1.971-6.417 3.801-10.224 4.366a59.04 59.04 0 0 1-6.964.594s19.541 9.759 44.061 3.314c19.541-5.135 38.929-16.558 59.759-11.405-6.75-5.896-14.771-10.749-23.131-13.947-14.709-5.628-29.422-3.073-43.238 3.901zm92.51-44.801c3.009 10.034 11.384 18.663 21.852 20.53 7.2 1.282 14.392.542 21.641.217 5.768-.257 12.114.034 17.233 3.063-4.283-4.905-9.736-9.752-15.915-12.023-8.867-3.259-18.359-2.931-27.549-4.498-6.114-1.044-12.206-3.682-17.262-7.289z"/><path d="M303.668 221.483c-2.268.058-4.52.395-6.754.771-2.249.379-4.495.823-6.766 1.068-2.12.227-4.191.392-6.27-.236a32.995 32.995 0 0 1-3.696-1.377s7.619 9.694 21.689 12.316c11.211 2.09 23.861.937 33.25 8.59-2.023-4.639-4.945-9.049-8.443-12.696-6.149-6.42-14.276-8.663-23.01-8.436zm60.769-175.445c6.178-2.271 11.628-7.118 15.915-12.023-5.119 3.026-11.466 3.32-17.234 3.063-7.249-.325-14.439-1.065-21.64.217-10.469 1.867-18.841 10.496-21.852 20.53 5.052-3.608 11.147-6.243 17.262-7.286 9.192-1.57 18.681-1.243 27.549-4.501z"/><path d="M326.808 62.919c2.271.245 4.517.688 6.766 1.068 2.233.376 4.483.713 6.754.771 8.732.227 16.857-2.017 23.008-8.437 3.497-3.647 6.417-8.06 8.442-12.696-9.388 7.653-22.038 6.5-33.25 8.589-14.069 2.625-21.689 12.316-21.689 12.316a33.365 33.365 0 0 1 3.696-1.377c2.081-.628 4.153-.463 6.273-.234zm-18.042 93.355c-5.119 3.026-11.463 3.32-17.233 3.063-7.249-.324-14.44-1.064-21.641.217-10.468 1.867-18.84 10.496-21.852 20.53 5.052-3.608 11.147-6.242 17.262-7.286 9.189-1.566 18.678-1.239 27.549-4.498 6.179-2.274 11.631-7.121 15.915-12.026z"/><path d="M245.253 186.792a33.306 33.306 0 0 1 3.697-1.377c2.078-.63 4.149-.465 6.27-.236 2.271.245 4.517.688 6.766 1.068 2.234.376 4.483.713 6.754.771 8.733.226 16.857-2.017 23.008-8.437 3.498-3.647 6.417-8.057 8.442-12.696-9.388 7.653-22.038 6.499-33.25 8.589-14.067 2.624-21.687 12.318-21.687 12.318zm136.213 116.509c4.051-4.703 9.342-8.715 15.033-11.181 8.553-3.709 17.849-5.646 25.688-10.922 5.459-3.675 9.603-9.679 12.599-15.462-4.254 4.158-10.346 5.952-16.01 7.071-7.118 1.408-14.278 2.399-20.968 5.355-9.724 4.304-15.807 14.677-16.342 25.139z"/><path d="M398.489 293.362c-13.042 5.894-18.137 17.12-18.137 17.12a33.314 33.314 0 0 1 3.265-2.215c1.87-1.104 3.92-1.438 6.034-1.72 2.265-.303 4.551-.407 6.827-.572 2.259-.165 4.526-.373 6.741-.857 8.537-1.857 15.894-5.967 20.343-13.665 2.527-4.376 4.318-9.354 5.181-14.34-7.301 9.664-19.863 11.549-30.254 16.249z"/></svg>