<?xml version="1.0" encoding="UTF-8" standalone="no"?>
<!-- Generator: Adobe Illustrator 16.0.0, SVG Export Plug-In . SVG Version: 6.00 Build 0)  -->

<svg
   xmlns:dc="http://purl.org/dc/elements/1.1/"
   xmlns:cc="http://creativecommons.org/ns#"
   xmlns:rdf="http://www.w3.org/1999/02/22-rdf-syntax-ns#"
   xmlns:svg="http://www.w3.org/2000/svg"
   xmlns="http://www.w3.org/2000/svg"
   xmlns:sodipodi="http://sodipodi.sourceforge.net/DTD/sodipodi-0.dtd"
   xmlns:inkscape="http://www.inkscape.org/namespaces/inkscape"
   version="1.1"
   id="Capa_1"
   x="0px"
   y="0px"
   width="582.545px"
   height="582.545px"
   viewBox="0 0 582.545 582.545"
   style="enable-background:new 0 0 582.545 582.545;"
   xml:space="preserve"
   inkscape:version="0.91 r13725"
   sodipodi:docname="tree-thin-shape-of-young-trunk-with-few-leaves.svg"><metadata
     id="metadata57"><rdf:RDF><cc:Work
         rdf:about=""><dc:format>image/svg+xml</dc:format><dc:type
           rdf:resource="http://purl.org/dc/dcmitype/StillImage" /></cc:Work></rdf:RDF></metadata><defs
     id="defs55" /><sodipodi:namedview
     pagecolor="#ffffff"
     bordercolor="#666666"
     borderopacity="1"
     objecttolerance="10"
     gridtolerance="10"
     guidetolerance="10"
     inkscape:pageopacity="0"
     inkscape:pageshadow="2"
     inkscape:window-width="640"
     inkscape:window-height="507"
     id="namedview53"
     showgrid="false"
     inkscape:zoom="0.81023786"
     inkscape:cx="307.69446"
     inkscape:cy="99.846599"
     inkscape:window-x="0"
     inkscape:window-y="25"
     inkscape:window-maximized="0"
     inkscape:current-layer="Capa_1" /><g
     id="g3"><g
       id="g5"><path
         d="M 265.06308,584.34416 362.81962,583.33764 382.212,522.581 c -7.213,-1.022 -14.562,-2.124 -22.02,-2.827 -3.73,-0.398 -7.479,-0.796 -11.248,-1.197 -3.773,-0.339 -7.57,-0.562 -11.383,-0.854 -8.734,-0.7 -17.559,-1.089 -26.42,-1.34 -0.965,-16.903 -6.598,-33.7 -14.225,-49.942 -5.367,-11.426 -11.242,-22.764 -16.582,-34.192 -2.172,-4.66 -7.279,-11.249 -5.777,-16.025 0.961,-3.045 1.628,-6.12 2.262,-9.192 2.885,-14.049 3.675,-32.583 22.251,-42.913 -13.833,4.651 -22.466,13.779 -27.432,22.402 4.826,-23.99 6.071,-46.702 -4.229,-70.258 -9.605,-21.986 -23.384,-43.525 -28.109,-66.191 -4.453,-21.359 -0.055,-43.59 15.327,-63.134 3.642,-4.603 7.834,-9.033 12.436,-13.308 2.831,-2.638 2.928,-4.667 8.562,-3.626 3.721,0.686 7.372,1.438 11.297,0.756 13.583,-2.289 23.188,-10.588 27.86,-18.177 -8.588,4.501 -24.344,11.157 -36.477,11.157 45.002,-22.381 79.336,-57.669 91.417,-91.904 3.363,-9.547 5.205,-19.293 5.484,-29.061 0.125,-4.424 -0.404,-8.853 -0.605,-13.28 -0.605,-13.28 -3.854,-7.481 -3.854,-7.481 0.23,3.675 0.713,7.316 0.641,10.988 -0.127,6.383 -1.148,12.745 -2.486,19.073 -7.664,-6.903 -16.287,-13.237 -19.947,-21.411 2.252,12.879 15.881,24.866 14.102,37.938 -1.674,12.255 -12.078,24.917 -21.881,35.533 -19.752,21.389 -50.076,37.442 -74.397,56.72 -47.586,37.727 -50.398,84.444 -30.995,128.851 -11.475,-4.59 -26.659,-4.245 -37.644,-9.612 9.446,6.448 19.021,12.819 29.4,18.826 4.719,2.714 10.529,4.853 14.474,8.029 4.648,3.733 5.627,8.815 7.204,13.253 3.604,10.116 6,20.435 5.101,30.802 -1.815,21.126 -16.754,41.279 -13.36,62.669 5.563,35.594 35.667,67.589 46.91,102.369 -14.382,0.199 -28.752,0.523 -42.883,1.661 -3.81,0.282 -7.607,0.561 -11.383,0.842 z"
         id="path7"
         inkscape:connector-curvature="0"
         sodipodi:nodetypes="cccccccccccccccccccccccccccccccccccccccccc" /><path
         d="M346.248,323.941c2.309-1.47,4.506-3.131,6.477-5.04c3.406-3.299,6.926-8.082,6.885-13.082    c-9.975,12.225-28.068,10.377-41.328,16.188c-10.244,4.492-18.369,13.066-23.824,22.712c-0.846,1.499-8.562,20.152-4.627,20.281    c0.976,0.03,2.038-4.89,2.295-5.615c0.914-2.576,2.527-4.835,4.424-6.796c3.914-4.042,9.139-6.595,14.535-7.999    c9.914-2.583,23.088-2.83,29.967-11.641c1.426-1.829,2.408-4.191,2.1-6.548C342.971,325.033,345.213,324.599,346.248,323.941z"
         id="path9" /><path
         d="M155.71,238.769c1.034,0.661,3.277,1.095,3.097,2.457c-0.312,2.356,0.673,4.719,2.099,6.548    c6.876,8.813,20.049,9.061,29.967,11.64c5.398,1.405,10.621,3.957,14.535,7.999c1.9,1.961,3.51,4.22,4.425,6.796    c0.257,0.725,1.319,5.646,2.295,5.615c3.938-0.128-3.779-18.782-4.627-20.281c-5.456-9.646-13.577-18.223-23.825-22.711    c-13.259-5.811-31.35-3.963-41.328-16.188c-0.04,5,3.476,9.783,6.885,13.082C151.203,235.639,153.4,237.3,155.71,238.769z"
         id="path11" /><path
         d="M371.107,89.569c0.596,0.104,1.67-2.821,1.891-3.244c0.783-1.5,1.965-2.745,3.299-3.782    c2.744-2.139,6.166-3.253,9.592-3.648c6.299-0.728,14.389,0.257,19.361-4.55c1.031-0.997,1.836-2.359,1.852-3.831    c0.006-0.851,1.416-0.924,2.107-1.239c1.543-0.701,3.033-1.53,4.404-2.527c2.371-1.729,4.938-4.354,5.346-7.42    c-7.166,6.631-18.092,3.938-26.715,6.355c-6.664,1.87-12.377,6.423-16.551,11.86C375.039,78.388,368.705,89.15,371.107,89.569z"
         id="path13" /><path
         d="M337.875,167.823c-5.773-3.819-12.957-5.159-19.801-4.758c-1.062,0.064-13.348,2.313-12.094,4.403    c0.312,0.517,3.225-0.581,3.689-0.691c1.646-0.389,3.361-0.309,5.02,0.019c3.414,0.676,6.492,2.533,9.035,4.868    c4.67,4.287,9.221,11.05,16.109,11.665c1.428,0.129,2.986-0.153,4.105-1.107c0.648-0.551,1.625,0.468,2.316,0.783    c1.539,0.707,3.141,1.292,4.793,1.674c2.857,0.664,6.523,0.887,9.109-0.814C350.457,182.786,345.344,172.765,337.875,167.823z"
         id="path15" /><path
         d="M335.975,12.108c0.588,0.48,1.934,0.912,1.723,1.735c-0.363,1.426,0.068,2.947,0.811,4.177    c3.58,5.915,11.656,7.029,17.559,9.339c3.213,1.258,6.236,3.207,8.346,5.977c1.023,1.343,1.848,2.849,2.221,4.498    c0.104,0.465,0.398,3.565,1,3.617c2.43,0.208-0.951-11.815-1.361-12.797c-2.646-6.325-7.01-12.185-12.977-15.691    C345.574,8.424,334.322,8.241,329.086,0c-0.391,3.069,1.424,6.264,3.275,8.541C333.436,9.854,334.664,11.038,335.975,12.108z"
         id="path17" /><path
         d="M311.141,79.542c-0.311,6.909,5.785,12.322,9.408,17.521c1.975,2.831,3.402,6.129,3.617,9.605    c0.104,1.686-0.045,3.396-0.652,4.976c-0.17,0.443-1.648,3.185-1.178,3.564c1.904,1.521,5.775-10.352,5.98-11.396    c1.312-6.729,0.941-14.027-2.072-20.257c-3.898-8.063-13.148-14.468-12.926-24.226c-2.031,2.334-2.299,5.998-2.023,8.92    c0.16,1.689,0.527,3.354,1.02,4.973c0.221,0.725,1.102,1.833,0.469,2.399C311.693,76.601,311.207,78.106,311.141,79.542z"
         id="path19" /><path
         d="M150.627,372.09c2.76,2.011,5.762,3.679,8.865,5.092c1.393,0.634,4.232,0.78,4.244,2.494    c0.024,2.962,1.649,5.704,3.724,7.711c10.012,9.676,26.304,7.696,38.981,9.162c6.9,0.795,13.785,3.038,19.314,7.344    c2.684,2.09,5.062,4.596,6.637,7.616c0.444,0.851,2.607,6.735,3.807,6.53c4.835-0.845-7.919-22.513-9.223-24.214    c-8.403-10.952-19.908-20.119-33.327-23.883c-17.362-4.866-39.357,0.551-53.786-12.797    C140.683,363.326,145.851,368.614,150.627,372.09z"
         id="path21" /></g></g><g
     id="g23" /><g
     id="g25" /><g
     id="g27" /><g
     id="g29" /><g
     id="g31" /><g
     id="g33" /><g
     id="g35" /><g
     id="g37" /><g
     id="g39" /><g
     id="g41" /><g
     id="g43" /><g
     id="g45" /><g
     id="g47" /><g
     id="g49" /><g
     id="g51" /></svg>