<svg xmlns="http://www.w3.org/2000/svg" width="548.467" height="548.467" viewBox="0 0 548.467 548.467"><path d="M383.698 310.82c-6.307-2.616-13.035-4.391-19.838-5.174 5.074-10.016-3.861-8.69-9.657-6.139-3.666 1.612-7.261 3.62-10.697 5.915 3.277-9.376-6.126-4.535-10.056-2.044-5.208 3.305-9.755 7.772-14.256 12.305-6.24 6.285-8.495 12.013-8.685 16.734 4.728-4.819 23.739-14.59 37.179-9.944 0 0-28.801 6.955-33.596 20.224 3.477 3.705 7.273 1.196 11.723.125 5.254-1.264 10.563-1.371 15.692-.832 15.089 1.575 32.938 8.782 48.259-1.408 3.18-2.117 6.132-5.343 7.344-9.309.701-2.295 4.009-1.701 5.854-2.163 4.116-1.028 8.217-2.43 12.176-4.357 6.854-3.335 14.881-8.987 18.284-17.051-16.258 10.337-33.153 5.552-49.726 3.118zM64.532 326.531c6.353 3.093 12.925 5.336 19.522 6.988 2.959.741 8.262-.211 9.385 3.471 1.943 6.361 6.677 11.533 11.775 14.927 24.565 16.337 53.186 4.782 77.384 2.255 8.222-.86 16.735-.691 25.159 1.334 7.133 1.717 13.222 5.74 18.798-.202-7.687-21.272-53.869-32.427-53.869-32.427 21.552-7.448 52.036 8.22 59.618 15.946-.303-7.571-3.917-16.757-13.923-26.834-7.219-7.271-14.514-14.431-22.861-19.73-6.301-3.99-21.377-11.757-16.12 3.277-5.511-3.682-11.276-6.9-17.154-9.483-9.293-4.094-23.624-6.218-15.487 9.845-10.903 1.254-21.695 4.104-31.809 8.299-26.57 3.898-53.663 11.572-79.729-4.997 5.448 12.918 18.319 21.982 29.311 27.331zm398.922-192.878c-6.016-3.228-12.536-5.664-19.226-7.114 6.04-9.465-2.98-9.03-9.003-7.066-3.81 1.243-7.585 2.883-11.232 4.826 4.191-9.005-5.646-5.119-9.802-3.029-5.508 2.772-10.478 6.766-15.407 10.83-6.833 5.636-9.642 11.114-10.3 15.792 5.184-4.327 25.067-12.164 37.983-6.209 0 0-29.351 4.067-35.435 16.793 3.091 4.033 7.121 1.913 11.652 1.288 5.353-.737 10.646-.315 15.695.729 14.859 3.066 31.906 12.004 48.161 3.384 3.372-1.79 6.631-4.709 8.231-8.534.924-2.215 4.155-1.294 6.037-1.573 4.198-.615 8.415-1.604 12.55-3.13 7.15-2.641 15.697-7.47 19.884-15.153-17.202 8.665-33.539 2.23-49.788-1.834zM377.07 66.85s-23.577 4.706-27.892 15.309c2.699 3.118 5.86 1.206 9.498.48 4.3-.854 8.608-.768 12.748-.168 12.182 1.769 26.42 8.189 39.171.422 2.647-1.612 5.145-4.134 6.255-7.311.643-1.839 3.305-1.248 4.816-1.563 3.369-.701 6.738-1.704 10.013-3.14 5.664-2.481 12.356-6.805 15.376-13.231-13.513 7.852-27.06 3.424-40.413.918-5.027-2.325-10.429-3.984-15.915-4.838 4.437-7.956-2.849-7.172-7.632-5.291-3.023 1.187-6.004 2.699-8.864 4.449 2.962-7.497-4.82-3.874-8.085-1.983-4.33 2.509-8.161 5.985-11.958 9.514-5.264 4.893-7.277 9.464-7.583 13.287 3.991-3.748 19.719-11.056 30.465-6.854zm-201.604 94.505c-9.354-.128-19.095 1.013-27.143-6.129 1.163 4.746 5.086 8.577 8.571 11.025 2.014 1.414 4.149 2.552 6.328 3.482.976.419 2.852.382 3.036 1.713.318 2.295 1.658 4.336 3.222 5.787 7.546 6.977 18.026 4.587 26.487 5.055 2.876.159 5.795.688 8.577 1.851 2.359.985 4.229 2.705 6.475.97-1.466-7.742-16.732-14.131-16.732-14.131 7.825-1.371 17.442 5.704 19.621 8.782.315-2.619-.419-5.979-3.305-10-2.081-2.901-4.192-5.765-6.771-8.051-1.946-1.72-6.702-5.227-5.726.236a39.422 39.422 0 0 0-5.376-4.21c-2.971-1.922-7.778-3.446-5.872 2.527a41.262 41.262 0 0 0-11.392 1.093zM67.081 187.028c2.623 6.598 9.036 11.322 14.538 14.146 3.179 1.634 6.481 2.84 9.801 3.746 1.49.407 4.183-.019 4.709 1.857.915 3.237 3.253 5.906 5.796 7.677 12.252 8.531 26.857 2.993 39.125 1.974 4.168-.346 8.476-.171 12.714.946 3.589.945 6.628 3.048 9.51.101-3.66-10.845-26.903-16.986-26.903-16.986 10.982-3.537 26.236 4.716 29.991 8.709-.07-3.834-1.802-8.519-6.756-13.724-3.574-3.755-7.188-7.458-11.356-10.227-3.146-2.087-10.688-6.178-8.191 1.484-2.748-1.921-5.63-3.611-8.577-4.981-4.658-2.169-11.885-3.4-7.941 4.813-5.529.517-11.019 1.842-16.181 3.855-13.48 1.684-27.272 5.276-40.279-3.39zm7.46-158.183c2.748.422 5.48.499 8.155.352 1.199-.067 3.081-1.043 3.932.211 1.472 2.164 3.855 3.559 6.166 4.238 11.142 3.277 20.551-4.403 29.355-8.176 2.989-1.282 6.211-2.212 9.614-2.433 2.879-.187 5.64.618 7.044-2.268-5.37-7.103-24.033-5.909-24.033-5.909 7.234-5.312 20.521-2.978 24.272-.958-.998-2.809-3.427-5.841-8.363-8.464-3.562-1.891-7.139-3.733-10.896-4.752-2.834-.765-9.407-1.928-5.68 3.112-2.5-.741-5.043-1.279-7.555-1.563-3.972-.456-9.605.416-4.672 5.505a46.902 46.902 0 0 0-10.992 6.827c-9.535 4.565-18.825 10.609-30.554 7.417 3.555 4.226 9.452 6.133 14.207 6.861z"/><path d="M134.832 14.842a.828.828 0 0 0-1.038.539.822.822 0 0 0 .447 1s3.498 1.582 9.321 5.016c2.913 1.695 6.38 3.88 10.297 6.441 3.883 2.623 8.204 5.661 12.717 9.217 4.504 3.565 9.281 7.546 14.021 12.075 4.792 4.465 9.59 9.419 14.281 14.747 2.292 2.714 4.667 5.425 6.842 8.351 1.095 1.453 2.273 2.858 3.332 4.36 1.068 1.493 2.139 2.996 3.216 4.504 1.107 1.481 2.083 3.069 3.09 4.633 1.001 1.567 2.004 3.14 3.011 4.715l2.785 4.869c.945 1.613 1.863 3.241 2.671 4.933 1.658 3.354 3.406 6.652 4.737 10.135.704 1.72 1.444 3.415 2.114 5.135.603 1.744 1.206 3.482 1.802 5.214 1.294 3.421 2.167 6.955 3.222 10.367 1.09 3.399 1.857 6.851 2.767 10.196 1.08 3.302 1.585 6.692 2.497 9.915.899 3.228 1.456 6.459 2.148 9.59.331 1.567.661 3.115 1.016 4.636.303 1.53.514 3.054.771 4.547.511 2.986 1.102 5.875 1.521 8.675.664 5.609 1.683 10.78 2.078 15.422.278 2.329.539 4.507.777 6.524.15.952.257 1.857.349 2.735.073 1.986.3 3.938.474 5.875.006.073.019.144.024.217a83.41 83.41 0 0 0-2.255-2.58c-3.112-3.528-6.261-6.649-9.226-9.44-2.968-2.791-5.863-5.144-8.433-7.191-2.601-2.02-4.909-3.708-6.888-5-3.902-2.619-6.316-3.889-6.316-3.889l-.015-.009a.997.997 0 0 0-1.344.416.992.992 0 0 0 .245 1.227s1.995 1.656 5.196 4.951c1.601 1.631 3.476 3.681 5.578 6.05a161.302 161.302 0 0 1 6.665 8.259c2.325 3.1 4.749 6.512 7.05 10.27a141.29 141.29 0 0 1 6.741 11.992c1.022 2.146 2.093 4.296 2.999 6.555.976 2.225 1.867 4.504 2.742 6.802.894 2.292 1.594 4.673 2.381 7.014.615 2.405 1.401 4.755 1.885 7.185.493 2.426 1.086 4.816 1.316 7.276.058.465.116 4.373.174 9.079a194.95 194.95 0 0 0-3.277-4.66c-2.692-3.685-5.382-6.885-7.788-9.682-2.445-2.769-4.633-5.119-6.536-6.961-3.745-3.718-6.132-5.624-6.132-5.624l-.012-.009a.84.84 0 0 0-1.144 1.225s1.983 2.169 5.046 6.355c3.06 4.165 7.23 10.27 11.459 17.983 2.968 5.367 5.924 11.57 8.604 18.302.013.566.028.988.04 1.114l.22 3.639c.315 4.812.285 9.525.416 14.061.175 2.264.08 4.504.229 6.695.123 1.643.159 3.259.205 4.859l-1.554-3.798c-.82-2.146-1.775-4.235-2.763-6.304a4720.18 4720.18 0 0 1-2.901-6.215l-3.176-6.037c-1.065-1.998-2.087-4.009-3.277-5.921-2.289-3.865-4.52-7.712-7.06-11.301-2.387-3.682-5.018-7.121-7.543-10.533-5.208-6.708-10.435-13.002-15.841-18.534-5.309-5.615-10.667-10.569-15.704-14.991-5.043-4.418-9.927-8.149-14.275-11.386-4.394-3.188-8.287-5.857-11.606-7.889-6.567-4.134-10.597-6.102-10.597-6.102l-.021-.009a1.214 1.214 0 0 0-1.227 2.087s3.546 2.469 9.299 7.473c2.882 2.476 6.273 5.612 10.083 9.259 3.767 3.7 7.895 7.98 12.188 12.812 4.275 4.844 8.767 10.202 13.103 16.15 4.409 5.888 8.718 12.319 12.828 19.138 1.986 3.451 4.063 6.912 5.878 10.575.918 1.823 1.934 3.602 2.806 5.465.881 1.857 1.769 3.721 2.656 5.594.93 1.852 1.689 3.788 2.494 5.707.792 1.922 1.588 3.85 2.387 5.777.701 1.965 1.405 3.932 2.105 5.902.722 1.962 1.414 3.93 1.968 5.949 1.153 4.018 2.438 7.978 3.185 12.074.426 2.032.894 4.039 1.282 6.06l.915 6.086c.398 2.188.643 4.388.863 6.576-.146-.08-.288-.181-.438-.257-.759-.42-1.502-.83-2.234-1.23l-2.261-.934c-1.457-.603-2.809-1.156-4.155-1.429-1.319-.327-2.491-.658-3.543-.875-1.074-.123-2.011-.229-2.779-.315l-2.372-.26 2.164 1.019c.673.318 1.487.707 2.424 1.153.893.529 1.857 1.203 2.904 1.879 1.074.625 2.096 1.53 3.155 2.47l1.613 1.417c.489.548.991 1.107 1.502 1.677 1.049 1.071 1.967 2.341 2.852 3.632.915 1.163 1.607 2.562 2.362 3.85.135 1.796.26 3.583.453 5.343.517 3.822.557 7.632.952 11.337.425 3.706.551 7.359.786 10.928.107 1.784.217 3.547.374 5.288.092 1.741.083 3.457.128 5.152.104 3.391.303 6.684.352 9.859-.034 3.167.019 6.23.061 9.159 0 1.462.129 29.415.077 30.802a145.674 145.674 0 0 0-.08 4.058c-.083 3.524-.003 6.774.003 9.709-.226 1.909-.355 3.816-.502 5.701-.25 3.02-.067 5.991.074 8.893.089 2.906.551 5.716.988 8.439 0 0-39.46-2.753-51.304-3.6l13.526 66.251h96.134l15.5-65.41c-15.373-2.22-52.193 1.254-52.193 1.254.098-2.387.107-4.826.294-7.301.168-2.476.064-5.007.267-7.559.152-5.119.122-10.438.483-15.872.082-1.365.168-2.732.251-4.106.141-1.368.346-29.238.517-30.615.264-2.775.937-5.472 1.493-8.213.548-2.745 1.438-5.398 2.136-8.112.891-2.645 1.687-5.331 2.696-7.916.988-2.596 1.998-5.169 3.103-7.678 1.025-2.549 2.24-4.976 3.394-7.396a158.535 158.535 0 0 1 7.626-13.531c2.601-4.238 5.343-8.088 7.968-11.585a181.064 181.064 0 0 1 7.534-9.317c2.374-2.672 4.495-4.982 6.307-6.824 3.613-3.715 5.869-5.581 5.869-5.581.4-.331.529-.909.278-1.387a1.12 1.12 0 0 0-1.518-.471l-.019.009s-2.727 1.429-7.136 4.385c-2.234 1.454-4.841 3.36-7.782 5.637-2.903 2.311-6.175 4.967-9.531 8.112-3.351 3.146-6.91 6.668-10.426 10.648a97.81 97.81 0 0 0-2.549 2.91c.006-.082.021-.162.027-.245.199-2.185.456-4.391.542-6.631.104-.991.229-2.017.397-3.087.272-2.274.569-4.734.885-7.366.449-5.241 1.606-11.08 2.362-17.411.474-3.161 1.145-6.42 1.726-9.792.291-1.686.532-3.405.875-5.132.404-1.72.777-3.464 1.15-5.232.784-3.531 1.417-7.182 2.437-10.823 1.031-3.635 1.604-7.466 2.827-11.19 1.028-3.772 1.9-7.671 3.134-11.509 1.193-3.85 2.182-7.84 3.647-11.701.679-1.955 1.358-3.917 2.041-5.887.759-1.94 1.594-3.853 2.393-5.793 1.506-3.929 3.482-7.65 5.358-11.435.911-1.906 1.952-3.746 3.02-5.566l3.149-5.496c1.138-1.778 2.273-3.549 3.402-5.318 1.142-1.766 2.243-3.552 3.494-5.226l3.636-5.083c1.199-1.695 2.527-3.277 3.767-4.92 2.46-3.302 5.144-6.358 7.732-9.422 5.3-6.013 10.723-11.6 16.139-16.634 5.355-5.107 10.753-9.596 15.842-13.62 5.101-4.012 9.979-7.439 14.366-10.395 4.429-2.889 8.342-5.352 11.632-7.261 6.575-3.871 10.529-5.652 10.529-5.652a.932.932 0 0 0-.664-1.738l-.019.006s-4.257 1.34-11.337 4.446c-3.571 1.508-7.8 3.571-12.592 6.065-4.762 2.546-10.093 5.529-15.731 9.1-5.628 3.581-11.646 7.629-17.715 12.335-6.153 4.608-12.24 9.997-18.363 15.78-2.992 2.962-6.092 5.934-8.99 9.177-1.459 1.612-3.014 3.164-4.403 4.872l-4.241 5.11c-1.456 1.686-2.766 3.498-4.115 5.288a11252.08 11252.08 0 0 0-4.036 5.417l-3.792 5.63c-1.282 1.873-2.539 3.764-3.669 5.737l-3.527 5.838a40.889 40.889 0 0 0-1.674 2.972l-1.635 2.989c-1.083 2.001-2.163 3.997-3.243 5.989a14433.3 14433.3 0 0 1-2.923 6.111c-2.031 4.033-3.684 8.188-5.271 12.322-1.313 3.051-2.229 6.193-3.144 9.303.028-7.699.083-17.871.083-18.688.043-2.595.089-5.306.062-8.112.046-2.812.223-5.731.318-8.733.042-1.5.033-3.021.119-4.562.138-1.542.238-3.103.333-4.682.212-3.161.328-6.395.707-9.676.353-3.283.392-6.655.851-10.04.374-3.394.486-6.882.955-10.371.438-3.491.637-7.087 1.282-10.636.272-1.79.541-3.589.816-5.392.347-1.79.763-3.568 1.142-5.367.664-3.626 1.806-7.136 2.831-10.691.492-1.787 1.107-3.531 1.747-5.267l1.869-5.226c.707-1.71 1.414-3.415 2.121-5.117.713-1.701 1.386-3.415 2.212-5.055.79-1.659 1.576-3.311 2.356-4.954.777-1.649 1.677-3.226 2.491-4.838 1.609-3.241 3.451-6.304 5.214-9.361 3.647-6.034 7.467-11.729 11.377-16.94 3.847-5.267 7.828-10.006 11.619-14.296a229.63 229.63 0 0 1 10.805-11.337c3.375-3.229 6.38-6.004 8.938-8.191 5.101-4.428 8.243-6.613 8.243-6.613a1.077 1.077 0 0 0-1.083-1.851l-.019.009s-3.57 1.738-9.391 5.395c-2.944 1.796-6.393 4.159-10.288 6.977-3.853 2.867-8.183 6.166-12.653 10.077-4.464 3.914-9.213 8.296-13.92 13.265-4.795 4.896-9.431 10.468-14.048 16.405-2.24 3.02-4.572 6.065-6.692 9.324-2.252 3.176-4.232 6.582-6.261 10.003-1.053 1.692-1.962 3.47-2.907 5.242-.937 1.778-1.879 3.559-2.818 5.346l-2.576 5.502c-.875 1.833-1.726 3.681-2.451 5.581l-2.319 5.655c-.404.936-.75 1.894-1.074 2.861l-1.047 2.87-2.068 5.747c-.594 1.943-1.188 3.883-1.774 5.814a85.521 85.521 0 0 0-1.093 3.675l-.135-1.851c-.015-1.239-.033-2.482-.049-3.727-.104-2.503.129-5 .272-7.512.125-2.516.566-4.997.826-7.5.443-2.469.796-4.963 1.35-7.393.538-2.436 1.086-4.854 1.747-7.219.581-2.39 1.344-4.697 2.057-6.989 3.014-9.104 6.793-17.359 10.565-24.165a142.93 142.93 0 0 1 10.166-15.918c2.717-3.706 4.477-5.625 4.477-5.625a.746.746 0 0 0-1.013-1.087l-.013.009s-2.114 1.686-5.435 4.976c-1.686 1.631-3.626 3.708-5.796 6.16-2.133 2.476-4.516 5.309-6.906 8.571-2.384 3.262-4.887 6.876-7.273 10.878-2.457 3.966-4.706 8.354-6.891 12.984a143.3 143.3 0 0 0-3.192 7.527c-.006-.067-.015-.134-.021-.202-.165-1.781-.6-3.543-.896-5.346a132.625 132.625 0 0 0-1.065-5.447c-.343-1.836-.857-3.656-1.365-5.489-1.138-3.635-2.06-7.402-3.611-11.016-1.404-3.663-2.867-7.344-4.66-10.918-.86-1.799-1.72-3.605-2.586-5.417l-2.867-5.306-1.444-2.65a34.857 34.857 0 0 0-1.481-2.631l-3.121-5.174c-.998-1.748-2.112-3.424-3.247-5.083l-3.354-4.988-3.571-4.798c-1.193-1.588-2.354-3.192-3.642-4.688-1.258-1.515-2.506-3.026-3.751-4.529-1.227-1.515-2.604-2.889-3.896-4.318-2.564-2.876-5.309-5.511-7.956-8.136-5.419-5.128-10.805-9.905-16.254-13.994-5.374-4.174-10.701-7.763-15.683-10.939-4.991-3.167-9.709-5.814-13.926-8.072-4.244-2.215-7.986-4.042-11.147-5.382-6.27-2.757-10.04-3.948-10.04-3.948z"/></svg>