<svg xmlns="http://www.w3.org/2000/svg" width="581.027" height="581.027" viewBox="0 0 581.027 581.027"><path d="M245.274 531.094c14.893-.955 30.07-1.246 45.233-1.346 7.579.141 46.51 1.712 54.053 2.095l13.231-68.097-46.251-2.723s12.291-71.91 5.804-132.943c2.646-5.027 4.99-10.156 7.148-15.342 7.297-4.135 15.271-7.252 23.328-8.887 17.557-3.564 35.803-3.506 52.643-10.299 11.725-4.735 21.906-14.374 29.84-24.056-9.65 6.123-21.82 7.069-32.912 6.919-13.941-.187-27.797-1.178-41.549 1.72-8.715 1.836-16.586 6.12-23.125 11.98 7.242-22.604 12.611-45.854 21.523-68.091 8.418-5.474 18.016-9.581 27.725-11.552 17.555-3.565 35.801-3.506 52.641-10.303 11.727-4.734 21.906-14.373 29.842-24.052-9.652 6.123-21.82 7.069-32.914 6.919-13.941-.187-27.797-1.178-41.549 1.72-9.045 1.906-17.166 6.462-23.846 12.665 6.793-11.649 15.307-22.797 26.389-33.18 4.135-1.539 8.666-2.365 13.027-2.175 7.414.321 14.742 2.169 22.188 1.12 5.188-.731 10.242-3.589 14.4-6.686-4.492 1.497-9.477.661-13.924-.508-5.584-1.469-11.055-3.253-16.871-3.461-1.904-.067-3.777.184-5.592.643 7.252-5.416 15.352-10.578 24.551-15.413-49.26 20.132-76.115 59.894-95.053 99.609-.59-1.218-1.262-2.402-2.072-3.513-3.975-5.438-9.229-9.523-14.26-13.923-4.002-3.501-8.035-7.736-9.516-13.011-.273 5.991.266 12.69 2.932 18.133 3.824 7.815 10.348 13.642 15.461 20.536a35.964 35.964 0 0 1 2.152 3.305c-6.496 14.642-12.104 29.015-17.549 42.12-3.691-23.503-8.363-47.108-13.389-70.486 1.885-9.11 5.301-18.069 10.105-25.854 9.402-15.248 21.924-28.522 28.479-45.453 4.566-11.793 4.492-25.814 2.855-38.223-2.133 11.227-9.766 20.753-17.457 28.749-9.67 10.046-19.869 19.477-27.158 31.494-2.279 3.758-3.951 7.778-5.116 11.937-7.684-33.859-15.401-66.821-21.188-97.85 2.169-6.417 5.56-12.62 9.994-17.644 7.586-8.595 16.925-15.609 22.898-25.575 4.158-6.943 5.637-15.793 5.951-23.798-2.564 6.852-8.412 12.029-14.131 16.236-7.188 5.285-14.645 10.129-20.547 16.916-3.963 4.556-6.316 10.165-7.295 16.04-3.942-24.039-6.426-46.726-6.426-67.506-2.564 47.745 2.84 95 11.035 141.862-3.7-3.682-8.143-6.576-13.167-8.271-5.373-1.814-10.881-2.711-16.441-3.354-16.606-35.866-26.444-73.887-9.208-104.655-13.424 18.455-15.655 43.085-12.589 67.73-4.327-6.166-10.293-11.114-17.512-13.553-9.192-3.103-18.773-3.549-28.345-4.556-7.62-.802-15.884-2.439-22.001-7.421 4.651 7.28 10.848 14.716 18.504 18.914 10.988 6.028 23.504 7.47 35.251 11.34 5.78 1.903 11.365 4.96 16.276 8.736 1.475 7.494 3.345 14.881 5.447 21.989-6.956-.894-14.21-2.659-19.725-7.148 4.651 7.279 10.848 14.715 18.503 18.914 1.931 1.059 3.923 1.94 5.937 2.754a318.635 318.635 0 0 0 5.86 15.309c13.125 31.864 28.262 63.217 40.337 95.454-5.945-7.112-13.577-12.73-22.479-15.738-13.314-4.498-27.191-5.144-41.056-6.601-11.034-1.16-23.008-3.531-31.87-10.747 6.738 10.545 15.713 21.316 26.803 27.399 15.921 8.73 34.049 10.82 51.062 16.429 9.474 3.121 18.58 8.378 26.331 14.868 6.107 19.848 10.619 40.154 12.335 61.24 4.678 57.396-1.257 63.958-12.846 117.845-9.318.33-53.417-.022-62.58.976zm5.388-382.2c3.556.903 7.105 1.833 10.587 2.98 4.437 1.462 8.721 3.65 12.714 6.27 3.069 16.368 6.398 32.687 9.786 48.966-9.029-16.429-21.676-36.589-33.087-58.216z"/></svg>