<?xml version="1.0" encoding="UTF-8" standalone="no"?>
<svg
   xmlns:dc="http://purl.org/dc/elements/1.1/"
   xmlns:cc="http://creativecommons.org/ns#"
   xmlns:rdf="http://www.w3.org/1999/02/22-rdf-syntax-ns#"
   xmlns:svg="http://www.w3.org/2000/svg"
   xmlns="http://www.w3.org/2000/svg"
   xmlns:sodipodi="http://sodipodi.sourceforge.net/DTD/sodipodi-0.dtd"
   xmlns:inkscape="http://www.inkscape.org/namespaces/inkscape"
   version="1.1"
   width="76.0106"
   height="76.0106"
   viewBox="0 0 76.01 76.01"
   enable-background="new 0 0 76.01 76.01"
   xml:space="preserve"
   id="svg2"
   inkscape:version="0.91 r13725"
   sodipodi:docname="calendar.11.svg"><metadata
     id="metadata10"><rdf:RDF><cc:Work
         rdf:about=""><dc:format>image/svg+xml</dc:format><dc:type
           rdf:resource="http://purl.org/dc/dcmitype/StillImage" /></cc:Work></rdf:RDF></metadata><defs
     id="defs8" /><sodipodi:namedview
     pagecolor="#ffffff"
     bordercolor="#666666"
     borderopacity="1"
     objecttolerance="10"
     gridtolerance="10"
     guidetolerance="10"
     inkscape:pageopacity="0"
     inkscape:pageshadow="2"
     inkscape:window-width="1216"
     inkscape:window-height="716"
     id="namedview6"
     showgrid="false"
     inkscape:zoom="8.781786"
     inkscape:cx="41.75165"
     inkscape:cy="36.476332"
     inkscape:window-x="10"
     inkscape:window-y="24"
     inkscape:window-maximized="0"
     inkscape:current-layer="svg2" /><path
     d="m 34.0047,52.0073 -3.0005,0 0,-13.502 c -1.3393,1.3911 -2.8472,2.2796 -4.663,2.9449 l 0,-3.6949 c 0.9586,-0.3079 1.9993,-0.8908 3.1222,-1.7485 1.1228,-0.8578 1.8938,-1.8585 2.3128,-3.0022 l 2.2285,0 z m -16.0022,5.0009 0,-44.004821 5.0007,0 0,-3.0004 c 10e-5,-1.1049003 0.8956,-2.0003003 2.0003,-2.0003003 l 4.0005,0 c 1.1047,0 2.0002,0.8954 2.0003,2.0000003 l 0,3.0007 14.002,0 -1e-4,-3.0007 c 0,-1.1047003 0.8956,-2.0003003 2.0003,-2.0003003 l 4.0006,0 c 1.1047,0 2.0003,0.8956 2.0003,2.0003003 l 0,3.0007 5.0007,0 0,44.004821 z m 3.0004,-3.0004 34.0047,0 0,-23.0034 -34.0047,0 z M 48.5067,10.002979 c -0.8285,0 -1.5002,0.6717 -1.5002,1.5002 l 0,3.0004 c 0,0.8286 0.6717,1.5003 1.5002,1.5003 l 1.0001,0 c 0.8286,0 1.5002,-0.6717 1.5002,-1.5003 l 0,-3.0004 c 0,-0.8285 -0.6716,-1.5002 -1.5002,-1.5002 z m -22.003,0 c -0.8286,0 -1.5002,0.6716 -1.5002,1.5002 l 0,3.0004 c 0,0.8286 0.6716,1.5002 1.5002,1.5002 l 1.0001,0 c 0.8286,0 1.5002,-0.6716 1.5002,-1.5002 l 0,-3.0004 c 0,-0.8286 -0.6716,-1.5002 -1.5002,-1.5002 z"
     id="path4"
     inkscape:connector-curvature="0"
     style="fill:#000000;fill-opacity:1;stroke-width:0.2;stroke-linejoin:round"
     sodipodi:nodetypes="cccccccccccccssccccssscccccccccssssssssssssssssss" /><text
     xml:space="preserve"
     style="font-style:normal;font-weight:normal;font-size:12.49990177px;line-height:125%;font-family:sans-serif;letter-spacing:0px;word-spacing:0px;fill:#000000;fill-opacity:1;stroke:none;stroke-width:1px;stroke-linecap:butt;stroke-linejoin:miter;stroke-opacity:1"
     x="26.410254"
     y="28.020636"
     id="text3338"
     sodipodi:linespacing="125%"><tspan
       sodipodi:role="line"
       id="tspan3340"
       x="26.410254"
       y="28.020636"
       style="font-size:12.49990177px;fill:#ffffff">SEP</tspan></text>
<path
     style="fill:#000000;fill-opacity:1;stroke-width:0.2;stroke-linejoin:round"
     d="M 45.683594 30.574219 C 44.88103 30.768328 44.078617 31.023147 43.236328 30.974609 C 43.199826 30.974619 43.16343 30.974646 43.126953 30.974609 C 43.116203 30.984748 43.104528 30.993801 43.09375 31.003906 L 47.154297 31.003906 C 47.130407 30.919279 47.101191 30.835187 47.087891 30.75 C 46.452529 30.757532 45.816692 30.758539 45.183594 30.701172 C 45.285374 30.680442 45.387571 30.664092 45.488281 30.638672 C 45.554621 30.621922 45.750093 30.558139 45.683594 30.574219 z M 50.320312 30.746094 C 50.317588 30.757789 50.31522 30.769554 50.3125 30.78125 C 50.335276 30.769483 50.358088 30.757871 50.380859 30.746094 C 50.360673 30.746084 50.340499 30.746102 50.320312 30.746094 z M 43.693359 33.003906 C 43.274356 34.147615 42.503668 35.150016 41.380859 36.007812 C 40.257951 36.865519 39.21642 37.447957 38.257812 37.755859 L 38.257812 41.451172 C 40.073627 40.785867 41.582564 39.89697 42.921875 38.505859 L 42.921875 52.007812 L 45.921875 52.007812 L 45.921875 33.003906 L 43.693359 33.003906 z "
     transform="scale(0.99999213,0.99999213)"
     id="path3407" /></svg>