<svg xmlns="http://www.w3.org/2000/svg" width="76.011" height="76.011" viewBox="0 0 76.01 76.01"><path d="M33.967 65.022h-4.305V45.65c-1.922 1.996-4.085 3.271-6.69 4.226v-5.302c1.375-.442 2.868-1.278 4.48-2.509 1.61-1.23 2.717-2.666 3.318-4.307h3.197zm-22.96 7.176V9.058h7.175V4.753a2.87 2.87 0 0 1 2.87-2.87h5.74a2.87 2.87 0 0 1 2.87 2.87v4.305h20.09V4.753a2.87 2.87 0 0 1 2.87-2.87h5.74a2.87 2.87 0 0 1 2.87 2.87v4.305h7.176v63.14zm4.305-4.305h48.79V34.887h-48.79zm39.463-63.14a2.153 2.153 0 0 0-2.152 2.153v4.305c0 1.189.963 2.153 2.152 2.153h1.435a2.153 2.153 0 0 0 2.153-2.153V6.906a2.153 2.153 0 0 0-2.153-2.153zm-31.57 0a2.152 2.152 0 0 0-2.153 2.153v4.305c0 1.189.964 2.153 2.153 2.153h1.435a2.152 2.152 0 0 0 2.152-2.153V6.906a2.152 2.152 0 0 0-2.152-2.153z"/><text style="line-height:125%" x="20.52" y="29.156" font-weight="400" font-size="17.935" font-family="sans-serif" letter-spacing="0" word-spacing="0"><tspan x="20.52" y="29.156" style="-inkscape-font-specification:'sans-serif Bold'" font-weight="700" fill="#fff">SEP</tspan></text><path d="M50.724 34.27c-1.152.278-2.303.643-3.511.574h-.157l-.048.042h5.826c-.034-.122-.076-.242-.095-.365-.912.011-1.824.013-2.732-.07.146-.03.292-.053.437-.09.095-.023.375-.115.28-.092zm6.653.246l-.011.05.098-.05h-.087zm-9.509 3.24c-.6 1.64-1.707 3.079-3.318 4.31-1.61 1.23-3.105 2.066-4.48 2.508v5.302c2.605-.955 4.77-2.23 6.691-4.226v19.373h4.305V37.755h-3.198z"/></svg>