<svg xmlns="http://www.w3.org/2000/svg" width="76.011" height="76.011" viewBox="0 0 76.01 76.01"><path d="M5.814 68.94V14.173h8.053V9.34a3.221 3.221 0 0 1 3.221-3.222h6.444a3.221 3.221 0 0 1 3.222 3.222v4.832h22.552V9.34a3.221 3.221 0 0 1 3.22-3.222h6.445a3.221 3.221 0 0 1 3.221 3.222v4.832h8.055V68.94H5.812zm4.832-4.831h54.769v-37.05h-54.77v37.05zm3.221-11.276h9.665v8.053H13.87v-8.053zm12.887 0h9.665v8.053h-9.664v-8.053zm12.886 0h9.666v8.053h-9.664v-8.053zm12.888 0h9.664v8.053h-9.664v-8.053zm-38.66-11.276h9.664v8.053H13.87v-8.053zm12.886 0h9.665v8.053h-9.664v-8.053zm12.886 0h9.666v8.053h-9.664v-8.053zm12.888 0h9.664v8.053h-9.664v-8.053zM26.754 30.28h9.665v8.053h-9.664V30.28zm12.886 0h9.666v8.053h-9.664V30.28zm12.888 0h9.664v8.053h-9.664V30.28zm2.416-20.94"/></svg>