<svg xmlns="http://www.w3.org/2000/svg" width="438.549" height="438.549" viewBox="0 0 438.549 438.549"><path d="M321.737 161.563c-10.663-18.271-25.128-32.736-43.397-43.399-18.272-10.663-38.22-15.993-59.857-15.993-21.635 0-41.59 5.332-59.858 15.993-18.27 10.662-32.735 25.128-43.398 43.399-10.662 18.27-15.994 38.222-15.994 59.854 0 25.985 7.581 49.351 22.748 70.105 15.164 20.755 34.755 35.117 58.77 43.087 2.794.519 4.864.154 6.21-1.086 1.345-1.24 2.017-2.795 2.017-4.656 0-.31-.026-3.104-.078-8.384a1386.7 1386.7 0 0 1-.078-13.817l-3.572.617c-2.277.418-5.15.594-8.617.544-3.467-.048-7.065-.411-10.791-1.087-3.728-.67-7.195-2.222-10.404-4.655-3.208-2.432-5.485-5.616-6.83-9.547l-1.553-3.573c-1.035-2.38-2.665-5.022-4.89-7.918-2.227-2.9-4.478-4.865-6.755-5.9l-1.087-.778a11.4 11.4 0 0 1-2.018-1.865c-.621-.724-1.086-1.448-1.397-2.174-.31-.726-.053-1.321.776-1.788.83-.468 2.329-.694 4.503-.694l3.105.464c2.07.414 4.631 1.654 7.686 3.725 3.053 2.07 5.563 4.761 7.53 8.072 2.382 4.245 5.252 7.48 8.618 9.706 3.363 2.226 6.754 3.337 10.17 3.337 3.414 0 6.364-.259 8.85-.774a30.882 30.882 0 0 0 6.986-2.33c.932-6.938 3.468-12.269 7.608-15.995-5.9-.62-11.204-1.553-15.915-2.795-4.709-1.243-9.575-3.26-14.594-6.058-5.023-2.794-9.19-6.263-12.5-10.402-3.313-4.14-6.03-9.577-8.151-16.304-2.122-6.73-3.183-14.492-3.183-23.29 0-12.528 4.09-23.188 12.268-31.988-3.831-9.418-3.47-19.976 1.086-31.673 3.002-.933 7.454-.233 13.353 2.095 5.9 2.33 10.221 4.325 12.965 5.98 2.745 1.653 4.943 3.054 6.6 4.191 9.629-2.69 19.565-4.036 29.812-4.036 10.248 0 20.186 1.346 29.816 4.036l5.9-3.725c4.035-2.485 8.8-4.763 14.282-6.833 5.487-2.07 9.682-2.64 12.582-1.707 4.656 11.698 5.07 22.256 1.239 31.674 8.177 8.8 12.269 19.462 12.269 31.987 0 8.798-1.065 16.586-3.184 23.367-2.12 6.782-4.862 12.213-8.225 16.304-3.367 4.09-7.56 7.532-12.58 10.325-5.02 2.796-9.888 4.813-14.597 6.057-4.71 1.243-10.015 2.177-15.914 2.798 5.38 4.657 8.072 12.007 8.072 22.047v32.76c0 1.86.647 3.414 1.942 4.656 1.294 1.24 3.337 1.604 6.133 1.085 24.017-7.969 43.608-22.331 58.772-43.087 15.162-20.753 22.746-44.12 22.746-70.104-.005-21.63-5.34-41.58-15.997-59.85z"/></svg>