<svg xmlns="http://www.w3.org/2000/svg" width="86.376" height="88.886" viewBox="0 0 86.37602 88.885544"><path d="M-12.788-167.576l-.434-.239 2.441-3.599-2.475.014-.505-.831-1.058-.495-2.302-.457 2.529-2.191-.521-.312 1.72-1.914-1.377-.885 1.959-2.021-1.27-.322.462-1.061-.543-.119-.096-1.67-3.813-.281.105-2.725-.992.162.114-2.789-1.403.024-1.556-1.718.323-1.955-1.418-.465-.151-1.773-.272-1.525-5.377 3.016-.693-.915-1.819 1.284-.601-.513-1.351 1.819-3.003-1.926-.7 1.169-.697-2.838-2.463.213.168-2.036-.422-.009-.154-2.392-1.522.239-.34-1.986-1.5-.149-1.211-2.074-.736.513-1.884.791-3.642.762-1.429-1.361.09-1.408-1.406.398-.509-1.761-.669.325-1.681-2.268-2.456 1.125-1.587-2.211-1.034.095-1.019-2.055-1.09.187-1.714-1.928c-4.841-9.32-6.697-7.354-6.697-7.354.103.937-.241 9.353-.434 9.823-.194.47-.459.198-1.137.13-.677-.067-.344.505.307.861.647.358.398 1.896.398 1.896l-1.17-.019.964 2.098-3.366-.204.182 2.103-.779-.013 1.168 2.004-1.69-.038.136.601.389 1.341.059 2.024-1.714-.429-.569.464-2.515-.25.174.864-4.384-.434 1.614 2.114c-1.747 1.195.113.859.113.859 1.696 1.926 1.096 2.062 1.096 2.062l-1.56-.024 1.444 1.185.511.767 2.027 1.893-2.315.358 1.208 1.292-.11 1.097 2.041 1.438-.891.433 1.117 1.219-1.291-.128.014 1.173-2.774-.925-.269.755-2.716-.205-.474 3.47-1.987-.326-.219.238-1.953.001s.013.524-.768.512c-.78-.013-3.038-.236-3.038-.236l-.115 1.161s-1.38.124-2.909.428c-1.528.304-9.717-1.158-7.456.304 2.268 1.46 4.527 4.291 4.527 4.291l-.426.999 1.168.052 1.627 1.983.606-.85 1.394 1.7-1.451.833 4.35 2.125-1.541 1.085 5.424 1.123-2.688 2.144 2.633 1.042-.283.884 2.696.397-.678.91 5.362.466-.811 1.612 8.931-.092-3.376 3.182.38.754s-3.054 2.563-3.39 2.66c-.336.098 7.714 1.025 7.714 1.025l.084 1.116 6.256-.032.019 1.761 4.701-2.075.338 1.205 4.317-2.176c.002 1.953.505 2.131 1.389 1.765.693-1.754 2.301-.879 3.293-1.042.994-.162 2.668-3.904 2.649-2.408-.019 1.498 1.394.399 1.394.399 1.702-5.368 6.239-9.086 6.239-9.086.116-.622.277-1.109.468-1.492.93 1.242 9.413 12.166 24.125 17.876l3.002 1.898 1.037-3.384s-1.427-.884-3.693-1.451c0 0-7.79-1.572-16.628-9.475 0 0-3.819-3.805-6.157-6.656 1.356.003 2.792 1.413 2.792 1.413l1.012.297c1.012.296 3.98.589 4.721.989.744.399 3.659 1.208 3.659 1.208l.266-.038c.262-.039-.396-1.277-.022-1.11.375.168 3.213 1.427 3.615 1.661.4.235.54-.858.54-.858 1.817-1.252 3.139-1.448 3.234-2.415.097-.967-1.999-.849-2.006-1.436-.007-.587 5.404.014 5.404.014l-.251-.74 3.333-1.429-.885-.935c-.883-.932 2.909-3.031 2.909-3.031zM-172.381-45.039s-4.209 1.403-1.276 16.713c0 0-.81 2.808-2.425.682 0 0 0 4.508-.849 5.443-.853.937-.766.767-1.362.085-.593-.681-.17 1.276-3.148 2.297-2.977 1.021-4.166 1.785-4.593.255-.426-1.53-.509-3.657-.762-4.509-.257-.849-1.706.852-2.469 1.191-.766.34-.509.596-1.954 1.275-1.45.682-2.469 2.296-3.575 1.106-1.105-1.191-.683-1.616-1.019-2.637-.344-1.021-.597-.767-2.385-.937-1.786-.169-3.401-2.296-3.231-2.976.17-.681 0-.342 0-.342s-3.317-.254-3.4-1.954c-.087-1.702-3.404-.088-2.895-2.979.509-2.893 4.51-6.465 6.295-7.06 1.785-.596-.34-.171.766-1.105 1.106-.937 5.782-1.275 5.782-2.808 0-1.53.17-1.615-3.487-1.7-3.657-.085-4.337.51-6.805-1.446-2.465-1.956-4.593-2.298-5.016-3.488-.427-1.191 3.317-4.167 4.336-4.423 1.023-.256-6.295-3.656-5.442-5.869 1.445-1.53 1.528-1.104 2.038-1.104 0 0-4.676-3.231-4.846-5.273 0 0-.853-1.617 1.785-1.957 0 0-3.827-3.232-2.464-5.529 0 0 .723-.592 1.532-.735a2.12 2.12 0 0 1 .336-.031c2.638.087-1.103-2.039-.592-2.209.509-.17 1.105-.257 1.105-.257s-2.638-4.763-1.022-8.335c0 0 4.083-.681 7.658 4.593 0 0 .252-.51 1.188-.51.937 0 2.638 2.979 2.895 4.422.253 1.447 2.125 1.787 2.125 1.107 0-.681 1.275.595 1.446 2.297 0 0 5.615 6.208 7.57 8.675 0 0 3.231.255-3.487-6.89 0 0-2.211.257-5.529-5.444 0 0-5.02-4.593-3.487-5.188l.85-.511s-3.148-7.994-2.634-8.59c.509-.597 3.657-1.191 12.673 3.487 0 0 .253-.682.592-2.467.344-1.787-1.105-3.913-.422-5.018.68-1.108 2.381 0 3.827.338 1.446.342.936-1.188 1.533-2.892.592-1.701 2.125-.425 2.717-.255 0 0-.083-2.808.939-3.401 1.02-.597 1.785 2.126 2.042.509.253-1.615-.173-3.315 1.359-2.721 1.532.596 1.362 2.467 3.4-.682l1.875-3.147 4.419 4.85 2.298.17.084 4.423s1.449 1.7 3.913.51c2.465-1.19 1.702 2.127 1.615 2.894-.083.764.087.426.087.426s2.891-3.574 6.465-1.447c0 0-.086 5.274-.086 6.378 0 1.106 2.978-3.23 5.868-3.4 0 0 3.658-1.362 5.02.51 0 0-1.275 4.763-1.275 5.953 0 1.191.596 1.448.935 1.448.34 0-1.958 1.358-2.127 1.955-.17.597-.597.597 0 1.275.596.681 1.445.426-2.722 3.914 0 0 .34.339-.426 1.021-.763.68-3.827 3.485-4.506 4.678-.68 1.19-1.533 3.657-1.019 4.508.509.85 4.08-1.956 5.016-5.273 0 0 3.061-4.424 3.997-4.594.939-.169.939.682 2.894-1.021 1.955-1.7 2.212-3.402 2.805-2.807.596.596 1.023.765 1.789.596.762-.171 8.42-2.042 9.525-1.531 1.106.51.17 6.378.767 7.316.596.934 2.974.424 2.551 1.954-.427 1.531-1.362 2.722-1.955 3.231-.596.511 1.102.427 1.699 1.704.596 1.273-.766 2.635-1.872 3.23-1.102.597-.766.17-.766.17s2.128.851 2.128 3.147c0 0-5.529 1.701-4.763 2.806.766 1.106 6.465 1.617 5.019 3.402-1.445 1.787-8.08 3.404-8.423 4.169-.339.766 6.125 2.382 8.254 5.699 2.125 3.317-9.103 4.593-9.103 4.593s1.275 0 .427.596c-.85.595-6.382-1.532-7.484-1.701-1.106-.17-3.491.426-2.725 1.105.766.681 7.144 2.212 9.359 3.063 2.208.851 5.356 1.445 5.356 2.636s-2.975 4.508-3.658 4.678c-.679.171-1.275.682-.596 1.533.683.849.766 1.021-1.02.849-1.785-.17-1.019.766-.766 1.19.256.427-3.574-.255-4.423.342-.849.595.85 2.976.257 3.232-.597.255-5.02-1.702-5.956-1.957-.936-.255-4.676-3.063-5.699-3.063-1.019 0-1.532-.425-1.955.512-.427.934.17 3.23-.68 3.827-.853.596-3.657-.17-4.85-.852-1.192-.68-2.552-1.105-2.891-1.53-.343-.425-2.725-1.787-2.725-1.787s-1.019 2.212-1.616-.764c-.594-2.976-1.187-16.074-4.548-15.862zM-139.347-248.431c-8.314-7.927-17.146-15.38-25.758-22.978 4.954.591 10.386-.296 14.242-3.669.781.067 4.053-4.033 4.021-4.396-.26-.086 2.462-5.521 2.431-6.117.274.123.559.142.856.056a9.983 9.983 0 0 0-.319-1.827c.101-.146.909.6.854.162-.333-2.67.413-5.367-.459-8.229-.423-1.387-1.627-5.63-1.469-7.31.154-1.631-1.046-5.168-1.662-6.708-.07-.188-1.818-5.853-2.141-5.425.209 1.156-.192 1.551-1.203 1.188-.004.212.408 2.109-.193 2.072-1.038-.063-8.313-1.34-8.69.166-1.07.062-.085 1.54-1.731.337-1.61-1.274-.865.822-1.9 1.082.575 1.802-1.745 1.579-2.938 2.029-9.505 3.585-14.678 16.938-11.33 26.431-1.626-1.581-3.486-2.997-5.278-4.4 1.496-2.106 3.998-6.498 3.78-9.268-.459-2.794.683-4.919-.408-7.49-1.536-3.62-3.316-7.847-6.284-10.568.587.538-3.272-2.028-3.167-3.014-.062.58-.04.46-.719-.455.957 1.99-1.746-1.354-1.557-1.154.005.185.179 1.12-.203 1.17-.753.099-8.111-8.313-6.009-4.16-1.39.188-3.89-.686-5.006-.749-1.318-.074-5.283-2.754-5.891-2.585-1.046.29-.14 1.979-2.571 1.554-1.776.01-1.66 1.127-3.418.601-1.549-.464-3.452 1.741-4.383 2.45-2.327 1.774-2.994-2.161-4.049-.476a4.795 4.795 0 0 1-2.099-1.574c-.361.192-.833 4.456-.456 3.503-.167.42 2.398 6.349 1.069 4.845.481.698.814 1.453.997 2.266-.051.162-.726-.395-.731-.175.201.587 1.929 9 2.384 8.601-.069.061-.87-.642-.849-.477-.429-.045 2.996 6.754 1.257 4.324.397.534.675 1.117.833 1.748.029-.036-.266.118-.251.135a8.751 8.751 0 0 0-.707-.832c-1.229 2.31 6.515 7.86 6.265 9.798-1.622-3.074 3.113 3.223 3.56 3.572.183.143-1.062-2.011-.837-1.656-.239.225 5.801 4.233 5.395 4.269.058-.219.063-.44.017-.664.582.08.977.464 1.184 1.154-1.193-2.571 1.843 1.439 2.232.933.15-.196 4.528.91 5.665 1.056 4.111.532 10.193-2.613 13.377-4.876 1.027-.745 11.708 9.996 12.978 11.146-.252.278-1.806 1.505-1.714 1.457-.647-.911-6.4-6.959-6.796-6.104-2.095-2.188-5.891-.78-9.044-1.714-2.545-.282-8.702 1.807-10.19 2.742-.645.405-7.057 6.574-5.775 6.798-2.235-.391-6.681 8.843-5.633 11.564-.88-.877-1.198 3.64-.855 4.831.963 3.346-2.053 2.498-2.665 4.077-.435 1.122 1.223 1.613 1.729 1.892-.109-.507 7.167 1.124 7.63 1.631-.535-1.166 1.174.51 1.342.559-.473-.137 1.055-.754.306-.845.496.061 1.355.94 1.766 1.189a4.53 4.53 0 0 0-.106-1.154c.23.003 1.8.798 2.079.796.439.388.879.773 1.322 1.157.166-.095 4.27.612 4.183.682-.298.24.551-1.486.712-1.423 1.359.529 1.711.417 3.05.783.328-.448.239-.903-.268-1.367-.018-.147 1.886 1.769 1.813 1.708.101.084-.246-1.004-.236-1.083.057-.457 7.767-.409 6.853-3.225.252.287 3.387.068 3.421.041.42-.328.557-1.121 1.483-1.768.815-.578 1.118-2.6 1.674-2.136-.595-1.249 3.09-3.075 3.275-3.425.295-.556-.664-2.076-.317-2.649.836-1.382 1.112-4.677 1.479-5.953-.157-.604-.399-4.007-.847-4.379-.156-2.135 2.387-1.965 1.302-3.798 6.604 6.03 13.256 12.009 19.887 18.011 2.364 2.14 4.728 4.282 7.096 6.418 1.073.966 4.263.179 3.313-.729-.511-.487.898.858 0 0zM185.968-283.678l-.596-.143.036-.191 2.048-6.026-1.117-.43.632-5.834-1.153-.144-.073-3.107-.894.19.224-3.3-.931.191-.374-3.49-1.189.333s-.931-3.442-1.116-3.777c-.186-.334-1.34.623-1.34.623 0-1.674-.968-4.4-.968-4.4s-1.86.766-1.86.478c0-.288-1.823-3.299-1.823-3.299s-1.488 1.386-1.749.669c-.261-.718-.67-1.961-.67-1.961s-.856.43-.782.191c.074-.239-.969-1.578-.969-1.578s-.894 1.53-.929 1.004c-.038-.526-1.676-2.917-1.714-3.061-.037-.142-1.227 1.34-1.227 1.34 0-.431-1.229-2.2-1.267-2.344-.036-.144-.558.862-.819.622-.26-.24-.968-1.196-1.19-1.101-.224.096-1.117 1.388-1.117 1.388-.632-.958-3.113-2.471-3.113-2.471s-.198 1.02-1.291.573c-1.636-1.02-3.226-3.507-3.374-3.762-.147-.255-1.092-.702-1.092-.702 1.24 5.484 0 7.334-.148 7.523-.147.192-1.34-.636-1.34-.636s-.693 1.658-.842 1.977c-.15.319-.25 1.274-.498 1.211-.247-.063-1.24-.063-1.24-.063-.595.956-1.34 2.933-1.34 2.933l-1.391-.574c-.99 1.339-.842 3.954-.842 3.954l-1.738-.446-.347 3.507c-.695-.575-1.539.254-1.539.254l-.445 2.933-1.339.287-.969 2.871-1.043.669c-.148.766-.073 3.539-.073 3.539l-.893-.479c-.598 1.914-.076 4.782-.076 4.782l-.817-.191.371 4.304-.818.287 1.413 4.209-.67.382 1.563 4.208-.52.288 2.381 4.877-.371.286c-.151.958 2.976 4.783 2.976 4.783l-.52 1.147c.52.097 4.092 3.539 4.092 3.539l-.072.575 1.289.892c1.49 1.913 10.323 7.014 10.323 7.014l6.352 7.141 1.687 11.987s.496-.892 1.092-1.275c.456-.293 1.588-.128 1.588-.128-1.153-.765-1.34-2.727-1.34-2.727-.56-1.338-1.006-7.077-1.006-7.938 0-.861 2.085-3.873 3.314-5.786 1.227-1.914 3.162-5.691 5.954-7.46 2.792-1.77 5.769-9.325 5.806-9.468.037-.145-.075-1.1-.075-1.244 0-.144.261.047.261.047l2.384-4.974-.635-.143c2.232-2.868 1.898-5.355 1.898-5.355zM-149.168-133.297s-2.476-.823-2.947-1.179c-.471-.354-3.417-3.065-4.833-4.244-1.414-1.178-4.243-1.885-7.072-5.775-2.83-3.89-6.484-9.077-8.605-10.138-2.121-1.061-6.367-.354-7.191.707-.825 1.06-5.068 5.069-5.54 5.423-.472.353-7.9-.708-7.9-1.18 0-.471-5.067 1.415-5.067 1.415s-4.126-.119-4.362-1.415c-.236-1.296-2.71.354-5.54.708-2.829.354-14.972.59-14.264.118.708-.472 6.72-5.894 9.313-7.309 2.593-1.415 7.897-4.126 9.666-5.187 0 0 2.711-2.123 2.946-2.592.237-.473-3.654-1.18-5.304-.708-1.65.47-2.829-.119-4.126-.119-1.297 0-10.256-.354-10.256-.354l-2.357-4.243-5.422-1.534-9.313-9.194s5.54.119 7.544-.354c2.005-.472.353-3.536 3.301-3.3 2.946.234 4.832.353 5.54.353.707 0-6.72-3.065-8.134-5.422-1.416-2.358-2.24-3.536-2.004-4.362.236-.825 3.654-2.357 4.833-2.24 1.179.119 3.183-.118 1.298-2.357-1.886-2.241-5.07-5.069-4.126-5.659.942-.589 2.711.354 3.065 0 .354-.354-.119-1.414-.119-4.951 0-3.538.354-7.19-.944-9.548-1.295-2.359-1.768-6.365 1.063-4.244 2.828 2.122 3.89 3.772 8.487 4.244 4.598.471 4.715-.59 6.602.943 1.887 1.533 2.24-.943 2.475-2.004.236-1.062 4.479 2.829 5.423 6.248.943 3.417 3.655 1.179 3.066-2.477-.592-3.654-1.653-8.25-.12-6.6 1.533 1.65 6.72 6.838 7.192 9.43.471 2.593 4.007 5.893 3.89 6.602-.119.707 1.886-2.123 2.946-4.125 1.061-2.006 1.18-5.541 2.477-5.541 1.296 0 4.833-1.179 6.717 5.305 1.888 6.482 4.834 8.958 4.362 14.617-.47 5.658-1.06 7.308-2.237 11.905-1.18 4.598-4.834 6.602-1.769 6.366 3.065-.235 4.479-6.248 5.894-7.781 1.414-1.531 7.662-10.49 8.134-7.426.47 3.065 0 5.069.235 9.786.235 4.714 2.004 5.539-.235 7.78-2.241 2.239-6.838 11.552-7.309 13.32-.471 1.767-1.532 2.24-.59 4.715.943 2.475-2.239.826 1.532 3.538 3.773 2.71 18.507 14.146 19.451 15.677.941 1.533.234 4.362.234 4.362zM-70.797-21.128s7.552 3.167 6.068-10.244c0 0 2.575-6.559 2.273-1.178-.302 5.378-.985 11.666-4.502 12.855-3.517 1.188-2.017.575-3.839-1.433z"/><path d="M-62.455-32.55l12.738.543-.186-1.675 8.325-2.905-.236-2.407 5.226-3.139s-10.257-1.812-8.541-2.513c1.715-.702 11.696-11.794 11.696-11.794l-3.06-.75s8.524-3.679 11.401-5.245c.55-.3.223-.511-3.361-.797-5.451-.435-11.471 1.939-11.404-.343.069-2.28 6.805-10.29 8.119-12.581 1.317-2.291-.136-.945-.866-.896-.733.048 3.799-9.064 3.868-11.345.066-2.28-12.581 8.399-13.919 8.196 0 0-4.256-.011 1.414-11.843 0 0 1.852-5.263-3.958.118-2.064-5.662-1.585-5.107-1.585-5.107s.65-10.028-3.053-10.516c0 0-1.062 7.193-2.037 9.093-.972 1.902-4.101-2.075-4.101-2.075s1.374 5.194 1.082 6.313c-.292 1.122.341 5.117-.292 6.63-.634 1.51-6.122 4.005-7.651.876-1.53-3.128-5.438-7.785-5.438-7.785s-.312 9.639.342 10.62c.65.985-.372 2.155-.372 2.155s.458 3.567 1.463 5.409c1.002 1.843 3.597 8.79 1.403 8.937-2.193.147-16.158-8.907-16.158-8.907s5.641 6.451 2.25 7.34c-3.391.886-4.433-.438-4.433-.438s10.641 18.672 13.146 19.899c2.505 1.229-1.696 3.197-4.638.897-2.943-2.299-4.854-4.522-3.929-1.647.925 2.875 2.146 4.631 1.287 4.98-.856.353 5.604 12.476 14.261 13.439M64.121-91.419c.088-.114.03-.24-.105-.085.022.106.055.149.105.085zM84.84-49.16a1.233 1.233 0 0 0-.229.044c.412-.001.58-.07.229-.044z"/><path d="M82.759-49.563c-1.303-.712-.131-1.009-1.909-1.289-1.779-.28-2.422-.339-3.292-.574-.874-.234-.612-.904-1.532-.887-.919.018-2.183-.556-4.446-.014-2.269.543-3.838 1.545-3.931.677-.091-.869-.013-2.293 1.335-2.817 1.345-.524 3.222-.749 3.875-1.08.654-.331.893-.219 1.256-.738.362-.518.412-.771 1.432-.965 1.021-.193.768-.243 1.545-.879.779-.634.705-.255 1.32-.725.616-.47-.193-.691.892-.546 1.084.145 1.483-.563 1.581-1.067l.1-.505s1.56-.613 2.061-1.17c.5-.558-.133-1.008-.163-2.192-.031-1.185.571-1.265.807-2.462.231-1.198.622-1.517.231-1.198-.388.317.541-.42.698-1.566.158-1.148.236-.544.158-1.148-.079-.604 1.623-2.629 1.148-4.228-.475-1.599.008-1.047-.556-.174-.563.872-2.044 1.763-2.698 1.766-.657.003-1.203-.889-1.846-.62-.641.269-1.48 1.218-1.837.363-.359-.855.023-2.482-.477-1.926-.502.558-1.935 1.194-2.11 1.423-.175.229.059-.971-.921-.31-.979.66-1.521.752-2.111 1.096-.591.343-1.412-.145-1.687.588-.273.732-.776.635-1.063 1.43-.287.795-1.187 2.061-1.774 2.732-.591.671-2.047 1.763-2.677 1.64-.63-.122-1.272.146-1.339-.522-.067-.668-.598-.967.379-2.282.975-1.316 2.335-1.903 2.606-2.636.272-.732.336-1.049 1.051-1.695.715-.646 1.306-.663 1.857-1.144.553-.482 1.252-1.721 1.83-2.001.578-.279 1.31-.007 1.232-.612-.08-.604-.245-.768.636-1.251.879-.483 1.409-.513 1.028-.913-.38-.4-.966.925-.421-.867.545-1.792 1.764-2.341 1.839-2.719.071-.379-1.08.836-.913-.701.169-1.538.591-2.7.828-3.244.236-.543-.174.229.346-1.438.521-1.666.862-3.76.862-3.76s-1.352 1.921-1.884 2.361c-.161-.018-.627.018-1.759.203-3.109.509-2.367.392-3.472 1.027-1.107.637-1.849.753-2.602 1.263-.755.508-3.65 3.283-4.332 3.085-.683-.197-.81 1.807-.888-.827-.077-2.633-.074-2.306.381-4.313.228-1.001.442-1.434.579-1.588-.061-.271-.05-.987-.017-1.642.045-.907.105-1.223-.255-.704-.363.52-1.043.649-1.002-.915.042-1.562 1.343-3.207.037-2.546-1.308.662-1.573.351-1.786.766-.212.418-1.579-.961-1.571-1.68.008-.718-.199-2.004-.121-1.398.079.605-.493-.16-.774-1.066-.282-.906-.502-2.127-.539-1.938-.038.19-.276.405-.51-1.08-.237-1.486.961-3.938.021-3.14-.941.8-1.671.854-1.573 2.706.097 1.852-.098 2.861-.853 3.37-.753.507-.819-.16-1.383.714-.562.871-.856.028-1.125 1.416-.271 1.389-.371 1.565-.834 1.934-.466.368-1.313.006-1.589.412-.272.403-1.984.791-1.984.791s-.557-2.53-.711-1.055c-.157 1.476-.269 2.044-.326 3.014-.056.971.414 1.914.113 2.116-.302.205-.577-2.075-.302.205.277 2.279.187 4.094.188 4.421.003.329 1.385 2.3-.96-.12-2.344-2.42-2.298-3.655-3.513-4.153-1.212-.497-1.628-.381-2.16-.681-.529-.301-1.26.083-2.6-1.096-1.344-1.178-1.622-1.429-2.064-1.841-.443-.414-1.076-.864-.196 1.009.88 1.872.985 3.007.788 3.689-.197.68-.814.822-.521 1.665.297.843-.486.822-.486.822s.154.554.669 2.29c.513 1.736-.855.357.275 1.952 1.129 1.595.349 1.574 1.831 3.04 1.481 1.466.833 2.452 2.075 4.136 1.245 1.681 2.82 4.018 3.189 4.809.37.792 1.266 3.259-.646 1.644-1.911-1.617-.479-.226-2.474-3.101 0 0-.622-.514-.966-1.432-.346-.918-.205-.629-1.521-1.605-1.314-.976-1.555-1.088-1.576-2.335-.019-1.247-.033-1.513-1.393-1.581-1.362-.068-1.424.247-2.029-.001-.606-.25-1.52-1.277-1.52-1.277s-.149.429-.982.005c-.835-.424-1.1-.409-2.063-1.186-.962-.777-3.063-2.758-3.105-3.551-.04-.793-.126-.024-.037 2.546.089 2.571.432 2.834.188 4.095-.246 1.263-.326.329-.596 1.718-.271 1.389-.561 1.528-.277 2.435.28.905-.085.769.526 2 .611 1.232.087 1.917-.415 2.472-.501.558-1.119.372-1.291 1.257-.172.883-.299.529 1.095 2.11 1.395 1.582 2.116 1.918 2.371 2.622.258.704-.677.783.637 1.104 1.312.32 2.439 1.26 2.226 1.349-.215.091 1.253.965 1.253.965s.618.186 1.071.208c.454.022.455.35.811.55.353.2-.657.003 1.476.484 2.134.479 1.821 1.073 2.139 1.462.318.39 1.67 1.177 1.663 2.222l.078.277s.244 1.097.082 1.26c-.163.164-.941.799-1.243.676-.304-.124-1.634-1.038-2.292-1.689-.658-.651-.824-.816-1.644-.974-.82-.16-.696-.463-1.993-.519-1.298-.058-.568-.111-2.296-.316-1.729-.205-.012.063-2.737-.4-2.725-.466-2.267.54-3.077-.336-.81-.879-1.43-1.064-1.43-1.064s-.768.243.63 2.151c1.396 1.908 1.272 2.211 1.869 3.179.598.967.751 1.193 1.462 2.247.711 1.057-.376.583 1.095 2.112 1.47 1.53 1.081 1.519 2.549 2.722 1.466 1.201 1.583 1.617 2.267 2.143.685.525 2.213 1.085 2.213 1.085s-.327.329 1.125.938c1.453.61 2.236.959 4.19 1.339 1.955.38 4.588 2.331 5.795 1.846 1.209-.484.541-.417 3 .061 2.46.478 1.391.598 1.293 1.43-.096.832-.464 7.11-7.999 16.905 0 0 .834.098 1.185.296.355.2 1.293 1.103 1.293 1.103s6.323-12.322 7.083-16.232c.76-3.912 4.027-3.538 6.453-2.542 2.425.993 4.227.82 4.227.82l.159-.492.707.071 1.035.071s.29.187.402-.054c.111-.239.412-.771.866-.748.454.023 1.146.157 1.411.144.266-.015-.126-.023.832-.23.955-.207 1.409-.185 1.913-.414.502-.23 2.212-.945 2.604-.934.391.01.665-.396.953-.534.291-.142 1.098.081 1.473-.5.375-.582-.066-.668 1.191-1.078 1.259-.41 1.248-.019 2.313-1.121 1.065-1.102 1.342-1.179 2.424-1.688 1.079-.511 1.479-1.547 2.759-2.41 1.146-.772 1.748-1.437 2.384-1.609-.444-.006-1.176-.085-1.853-.454zM100.501-283.541c-.795-.066-2.518-.994-2.188-1.458.333-.464-2.316.794-2.979-.397-.662-1.193-.066-1.127.464-1.988s-.928-.729-1.324-.794c-.396-.067 4.504-6.227 2.318-6.424-2.185-.199-5.63 1.458-5.364-.133.265-1.59 1.257-1.921 1.06-1.921-.2 0-1.192 1.193-.862-.264.332-1.458.927-3.313.927-3.313l-2.847-.065s.928-6.359.86-6.889c-.065-.529-2.251.795-2.517 0-.265-.794.663-2.714.066-2.583-.596.134-.861.598-.861-.065 0 0 1.523-3.643.795-4.505 0 0-.463.067-1.126.199-.662.132-1.06.596-1.126-.199-.066-.794-.529-3.577-.529-3.842 0-.263-.661 1.062-1.259.464-.595-.595.598-4.039.199-3.84-.397.198-.397-.199-.132-.862.203-.509.056-.431-.024-.368.213-.186 1.658-1.435 2.209-1.618.597-.2 1.723-1.524 1.723-1.524s-1.061-.199-2.45-.131c-1.393.066-3.444.331-3.975.594-.53.266-1.921.928-2.915 1.325-.993.398-2.119 1.325-2.184.132-.068-1.192-.397-1.787-1.325-.794-.928.993-3.313 2.583-3.313 2.583s.928-3.046-.331-2.119c-1.259.927-3.378 2.517-3.643 2.782-.266.265-1.854-1.855-1.723-2.518.132-.662-1.522 1.126-2.384 2.187-.86 1.059-.331 2.98-.993 2.119-.663-.862.133-2.318-.663-1.126-.794 1.192-2.119 2.782-2.384 2.385-.266-.398-1.458-3.644-1.855-2.65-.396.994-1.722 5.1-2.385 5.431-.661.331-.793-.465-.793-.465s-.861 2.783-1.391 2.584c-.53-.198-3.245-3.378-3.18-3.775.067-.397-2.186 6.424-2.914 5.96-.729-.463-1.061-.397-1.061-.397s.265 2.65-.264 2.915c-.53.263-2.583-4.04-3.18-4.637-.596-.596-.729.463-.729.463s-3.112-3.511-2.979-7.351c-.397-1.258-.266-.265-1.061.993 0 0-.928 5.961-2.186 4.371l.265-.729s-.927 2.319-1.788 2.583c-.861.266-.928-1.854-1.788-.662-.861 1.192.065 3.245-.927 4.835-.361.577-2.008.2-1.922-.927 0 0-1.258 4.569-1.258 5.033 0 .464-2.186-1.854-2.716-1.325-.528.53-.528 4.041-.662 4.836-.131.795-1.523-.132-1.721.398-.2.529.991 2.118.661 2.582-.331.463-4.106-.064-4.569-.861 0 0-1.126-1.455-.597.797.53 2.25-.397 3.576.53 4.503.928.927 1.722 1.457 1.391 1.789-.331.331-2.782-1.259-2.649-.133s2.583 3.178 1.391 4.105c-1.191.928-4.039-.331-4.77.663.663 1.59 1.723 3.708 2.253 4.438 0 0 .265.332-.663.463-.927.132 1.06 2.052 1.59 2.649.53.596-1.59-.53-1.59.397 0 .928 3.114 2.384 1.988 3.577-1.127 1.192-4.04.662-4.77.596-.728-.066.265 4.04 1.392 4.967 1.125.927-.132.397-.662.596-.53.199 1.521 1.458 2.118 2.65.597 1.193-1.126.265-.926 1.126.197.861 3.708 2.913 3.642 3.111-.066.2-1.324 1.723-1.324 1.723s4.304 2.252 4.106 2.65c-.199.397-1.192-.266-.397.728.795.994 2.648 1.193 2.648 1.193s-.463 2.25-.993 2.449c-.53.199 2.119 2.517 5.231 1.59 0 0 .134.596 0 .994-.131.397.267-.464 1.722-.464 1.458 0 2.719-.463 2.253.265-.463.728 0 2.252-.992 3.113-.995.861 5.033.198 5.761-.265.729-.463.199.397.199.728 0 .33 1.789-1.391 2.584-1.589.795-.199-.795 1.523.795.729 1.588-.794 3.442-3.179 4.105-4.372.662-1.192 6.293-6.159 8.146-6.954 1.854-.795 2.383-.729 2.782-1.126.179-.18.399-.739.661-1.292.058.682.132 1.211.132 1.211.089 1.101.883 3.804 1.325 4.905.441 1.102 1.325 9.012 1.325 9.012.132 2.251.265 9.609.265 9.609l1.457-1.2s.309-2.303.221-6.207c-1.236-2.405-1.59-11.013-2.384-13.417-.607-1.834-.699-3.55-.669-4.884.398.49.521 1.46.183 2.33 0 0 1.59 2.186 2.716 3.444 1.126 1.258 1.457 1.457 1.523 3.246.066 1.788.86 4.106.86 5.497 0 1.39-.065 2.583 0 2.914.066.332 1.06-1.325.994-.462-.067.86 1.061 2.914 1.656 3.245.597.331.661-.53.729-.794.065-.265 3.245 2.716 4.502 1.855l.598-2.319s3.71 1.192 4.105.928c.329-.221.245-1.25-.095-1.522.821.234 3.603.979 4.334.528 0 0 .131-1.192.131-1.458 0-.263 4.24.53 4.24-.133 0-.662-.266-1.125-.266-1.125l2.253-.595-.266-.598s3.18-.86 3.444-1.456c.266-.596-2.186-2.915-2.517-3.378-.332-.464 4.106-.464 4.106-.464s-1.324-1.192-.795-1.589c.53-.397 3.643-.465 3.313-.927-.333-.464-.995-.397-.73-.663.266-.265 4.107-1.854 4.306-2.385.199-.531-1.06-.53-1.854-1.325l-.793-.794s2.252-.861 2.382-1.193c.134-.331-1.258-.529-1.058-.927.198-.397 3.441-.728 3.642-3.178 0 0-1.192.199-2.318-.596 0 0 .861-.465 1.392-.795.529-.331.133-.861.992-1.258.862-.397 1.525-1.59 1.525-1.59s-1.325-.928-2.055-.994c-.729-.066 3.312-2.384 3.312-2.384l-1.522-1.258 2.053-2.251-1.061-.398s2.054-4.833 3.444-6.026c1.396-1.194-4.034 1.255-4.829 1.19zM-30.674-285.405c-10.146-4.507-10.709-.563-13.528-.186-2.818.375-2.818-.377-2.818-2.631 0-2.253 14.277-3.568 14.277-3.568 5.263-5.072 5.073-8.455 5.073-8.455 1.881-3.567-1.501-3.943-1.876-5.822-.378-1.88.186-3.007 2.815-4.32 2.632-1.317 1.506-3.195.189-5.263-1.313-2.065.563-6.386-.189-7.7-.749-1.314-2.066-4.509-2.066-4.509s-10.521-2.253-16.532-.564c-6.012 1.691-4.321 5.073-5.822 6.952-1.502 1.878-4.695-2.256-5.637-2.256-.938 0-4.505 4.51-5.447 6.202-.938 1.69.942 11.082 0 12.396-.938 1.316-2.44-.563-2.44-2.818 0-2.253-.379-7.324-2.065-10.707-1.697-3.382-10.338-12.586-10.338-12.586-9.393 6.575-13.524 13.714-14.652 16.53-1.127 2.818.375 9.207.564 10.708.189 1.503 2.443 5.823 2.443 5.823 0 5.261-1.127 2.068-1.127 2.068-4.699-10.897-14.841-6.764-14.841-6.764 1.502 2.255-.189 9.393-.189 9.393-2.065 23.107 8.641 25.172 8.641 25.172 1.506 1.502 5.637.754 10.521-.563 1.331-.358 2.375-.645 3.201-.875-2.752 3.186-6.167 6.835-7.252 7.811-1.912 1.72-12.555 12.326-15.11 11.467 0 0 2.555 4.298 2.342 6.019 0 0 12.342-13.186 14.896-14.619 0 0 4.675-4.722 7.898-8.399-3.671 15.908 4.452 22.012 6.426 20.576 2.066-1.501 1.876.188 1.876.188 3.193 4.133 16.532 3.946 18.972 2.067 2.444-1.878-1.687-9.204-1.687-9.204-3.382-5.637 0-3.946 0-3.946 7.324 9.204 12.023 4.507 12.023 4.507 3.941-1.314 5.632-2.629 6.949-5.26 1.104-2.209 1.691-2.254 1.691-2.254 7.703-2.816 7.139-6.95 9.205-9.955 1.944-2.83 3.057-10.486 3.18-11.375-.134.199-1.257.415-9.566-3.28zM-21.095-282.211l-.013.087c.03-.044.013-.087.013-.087zM75.29-185.089l-.002.05c.004-.029.002-.05.002-.05z"/><path d="M93.427-171.414c-.67-.669-1.563-.39-1.563-.39-1.282-.727-4.018.167-4.018.167-1.227 0-.948 0-.893-.392.056-.39-1.45-.055-2.233-.167-.779-.112-1.451.112-1.731.112-.277 0-.055-.448-.669-.727-.612-.278-2.232.223-3.349.279-1.116.056-2.063-.056-2.567.224-.503.279-2.735 1.507-3.852 1.618-1.117.111-2.176 1.173-3.237 1.451-1.059.279-.949.502-1.339.614-.39.111.335-.614 1.116-1.228.781-.615 4.02-2.011 5.191-2.122 1.171-.11 3.014-1.896 2.679-2.511-.335-.614-.502-.501.278-.949.783-.445 1.564-.279 2.29-.67.726-.39 1.896-1.117 2.623-2.177.726-1.061-1.062-.279-1.563-.669-.503-.392.445-.448 1.509-.781 1.06-.336 2.007-1.396 2.566-2.458.557-1.059-1.061-.221-.894-.724.169-.502 2.344-1.173 2.344-1.173s-.334 0 .112-.224c.446-.223.446-.838.948-1.45.501-.613-.335-.445 0-.613.336-.168.838 0 1.395-.223.56-.224 2.457-2.625 2.291-2.512-.169.111-1.117.111-1.786.166-.67.057-.615.225-1.175.28-.557.057-.611.057-1.395.948-.779.894.335-.725-.502-.613-.838.112-2.232 1.395-2.232 1.395-1.73 1.452-.559-.445-.559-.445-.837-.503-1.786.558-1.786.558-.893.39-1.506.838-1.952 1.172-.447.335 0-.782 0-.782-.838.167-1.507.559-3.237 1.339-.963 1.824-.959.341-.95.05-.008.069-.059.19-.334.23-.392.055-1.285.725-2.121 1.283-.836.558-2.567 2.121-3.964 3.182-1.396 1.059-1.506 2.343-1.842 2.622-.335.28-1.507 1.284-2.008 1.619-.504.337-.448-.166-.335-.669.11-.502 1.563-1.171 2.063-2.065.502-.892 1.618-3.015 1.843-3.685.222-.669.837-1.842 1.618-2.344.781-.502.446-1.06 1.396-2.902.947-1.841 1.673-1.394 1.339-1.955-.335-.556-.56-.501-.278-.668.278-.168 1.116-1.061 1.172-1.509.055-.445.167-1.226.167-1.226s-1.62.836-1.507 0c.111-.838 2.009-1.786 1.674-1.843-.334-.055-1.228.559-.334-.724.893-1.285.446-1.843.223-1.788-.223.057-.56.334-.948-.055-.392-.392 1.786-3.125 1.506-3.016-.277.113-1.117.503-.949-.278.169-.782 2.456-1.841 2.232-1.787-.224.057-1.116-.055-.779-.39.333-.334 1.953-1.339 1.953-1.507 0-.167-.504 0-.28-.392.225-.39 1.452-1.005 1.396-1.396-.055-.391-.335.058-.278-.559.057-.614.726-2.064.726-2.064s-1.618.614-1.843 1.45c-.224.838-1.172.112-1.563.449-.39.333-.78.612-1.171 1.283-.392.67-.615.223-.67.392-.057.166-.334.055-.893.444-.559.392-1.676 1.619-1.843 2.512-.167.893-.668-.613-.668-.613-1.899.725-2.364 3.201-2.364 3.201-.373 1.04-.446-.747-.817-.299-.373.446-2.011 2.679-2.234 3.647-.223.966-.447-.744-.595-.225-.148.521-1.488 1.936-1.711 2.829-.224.893-.446.148-.819.968-.373.818-.818 2.38-1.488 2.606-.671.223-.968 2.307-1.489 3.572-.521 1.265-1.338 5.729-1.414 6.175-.073.447-.297-5.06.15-6.772.446-1.711.669-2.53.742-3.572.077-1.043-.52-2.157-.223-3.647.3-1.487.075-1.412.075-2.753 0-1.34-.707-2.381-.707-2.381.148-3.906-1.077-3.906-1.077-3.906-.113.669-1.64 3.31-1.007.893.968-3.87-.743-4.02-.743-4.02-1.266 2.047-.911.448-.911.448.223-2.066-.224-4.187-.392-4.075-.168.111-1.116.445-.95.224.169-.224.336-.672.336-1.119 0-.446-.502-.446-.336-.836.169-.392.169-1.228-.056-1.117-.222.112-.278.112-.389-.168-.112-.278.167-1.226-.225-1.841a6.062 6.062 0 0 0-.725-.95c-1.341 1.061-.335 2.568-.335 3.014 0 .447-.727-.781-.838-.278-.112.503.335 2.511.446 3.237.111.727-.947-.669-1.171-.167-.224.502.278 3.069.224 3.294-.056.222-.561-1.899-1.229-.17-.671 1.733-.037 3.519-.037 3.519l-1.189-.894s-.15.744-.3 1.19c-.148.447-.37.968-.67 1.563-.297.595.076 1.043.076 1.638 0 .596-.149 1.042-.149 1.042s-.299-.373-.745.074-.298 1.042-.446 1.266c-.147.222 0 0-.222.893-.225.894.743 2.976.743 2.976l-.446.745c-.447.744.296 1.043.296 1.936s.671 3.645.671 3.645-.223.895-.521-.668c-.297-1.564-1.043-1.713-2.009-2.904-.968-1.189-.67.374-.67.374-.597-3.052-3.424-4.392-3.424-4.392l-.262 1.303c-.482-2.01-3.161-4.616-3.272-4.094-.112.52-.559 2.978-.483 1.488.073-1.488-2.234-3.199-2.531-2.902-.296.298-.223 1.08-.521.708-.298-.373-2.494-3.127-2.604-3.014-.113.11.223 1.599-.224.892-.446-.707-1.639-2.902-1.749-2.27-.111.633-.382.214-.382.214-.584-1.423-1.507-1.312-1.507-1.312-1.45-1.089-1.396-.782-1.45-.447-.057.335.419 1.089.781 1.34.361.252.111.53.111.53.056.588.781.978.865.978.083 0 .53 0 .615.921.082.921.92 1.479.92 1.479-.336 1.284 2.037 2.875 2.037 2.875s.419.392-.141 0c-.557-.39-1.09-.335-1.09-.335-.193 2.177 2.255 3.954 2.255 3.954-.672-.446-.97-.223-.97-.223s0 1.189.373 2.829c.37 1.635 1.487 1.934.966 2.38-.52.447.894 1.713.894 2.084s3.201 2.009 2.159 2.306c-1.043.298 1.945 3.806 1.945 3.806-2.15-1.369-4.019-1.312-4.019-1.312l-.048.743c-.148-.408-3.387-1.525-3.906-1.6-.521-.074-.224 1.34-.634.484-.409-.856-2.94-.93-3.608-.817-.556.092-.144.564.016.724-.43-.323-2.849-1.157-2.919-.948-.075.224.187.968-.408.446-.596-.52-1.785-.968-2.047-.893-.262.075-.485.558-.485.558-.816-1.227-1.6-.929-1.6-.929-1.152-.894-2.828-.559-2.568-.446.264.111.783.781 1.192 1.375.41.597-.073.597.447.632.52.039.742.076.779.448.039.372.41.335.893.445.486.113 4.243 1.043 2.458 1.006-1.788-.036-.372.746-.372.746.447.221 2.306.817 3.422 1.115 1.116.297-.52.148-1.189.372-.67.223.073.373.818.895.744.52 0 .52.298.816.297.297 1.489.077 2.455.077.967 0 .225.52.15.966-.076.446-.969.073-1.564.223-.595.148.374.075.148.893-.223.818 2.011.148 1.862.372-.15.225-.744.521.521.521 1.266 0 3.349.743 2.159.743-1.193 0-.523.746.966 1.191 1.489.449.968.374.67.669-.297.298.893.672 2.307 1.043 1.415.372 1.042.149 1.042.149.298.075 1.339 1.563 3.722 1.861 6.177.893 5.877 1.637 5.877 1.637-3.271-1.861-5.581-.371-6.323-.371-.743 0 1.266-.745-3.199.668-4.467 1.414-3.945 2.011-4.467 2.382-.521.371-1.86.223-2.681.446-.815.224-.743.67-1.711.968-.967.298-1.19 0-1.711-.074-.521-.077-1.414.37-2.158.894-.744.519-1.116.519-2.009.816-.894.298-1.787 0-2.902.449-1.116.445 1.043.296 2.232.223 1.191-.075.744-.075 2.382-.15 1.636-.073 1.041.075 2.232-.297 1.063-.333 2.538-.398 2.709-.408-.196.011-1.029.631-.44.557.597-.075 2.048.335 2.419.26.374-.074 1.638-.26 1.378-.037-.262.223-.817.894-.371 1.041.446.148 1.376-.073 1.449.113.073.186-.334.445.224.333.56-.11 2.792-.707 3.237-.893.447-.185-.112.26-.931 1.08-.817.818 1.824-.558 1.711-.334-.109.223-.26.521.262.296.521-.224 2.827-.782 2.717-.482-.113.297.37.333.37.333s2.011-.594 2.792-.707c.78-.111 2.121-.706 2.902-.968.783-.259 1.451-.41 1.153.075-.297.485-3.945 1.339-3.945 1.339-.706.298-1.784 1.34-2.156 1.34-.373 0-2.418 1.155-2.492 1.525-.076.373 0 .894-.225 1.005-.223.112-1.749 1.377-2.232 1.86-.484.485-.111.857-.669.931-.559.074-.969.968-1.786 2.009-.82 1.043-2.94 4.467-2.458 4.057.483-.41 2.532-2.085 2.865-2.605.337-.521 1.677-1.116 1.677-.894 0 .224.073.449.52.039.446-.41 1.526-1.08 1.526-.781 0 .297.669-.077 1.376-.672.707-.595 1.19-.929 1.19-.929l-.038.147c-.036.15-.073.337-.26.857-.186.52.56.111.932.037.371-.074 1.396-.353 1.396-.353.389-.67.612-1.061.724-.725.11.335.837.279 1.673-.614.838-.894 2.373-2.344 2.373-2.344-1.618 1.786-.78 2.623-.78 2.623.056.56.976-.083 1.423-.474.446-.39 1.229-.362 1.229-.362l-.112-.057c3.423-2.753 6.847-8.223 6.847-8.223s1.024-1.599.911-2.269a.79.79 0 0 1 .038-.437c.333.508.627.951.744 1.106.334.446 2.344 11.498 2.566 13.731.224 2.231 3.183 17.414 3.183 17.414-.504 4.464.78 3.236.78 3.236.374 0 1.043-.446.969-.818-.075-.373.446 0-.372-2.158-.819-2.158-5.731-31.48-5.731-31.48s.15-.037.361-.112c5.596 6.282 11.416 7.387 11.416 7.387 1.34.39 1.508-.615.948-1.06-.557-.448 1.564.333 2.902.39 1.341.055 3.35.055 5.416-.112 2.063-.168.166-.727 1.34-.448 1.17.279 1.617.225 2.623.225 1.003 0 .948.167 1.898.39.947.225 1.337.67 2.12.781.779.114 2.121 1.173 2.121 1.173l-2.121-2.456c-.727-.836-1.23-.947-1.899-1.507-.67-.558-.557-.669-1.617-1.06-1.062-.392-1.675-.336-2.513-1.117-.837-.78-1.396-.613-1.396-.613-1.563-.614-1.117.309-2.568-.194-1.45-.503-1.45.641-3.182.641h-2.788c-.615 0-1.395-.753-2.066-.808-.67-.058-.893-.069-.727-.572.169-.502 2.291.38 2.291.38h.222c1.954 0 2.345-.589 4.521-.589 2.178 0 2.287-1.047 3.125-1.216.838-.167.67-.411 2.232-.411 1.562 0 1.676-1.35 2.68-1.52 1.005-.166 2.345-1.26 1.842-1.874-.503-.615.057-.518 1.283-.518 1.229 0 1.061-.736 2.289-1.406 1.228-.669.78-.226 1.729-.283.95-.055 1.284-.838 2.737-1.341 1.449-.502 1.563-.334 2.399-.503.836-.168 1.284-.169 1.284-.169s.001.003-.67-.666zM181.448-35.298s-4.669-.53-6.261-.423c0 0 4.987-7.112 4.244-10.296 0 0-4.457-.106-5.624.637 0 0 5.624-6.367 5.094-8.809-.53-2.442-4.775-.319-5.201-.105l-.424.211s4.139-6.261 1.911-9.338c0 0-3.928 1.378-5.201 2.333-1.273.956 3.024-3.768 1.91-10.825 0 0-1.91-.743-3.555.902 0 0 1.645-6.578.266-8.118 0 0-3.942.101-5.924 2.815 0 0 2.229-7.483.849-10.188 0 0-1.519-.103-3.421 1.328-.044.034.387.013.344.051-1.221 1.062.478-5.042-2.122-7.694 0 0-2.176-.265-3.237 2.068 0 0 1.008-3.766-2.76-7.374 0 0-1.062-.214-1.326.742 0 0-.053-2.866-2.813-2.547 0 0-.319-.425-.477-.425-.16 0-.214.318-.478.425-.267.105-1.912.425-1.858 2.176 0 0-.85-.106-.85-.266 0-.16-2.388 3.343-2.6 4.033-.213.69-1.167 2.015-1.062 2.759.106.743.902 2.176.902 2.176s-2.229-1.433-3.13-1.38c-.903.054-1.063 2.017-.903 2.76.16.743-1.963 3.872-.425 6.103 0 0 .796.955-1.113-.212-1.911-1.169-3.185-.69-3.768-.584 0 0-.792 8.205 1.817 10.063-1.117-.521-3.681-1.538-5.851-1.096 0 0-.319 5.89 3.132 8.861 0 0-1.435-.902-2.602-1.221-1.168-.317-2.706-.425-3.29-.371-.585.054-.954 5.677 1.221 7.801 0 0 .632.559-.69.266-1.911-.425-3.13-.902-3.873-.212-.74.686.838 7.638 3.736 9.421-.284-.203-2.543-1.723-5.913-1.161 0 0 0 4.952 4.529 8.206 0 0-4.582-.68-5.404.011-.816.685 1.486 5.936 6.496 8.63.027.016.057.03.085.045 0 0 1.299.558-.239.531-1.539-.027-6.13.822-6.555 1.565 0 0-.61 2.361 6.184 4.563 0 0 1.325.451.291.557-1.034.106-2.813.77-3.343 1.248-.531.477-1.565 1.008-1.645 1.354-.08.344 1.83 2.837 8.993 2.625 0 0-1.989 2.31-2.334 3.265-.346.955-.425 1.564-.425 1.671 0 .107 2.096-.053 3.237-.158 1.142-.107 2.945-.054 3.714-.425.77-.371.796-.638.69-.133-.106.504-.77 2.334-.742 2.999.025.662.397.715.98.317.584-.398 1.751-.982 2.176-1.433.425-.451 1.274-.822 1.911-1.221.636-.397 6.818-2.52 6.554-6.845 0 0-.347-.931.238-1.486.584-.558 1.618-.771 2.017-.371.397.398 1.007.079.901 1.194-.105 1.113-2.334 8.754-2.759 10.028-.425 1.274-.531 1.38-.451 1.459.08.079 1.274-.052 1.564-.052.292 0 1.487-4.565 1.62-5.069.131-.504.796-5.014 1.061-5.598.266-.584.398-1.036.77-1.114 0 0 1.977-.564 2.766.129 0 0 .819 4.605 3.876 5.452 2.62.724 3.396 3.537 3.396 3.537s1.218-1.984 2.279-1.56c1.061.425 6.898 2.759 6.686 2.122-.212-.638-1.379-4.033-1.379-4.033s7.11 2.123 9.339-.743c0 0-2.547-3.396-3.82-3.608-1.274-.212 6.897-2.122 7.429-5.093-2.548-1.063-6.367-1.805-6.367-1.805s7.007-2.756 7.007-6.047zM187.006-163.381c-1.384 0-1.523-.208-3.323.069-1.803.276-2.356-.969-3.117-.901-.763.069-1.732.693-1.871-.068-.138-.763 1.455-.209.139-1.109-1.316-.901-2.147-1.455-.97-1.801 1.177-.346 3.532-1.04 2.078-1.524l-1.455-.485s-2.631 1.248-1.523 0c0 0 2.008-1.732 1.594-2.632-.417-.901-.832-1.594 0-2.218.83-.623 1.385-1.593 2.076-2.563.693-.97.832-1.94-.138-1.94s-3.395 0-2.355-.762c1.039-.762 1.594-1.455 1.316-2.009-.277-.555 1.594-.97.832-2.008-.763-1.039-2.078-1.109-1.455-2.217.623-1.109 1.108-1.248.831-2.148-.277-.9-.831.208-.554-.762.276-.969 1.522-2.563 1.522-2.563s.209-1.385-.483-1.871c-.693-.484-.555-2.771.207-3.81.763-1.04.97-1.316.416-1.316s-2.702 1.386.138-5.057c2.841-6.443 2.633-6.443 3.741-9.352 0 0 2.218-5.957.555-7.619 0 0-.07 3.255-.555 3.741-.484.484-1.594 1.455-2.078 2.839-.485 1.386-5.126 7.621-5.681 8.175-.554.554-.9 1.178-1.662.901-.763-.277-1.871-.347-2.563.346l-.693.692s-1.524 1.386-2.078 2.009c0 0-1.731-1.801-2.217-1.247-.485.554-1.524 3.256-2.771 4.71-1.247 1.455-2.217-.276-2.563-.9-.346-.624-.346-1.177-1.802.485-1.453 1.662-3.255 4.918-3.878 2.771-.623-2.147-1.386-5.403-1.732-2.494-.346 2.91-.139 2.01-.762 2.287-.624.276-.762.068-1.939.969-1.178.9-1.04.9-1.801.762-.762-.139-1.109-.208-2.218-1.108-1.108-.9-1.594-1.247-2.008.139-.417 1.385-.694 1.801-2.079 2.216-1.385.416-.554 1.248-2.078.693-1.522-.554-2.078-.554-2.493.277-.416.832-.485 1.94-1.386-.484-.9-2.425.069-4.988-.9-4.503-.97.485-2.354.485-2.84 2.079-.486 1.594-2.147 1.871-2.495 1.871-.346 0 .278 1.108-.414 2.216-.694 1.109-1.179.693-2.217.416-1.04-.277-1.316-2.494-1.109.069.104 1.271.24 1.519.276 1.557-.027-.011-.125-.005-.346.313-.622.901-.762 2.355-.762 2.355s-1.177-.693-1.663-.693c-.484 0-1.177.277-.83 1.663.346 1.386-1.248 1.317-1.248 1.317s0 1.73-.623 2.285c-.623.554-2.493-2.078-2.632-.831-.139 1.247 1.246 2.909.068 3.395-1.178.484-2.285-.555-1.939.969.348 1.524 1.525 2.771.069 2.91-1.454.139-2.217.9-1.246 2.078.968 1.178 1.802 2.771-.416 2.701-2.217-.069-3.047.139-1.801 2.149 1.246 2.008 1.801 2.008.277 2.632-1.524.624-2.078.207-1.109 2.009.971 1.801-1.108 2.008-1.246 2.909-.139.901 1.246-1.108 2.147.762.899 1.871-.762.97-.693 2.563.069 1.594.624 1.662 1.456 2.632.831.97 1.245.623.761 1.87-.483 1.247.484.9.832 2.424.347 1.524-3.464-.484-1.94 1.178 1.524 1.663 2.287.485 3.187 1.524.901 1.04-1.731 1.455-.138 1.731 1.593.277 3.948.346 2.7 1.178-1.247.831-1.314 1.524.832 1.731 2.147.208 2.841-.346 4.435-1.177 1.592-.831 1.522-1.663 4.432-2.424 2.91-.763 6.443-.763 6.721-.832.277-.069-7.759 6.582-9.63 8.867 0 0-6.72 4.018-7.619 7.343l.277-.069c.209 0-.208 1.109 1.246 1.248 1.455.138 3.117.138 3.257-.416.138-.555-1.871-1.594-.416-1.386 1.453.208 2.493.208 3.464.347.97.138 3.601 1.316 3.046.138-.554-1.177-1.315-1.87-2.769-2.979-1.455-1.109 5.471-5.68 6.926-6.858s5.543-5.057 5.681-5.403c.14-.347.971.9 1.524 2.563.555 1.662 1.662 4.503 1.317 5.75-.349 1.248-1.248 3.325-1.248 4.78s-.277 2.563.068 3.325c.347.761.971-.97 1.802.623.83 1.593.554 2.84 1.801 3.187 1.247.348 2.285-1.455 3.117-.553.832.901 2.286 3.047 3.672 3.047 1.385 0 0-.276.97-1.386.969-1.108.415-.484 1.386-1.178.97-.692.83-.415 1.801.208.97.624 1.939-1.039 1.939-1.039s.971.9 2.009-.554c1.039-1.455.97-2.216 2.703-2.563 1.73-.347 3.115-.139 2.701-1.178-.416-1.039-1.316-1.593-.486-2.078.831-.484-.139-.692 1.455-.97 1.593-.277 2.217-.416 1.938-1.593-.276-1.178-.068-1.386.971-1.871 1.039-.485 1.179-1.248.9-2.078 0 0 3.533-.415 2.702-1.455s-1.731-.763-.901-1.801c.831-1.04 1.455-1.94 2.217-2.217.763-.277-.97 0 .208-1.04 1.179-1.039 1.663-1.593 1.316-1.939-.346-.346 2.563-.069 2.147-.97-.415-.9-.624-1.593-.624-1.593s-.83-1.108 1.04-1.385c1.87-.277 2.563-1.247 2.216-1.316-.346-.069-.761-.623-1.177-.762-.415-.139.347-.416 1.316-1.455.969-1.039 1.108-.832.761-2.009-.346-1.178-.484-1.04 1.524-2.563 2.012-1.524 4.088-2.908 2.702-2.908zM78.654 52.684c-2.544.637-10.083-1.998-10.083-1.998 4.179-6.268 11.627-8.72 11.627-8.72-2.055-3.123 2.358-6.69 3.219-7.342-.257.055-.968.025-2.946-.47-3.271-.816-3.634-1.725-3.815-2.724-.181-.999 1.817-2.544 1.817-2.544s-.727-.363-1-1.726c-.272-1.361.727-.817 1.453-2.997.726-2.18-.817-1.907-2.452-3.27-1.634-1.362.546-4.633.546-4.633-1.272 1-3.906 2.361-5.359 1.908-1.453-.455-1.181-1-1.907-.182-.727.817-1.635 2.361-1.635 2.361-4.814 2.725-7.084-1.635-7.084-1.635-.546 3.542-2.998 7.356-2.998 7.356-.272 1.362-3.633 7.356-4.359 7.63-.727-.727-.091-1-.454-3.815s1.726-9.445 2.271-11.354c.545-1.906 1.544-6.63 1.544-6.63-2.815 1.635-5.632 2.271-5.632 2.271-3.179-1.182-4.541-8.538-4.541-8.538l.091-.455C43.232 8.902 42.688 0 42.688 0c-.273 4.723-3.542 7.267-4.36 7.267-.817 0-2.633-1.363-2.18-.817.454.545.636 4.087.636 4.087.091 5.631-1.453 8.266-2.452 8.266-.999 0-3.724-3.725-3.724-3.725-.999 1.271 0 4.724.181 5.994.183 1.272 2.09 6.358 2.453 7.357.363.999.363 6.448-.273 6.54-.635.091-1.725-1.09-2.542-1.726-.817-.636-1.271-6.722-1.271-6.722-.999.091-2.089-.272-3.271-1.09-1.18-.817-1.271-3.27-1.997-4.813-.728-1.544-1.091-4.36-1.091-4.36-.182.817-2.181 3.18-2.181 3.18-.635.908-1.906.817-1.906.817-1.816-1.907-3.27-2.726-3.27-2.726-.908-.999-2.997.182-3.814-.363-.818-.544-1.091-.363-1.091-.363 1.727 5.904-.817 6.268-.817 6.268-2.634.182-1.634.363-1.634.363 1.906 1.726 3.723 5.541 3.723 5.541 2.271 6.176-3.179 6.993-3.179 6.993-2.725 0-3.906.545-3.906.545 1.363.454 3.452 2.543 3.452 2.543 1.544 1.181 1.999 3.542 3.088 3.905 1.091.363 2.362 1.816 3.906 2.362 1.544.545 3.36 3.814 3.36 3.814 1.726 1.816 1.453 3.542 1.453 3.542-1.09.454-3.996.727-3.996.727-4.542 1.09-5.904.182-5.904.182C8.265 57.948 0 59.582 0 59.582c13.26 2.271 9.537 6.813 9.537 6.813.907-.636 5.903-.182 5.903-.182 2.725 1.544-.455 6.903-.455 6.903 7.63-4.814 13.171-4.178 13.171-4.178 1.816.727 1.362 3.542 1.362 3.542-.454 1.362.635-.183-1.635 7.447 1.543 0 4.178-3.633 5.813-4.541 1.635-.908 6.721-4.359 6.721-4.359 1.203-2.806 2.306-3.251 2.805-3.292-.096 1.7-.24 4.071-.352 5.018-.182 1.544.454 3.542.545 4.269.091.727.272 3.36.545 4.905.272 1.544.363 6.448.363 6.812 0 .364 1.362 0 1.362-.545s-1.453-7.357-1.453-8.992c0-1.635 0-5.54-.091-6.903-.063-.927-.039-2.865.182-4.409 2.259.631 2.998 3.411 2.998 3.411 3.904-1.817 8.81 5.177 8.99 3.814.183-1.362 2.727-1.271 5.269-.908 2.543.363 4.995 2.452 4.995 1.907 0-.545-1.634-2.089-1.634-2.089-3.815-2.453-3.725-6.722-3.725-6.722.454-3.633 8.629-.544 8.629-.544 3.634.998 4.27-1.272 4.27-1.272-1.817 1.362-1.817 0-1.272-1.453.546-1.453 1.09-.182 2.452-.817 1.362-.635 4.178-3.271 4.178-3.271 4.27-1.997 6.903-1.906 6.903-1.906-9.721-1.269-7.722-5.356-7.722-5.356zM-30.531 45.664c0-.65-1.679-1.404-2.399-1.781.653-.755-.445-1.887-1.166-2.023.137-.65-1.302-1.68-3.36-2.331.583-1.782-.855-2.091-1.849-2.057.24-.651-2.401-.822-2.95-.685-1.371-.995-8.124 1.232-8.124 1.232s1.268-2.192 2.708-3.702c1.44-1.508 2.467-3.736 2.467-3.736s2.092-1.886 2.571-3.153c1.269-.617.721-2.571.446-3.222.446-.035.41-1.407.959-2.983.549-1.576.479-1.92.479-1.92s1.03-2.502.516-3.223c.375-1.474-2.057-2.879-2.057-2.879s1.336-3.051.959-4.012c.274-.822-.479-2.158-1.269-2.536.342-.549.104-2.126-.377-2.812-.479-.686-.274-1.852-.651-3.258-.377-1.404-1.235.036-2.092 1.133-1.439-.104-2.947 1.816-2.947 1.816s-.412-.754-.721-.856c-.308-.104-1.233.273-1.44 1.164-.824-.205-2.365 1.75-3.154 2.469-.617-1.233-3.153-2.159-3.153-2.159s.104-.206-.103-.515c-.892 0-2.092 1.201-2.571 3.018 0 .137-1.029.778-1.508 1.602-2.057.856-2.88 3.829-2.88 3.829h-1.507s-.446-.229-.755.49c-.308.721-.891 1.789-.891 1.789s-.136-.359-.344.053c-.136.961-2.262 4.26-2.262 4.26s-.994 1.84-1.336 4.068c-.342 2.228-1.851 4.363-2.846 5.736-.788-6.173-3.872-10.708-4.558-10.948-.137-.754-2.401-3.878-3.155-3.811-.24-.686-1.577-1.443-2.022-1.478 0 .377-1.337.648-1.714 1.336-.342-1.303-3.635-2.71-3.703-2.197-.445-.238-2.16-1.164-2.332-.136-.068-.274-1.199-.479-1.953-.479-.755 0-1.954-1.439-2.161-1.611-.204-.172-.376-.103-.479.274-.104.376.205 2.467.822 5.313-.892.24-.72 2.434 0 4.696-.994-.034-1.474 2.023-1.098 3.703-.547.445.311 4.422.618 5.827-.96.617-.789 2.193-.789 2.193s-.651.377-.721.755c-.068.377.686 1.714.686 1.714s-.308.138-.035.583c.069.822 2.469 4.113 2.469 4.113l-.069.789s2.745 2.674 3.737 3.736c.995 1.063 2.264 3.051 2.264 4.354-2.95-.205-5.932 2.709-5.657 3.086-.172.069-1.781 1.749-1.749 3.359-1.267.926-2.296 2.263-2.296 2.263l1.062 1.131c.651 1.44 4.8 2.777 4.8 2.777s-.035.309.068 1.132c4.08 2.503 7.747 1.473 10.901.034.035.719 1.132 2.124 2.092 3.428 1.61-.034 1.782-1.783 1.817-4.354.515.411.788-.239.824-1.198.035-.96-.687-3.224-.687-3.224-.035-.787 2.194-.411 2.332-.344.069.035.313.216.862.635-2.36 6.469-10.407 29.307-10.688 30.853-.35 1.916 1.468 2.629 1.468 2.629l9.65-33.154c.493.375.938.718.938.718l-.035.377c-.344 3.018-.618 8.468 1.371 9.462.926.891 2.092-.584 2.092-.584l2.674 2.505.375-.378 3.977 1.576.412-1.028 3.429 1.544s.068-.172.103-.687c.89.207 2.502-1.646 3.461-3.324.959-1.681-.959-5.382-.959-5.382s5.553.272 8.501-.069c2.948-.344 1.748-1.304 1.748-1.304s1.131-.136 3.018-.377c1.885-.24 1.713-1.028 1.713-1.028s.377.034 1.337-1.336c.959-1.372 1.063-3.086 1.063-3.086s1.199-.137 2.365-1.577c1.164-1.438.994-2.674.994-2.674s1.234.035 2.16-.31c.926-.342.892-1.404.892-1.404s2.366-.618 2.811-1.132c.447-.514-.135-.856-1.439-1.097zM-163.517 42.157c.269-1.726-1.195-8.477-1.587-9.858-.395-1.382-3.262-6.458-3.262-6.458l.021-.155c-1.185-5.218-3.813-6.979-3.813-6.979-2.16-5.414-7.072-13.819-7.39-15.787-.319-1.967-1.39-1.96-1.39-1.96-2.711 13.348-17.231 22.54-17.231 22.54-5.32 3.67-10.233 8.603-10.233 8.603-1.466 2.523-5.239 5.249-6.487 6.088-1.25.838-1.787 1.696-2.774 2.711-.986 1.015-2.002 2.811-2.522 4.099-.523 1.289-2.095 3.695-2.095 3.695a4.67 4.67 0 0 0-.423.989c-.375 1.255-.3 2.748-.475 5.268-.221 3.206.603 5.689.603 5.689 2.724 18.802 16.689 13.744 16.689 13.744 2.579-1.569 6.368-.704 6.368-.704.373 3.759-8.083 13.326-8.083 13.326.884 1.255 1.952.375 1.952.375 3.093-4.098 7.993-12.813 8.906-13.267.915-.453 2.247.288 2.247.288 4.12 6.806 7.621 6.756 9.726 7.025 2.106.271 3.89-.286 5.127-.483 1.238-.196 4.201-1.601 5.599-2.491 1.398-.89 1.999-2.24 2.854-3.343.855-1.104 1.651-3.053 1.651-3.053 4.377-5.573 4.415-9.944 4.415-9.944-.432-2.195.301-5.668.301-5.668 2.567-9.658 1.038-12.565 1.306-14.29zM131.368 88.019s-2.06 5.768-1.791 7.378c.269 1.611 1.541 1.575 2.158.449.615-1.123 1.745-7.197 1.745-7.197 16.855 7.973 34.407-20.469 34.407-20.469 8.186-13.81 9.005-29.249 9.005-29.249 1.053-1.779-.048-11.944-.048-11.944-.581-.944-2.707-9.947-3.409-10.958-.699-1.011-2.106-7.896-2.106-7.896-4.404 2.605-12.857 3.154-13.946 4.283-1.089 1.129-5.568 2.439-5.568 2.439-17.121 13.52-22.868 25.738-22.868 25.738-.799 4.895-2.459 8.219-2.459 8.219-9.359 26.549 4.88 39.207 4.88 39.207z"/></svg>