<svg xmlns="http://www.w3.org/2000/svg" width="95.721" height="79.944" viewBox="0 0 95.721083 79.944076"><path d="M93.714 52.568l-.434-.239 2.441-3.599-2.475.014-.505-.83-1.058-.496-2.302-.457 2.53-2.19-.522-.313 1.72-1.914-1.377-.885 1.96-2.02-1.27-.323.461-1.06-.543-.12-.096-1.67-3.813-.28.105-2.726-.992.162.114-2.789-1.403.024L84.7 29.14l.323-1.955-1.418-.465-.15-1.773-.273-1.525-5.377 3.016-.693-.915-1.819 1.284-.6-.513-1.352 1.82-3.003-1.927-.7 1.17-.697-2.839-2.463.213.168-2.036-.422-.009-.154-2.392-1.522.24-.34-1.987-1.5-.149-1.21-2.074-.737.513-1.884.791-3.642.762-1.429-1.36.09-1.409-1.406.398-.509-1.76-.669.324-1.68-2.268-2.457 1.125-1.587-2.21-1.034.094-1.019-2.055-1.09.187-1.714-1.928C35.89-1.793 34.033.173 34.033.173c.103.937-.24 9.353-.434 9.823-.194.47-.459.198-1.137.13-.677-.067-.344.505.307.861.647.358.398 1.896.398 1.896l-1.17-.019.964 2.098-3.366-.204.182 2.103-.779-.013 1.168 2.004-1.69-.038.136.601.39 1.341.058 2.024-1.714-.429-.569.464-2.515-.25.174.864-4.384-.434 1.614 2.114c-1.747 1.195.113.86.113.86 1.696 1.925 1.096 2.061 1.096 2.061l-1.56-.024 1.444 1.185.511.767 2.027 1.893-2.315.358 1.208 1.292-.11 1.097 2.041 1.438-.89.433 1.116 1.22-1.29-.129.013 1.173-2.774-.925-.269.755-2.716-.205-.474 3.47-1.987-.326-.219.238-1.953.001s.013.524-.768.512c-.78-.013-3.038-.236-3.038-.236l-.115 1.161s-1.38.124-2.909.428c-1.528.304-9.717-1.158-7.456.304 2.268 1.46 4.527 4.291 4.527 4.291l-.426 1 1.168.051 1.627 1.983.606-.85 1.394 1.7-1.45.833 4.35 2.125-1.542 1.085 5.424 1.123-2.688 2.144 2.633 1.042-.283.884 2.696.397-.678.91 5.362.466-.81 1.612 8.93-.092-3.376 3.182.38.754s-3.054 2.563-3.39 2.66c-.336.098 7.714 1.025 7.714 1.025l.084 1.116 6.256-.032.02 1.761 4.7-2.075.338 1.205 4.317-2.176c.002 1.953.505 2.131 1.39 1.765.692-1.754 2.3-.879 3.292-1.042.994-.162 2.668-3.904 2.65-2.408-.02 1.498 1.393.4 1.393.4 1.702-5.369 6.24-9.087 6.24-9.087.115-.622.276-1.109.467-1.492.93 1.242 9.413 12.166 24.125 17.876l3.002 1.898 1.037-3.384s-1.427-.884-3.693-1.45c0 0-7.79-1.573-16.628-9.476 0 0-3.819-3.805-6.157-6.656 1.356.003 2.792 1.413 2.792 1.413l1.012.297c1.012.296 3.98.59 4.721.99.744.398 3.66 1.207 3.66 1.207l.265-.038c.262-.039-.396-1.277-.022-1.11.375.168 3.213 1.427 3.615 1.661.4.235.54-.858.54-.858 1.817-1.252 3.14-1.448 3.234-2.415.097-.967-1.999-.849-2.006-1.436-.007-.587 5.404.014 5.404.014l-.25-.74 3.332-1.429-.885-.935c-.883-.932 2.91-3.03 2.91-3.03zM-65.879 175.105s-4.209 1.403-1.276 16.713c0 0-.81 2.808-2.425.682 0 0 0 4.508-.849 5.443-.853.937-.766.767-1.362.085-.593-.68-.17 1.276-3.148 2.297-2.977 1.021-4.166 1.785-4.593.255-.426-1.53-.509-3.657-.762-4.509-.257-.849-1.706.852-2.469 1.191-.766.34-.509.596-1.954 1.275-1.45.682-2.469 2.296-3.575 1.106-1.105-1.19-.683-1.616-1.019-2.637-.344-1.02-.597-.767-2.385-.937-1.786-.169-3.4-2.296-3.23-2.976.17-.68 0-.342 0-.342s-3.318-.254-3.4-1.954c-.088-1.702-3.405-.088-2.896-2.979.51-2.893 4.51-6.465 6.295-7.06 1.785-.596-.34-.17.766-1.105 1.106-.937 5.782-1.275 5.782-2.808 0-1.53.17-1.615-3.487-1.7-3.657-.085-4.337.51-6.805-1.446-2.465-1.956-4.593-2.298-5.016-3.488-.427-1.19 3.317-4.167 4.336-4.423 1.023-.256-6.295-3.656-5.442-5.869 1.445-1.53 1.528-1.104 2.038-1.104 0 0-4.676-3.23-4.846-5.273 0 0-.853-1.617 1.785-1.957 0 0-3.827-3.232-2.464-5.529 0 0 .723-.592 1.532-.735a2.12 2.12 0 0 1 .336-.03c2.638.086-1.103-2.04-.592-2.21.51-.17 1.105-.257 1.105-.257s-2.638-4.763-1.022-8.335c0 0 4.083-.68 7.658 4.593 0 0 .252-.51 1.188-.51.937 0 2.638 2.98 2.895 4.422.253 1.447 2.125 1.787 2.125 1.107 0-.68 1.275.595 1.446 2.297 0 0 5.615 6.208 7.57 8.675 0 0 3.231.255-3.487-6.89 0 0-2.21.257-5.529-5.444 0 0-5.02-4.593-3.487-5.188l.85-.51s-3.148-7.995-2.634-8.59c.51-.598 3.657-1.192 12.673 3.486 0 0 .253-.682.592-2.467.344-1.787-1.105-3.913-.422-5.018.68-1.108 2.381 0 3.827.338 1.446.342.936-1.188 1.533-2.892.592-1.7 2.125-.425 2.717-.255 0 0-.083-2.808.94-3.4 1.02-.598 1.784 2.125 2.041.508.253-1.615-.173-3.315 1.36-2.72 1.531.595 1.361 2.466 3.4-.683l1.874-3.147 4.42 4.85 2.297.17.084 4.423s1.45 1.7 3.913.51c2.465-1.19 1.702 2.127 1.615 2.894-.083.764.087.426.087.426s2.891-3.574 6.465-1.447c0 0-.086 5.274-.086 6.378 0 1.106 2.978-3.23 5.868-3.4 0 0 3.658-1.362 5.02.51 0 0-1.275 4.763-1.275 5.953 0 1.191.596 1.448.935 1.448.34 0-1.958 1.358-2.127 1.955-.17.597-.597.597 0 1.275.596.681 1.445.426-2.722 3.914 0 0 .34.34-.426 1.021-.763.68-3.827 3.485-4.506 4.678-.68 1.19-1.533 3.657-1.019 4.508.51.85 4.08-1.956 5.016-5.273 0 0 3.061-4.424 3.997-4.594.94-.169.94.682 2.894-1.02 1.955-1.7 2.212-3.403 2.805-2.808.596.596 1.023.765 1.79.596.761-.17 8.42-2.042 9.524-1.53 1.106.51.17 6.377.767 7.315.596.934 2.974.424 2.551 1.954-.427 1.531-1.362 2.722-1.955 3.231-.596.511 1.102.427 1.7 1.704.595 1.273-.767 2.635-1.873 3.23-1.102.597-.766.17-.766.17s2.128.851 2.128 3.147c0 0-5.529 1.701-4.763 2.806.766 1.106 6.465 1.617 5.02 3.402-1.446 1.787-8.08 3.404-8.424 4.17-.339.765 6.125 2.381 8.254 5.698 2.125 3.317-9.103 4.593-9.103 4.593s1.275 0 .427.596c-.85.595-6.382-1.532-7.484-1.7-1.106-.17-3.49.425-2.725 1.104.766.681 7.144 2.212 9.36 3.063 2.207.851 5.355 1.445 5.355 2.636s-2.975 4.508-3.658 4.678c-.679.171-1.275.682-.596 1.533.683.85.766 1.021-1.02.85-1.785-.17-1.019.765-.766 1.19.256.426-3.574-.256-4.423.341-.849.595.85 2.976.257 3.232-.597.255-5.02-1.702-5.956-1.957-.936-.255-4.676-3.063-5.699-3.063-1.019 0-1.532-.425-1.955.512-.427.934.17 3.23-.68 3.827-.853.596-3.657-.17-4.85-.852-1.192-.68-2.552-1.105-2.89-1.53-.344-.425-2.726-1.787-2.726-1.787s-1.019 2.212-1.616-.764c-.594-2.976-1.187-16.074-4.548-15.862zm33.034-203.392c-8.314-7.927-17.146-15.38-25.758-22.978 4.954.591 10.386-.296 14.242-3.669.781.067 4.053-4.033 4.021-4.396-.26-.086 2.462-5.52 2.431-6.117.274.123.56.142.856.056a9.983 9.983 0 0 0-.319-1.827c.101-.146.91.6.854.162-.333-2.67.413-5.367-.459-8.229-.423-1.387-1.627-5.63-1.469-7.31.154-1.63-1.046-5.168-1.662-6.708-.07-.188-1.818-5.853-2.14-5.425.208 1.156-.193 1.551-1.204 1.188-.004.212.408 2.11-.193 2.072-1.038-.063-8.313-1.34-8.69.166-1.07.062-.085 1.54-1.73.337-1.61-1.274-.866.822-1.9 1.082.574 1.802-1.746 1.58-2.939 2.03-9.505 3.584-14.678 16.937-11.33 26.43-1.626-1.58-3.486-2.997-5.278-4.4 1.496-2.106 3.998-6.498 3.78-9.268-.459-2.794.683-4.919-.408-7.49-1.536-3.62-3.316-7.847-6.284-10.568.587.538-3.272-2.028-3.167-3.014-.062.58-.04.46-.719-.455.957 1.99-1.746-1.354-1.557-1.154.005.185.18 1.12-.203 1.17-.753.1-8.11-8.313-6.009-4.16-1.39.188-3.89-.686-5.006-.749-1.318-.074-5.283-2.754-5.89-2.585-1.047.29-.14 1.98-2.572 1.554-1.776.01-1.66 1.127-3.418.601-1.549-.464-3.452 1.741-4.383 2.45-2.327 1.774-2.994-2.16-4.049-.476a4.795 4.795 0 0 1-2.099-1.574c-.36.192-.833 4.456-.456 3.503-.167.42 2.398 6.35 1.07 4.845.48.698.813 1.453.996 2.266-.05.162-.726-.395-.73-.175.2.587 1.928 9 2.383 8.601-.069.061-.87-.642-.849-.477-.429-.045 2.996 6.754 1.257 4.324.397.534.675 1.117.833 1.748.03-.036-.266.118-.25.135a8.751 8.751 0 0 0-.708-.832c-1.229 2.31 6.515 7.86 6.265 9.798-1.622-3.074 3.113 3.223 3.56 3.572.183.143-1.062-2.01-.837-1.656-.239.225 5.801 4.233 5.395 4.27.058-.22.063-.44.017-.665.582.08.977.464 1.184 1.154-1.193-2.57 1.843 1.44 2.232.933.15-.196 4.528.91 5.665 1.056 4.111.532 10.193-2.613 13.377-4.876 1.027-.745 11.708 9.996 12.978 11.146-.252.278-1.806 1.505-1.714 1.457-.647-.91-6.4-6.959-6.796-6.104-2.095-2.188-5.89-.78-9.044-1.714-2.545-.282-8.702 1.807-10.19 2.742-.645.405-7.057 6.574-5.775 6.798-2.235-.39-6.68 8.843-5.633 11.564-.88-.877-1.198 3.64-.855 4.831.963 3.346-2.053 2.498-2.665 4.077-.435 1.122 1.223 1.613 1.73 1.892-.11-.507 7.166 1.124 7.63 1.631-.536-1.166 1.173.51 1.341.56-.473-.138 1.055-.755.306-.846.496.061 1.355.94 1.766 1.19a4.53 4.53 0 0 0-.106-1.155c.23.003 1.8.798 2.08.796.438.388.878.773 1.321 1.157.166-.095 4.27.612 4.183.682-.298.24.551-1.486.712-1.423 1.36.53 1.711.417 3.05.783.328-.448.24-.903-.268-1.367-.018-.147 1.886 1.77 1.813 1.708.101.084-.246-1.004-.236-1.083.057-.457 7.767-.409 6.853-3.225.252.287 3.387.068 3.421.041.42-.328.557-1.12 1.483-1.768.815-.578 1.118-2.6 1.674-2.136-.595-1.249 3.09-3.075 3.275-3.425.295-.556-.664-2.076-.317-2.649.836-1.382 1.112-4.677 1.48-5.953-.158-.604-.4-4.007-.848-4.379-.156-2.135 2.387-1.965 1.302-3.798 6.604 6.03 13.256 12.01 19.887 18.011 2.364 2.14 4.728 4.282 7.096 6.418 1.073.966 4.263.18 3.313-.729-.51-.487.898.858 0 0zM292.47-63.534l-.596-.143.036-.19 2.048-6.027-1.117-.43.632-5.834-1.153-.144-.073-3.107-.894.19.224-3.3-.93.191-.375-3.49-1.189.333s-.93-3.442-1.116-3.777c-.186-.334-1.34.623-1.34.623 0-1.674-.968-4.4-.968-4.4s-1.86.766-1.86.478c0-.288-1.823-3.299-1.823-3.299s-1.488 1.386-1.749.67c-.26-.719-.67-1.962-.67-1.962s-.856.43-.782.191c.074-.239-.969-1.578-.969-1.578s-.894 1.53-.929 1.004c-.038-.526-1.676-2.917-1.714-3.06-.037-.143-1.227 1.34-1.227 1.34 0-.432-1.229-2.2-1.267-2.345-.036-.144-.558.862-.819.622-.26-.24-.968-1.196-1.19-1.1-.224.095-1.117 1.387-1.117 1.387-.632-.958-3.113-2.47-3.113-2.47s-.198 1.02-1.29.572c-1.637-1.02-3.227-3.507-3.375-3.762-.147-.255-1.092-.702-1.092-.702 1.24 5.484 0 7.334-.148 7.523-.147.192-1.34-.636-1.34-.636s-.693 1.658-.842 1.977c-.15.32-.25 1.274-.498 1.211-.247-.063-1.24-.063-1.24-.063-.595.956-1.34 2.933-1.34 2.933l-1.39-.574c-.99 1.34-.843 3.954-.843 3.954l-1.738-.446-.347 3.507c-.695-.575-1.539.254-1.539.254l-.445 2.933-1.339.287-.969 2.871-1.043.67c-.148.765-.073 3.538-.073 3.538l-.893-.479c-.598 1.914-.076 4.782-.076 4.782l-.817-.19.371 4.303-.818.287 1.413 4.21-.67.381 1.563 4.208-.52.288 2.381 4.877-.37.286c-.152.958 2.975 4.783 2.975 4.783l-.52 1.147c.52.097 4.092 3.54 4.092 3.54l-.072.574 1.29.892c1.49 1.913 10.322 7.014 10.322 7.014l6.352 7.141 1.687 11.987s.496-.892 1.092-1.275c.456-.293 1.588-.128 1.588-.128-1.153-.765-1.34-2.727-1.34-2.727-.56-1.338-1.006-7.077-1.006-7.938 0-.86 2.085-3.873 3.314-5.786 1.227-1.914 3.162-5.69 5.954-7.46 2.792-1.77 5.77-9.325 5.806-9.468.037-.145-.075-1.1-.075-1.244 0-.144.261.047.261.047l2.384-4.974-.635-.143c2.232-2.868 1.898-5.355 1.898-5.355zM-42.666 86.847s-2.476-.823-2.947-1.179c-.47-.354-3.417-3.065-4.833-4.244-1.414-1.178-4.243-1.885-7.072-5.775-2.83-3.89-6.484-9.077-8.605-10.138-2.12-1.06-6.367-.354-7.19.707-.826 1.06-5.069 5.07-5.54 5.423-.473.353-7.9-.708-7.9-1.18 0-.47-5.068 1.415-5.068 1.415s-4.126-.119-4.362-1.415c-.236-1.296-2.71.354-5.54.708-2.829.354-14.972.59-14.264.118.708-.472 6.72-5.894 9.313-7.309 2.593-1.415 7.897-4.126 9.666-5.187 0 0 2.711-2.123 2.946-2.592.237-.473-3.654-1.18-5.304-.708-1.65.47-2.829-.119-4.126-.119-1.297 0-10.256-.354-10.256-.354l-2.357-4.243-5.422-1.534-9.313-9.194s5.54.12 7.544-.354c2.005-.472.353-3.536 3.301-3.3 2.946.234 4.832.353 5.54.353.707 0-6.72-3.065-8.134-5.422-1.416-2.358-2.24-3.536-2.004-4.362.236-.825 3.654-2.357 4.833-2.24 1.18.12 3.183-.118 1.298-2.357-1.886-2.24-5.07-5.069-4.126-5.659.942-.589 2.711.354 3.065 0 .354-.354-.119-1.414-.119-4.95 0-3.539.354-7.19-.944-9.549-1.295-2.359-1.768-6.365 1.063-4.244 2.828 2.122 3.89 3.772 8.487 4.244 4.598.471 4.715-.59 6.602.943 1.887 1.533 2.24-.943 2.475-2.004.236-1.062 4.48 2.83 5.423 6.248.943 3.417 3.655 1.18 3.066-2.477-.592-3.654-1.653-8.25-.12-6.6 1.533 1.65 6.72 6.838 7.192 9.43.471 2.593 4.007 5.893 3.89 6.602-.119.707 1.886-2.123 2.946-4.125 1.061-2.006 1.18-5.54 2.477-5.54 1.296 0 4.833-1.18 6.717 5.304 1.888 6.482 4.834 8.958 4.362 14.617-.47 5.658-1.06 7.308-2.237 11.905-1.18 4.598-4.834 6.602-1.769 6.366 3.065-.235 4.48-6.248 5.894-7.78 1.414-1.532 7.662-10.49 8.134-7.427.47 3.065 0 5.07.235 9.786.235 4.714 2.004 5.54-.235 7.78-2.24 2.24-6.838 11.552-7.309 13.32-.47 1.767-1.532 2.24-.59 4.715.943 2.475-2.239.826 1.532 3.538 3.773 2.71 18.507 14.146 19.451 15.677.941 1.533.234 4.362.234 4.362zm78.371 112.169s7.552 3.167 6.068-10.244c0 0 2.575-6.559 2.273-1.178-.302 5.378-.985 11.666-4.502 12.855-3.517 1.188-2.017.575-3.839-1.433z"/><path d="M44.047 187.594l12.738.543-.186-1.675 8.325-2.905-.236-2.407 5.226-3.139s-10.257-1.812-8.54-2.513c1.714-.702 11.695-11.794 11.695-11.794l-3.06-.75s8.524-3.679 11.401-5.245c.55-.3.223-.51-3.36-.797-5.452-.435-11.472 1.94-11.405-.343.07-2.28 6.805-10.29 8.12-12.58 1.316-2.292-.137-.946-.867-.897-.733.048 3.8-9.064 3.868-11.345.066-2.28-12.58 8.4-13.919 8.196 0 0-4.256-.01 1.414-11.843 0 0 1.852-5.263-3.958.118-2.064-5.662-1.585-5.107-1.585-5.107s.65-10.028-3.053-10.516c0 0-1.062 7.193-2.037 9.093-.972 1.902-4.1-2.075-4.1-2.075s1.373 5.194 1.081 6.313c-.292 1.122.341 5.117-.292 6.63-.634 1.51-6.122 4.005-7.65.876-1.53-3.128-5.439-7.785-5.439-7.785s-.312 9.64.342 10.62c.65.985-.372 2.155-.372 2.155s.458 3.567 1.463 5.41c1.002 1.842 3.597 8.79 1.403 8.936-2.193.147-16.158-8.907-16.158-8.907s5.641 6.451 2.25 7.34c-3.39.886-4.433-.438-4.433-.438s10.641 18.672 13.146 19.9c2.505 1.228-1.696 3.196-4.638.896-2.943-2.299-4.854-4.522-3.929-1.647.925 2.875 2.146 4.631 1.287 4.98-.856.353 5.604 12.476 14.261 13.44m127.773-59.607c.088-.114.03-.24-.105-.085.022.106.055.15.105.085zm20.719 42.259a1.233 1.233 0 0 0-.229.044c.412 0 .58-.07.23-.044z"/><path d="M189.261 170.581c-1.303-.712-.13-1.009-1.909-1.289s-2.422-.339-3.292-.574c-.874-.234-.612-.904-1.532-.887-.919.018-2.183-.556-4.446-.014-2.269.543-3.838 1.545-3.93.677-.092-.869-.014-2.293 1.334-2.817 1.345-.524 3.222-.749 3.875-1.08.654-.33.893-.219 1.256-.738.362-.518.412-.77 1.432-.965 1.021-.193.768-.243 1.545-.879.78-.634.705-.255 1.32-.725.616-.47-.193-.69.892-.546 1.084.145 1.483-.563 1.581-1.067l.1-.505s1.56-.613 2.061-1.17c.5-.558-.133-1.008-.163-2.192-.03-1.185.571-1.265.807-2.462.231-1.198.622-1.517.231-1.198-.388.317.541-.42.698-1.566.158-1.148.236-.544.158-1.148-.079-.604 1.623-2.629 1.148-4.228-.475-1.599.008-1.047-.556-.174-.563.872-2.044 1.763-2.698 1.766-.657.003-1.203-.889-1.846-.62-.64.27-1.48 1.218-1.837.363-.359-.855.023-2.482-.477-1.926-.502.558-1.935 1.194-2.11 1.423-.175.23.06-.97-.92-.31-.98.66-1.522.752-2.112 1.096-.59.343-1.412-.145-1.687.588-.273.732-.776.635-1.063 1.43-.287.795-1.187 2.061-1.774 2.732-.59.671-2.047 1.763-2.677 1.64-.63-.122-1.272.146-1.339-.522-.067-.668-.598-.967.38-2.282.974-1.316 2.334-1.903 2.605-2.636.272-.732.336-1.049 1.051-1.695.715-.646 1.306-.663 1.857-1.144.553-.482 1.252-1.72 1.83-2 .578-.28 1.31-.008 1.232-.613-.08-.604-.245-.768.636-1.25.88-.484 1.41-.514 1.028-.914-.38-.4-.966.925-.42-.867.544-1.792 1.763-2.34 1.838-2.719.071-.379-1.08.836-.913-.7.17-1.539.591-2.7.828-3.245.236-.543-.174.23.346-1.438.521-1.666.862-3.76.862-3.76s-1.352 1.921-1.884 2.361c-.16-.018-.627.018-1.759.203-3.109.51-2.367.392-3.472 1.027-1.107.637-1.849.753-2.602 1.263-.755.508-3.65 3.283-4.332 3.085-.683-.197-.81 1.807-.888-.827-.077-2.633-.074-2.306.381-4.313.228-1 .442-1.434.58-1.588-.062-.27-.05-.987-.018-1.642.045-.907.105-1.223-.255-.704-.363.52-1.043.65-1.002-.915.042-1.562 1.343-3.207.037-2.546-1.308.662-1.573.351-1.786.766-.212.418-1.579-.96-1.57-1.68.007-.718-.2-2.004-.122-1.398.08.605-.493-.16-.774-1.066-.282-.906-.502-2.127-.539-1.938-.038.19-.276.405-.51-1.08-.237-1.486.961-3.938.021-3.14-.94.8-1.67.854-1.573 2.706.097 1.852-.098 2.861-.853 3.37-.753.507-.819-.16-1.383.714-.562.871-.856.028-1.125 1.416-.27 1.39-.37 1.565-.834 1.934-.466.368-1.313.006-1.589.412-.272.403-1.984.791-1.984.791s-.557-2.53-.71-1.055c-.158 1.476-.27 2.044-.327 3.014-.056.971.414 1.914.113 2.116-.302.205-.577-2.075-.302.205.277 2.28.187 4.094.188 4.421.003.33 1.385 2.3-.96-.12-2.344-2.42-2.298-3.655-3.513-4.153-1.212-.497-1.628-.38-2.16-.68-.529-.302-1.26.082-2.6-1.097-1.344-1.178-1.622-1.429-2.064-1.84-.443-.415-1.076-.865-.196 1.008.88 1.872.985 3.007.788 3.69-.197.68-.814.821-.52 1.664.296.843-.487.822-.487.822s.154.554.67 2.29c.512 1.736-.856.357.274 1.952s.35 1.574 1.831 3.04c1.481 1.466.833 2.452 2.075 4.136 1.245 1.681 2.82 4.018 3.19 4.81.37.791 1.265 3.258-.647 1.643-1.91-1.617-.479-.226-2.474-3.1 0 0-.622-.515-.966-1.433-.346-.918-.205-.629-1.52-1.605s-1.556-1.088-1.577-2.335c-.019-1.247-.033-1.513-1.393-1.58-1.362-.069-1.424.246-2.029-.002-.606-.25-1.52-1.277-1.52-1.277s-.149.43-.982.005c-.835-.424-1.1-.409-2.063-1.186-.962-.777-3.063-2.758-3.105-3.55-.04-.794-.126-.025-.037 2.545.09 2.571.432 2.834.188 4.095-.246 1.263-.326.33-.596 1.718-.27 1.39-.56 1.528-.277 2.435.28.905-.085.77.526 2 .611 1.232.087 1.917-.415 2.472-.5.558-1.119.372-1.29 1.257-.173.883-.3.53 1.094 2.11 1.395 1.582 2.116 1.918 2.371 2.622.258.704-.677.783.637 1.104 1.312.32 2.44 1.26 2.226 1.35-.215.09 1.253.964 1.253.964s.618.186 1.071.208c.454.022.455.35.811.55.353.2-.657.003 1.476.484 2.134.48 1.821 1.073 2.14 1.462.317.39 1.67 1.177 1.662 2.222l.078.277s.244 1.097.082 1.26c-.163.164-.94.8-1.243.676-.304-.124-1.634-1.038-2.292-1.689-.658-.65-.824-.816-1.644-.974-.82-.16-.696-.463-1.993-.519-1.298-.058-.568-.11-2.296-.316-1.729-.205-.012.063-2.737-.4-2.725-.466-2.267.54-3.077-.336-.81-.879-1.43-1.064-1.43-1.064s-.768.243.63 2.151c1.396 1.908 1.272 2.211 1.87 3.18.597.966.75 1.192 1.461 2.246.711 1.057-.376.583 1.095 2.112 1.47 1.53 1.081 1.52 2.55 2.722 1.465 1.201 1.582 1.617 2.266 2.143.685.525 2.213 1.085 2.213 1.085s-.327.33 1.125.938c1.453.61 2.236.96 4.19 1.34 1.955.38 4.588 2.33 5.795 1.845 1.21-.484.541-.417 3 .061 2.46.478 1.391.598 1.293 1.43-.096.832-.464 7.11-7.999 16.905 0 0 .834.098 1.185.296.355.2 1.293 1.103 1.293 1.103s6.323-12.322 7.083-16.232c.76-3.912 4.027-3.538 6.453-2.542 2.425.993 4.227.82 4.227.82l.16-.492.706.071 1.035.071s.29.187.402-.054c.111-.239.412-.77.866-.748.454.023 1.146.157 1.411.144.266-.015-.126-.023.832-.23.955-.207 1.41-.185 1.913-.414.502-.23 2.212-.945 2.604-.934.391.01.665-.396.953-.534.291-.142 1.098.081 1.473-.5.375-.582-.066-.668 1.191-1.078 1.26-.41 1.248-.019 2.313-1.12 1.065-1.103 1.342-1.18 2.424-1.689 1.08-.51 1.48-1.547 2.76-2.41 1.145-.772 1.747-1.437 2.383-1.609-.444-.006-1.176-.085-1.853-.454zm17.742-233.978c-.795-.066-2.518-.994-2.188-1.458.333-.464-2.316.794-2.979-.397-.662-1.193-.066-1.127.464-1.988.53-.86-.928-.729-1.324-.794-.396-.067 4.504-6.227 2.318-6.424-2.185-.199-5.63 1.458-5.364-.133.265-1.59 1.257-1.92 1.06-1.92-.2 0-1.192 1.192-.862-.265.332-1.458.927-3.313.927-3.313l-2.847-.065s.928-6.359.86-6.889c-.065-.529-2.25.795-2.517 0-.265-.794.663-2.714.066-2.583-.596.134-.86.598-.86-.065 0 0 1.522-3.643.794-4.505 0 0-.463.067-1.126.2-.662.131-1.06.595-1.126-.2-.066-.794-.529-3.577-.529-3.842 0-.263-.66 1.062-1.259.464-.595-.595.598-4.039.2-3.84-.398.198-.398-.199-.133-.862.203-.509.056-.43-.024-.368.213-.186 1.658-1.435 2.21-1.618.596-.2 1.722-1.524 1.722-1.524s-1.06-.199-2.45-.13c-1.393.065-3.444.33-3.975.593-.53.266-1.92.928-2.915 1.325-.993.398-2.119 1.325-2.184.132-.068-1.192-.397-1.787-1.325-.794-.928.993-3.313 2.583-3.313 2.583s.928-3.046-.33-2.119c-1.26.927-3.379 2.517-3.644 2.782-.266.265-1.854-1.855-1.723-2.518.132-.662-1.522 1.126-2.384 2.187-.86 1.06-.33 2.98-.993 2.12-.663-.863.133-2.319-.663-1.127-.794 1.192-2.119 2.782-2.384 2.385-.266-.398-1.458-3.644-1.855-2.65-.396.994-1.722 5.1-2.385 5.431-.66.331-.793-.465-.793-.465s-.86 2.783-1.39 2.584c-.53-.198-3.246-3.378-3.18-3.775.066-.397-2.187 6.424-2.915 5.96-.729-.463-1.06-.397-1.06-.397s.264 2.65-.265 2.915c-.53.263-2.583-4.04-3.18-4.637-.596-.596-.729.463-.729.463s-3.112-3.51-2.979-7.35c-.397-1.259-.266-.266-1.06.992 0 0-.929 5.961-2.187 4.371l.265-.729s-.927 2.32-1.788 2.583c-.86.266-.928-1.854-1.788-.662-.86 1.192.065 3.245-.927 4.835-.36.577-2.008.2-1.922-.927 0 0-1.258 4.57-1.258 5.033 0 .464-2.186-1.854-2.716-1.325-.528.53-.528 4.041-.662 4.836-.13.795-1.523-.132-1.72.398-.2.53.99 2.118.66 2.582-.33.463-4.106-.064-4.569-.86 0 0-1.126-1.456-.597.796.53 2.25-.397 3.576.53 4.503.928.927 1.722 1.457 1.391 1.79-.33.33-2.782-1.26-2.649-.134s2.583 3.178 1.391 4.105c-1.19.928-4.039-.33-4.77.663.663 1.59 1.723 3.708 2.253 4.438 0 0 .265.332-.663.463-.927.132 1.06 2.052 1.59 2.65.53.595-1.59-.53-1.59.396 0 .928 3.114 2.384 1.988 3.577-1.127 1.192-4.04.662-4.77.596-.728-.066.265 4.04 1.392 4.967 1.125.927-.132.397-.662.596-.53.2 1.521 1.458 2.118 2.65.597 1.193-1.126.265-.926 1.126.197.861 3.708 2.913 3.642 3.111-.066.2-1.324 1.723-1.324 1.723s4.304 2.252 4.106 2.65c-.199.397-1.192-.266-.397.728.795.994 2.648 1.193 2.648 1.193s-.463 2.25-.993 2.45c-.53.198 2.12 2.516 5.231 1.59 0 0 .134.595 0 .993-.13.397.267-.464 1.722-.464 1.458 0 2.72-.463 2.253.265-.463.728 0 2.252-.992 3.113-.995.861 5.033.198 5.761-.265.73-.463.2.397.2.728 0 .33 1.788-1.39 2.583-1.589.795-.199-.795 1.523.795.73 1.588-.795 3.442-3.18 4.105-4.373.662-1.192 6.293-6.159 8.146-6.954 1.854-.795 2.383-.729 2.782-1.126.18-.18.4-.739.661-1.292.058.682.132 1.211.132 1.211.09 1.101.883 3.804 1.325 4.905.441 1.102 1.325 9.012 1.325 9.012.132 2.251.265 9.61.265 9.61l1.457-1.2s.31-2.304.221-6.208c-1.236-2.405-1.59-11.013-2.384-13.417-.607-1.834-.699-3.55-.669-4.884.398.49.521 1.46.183 2.33 0 0 1.59 2.186 2.716 3.444 1.126 1.258 1.457 1.457 1.523 3.246.066 1.788.86 4.106.86 5.497 0 1.39-.065 2.583 0 2.914.066.332 1.06-1.325.994-.462-.067.86 1.061 2.914 1.656 3.245.597.331.661-.53.73-.794.064-.265 3.244 2.716 4.501 1.855l.598-2.319s3.71 1.192 4.105.928c.33-.22.245-1.25-.095-1.522.821.234 3.603.98 4.334.528 0 0 .131-1.192.131-1.458 0-.263 4.24.53 4.24-.133 0-.662-.266-1.125-.266-1.125l2.253-.595-.266-.598s3.18-.86 3.444-1.456c.266-.596-2.186-2.915-2.517-3.378-.332-.464 4.106-.464 4.106-.464s-1.324-1.192-.795-1.589c.53-.397 3.643-.465 3.313-.927-.333-.464-.995-.397-.73-.663.266-.265 4.107-1.854 4.306-2.385.2-.53-1.06-.53-1.854-1.325l-.793-.794s2.252-.86 2.382-1.193c.134-.33-1.258-.529-1.058-.927.198-.397 3.441-.728 3.642-3.178 0 0-1.192.2-2.318-.596 0 0 .861-.465 1.392-.795.53-.33.133-.86.992-1.258.862-.397 1.525-1.59 1.525-1.59s-1.325-.928-2.055-.994c-.729-.066 3.312-2.384 3.312-2.384l-1.522-1.258 2.053-2.25-1.06-.399s2.053-4.833 3.443-6.026c1.396-1.194-4.034 1.255-4.829 1.19zM75.828-65.26c-10.146-4.508-10.709-.564-13.528-.187-2.818.375-2.818-.377-2.818-2.63 0-2.254 14.277-3.569 14.277-3.569 5.263-5.072 5.073-8.455 5.073-8.455 1.881-3.567-1.5-3.943-1.876-5.822-.378-1.88.186-3.007 2.815-4.32 2.632-1.317 1.506-3.195.19-5.263-1.314-2.065.562-6.386-.19-7.7-.749-1.314-2.066-4.509-2.066-4.509s-10.52-2.253-16.532-.564c-6.012 1.691-4.32 5.073-5.822 6.952-1.502 1.878-4.695-2.256-5.637-2.256-.938 0-4.505 4.51-5.447 6.202-.938 1.69.942 11.082 0 12.396-.938 1.316-2.44-.563-2.44-2.818 0-2.253-.379-7.324-2.065-10.707-1.697-3.382-10.338-12.586-10.338-12.586-9.393 6.575-13.524 13.714-14.652 16.53-1.127 2.818.375 9.207.564 10.708.19 1.503 2.443 5.823 2.443 5.823 0 5.261-1.127 2.068-1.127 2.068-4.699-10.897-14.84-6.764-14.84-6.764 1.501 2.255-.19 9.393-.19 9.393-2.065 23.107 8.641 25.172 8.641 25.172 1.506 1.502 5.637.754 10.521-.563 1.331-.358 2.375-.645 3.201-.875-2.752 3.186-6.167 6.835-7.252 7.811-1.912 1.72-12.555 12.326-15.11 11.467 0 0 2.555 4.298 2.342 6.02 0 0 12.342-13.187 14.896-14.62 0 0 4.675-4.722 7.898-8.399-3.67 15.908 4.452 22.012 6.426 20.576 2.066-1.5 1.876.188 1.876.188 3.193 4.133 16.532 3.946 18.972 2.067 2.444-1.878-1.687-9.204-1.687-9.204-3.382-5.637 0-3.946 0-3.946 7.324 9.204 12.023 4.507 12.023 4.507 3.941-1.314 5.632-2.629 6.95-5.26 1.103-2.209 1.69-2.254 1.69-2.254 7.703-2.816 7.14-6.95 9.205-9.955 1.944-2.83 3.057-10.486 3.18-11.375-.134.2-1.257.415-9.566-3.28zm9.579 3.193l-.013.087c.03-.044.013-.087.013-.087zm96.385 97.122l-.002.05c.004-.029.002-.05.002-.05z"/><path d="M199.93 48.73c-.67-.669-1.564-.39-1.564-.39-1.282-.727-4.018.167-4.018.167-1.227 0-.948 0-.893-.392.056-.39-1.45-.055-2.233-.167-.779-.112-1.45.112-1.73.112-.278 0-.056-.448-.67-.727-.612-.278-2.232.223-3.349.28-1.116.055-2.063-.057-2.567.223-.503.28-2.735 1.507-3.852 1.618-1.117.111-2.176 1.173-3.237 1.451-1.059.28-.949.502-1.339.614-.39.111.335-.614 1.116-1.228.781-.615 4.02-2.01 5.191-2.122 1.171-.11 3.014-1.896 2.68-2.51-.336-.615-.503-.502.277-.95.783-.445 1.564-.279 2.29-.67.726-.39 1.896-1.117 2.623-2.177.726-1.06-1.062-.279-1.563-.669-.503-.392.445-.448 1.51-.78 1.06-.337 2.006-1.397 2.565-2.459.557-1.059-1.06-.22-.894-.724.17-.502 2.344-1.173 2.344-1.173s-.334 0 .112-.224c.446-.223.446-.838.948-1.45.501-.613-.335-.445 0-.613.336-.168.838 0 1.395-.223.56-.224 2.457-2.625 2.291-2.512-.169.111-1.117.111-1.786.166-.67.057-.615.225-1.175.28-.557.057-.61.057-1.395.948-.779.894.335-.725-.502-.613-.838.112-2.232 1.395-2.232 1.395-1.73 1.452-.559-.445-.559-.445-.837-.503-1.786.558-1.786.558-.893.39-1.506.838-1.952 1.172-.447.335 0-.782 0-.782-.838.167-1.507.56-3.237 1.34-.963 1.823-.959.34-.95.05-.008.068-.059.19-.334.23-.392.054-1.285.724-2.12 1.282-.837.558-2.568 2.121-3.965 3.182-1.396 1.06-1.506 2.343-1.842 2.622-.335.28-1.507 1.284-2.008 1.62-.504.336-.448-.167-.335-.67.11-.502 1.563-1.17 2.063-2.065.502-.892 1.618-3.015 1.843-3.685.222-.669.837-1.842 1.618-2.344.781-.502.446-1.06 1.396-2.902.947-1.84 1.673-1.394 1.34-1.955-.336-.556-.56-.5-.279-.668.278-.168 1.116-1.06 1.172-1.509.055-.445.167-1.226.167-1.226s-1.62.836-1.507 0c.111-.838 2.01-1.786 1.674-1.843-.334-.055-1.228.56-.334-.724.893-1.285.446-1.843.223-1.788-.223.057-.56.334-.948-.055-.392-.392 1.786-3.125 1.506-3.016-.277.113-1.117.503-.949-.278.17-.782 2.456-1.84 2.232-1.787-.224.057-1.116-.055-.779-.39.333-.334 1.953-1.339 1.953-1.507 0-.167-.504 0-.28-.392.225-.39 1.452-1.005 1.396-1.396-.055-.39-.335.058-.278-.559.057-.614.726-2.064.726-2.064s-1.618.614-1.843 1.45c-.224.838-1.172.112-1.563.45-.39.332-.78.611-1.17 1.282-.393.67-.616.223-.67.392-.058.166-.335.055-.894.444-.559.392-1.676 1.62-1.843 2.512-.167.893-.668-.613-.668-.613-1.899.725-2.364 3.201-2.364 3.201-.373 1.04-.446-.747-.817-.299-.373.446-2.01 2.68-2.234 3.647-.223.966-.447-.744-.595-.225-.148.521-1.488 1.936-1.71 2.83-.225.892-.447.147-.82.967-.373.818-.818 2.38-1.488 2.606-.67.223-.968 2.307-1.489 3.572-.52 1.265-1.338 5.73-1.414 6.175-.073.447-.297-5.06.15-6.772.446-1.71.67-2.53.742-3.572.077-1.043-.52-2.157-.223-3.647.3-1.487.075-1.412.075-2.753 0-1.34-.707-2.38-.707-2.38.148-3.907-1.077-3.907-1.077-3.907-.113.67-1.64 3.31-1.007.893.968-3.87-.743-4.02-.743-4.02-1.266 2.047-.91.448-.91.448.222-2.066-.225-4.187-.393-4.075-.168.111-1.116.445-.95.224.17-.224.336-.672.336-1.119 0-.446-.502-.446-.336-.836.17-.392.17-1.228-.056-1.117-.222.112-.278.112-.389-.168-.112-.278.167-1.226-.225-1.84a6.062 6.062 0 0 0-.725-.95c-1.34 1.06-.335 2.567-.335 3.013 0 .447-.727-.78-.838-.278-.112.503.335 2.511.446 3.237.111.727-.947-.669-1.17-.167-.225.502.277 3.07.223 3.294-.056.222-.56-1.899-1.229-.17-.67 1.733-.037 3.52-.037 3.52l-1.189-.895s-.15.744-.3 1.19c-.148.447-.37.968-.67 1.563-.297.595.076 1.043.076 1.638 0 .596-.149 1.042-.149 1.042s-.299-.373-.745.074-.298 1.042-.446 1.266c-.147.222 0 0-.222.893-.225.894.743 2.976.743 2.976l-.446.745c-.447.744.296 1.043.296 1.936s.671 3.645.671 3.645-.223.895-.52-.668c-.298-1.564-1.044-1.713-2.01-2.904-.968-1.189-.67.374-.67.374-.597-3.052-3.424-4.392-3.424-4.392l-.262 1.303c-.482-2.01-3.16-4.616-3.272-4.094-.112.52-.559 2.978-.483 1.488.073-1.488-2.234-3.199-2.53-2.902-.297.298-.224 1.08-.522.708-.298-.373-2.494-3.127-2.604-3.014-.113.11.223 1.6-.224.892-.446-.707-1.639-2.902-1.749-2.27-.11.633-.382.214-.382.214-.584-1.423-1.507-1.312-1.507-1.312-1.45-1.089-1.396-.782-1.45-.447-.057.335.42 1.09.781 1.34.361.252.111.53.111.53.056.588.781.978.865.978.083 0 .53 0 .615.921.082.921.92 1.48.92 1.48-.336 1.283 2.037 2.874 2.037 2.874s.42.392-.14 0c-.558-.39-1.09-.335-1.09-.335-.194 2.177 2.254 3.954 2.254 3.954-.672-.446-.97-.223-.97-.223s0 1.19.373 2.83c.37 1.634 1.487 1.933.966 2.38-.52.446.894 1.712.894 2.083 0 .371 3.201 2.01 2.16 2.306-1.044.298 1.944 3.806 1.944 3.806-2.15-1.369-4.019-1.312-4.019-1.312l-.048.743c-.148-.408-3.387-1.525-3.906-1.6-.52-.074-.224 1.34-.634.484-.409-.856-2.94-.93-3.608-.817-.556.092-.144.564.016.724-.43-.323-2.849-1.157-2.919-.948-.075.224.187.968-.408.446-.596-.52-1.785-.968-2.047-.893-.262.075-.485.558-.485.558-.816-1.227-1.6-.929-1.6-.929-1.152-.894-2.828-.559-2.568-.446.264.111.783.781 1.192 1.375.41.597-.073.597.447.632.52.04.742.076.78.448.038.372.41.335.892.445.486.113 4.243 1.043 2.458 1.006-1.788-.036-.372.746-.372.746.447.221 2.306.817 3.422 1.115 1.116.297-.52.148-1.189.372-.67.223.073.373.818.895.744.52 0 .52.298.816.297.297 1.49.077 2.455.077.967 0 .225.52.15.966-.076.446-.969.073-1.564.223-.595.148.374.075.148.893-.223.818 2.011.148 1.862.372-.15.225-.744.521.521.521 1.266 0 3.35.743 2.16.743-1.194 0-.524.746.965 1.191 1.49.45.968.374.67.67-.297.297.893.671 2.307 1.042 1.415.372 1.042.15 1.042.15.298.074 1.34 1.562 3.722 1.86 6.177.893 5.877 1.637 5.877 1.637-3.27-1.86-5.58-.37-6.323-.37-.743 0 1.266-.746-3.199.667-4.467 1.414-3.945 2.011-4.467 2.382-.52.371-1.86.223-2.68.446-.816.224-.744.67-1.712.968-.967.298-1.19 0-1.71-.074-.522-.077-1.415.37-2.159.894-.744.52-1.116.52-2.009.816-.894.298-1.787 0-2.902.45-1.116.444 1.043.295 2.232.222 1.191-.075.744-.075 2.382-.15 1.636-.073 1.041.075 2.232-.297 1.063-.333 2.538-.398 2.71-.408-.197.011-1.03.631-.44.557.596-.075 2.047.335 2.418.26.374-.074 1.638-.26 1.378-.037-.262.223-.817.894-.37 1.041.445.148 1.375-.073 1.448.113.073.186-.334.445.224.333.56-.11 2.792-.707 3.237-.893.447-.185-.112.26-.93 1.08-.818.818 1.823-.558 1.71-.334-.109.223-.26.521.262.296.521-.224 2.827-.782 2.717-.482-.113.297.37.333.37.333s2.011-.594 2.792-.707c.78-.11 2.121-.706 2.902-.968.783-.259 1.451-.41 1.153.075-.297.485-3.945 1.34-3.945 1.34-.706.297-1.784 1.34-2.156 1.34-.373 0-2.418 1.154-2.492 1.524-.076.373 0 .894-.225 1.005-.223.112-1.749 1.377-2.232 1.86-.484.485-.11.857-.669.931-.559.074-.969.968-1.786 2.01-.82 1.042-2.94 4.466-2.458 4.056.483-.41 2.532-2.085 2.865-2.605.337-.52 1.677-1.116 1.677-.894 0 .224.073.45.52.04.446-.41 1.526-1.08 1.526-.782 0 .297.67-.077 1.376-.672.707-.595 1.19-.929 1.19-.929l-.038.147c-.036.15-.073.337-.26.857-.186.52.56.111.932.037.371-.074 1.396-.353 1.396-.353.39-.67.612-1.06.724-.725.11.335.837.28 1.673-.614.838-.894 2.373-2.344 2.373-2.344-1.618 1.786-.78 2.623-.78 2.623.056.56.976-.083 1.423-.474.446-.39 1.23-.362 1.23-.362l-.113-.057c3.423-2.753 6.847-8.223 6.847-8.223s1.024-1.599.911-2.269a.79.79 0 0 1 .038-.437c.333.508.627.951.744 1.106.334.446 2.344 11.498 2.566 13.731.224 2.231 3.183 17.414 3.183 17.414-.504 4.464.78 3.236.78 3.236.374 0 1.043-.446.97-.818-.076-.373.445 0-.373-2.158-.819-2.158-5.73-31.48-5.73-31.48s.15-.037.36-.112c5.596 6.282 11.416 7.387 11.416 7.387 1.34.39 1.508-.615.948-1.06-.557-.448 1.564.333 2.902.39 1.341.055 3.35.055 5.416-.112 2.063-.168.166-.727 1.34-.448 1.17.28 1.617.225 2.623.225 1.003 0 .948.167 1.898.39.947.225 1.337.67 2.12.781.78.114 2.121 1.173 2.121 1.173l-2.12-2.456c-.728-.836-1.23-.947-1.9-1.507-.67-.558-.557-.669-1.617-1.06-1.062-.392-1.675-.336-2.513-1.117-.837-.78-1.396-.613-1.396-.613-1.563-.614-1.117.31-2.568-.194-1.45-.503-1.45.641-3.182.641h-2.788c-.615 0-1.395-.753-2.066-.808-.67-.058-.893-.069-.727-.572.17-.502 2.291.38 2.291.38h.222c1.954 0 2.345-.589 4.521-.589 2.178 0 2.287-1.047 3.125-1.216.838-.167.67-.41 2.232-.41 1.562 0 1.676-1.35 2.68-1.52 1.005-.167 2.345-1.26 1.842-1.875-.503-.615.057-.518 1.283-.518 1.23 0 1.061-.736 2.29-1.406 1.227-.669.78-.226 1.728-.283.95-.055 1.284-.838 2.737-1.34 1.45-.503 1.563-.335 2.4-.504.835-.168 1.283-.169 1.283-.169s.001.003-.67-.666zm88.02 136.116s-4.669-.53-6.26-.423c0 0 4.986-7.112 4.243-10.296 0 0-4.457-.106-5.624.637 0 0 5.624-6.367 5.094-8.809-.53-2.442-4.775-.319-5.2-.105l-.425.211s4.14-6.26 1.911-9.338c0 0-3.928 1.378-5.2 2.333-1.274.956 3.023-3.768 1.91-10.825 0 0-1.91-.743-3.556.902 0 0 1.645-6.578.266-8.118 0 0-3.942.101-5.924 2.815 0 0 2.23-7.483.85-10.188 0 0-1.52-.103-3.422 1.328-.044.034.387.013.344.051-1.22 1.062.478-5.042-2.122-7.694 0 0-2.176-.265-3.237 2.068 0 0 1.008-3.766-2.76-7.374 0 0-1.062-.214-1.326.742 0 0-.053-2.866-2.813-2.547 0 0-.319-.425-.477-.425-.16 0-.214.318-.478.425-.267.105-1.912.425-1.858 2.176 0 0-.85-.106-.85-.266 0-.16-2.388 3.343-2.6 4.033-.213.69-1.167 2.015-1.062 2.76.106.742.902 2.175.902 2.175s-2.229-1.433-3.13-1.38c-.903.054-1.063 2.017-.903 2.76.16.743-1.963 3.872-.425 6.103 0 0 .796.955-1.113-.212-1.91-1.169-3.185-.69-3.768-.584 0 0-.792 8.205 1.817 10.063-1.117-.52-3.68-1.538-5.85-1.096 0 0-.32 5.89 3.131 8.861 0 0-1.435-.902-2.602-1.22-1.168-.318-2.706-.426-3.29-.372-.585.054-.954 5.677 1.221 7.801 0 0 .632.56-.69.266-1.91-.425-3.13-.902-3.873-.212-.74.686.838 7.638 3.736 9.421-.284-.203-2.543-1.723-5.913-1.16 0 0 0 4.951 4.53 8.205 0 0-4.583-.68-5.405.011-.816.685 1.486 5.936 6.496 8.63.027.016.057.03.085.045 0 0 1.3.558-.239.531-1.539-.027-6.13.822-6.555 1.565 0 0-.61 2.361 6.184 4.563 0 0 1.325.451.291.557-1.034.106-2.813.77-3.343 1.248-.53.477-1.565 1.008-1.645 1.354-.08.344 1.83 2.837 8.993 2.625 0 0-1.989 2.31-2.334 3.265-.346.955-.425 1.564-.425 1.671 0 .107 2.096-.053 3.237-.158 1.142-.107 2.945-.054 3.714-.425.77-.37.796-.638.69-.133-.106.504-.77 2.334-.742 3 .025.661.397.714.98.316.584-.398 1.751-.982 2.176-1.433.425-.45 1.274-.822 1.911-1.22.636-.398 6.818-2.52 6.554-6.846 0 0-.347-.93.238-1.486.584-.558 1.618-.77 2.017-.37.397.397 1.007.078.901 1.193-.105 1.113-2.334 8.754-2.759 10.028-.425 1.274-.53 1.38-.45 1.46.08.078 1.273-.053 1.563-.053.292 0 1.487-4.565 1.62-5.069.131-.504.796-5.014 1.061-5.598.266-.584.398-1.036.77-1.114 0 0 1.977-.564 2.766.13 0 0 .82 4.604 3.876 5.451 2.62.724 3.396 3.537 3.396 3.537s1.218-1.984 2.28-1.56c1.06.425 6.897 2.76 6.685 2.122-.212-.638-1.379-4.033-1.379-4.033s7.11 2.123 9.34-.743c0 0-2.548-3.396-3.82-3.608-1.275-.212 6.896-2.122 7.428-5.093-2.548-1.063-6.367-1.805-6.367-1.805s7.007-2.756 7.007-6.047zm5.558-128.083c-1.384 0-1.523-.208-3.323.07-1.803.275-2.356-.97-3.117-.902-.763.07-1.732.693-1.87-.068-.139-.763 1.454-.209.138-1.109-1.316-.9-2.147-1.455-.97-1.8 1.177-.347 3.532-1.04 2.078-1.525l-1.455-.485s-2.63 1.248-1.523 0c0 0 2.008-1.732 1.594-2.632-.417-.9-.832-1.594 0-2.218.83-.623 1.385-1.593 2.076-2.563.693-.97.832-1.94-.138-1.94s-3.395 0-2.355-.762 1.594-1.455 1.316-2.009c-.277-.555 1.594-.97.832-2.008-.763-1.039-2.078-1.109-1.455-2.217.623-1.109 1.108-1.248.831-2.148-.277-.9-.83.208-.554-.762.276-.969 1.522-2.563 1.522-2.563s.21-1.385-.483-1.87c-.693-.485-.555-2.772.207-3.81.763-1.04.97-1.317.416-1.317s-2.702 1.386.138-5.057c2.841-6.443 2.633-6.443 3.741-9.352 0 0 2.218-5.957.555-7.619 0 0-.07 3.255-.555 3.741-.484.484-1.594 1.455-2.078 2.84-.485 1.385-5.126 7.62-5.68 8.174-.555.554-.9 1.178-1.663.901-.763-.277-1.87-.347-2.563.346l-.693.692s-1.524 1.386-2.078 2.01c0 0-1.73-1.802-2.217-1.248-.485.554-1.524 3.256-2.77 4.71-1.248 1.455-2.218-.276-2.564-.9-.346-.624-.346-1.177-1.802.485-1.453 1.662-3.255 4.918-3.878 2.771-.623-2.147-1.386-5.403-1.732-2.494-.346 2.91-.139 2.01-.762 2.287-.624.276-.762.068-1.939.97-1.178.9-1.04.9-1.8.761-.763-.139-1.11-.208-2.219-1.108-1.108-.9-1.594-1.247-2.008.14-.417 1.384-.694 1.8-2.079 2.215-1.385.416-.554 1.248-2.078.693-1.522-.554-2.078-.554-2.493.277-.416.832-.485 1.94-1.386-.484-.9-2.425.07-4.988-.9-4.503-.97.485-2.354.485-2.84 2.08-.486 1.593-2.147 1.87-2.495 1.87-.346 0 .278 1.108-.414 2.216-.694 1.11-1.179.693-2.217.416-1.04-.277-1.316-2.494-1.109.07.104 1.27.24 1.518.276 1.556-.027-.01-.125-.005-.346.313-.622.901-.762 2.355-.762 2.355s-1.177-.693-1.663-.693c-.484 0-1.177.277-.83 1.663.346 1.386-1.248 1.317-1.248 1.317s0 1.73-.623 2.285c-.623.554-2.493-2.078-2.632-.83-.139 1.246 1.246 2.908.068 3.394-1.178.484-2.285-.555-1.939.97.348 1.523 1.525 2.77.07 2.91-1.455.138-2.218.9-1.247 2.077.968 1.178 1.802 2.771-.416 2.701-2.217-.069-3.047.14-1.8 2.15 1.245 2.007 1.8 2.007.276 2.631-1.524.624-2.078.207-1.109 2.01.971 1.8-1.108 2.007-1.246 2.908-.139.901 1.246-1.108 2.147.762.9 1.871-.762.97-.693 2.563.07 1.594.624 1.662 1.456 2.632.831.97 1.245.623.761 1.87-.483 1.247.484.9.832 2.424.347 1.524-3.464-.484-1.94 1.178 1.524 1.663 2.287.485 3.187 1.524.901 1.04-1.73 1.455-.138 1.731 1.593.277 3.948.346 2.7 1.178-1.247.831-1.314 1.524.832 1.731 2.147.208 2.841-.346 4.435-1.177 1.592-.83 1.522-1.663 4.432-2.424 2.91-.763 6.443-.763 6.721-.832.277-.069-7.759 6.582-9.63 8.867 0 0-6.72 4.018-7.619 7.343l.277-.069c.21 0-.208 1.11 1.246 1.248 1.455.138 3.117.138 3.257-.416.138-.555-1.87-1.594-.416-1.386 1.453.208 2.493.208 3.464.347.97.138 3.601 1.316 3.046.138-.554-1.177-1.315-1.87-2.769-2.979-1.455-1.109 5.471-5.68 6.926-6.858s5.543-5.057 5.681-5.403c.14-.347.971.9 1.524 2.563.555 1.662 1.662 4.503 1.317 5.75-.349 1.248-1.248 3.325-1.248 4.78s-.277 2.563.068 3.325c.347.761.971-.97 1.802.623.83 1.593.554 2.84 1.801 3.187 1.247.348 2.285-1.455 3.117-.553.832.901 2.286 3.047 3.672 3.047 1.385 0 0-.276.97-1.386.97-1.108.415-.484 1.386-1.178.97-.692.83-.415 1.801.208.97.624 1.94-1.039 1.94-1.039s.97.9 2.008-.554c1.04-1.455.97-2.216 2.703-2.563 1.73-.347 3.115-.139 2.701-1.178-.416-1.039-1.316-1.593-.486-2.078.831-.484-.139-.692 1.455-.97 1.593-.277 2.217-.416 1.938-1.593-.276-1.178-.068-1.386.971-1.87 1.04-.486 1.18-1.249.9-2.079 0 0 3.533-.415 2.702-1.455-.83-1.04-1.73-.763-.9-1.8.83-1.04 1.454-1.94 2.216-2.218.763-.277-.97 0 .208-1.04 1.18-1.039 1.663-1.593 1.316-1.939-.346-.346 2.563-.069 2.147-.97-.415-.9-.624-1.593-.624-1.593s-.83-1.108 1.04-1.385c1.87-.277 2.563-1.247 2.216-1.316-.346-.069-.76-.623-1.177-.762-.415-.139.347-.416 1.316-1.455.97-1.039 1.108-.832.761-2.009-.346-1.178-.484-1.04 1.524-2.563 2.012-1.524 4.088-2.908 2.702-2.908zM185.156 272.828c-2.544.637-10.083-1.998-10.083-1.998 4.18-6.268 11.627-8.72 11.627-8.72-2.055-3.123 2.358-6.69 3.22-7.342-.258.055-.969.025-2.947-.47-3.27-.816-3.634-1.725-3.815-2.724-.18-.999 1.817-2.544 1.817-2.544s-.727-.363-1-1.726c-.272-1.36.727-.817 1.453-2.997.726-2.18-.817-1.907-2.452-3.27-1.634-1.362.546-4.633.546-4.633-1.272 1-3.906 2.361-5.359 1.908-1.453-.455-1.18-1-1.907-.182-.727.817-1.635 2.361-1.635 2.361-4.814 2.725-7.084-1.635-7.084-1.635-.546 3.542-2.998 7.356-2.998 7.356-.272 1.362-3.633 7.356-4.359 7.63-.727-.727-.09-1-.454-3.815-.363-2.815 1.726-9.445 2.271-11.354.545-1.906 1.544-6.63 1.544-6.63-2.815 1.635-5.632 2.271-5.632 2.271-3.179-1.182-4.54-8.538-4.54-8.538l.09-.455c-3.725 3.725-4.269-5.177-4.269-5.177-.273 4.723-3.542 7.267-4.36 7.267-.817 0-2.633-1.363-2.18-.817.454.545.636 4.087.636 4.087.091 5.631-1.453 8.266-2.452 8.266-.999 0-3.724-3.725-3.724-3.725-.999 1.271 0 4.724.181 5.994.183 1.272 2.09 6.358 2.453 7.357.363 1 .363 6.448-.273 6.54-.635.091-1.725-1.09-2.542-1.726-.817-.636-1.27-6.722-1.27-6.722-1 .091-2.09-.272-3.272-1.09-1.18-.817-1.27-3.27-1.997-4.813-.728-1.544-1.09-4.36-1.09-4.36-.183.817-2.182 3.18-2.182 3.18-.635.908-1.906.817-1.906.817-1.816-1.907-3.27-2.726-3.27-2.726-.908-.999-2.997.182-3.814-.363-.818-.544-1.09-.363-1.09-.363 1.726 5.904-.818 6.268-.818 6.268-2.634.182-1.634.363-1.634.363 1.906 1.726 3.723 5.541 3.723 5.541 2.271 6.176-3.179 6.993-3.179 6.993-2.725 0-3.906.545-3.906.545 1.363.454 3.452 2.543 3.452 2.543 1.544 1.181 2 3.542 3.088 3.905 1.091.363 2.362 1.816 3.906 2.362 1.544.545 3.36 3.814 3.36 3.814 1.726 1.816 1.453 3.542 1.453 3.542-1.09.454-3.996.727-3.996.727-4.542 1.09-5.904.182-5.904.182-1.816 4.36-10.08 5.994-10.08 5.994 13.26 2.271 9.536 6.813 9.536 6.813.907-.636 5.903-.182 5.903-.182 2.725 1.544-.455 6.903-.455 6.903 7.63-4.814 13.171-4.178 13.171-4.178 1.816.727 1.362 3.542 1.362 3.542-.454 1.362.635-.183-1.635 7.447 1.543 0 4.178-3.633 5.813-4.54 1.635-.909 6.721-4.36 6.721-4.36 1.203-2.806 2.306-3.25 2.805-3.292-.096 1.7-.24 4.071-.352 5.018-.182 1.544.454 3.542.545 4.27.091.726.272 3.36.545 4.904.272 1.544.363 6.448.363 6.812 0 .364 1.362 0 1.362-.545s-1.453-7.357-1.453-8.992c0-1.635 0-5.54-.09-6.903-.064-.927-.04-2.865.181-4.409 2.26.631 2.998 3.411 2.998 3.411 3.904-1.817 8.81 5.177 8.99 3.814.183-1.362 2.727-1.27 5.27-.908 2.542.363 4.994 2.452 4.994 1.907 0-.545-1.634-2.089-1.634-2.089-3.815-2.453-3.725-6.722-3.725-6.722.454-3.633 8.63-.544 8.63-.544 3.633.998 4.27-1.272 4.27-1.272-1.818 1.362-1.818 0-1.273-1.453.546-1.453 1.09-.182 2.452-.817 1.362-.635 4.178-3.27 4.178-3.27 4.27-1.998 6.903-1.907 6.903-1.907-9.72-1.269-7.722-5.356-7.722-5.356zm-109.185-7.02c0-.65-1.679-1.404-2.399-1.78.653-.756-.445-1.888-1.166-2.024.137-.65-1.302-1.68-3.36-2.33.583-1.783-.855-2.092-1.849-2.058.24-.65-2.4-.822-2.95-.685-1.37-.995-8.124 1.232-8.124 1.232s1.268-2.192 2.708-3.702c1.44-1.508 2.467-3.736 2.467-3.736s2.092-1.886 2.571-3.153c1.27-.617.721-2.57.446-3.222.446-.035.41-1.407.96-2.983.548-1.576.478-1.92.478-1.92s1.03-2.502.516-3.223c.375-1.474-2.057-2.879-2.057-2.879s1.336-3.05.96-4.012c.273-.822-.48-2.158-1.27-2.536.342-.549.104-2.126-.377-2.812-.479-.686-.274-1.852-.65-3.258-.378-1.404-1.236.036-2.093 1.133-1.439-.104-2.947 1.816-2.947 1.816s-.412-.754-.72-.856c-.309-.104-1.234.273-1.44 1.164-.825-.205-2.366 1.75-3.155 2.47-.617-1.234-3.153-2.16-3.153-2.16s.104-.206-.103-.515c-.892 0-2.092 1.201-2.57 3.018 0 .137-1.03.778-1.509 1.602-2.057.856-2.88 3.83-2.88 3.83h-1.507s-.446-.23-.755.49c-.308.72-.89 1.788-.89 1.788s-.137-.359-.345.053c-.136.961-2.262 4.26-2.262 4.26s-.994 1.84-1.336 4.068c-.342 2.228-1.85 4.363-2.846 5.736-.788-6.173-3.872-10.708-4.558-10.948-.137-.754-2.4-3.878-3.155-3.81-.24-.687-1.577-1.444-2.022-1.479 0 .377-1.337.648-1.714 1.336-.342-1.303-3.635-2.71-3.703-2.197-.445-.238-2.16-1.164-2.332-.136-.068-.274-1.199-.479-1.953-.479-.755 0-1.954-1.439-2.16-1.61-.205-.173-.377-.104-.48.273-.104.376.205 2.467.822 5.313-.892.24-.72 2.434 0 4.696-.994-.034-1.474 2.023-1.098 3.703-.547.445.311 4.422.618 5.827-.96.617-.789 2.193-.789 2.193s-.65.377-.72.755c-.069.377.685 1.714.685 1.714s-.308.138-.035.583c.07.822 2.47 4.113 2.47 4.113l-.07.79s2.745 2.673 3.737 3.735c.995 1.063 2.264 3.051 2.264 4.354-2.95-.205-5.932 2.71-5.657 3.086-.172.07-1.78 1.75-1.749 3.36-1.267.925-2.296 2.262-2.296 2.262l1.062 1.131c.651 1.44 4.8 2.777 4.8 2.777s-.035.31.068 1.132c4.08 2.503 7.747 1.473 10.901.034.035.72 1.132 2.124 2.092 3.428 1.61-.034 1.782-1.783 1.817-4.354.515.411.788-.239.824-1.198.035-.96-.687-3.224-.687-3.224-.035-.787 2.194-.41 2.332-.344.07.035.313.216.862.635-2.36 6.47-10.407 29.307-10.688 30.853-.35 1.916 1.468 2.63 1.468 2.63l9.65-33.155c.493.375.938.718.938.718l-.035.377c-.344 3.018-.618 8.468 1.371 9.462.926.891 2.092-.584 2.092-.584l2.674 2.505.375-.378 3.977 1.576.412-1.028 3.43 1.544s.067-.172.102-.687c.89.207 2.502-1.646 3.461-3.324.96-1.68-.959-5.382-.959-5.382s5.553.272 8.501-.069c2.948-.344 1.748-1.304 1.748-1.304s1.131-.136 3.018-.377c1.885-.24 1.713-1.028 1.713-1.028s.377.034 1.337-1.336c.96-1.372 1.063-3.086 1.063-3.086s1.2-.137 2.365-1.577c1.164-1.438.994-2.674.994-2.674s1.234.035 2.16-.31c.926-.342.892-1.404.892-1.404s2.366-.618 2.811-1.132c.447-.514-.135-.856-1.439-1.097zm-132.986-3.507c.27-1.726-1.195-8.477-1.587-9.858-.395-1.382-3.262-6.458-3.262-6.458l.021-.155c-1.185-5.218-3.813-6.979-3.813-6.979-2.16-5.414-7.072-13.819-7.39-15.787-.319-1.967-1.39-1.96-1.39-1.96-2.71 13.348-17.23 22.54-17.23 22.54-5.32 3.67-10.234 8.603-10.234 8.603-1.466 2.523-5.239 5.25-6.487 6.088-1.25.838-1.787 1.696-2.774 2.711-.986 1.015-2.002 2.811-2.522 4.1-.523 1.288-2.095 3.694-2.095 3.694a4.67 4.67 0 0 0-.423.99c-.375 1.254-.3 2.747-.475 5.267-.22 3.206.603 5.69.603 5.69 2.724 18.801 16.69 13.743 16.69 13.743 2.578-1.569 6.367-.704 6.367-.704.373 3.76-8.083 13.326-8.083 13.326.884 1.255 1.952.375 1.952.375 3.093-4.098 7.993-12.813 8.906-13.267.915-.453 2.247.288 2.247.288 4.12 6.806 7.621 6.756 9.726 7.025 2.106.271 3.89-.286 5.127-.483 1.238-.196 4.201-1.6 5.6-2.49 1.397-.89 1.998-2.24 2.853-3.344.855-1.104 1.651-3.053 1.651-3.053 4.377-5.573 4.415-9.944 4.415-9.944-.432-2.195.301-5.668.301-5.668 2.567-9.658 1.038-12.565 1.306-14.29zm294.885 45.862s-2.06 5.768-1.79 7.378c.268 1.611 1.54 1.575 2.157.45.615-1.124 1.745-7.198 1.745-7.198 16.855 7.973 34.407-20.469 34.407-20.469 8.186-13.81 9.005-29.249 9.005-29.249 1.053-1.779-.048-11.944-.048-11.944-.58-.944-2.707-9.947-3.409-10.958-.699-1.01-2.106-7.896-2.106-7.896-4.404 2.605-12.857 3.154-13.946 4.283-1.089 1.13-5.568 2.44-5.568 2.44-17.12 13.52-22.868 25.737-22.868 25.737-.799 4.895-2.459 8.22-2.459 8.22-9.359 26.548 4.88 39.206 4.88 39.206z"/></svg>