<svg xmlns="http://www.w3.org/2000/svg" width="64.763" height="87.372" viewBox="0 0 64.76332 87.371872"><path d="M-34.034-60.575l-.434-.24 2.441-3.598-2.475.014-.505-.831-1.058-.495-2.302-.457 2.53-2.191-.522-.312 1.72-1.914-1.377-.885 1.96-2.021-1.27-.322.461-1.061-.543-.12-.096-1.67-3.813-.28.105-2.725-.992.162.114-2.79-1.403.025-1.556-1.718.323-1.955-1.418-.465-.15-1.773-.273-1.525-5.377 3.016-.693-.915-1.819 1.284-.6-.513-1.352 1.819-3.003-1.926-.7 1.169-.697-2.838-2.463.213.168-2.036-.422-.01-.154-2.391-1.522.239-.34-1.986-1.5-.15-1.21-2.073-.737.513-1.884.79-3.642.763-1.429-1.361.09-1.408-1.406.398-.509-1.761-.669.325-1.68-2.268-2.457 1.125-1.587-2.211-1.034.095-1.019-2.055-1.09.187-1.714-1.928c-4.84-9.32-6.697-7.354-6.697-7.354.103.937-.24 9.353-.434 9.823-.194.47-.459.198-1.137.13-.677-.067-.344.505.307.86.647.359.398 1.897.398 1.897l-1.17-.02.964 2.099-3.366-.204.182 2.103-.779-.013 1.168 2.004-1.69-.038.136.6.39 1.342.058 2.024-1.714-.43-.569.465-2.515-.25.174.864-4.384-.434 1.614 2.114c-1.747 1.195.113.859.113.859 1.696 1.926 1.096 2.062 1.096 2.062l-1.56-.024 1.444 1.185.511.767 2.027 1.893-2.315.358 1.208 1.292-.11 1.097 2.041 1.438-.89.433 1.116 1.219-1.29-.128.013 1.173-2.774-.925-.269.755-2.716-.205-.474 3.47-1.987-.326-.219.238h-1.953s.013.525-.768.513c-.78-.013-3.038-.236-3.038-.236l-.115 1.16s-1.38.125-2.909.429c-1.528.304-9.717-1.158-7.456.304 2.268 1.46 4.527 4.29 4.527 4.29l-.426 1 1.168.052 1.627 1.983.606-.85 1.394 1.7-1.45.833 4.35 2.125-1.542 1.085 5.424 1.123-2.688 2.144 2.633 1.042-.283.884 2.696.397-.678.91 5.362.466-.81 1.612 8.93-.092-3.376 3.182.38.754s-3.054 2.563-3.39 2.66c-.336.098 7.714 1.025 7.714 1.025l.084 1.116 6.256-.032.02 1.76 4.7-2.074.338 1.205 4.317-2.176c.002 1.953.505 2.13 1.39 1.765.692-1.754 2.3-.88 3.292-1.042.994-.162 2.668-3.904 2.65-2.408-.02 1.498 1.393.399 1.393.399 1.702-5.368 6.24-9.086 6.24-9.086.115-.622.276-1.11.467-1.492.93 1.242 9.413 12.166 24.125 17.876l3.002 1.898 1.037-3.384s-1.427-.884-3.693-1.451c0 0-7.79-1.572-16.628-9.475 0 0-3.819-3.805-6.157-6.656 1.356.003 2.792 1.413 2.792 1.413l1.012.297c1.012.296 3.98.589 4.721.989.744.399 3.66 1.208 3.66 1.208l.265-.038c.262-.04-.396-1.277-.022-1.11.375.168 3.213 1.427 3.615 1.66.4.236.54-.857.54-.857 1.817-1.252 3.14-1.448 3.234-2.415.097-.967-1.999-.85-2.006-1.436-.007-.587 5.404.014 5.404.014l-.25-.74 3.332-1.43-.885-.934c-.883-.932 2.91-3.031 2.91-3.031zM-193.627 61.962s-4.209 1.403-1.276 16.713c0 0-.81 2.808-2.425.682 0 0 0 4.508-.849 5.443-.853.937-.766.767-1.362.085-.593-.681-.17 1.276-3.148 2.297-2.977 1.02-4.166 1.785-4.593.255-.426-1.53-.509-3.657-.762-4.51-.257-.848-1.706.853-2.469 1.192-.766.34-.509.596-1.954 1.275-1.45.682-2.469 2.296-3.575 1.106-1.105-1.191-.683-1.616-1.019-2.637-.344-1.021-.597-.767-2.385-.937-1.786-.17-3.4-2.296-3.23-2.976.17-.681 0-.342 0-.342s-3.318-.254-3.4-1.954c-.088-1.702-3.405-.088-2.896-2.98.51-2.892 4.51-6.464 6.295-7.06 1.785-.595-.34-.17.766-1.104 1.106-.937 5.782-1.275 5.782-2.808 0-1.53.17-1.615-3.487-1.7-3.657-.085-4.337.51-6.805-1.446-2.465-1.956-4.593-2.298-5.016-3.488-.427-1.191 3.317-4.167 4.336-4.423 1.023-.256-6.295-3.656-5.442-5.87 1.445-1.53 1.528-1.103 2.038-1.103 0 0-4.676-3.231-4.846-5.273 0 0-.853-1.617 1.785-1.957 0 0-3.827-3.232-2.464-5.53 0 0 .723-.591 1.532-.734a2.12 2.12 0 0 1 .336-.031c2.638.087-1.103-2.04-.592-2.21.51-.17 1.105-.256 1.105-.256s-2.638-4.763-1.022-8.335c0 0 4.083-.681 7.658 4.593 0 0 .252-.51 1.188-.51.937 0 2.638 2.979 2.895 4.422.253 1.447 2.125 1.787 2.125 1.107 0-.681 1.275.595 1.446 2.297 0 0 5.615 6.208 7.57 8.675 0 0 3.231.255-3.487-6.89 0 0-2.21.257-5.529-5.444 0 0-5.02-4.593-3.487-5.188l.85-.511s-3.148-7.994-2.634-8.59c.51-.597 3.657-1.191 12.673 3.487 0 0 .253-.682.592-2.467.344-1.787-1.105-3.913-.422-5.018.68-1.108 2.381 0 3.827.338 1.446.342.936-1.188 1.533-2.892.592-1.701 2.125-.425 2.717-.255 0 0-.083-2.808.94-3.401 1.02-.597 1.784 2.126 2.041.509.253-1.615-.173-3.315 1.36-2.721 1.531.596 1.361 2.467 3.4-.682l1.874-3.147 4.42 4.85 2.297.17.084 4.423s1.45 1.7 3.913.51c2.465-1.19 1.702 2.127 1.615 2.894-.083.764.087.426.087.426s2.891-3.574 6.465-1.447c0 0-.086 5.274-.086 6.378 0 1.106 2.978-3.23 5.868-3.4 0 0 3.658-1.362 5.02.51 0 0-1.275 4.763-1.275 5.953 0 1.19.596 1.448.935 1.448.34 0-1.958 1.358-2.127 1.955-.17.597-.597.597 0 1.275.596.68 1.445.426-2.722 3.914 0 0 .34.339-.426 1.02-.763.68-3.827 3.486-4.506 4.679-.68 1.19-1.533 3.657-1.019 4.508.51.85 4.08-1.956 5.016-5.273 0 0 3.061-4.424 3.997-4.594.94-.17.94.682 2.894-1.021 1.955-1.7 2.212-3.402 2.805-2.807.596.596 1.023.765 1.79.596.761-.171 8.42-2.042 9.524-1.531 1.106.51.17 6.378.767 7.316.596.934 2.974.424 2.551 1.954-.427 1.53-1.362 2.722-1.955 3.23-.596.512 1.102.428 1.7 1.705.595 1.273-.767 2.635-1.873 3.23-1.102.597-.766.17-.766.17s2.128.85 2.128 3.147c0 0-5.529 1.7-4.763 2.806s6.465 1.617 5.02 3.402c-1.446 1.787-8.08 3.404-8.424 4.169-.339.766 6.125 2.382 8.254 5.699 2.125 3.317-9.103 4.593-9.103 4.593s1.275 0 .427.596c-.85.595-6.382-1.532-7.484-1.701-1.106-.17-3.49.426-2.725 1.105.766.68 7.144 2.212 9.36 3.063 2.207.85 5.355 1.445 5.355 2.636 0 1.19-2.975 4.508-3.658 4.678-.679.17-1.275.682-.596 1.533.683.849.766 1.02-1.02.849-1.785-.17-1.019.766-.766 1.19.256.427-3.574-.255-4.423.342-.849.595.85 2.976.257 3.232-.597.255-5.02-1.702-5.956-1.957-.936-.255-4.676-3.063-5.699-3.063-1.019 0-1.532-.425-1.955.512-.427.934.17 3.23-.68 3.827-.853.596-3.657-.17-4.85-.852-1.192-.68-2.552-1.105-2.89-1.53-.344-.425-2.726-1.787-2.726-1.787s-1.019 2.212-1.616-.764c-.594-2.976-1.187-16.074-4.548-15.862zM-160.593-141.43c-8.314-7.927-17.146-15.38-25.758-22.978 4.954.59 10.386-.296 14.242-3.67.781.068 4.053-4.032 4.021-4.395-.26-.086 2.462-5.521 2.431-6.117.274.123.56.142.856.056a9.983 9.983 0 0 0-.319-1.827c.101-.146.91.6.854.162-.333-2.67.413-5.367-.459-8.23-.423-1.386-1.627-5.63-1.469-7.31.154-1.63-1.046-5.167-1.662-6.707-.07-.188-1.818-5.853-2.14-5.425.208 1.156-.193 1.55-1.204 1.188-.004.212.408 2.109-.193 2.072-1.038-.063-8.313-1.34-8.69.166-1.07.062-.085 1.54-1.73.337-1.61-1.274-.866.822-1.9 1.082.574 1.802-1.746 1.579-2.939 2.029-9.505 3.585-14.678 16.938-11.33 26.43-1.626-1.58-3.486-2.996-5.278-4.4 1.496-2.105 3.998-6.497 3.78-9.267-.459-2.794.683-4.92-.408-7.49-1.536-3.62-3.316-7.847-6.284-10.568.587.538-3.272-2.028-3.167-3.014-.062.58-.04.46-.719-.455.957 1.99-1.746-1.354-1.557-1.154.005.185.18 1.12-.203 1.17-.753.099-8.11-8.313-6.009-4.16-1.39.188-3.89-.686-5.006-.75-1.318-.073-5.283-2.753-5.89-2.584-1.047.29-.14 1.979-2.572 1.554-1.776.01-1.66 1.127-3.418.6-1.549-.463-3.452 1.742-4.383 2.45-2.327 1.775-2.994-2.16-4.049-.475a4.795 4.795 0 0 1-2.099-1.574c-.36.192-.833 4.456-.456 3.503-.167.42 2.398 6.349 1.07 4.845.48.698.813 1.453.996 2.266-.05.162-.726-.395-.73-.175.2.587 1.928 9 2.383 8.6-.069.062-.87-.641-.849-.476-.429-.045 2.996 6.754 1.257 4.324.397.534.675 1.117.833 1.748.03-.036-.266.118-.25.135a8.751 8.751 0 0 0-.708-.832c-1.229 2.31 6.515 7.86 6.265 9.798-1.622-3.074 3.113 3.223 3.56 3.572.183.143-1.062-2.011-.837-1.656-.239.225 5.801 4.233 5.395 4.269.058-.22.063-.44.017-.664.582.08.977.464 1.184 1.154-1.193-2.571 1.843 1.439 2.232.933.15-.196 4.528.91 5.665 1.056 4.111.532 10.193-2.613 13.377-4.876 1.027-.745 11.708 9.996 12.978 11.146-.252.278-1.806 1.505-1.714 1.457-.647-.911-6.4-6.96-6.796-6.104-2.095-2.188-5.89-.78-9.044-1.714-2.545-.282-8.702 1.807-10.19 2.742-.645.405-7.057 6.574-5.775 6.798-2.235-.391-6.68 8.843-5.633 11.564-.88-.877-1.198 3.64-.855 4.83.963 3.347-2.053 2.499-2.665 4.078-.435 1.122 1.223 1.613 1.73 1.892-.11-.507 7.166 1.124 7.63 1.63-.536-1.165 1.173.51 1.341.56-.473-.137 1.055-.754.306-.845.496.06 1.355.94 1.766 1.189a4.53 4.53 0 0 0-.106-1.154c.23.003 1.8.798 2.08.796.438.388.878.773 1.321 1.157.166-.095 4.27.612 4.183.682-.298.24.551-1.486.712-1.423 1.36.529 1.711.417 3.05.783.328-.448.24-.903-.268-1.367-.018-.147 1.886 1.769 1.813 1.708.101.084-.246-1.004-.236-1.083.057-.457 7.767-.41 6.853-3.225.252.287 3.387.068 3.421.04.42-.327.557-1.12 1.483-1.767.815-.578 1.118-2.6 1.674-2.136-.595-1.25 3.09-3.075 3.275-3.425.295-.556-.664-2.076-.317-2.65.836-1.381 1.112-4.676 1.48-5.952-.158-.604-.4-4.007-.848-4.38-.156-2.134 2.387-1.964 1.302-3.797 6.604 6.03 13.256 12.009 19.887 18.01 2.364 2.14 4.728 4.283 7.096 6.419 1.073.966 4.263.179 3.313-.73-.51-.486.898.859 0 0zM164.723-176.677l-.596-.143.036-.191 2.048-6.026-1.117-.43.632-5.834-1.153-.144-.073-3.107-.894.19.224-3.3-.931.19-.374-3.49-1.19.334s-.93-3.442-1.115-3.777c-.186-.334-1.34.623-1.34.623 0-1.674-.968-4.4-.968-4.4s-1.86.766-1.86.478c0-.288-1.823-3.3-1.823-3.3s-1.488 1.387-1.75.67c-.26-.718-.67-1.961-.67-1.961s-.855.43-.781.19c.074-.238-.97-1.577-.97-1.577s-.893 1.53-.928 1.004c-.038-.526-1.676-2.917-1.714-3.061-.037-.142-1.227 1.34-1.227 1.34 0-.431-1.23-2.2-1.267-2.344-.036-.144-.558.862-.82.622-.26-.24-.967-1.196-1.19-1.101-.223.096-1.116 1.388-1.116 1.388-.632-.958-3.113-2.471-3.113-2.471s-.198 1.02-1.291.573c-1.636-1.02-3.226-3.507-3.374-3.762-.147-.255-1.092-.702-1.092-.702 1.24 5.484 0 7.334-.148 7.523-.147.192-1.34-.636-1.34-.636s-.693 1.658-.842 1.977c-.15.319-.25 1.274-.498 1.21-.247-.062-1.24-.062-1.24-.062-.595.956-1.34 2.933-1.34 2.933l-1.391-.574c-.99 1.339-.842 3.954-.842 3.954l-1.738-.446-.347 3.507c-.695-.575-1.54.254-1.54.254l-.444 2.933-1.34.287-.968 2.87-1.043.67c-.148.766-.073 3.539-.073 3.539l-.893-.48c-.598 1.915-.076 4.783-.076 4.783l-.817-.191.37 4.304-.817.287 1.413 4.209-.67.382 1.563 4.208-.52.288 2.38 4.877-.37.286c-.151.958 2.976 4.783 2.976 4.783l-.52 1.147c.52.097 4.092 3.539 4.092 3.539l-.072.575 1.289.892c1.49 1.913 10.323 7.014 10.323 7.014l6.352 7.14 1.687 11.988s.496-.892 1.092-1.275c.456-.293 1.588-.128 1.588-.128-1.153-.765-1.34-2.727-1.34-2.727-.56-1.338-1.006-7.077-1.006-7.938 0-.861 2.085-3.873 3.314-5.786 1.227-1.914 3.162-5.691 5.954-7.46 2.792-1.77 5.769-9.325 5.806-9.468.037-.145-.075-1.1-.075-1.244 0-.144.26.047.26.047l2.385-4.974-.635-.143c2.232-2.868 1.898-5.355 1.898-5.355zM-170.414-26.296s-2.476-.823-2.947-1.18c-.47-.353-3.417-3.064-4.833-4.243-1.414-1.178-4.243-1.885-7.072-5.775-2.83-3.89-6.484-9.077-8.605-10.138-2.12-1.061-6.367-.354-7.19.707-.826 1.06-5.069 5.069-5.54 5.423-.473.353-7.9-.708-7.9-1.18 0-.471-5.068 1.415-5.068 1.415s-4.126-.12-4.362-1.415c-.236-1.296-2.71.354-5.54.708-2.829.354-14.972.59-14.264.118.708-.472 6.72-5.894 9.313-7.31 2.593-1.414 7.897-4.125 9.666-5.186 0 0 2.711-2.123 2.946-2.592.237-.473-3.654-1.18-5.304-.708-1.65.47-2.829-.12-4.126-.12-1.297 0-10.256-.353-10.256-.353l-2.357-4.243-5.422-1.534-9.313-9.194s5.54.119 7.544-.354c2.005-.472.353-3.536 3.301-3.3 2.946.234 4.832.353 5.54.353.707 0-6.72-3.065-8.134-5.422-1.416-2.358-2.24-3.536-2.004-4.362.236-.825 3.654-2.357 4.833-2.24 1.18.119 3.183-.118 1.298-2.357-1.886-2.241-5.07-5.07-4.126-5.66.942-.588 2.711.355 3.065 0 .354-.353-.119-1.413-.119-4.95 0-3.538.354-7.19-.944-9.548-1.295-2.36-1.768-6.365 1.063-4.244 2.828 2.122 3.89 3.772 8.487 4.244 4.598.47 4.715-.59 6.602.943 1.887 1.533 2.24-.943 2.475-2.004.236-1.062 4.48 2.829 5.423 6.248.943 3.417 3.655 1.179 3.066-2.477-.592-3.654-1.653-8.25-.12-6.6 1.533 1.65 6.72 6.838 7.192 9.43.471 2.593 4.007 5.893 3.89 6.602-.119.707 1.886-2.123 2.946-4.125 1.061-2.006 1.18-5.541 2.477-5.541 1.296 0 4.833-1.18 6.717 5.305 1.888 6.482 4.834 8.958 4.362 14.617-.47 5.658-1.06 7.308-2.237 11.905-1.18 4.598-4.834 6.602-1.769 6.366 3.065-.235 4.48-6.248 5.894-7.781 1.414-1.531 7.662-10.49 8.134-7.426.47 3.065 0 5.069.235 9.786.235 4.714 2.004 5.539-.235 7.78-2.24 2.239-6.838 11.552-7.309 13.32-.47 1.767-1.532 2.24-.59 4.715.943 2.475-2.239.826 1.532 3.538 3.773 2.71 18.507 14.146 19.451 15.677.941 1.533.234 4.362.234 4.362zM-92.043 85.873s7.552 3.167 6.068-10.244c0 0 2.575-6.56 2.273-1.178-.302 5.378-.985 11.666-4.502 12.855-3.517 1.188-2.017.575-3.839-1.433z"/><path d="M-83.7 74.45l12.737.544-.186-1.675 8.325-2.905-.236-2.407 5.226-3.14s-10.257-1.811-8.54-2.512C-64.66 61.653-54.68 50.56-54.68 50.56l-3.06-.75s8.524-3.68 11.401-5.245c.55-.3.223-.511-3.36-.797-5.452-.435-11.472 1.939-11.405-.343.07-2.28 6.805-10.29 8.12-12.581 1.316-2.291-.137-.945-.867-.896-.733.048 3.8-9.064 3.868-11.345.066-2.28-12.58 8.399-13.919 8.196 0 0-4.256-.011 1.414-11.843 0 0 1.852-5.263-3.958.118-2.064-5.662-1.585-5.107-1.585-5.107S-67.38-.06-71.083-.548c0 0-1.062 7.193-2.037 9.093-.972 1.902-4.1-2.075-4.1-2.075s1.373 5.194 1.081 6.313c-.292 1.122.341 5.117-.292 6.63-.634 1.51-6.122 4.005-7.65.876-1.53-3.128-5.439-7.785-5.439-7.785s-.312 9.639.342 10.62c.65.985-.372 2.155-.372 2.155s.458 3.567 1.463 5.409c1.002 1.843 3.597 8.79 1.403 8.937-2.193.147-16.158-8.907-16.158-8.907s5.641 6.45 2.25 7.34c-3.39.886-4.433-.438-4.433-.438s10.641 18.672 13.146 19.899c2.505 1.229-1.696 3.197-4.638.897-2.943-2.3-4.854-4.522-3.929-1.647.925 2.875 2.146 4.63 1.287 4.98-.856.353 5.604 12.476 14.261 13.439M42.875 15.582c.088-.114.03-.24-.105-.085.022.106.055.149.105.085zM63.594 57.84a1.233 1.233 0 0 0-.229.045c.412-.001.58-.07.23-.044z"/><path d="M61.513 57.438c-1.303-.712-.13-1.01-1.909-1.29s-2.422-.338-3.292-.573c-.874-.234-.612-.904-1.532-.887-.919.018-2.183-.556-4.446-.014-2.269.543-3.838 1.545-3.93.677-.092-.87-.014-2.293 1.334-2.817 1.345-.524 3.222-.75 3.875-1.08.654-.331.893-.22 1.256-.738.362-.518.412-.771 1.432-.965 1.021-.193.768-.243 1.545-.88.78-.633.705-.254 1.32-.724.616-.47-.193-.691.892-.546 1.084.145 1.483-.563 1.581-1.067l.1-.505s1.56-.613 2.061-1.17c.5-.558-.133-1.008-.163-2.192-.03-1.185.571-1.265.807-2.462.231-1.198.622-1.517.231-1.198-.388.317.541-.42.698-1.566.158-1.148.236-.544.158-1.148-.079-.604 1.623-2.63 1.148-4.228-.475-1.6.008-1.047-.556-.174-.563.872-2.044 1.763-2.698 1.766-.657.003-1.203-.89-1.846-.62-.64.269-1.48 1.218-1.837.363-.359-.855.023-2.482-.477-1.926-.502.558-1.935 1.194-2.11 1.423-.175.229.06-.971-.92-.31-.98.66-1.522.752-2.112 1.096-.59.343-1.412-.145-1.687.588-.273.732-.776.635-1.063 1.43-.287.795-1.187 2.06-1.774 2.732-.59.67-2.047 1.763-2.677 1.64-.63-.122-1.272.146-1.339-.522-.067-.668-.598-.967.38-2.282.974-1.316 2.334-1.903 2.605-2.636.272-.732.336-1.05 1.051-1.695.715-.646 1.306-.663 1.857-1.144.553-.482 1.252-1.721 1.83-2.001.578-.28 1.31-.007 1.232-.612-.08-.604-.245-.768.636-1.251.88-.483 1.41-.513 1.028-.913-.38-.4-.966.925-.42-.867.544-1.792 1.763-2.341 1.838-2.72.071-.378-1.08.837-.913-.7.17-1.538.591-2.7.828-3.244.236-.543-.174.229.346-1.438.521-1.666.862-3.76.862-3.76s-1.352 1.92-1.884 2.36c-.16-.017-.627.019-1.759.204-3.109.509-2.367.392-3.472 1.027-1.107.637-1.849.753-2.602 1.263-.755.508-3.65 3.283-4.332 3.085-.683-.197-.81 1.807-.888-.827-.077-2.633-.074-2.306.381-4.313.228-1.001.442-1.434.58-1.588-.062-.271-.05-.987-.018-1.642.045-.907.105-1.223-.255-.704-.363.52-1.043.649-1.002-.915.042-1.562 1.343-3.207.037-2.546-1.308.662-1.573.35-1.786.766-.212.418-1.579-.961-1.57-1.68.007-.718-.2-2.004-.122-1.398.08.605-.493-.16-.774-1.066-.282-.906-.502-2.127-.539-1.938-.038.19-.276.405-.51-1.08-.237-1.486.961-3.938.021-3.14-.94.8-1.67.854-1.573 2.706.097 1.852-.098 2.86-.853 3.37-.753.507-.819-.16-1.383.714-.562.87-.856.028-1.125 1.416-.27 1.389-.37 1.565-.834 1.934-.466.368-1.313.006-1.589.412-.272.403-1.984.79-1.984.79s-.557-2.53-.71-1.054c-.158 1.476-.27 2.044-.327 3.014-.056.97.414 1.914.113 2.116-.302.205-.577-2.075-.302.205.277 2.279.187 4.094.188 4.42.003.33 1.385 2.3-.96-.12-2.344-2.42-2.298-3.654-3.513-4.152-1.212-.497-1.628-.381-2.16-.681-.529-.301-1.26.083-2.6-1.096-1.344-1.178-1.622-1.43-2.064-1.841-.443-.414-1.076-.864-.196 1.009.88 1.872.985 3.007.788 3.689-.197.68-.814.822-.52 1.665.296.843-.487.822-.487.822s.154.554.67 2.29c.512 1.736-.856.357.274 1.952s.35 1.574 1.831 3.04c1.481 1.466.833 2.452 2.075 4.136 1.245 1.68 2.82 4.018 3.19 4.809.37.792 1.265 3.259-.647 1.644-1.91-1.617-.479-.226-2.474-3.101 0 0-.622-.514-.966-1.432-.346-.918-.205-.63-1.52-1.605-1.315-.976-1.556-1.088-1.577-2.335-.019-1.247-.033-1.513-1.393-1.581-1.362-.068-1.424.247-2.029-.001-.606-.25-1.52-1.277-1.52-1.277s-.149.429-.982.005c-.835-.424-1.1-.41-2.063-1.186-.962-.777-3.063-2.758-3.105-3.551-.04-.793-.126-.024-.037 2.546.09 2.57.432 2.834.188 4.095-.246 1.263-.326.329-.596 1.718-.27 1.389-.56 1.528-.277 2.435.28.905-.085.769.526 2 .611 1.232.087 1.917-.415 2.472-.5.558-1.119.372-1.29 1.257-.173.883-.3.529 1.094 2.11 1.395 1.582 2.116 1.918 2.371 2.622.258.704-.677.783.637 1.104 1.312.32 2.44 1.26 2.226 1.349-.215.09 1.253.965 1.253.965s.618.186 1.071.208c.454.022.455.35.811.55.353.2-.657.003 1.476.484 2.134.479 1.821 1.073 2.14 1.462.317.39 1.67 1.177 1.662 2.222l.078.277s.244 1.097.082 1.26c-.163.164-.94.799-1.243.676-.304-.124-1.634-1.038-2.292-1.69-.658-.65-.824-.815-1.644-.973-.82-.16-.696-.463-1.993-.52-1.298-.057-.568-.11-2.296-.315-1.729-.205-.012.063-2.737-.4-2.725-.466-2.267.54-3.077-.336-.81-.88-1.43-1.064-1.43-1.064s-.768.243.63 2.15c1.396 1.909 1.272 2.212 1.87 3.18.597.967.75 1.193 1.461 2.247.711 1.057-.376.583 1.095 2.112 1.47 1.53 1.081 1.519 2.55 2.722 1.465 1.2 1.582 1.617 2.266 2.143.685.525 2.213 1.085 2.213 1.085s-.327.329 1.125.938c1.453.61 2.236.959 4.19 1.339 1.955.38 4.588 2.33 5.795 1.846 1.21-.484.541-.417 3 .06 2.46.479 1.391.599 1.293 1.43-.096.833-.464 7.11-7.999 16.906 0 0 .834.098 1.185.296.355.2 1.293 1.103 1.293 1.103S28.5 75.05 29.26 71.14c.76-3.912 4.027-3.538 6.453-2.542 2.425.993 4.227.82 4.227.82l.16-.492.706.07 1.035.072s.29.187.402-.054c.111-.24.412-.771.866-.748.454.023 1.146.157 1.411.144.266-.015-.126-.023.832-.23.955-.207 1.41-.185 1.913-.414.502-.23 2.212-.945 2.604-.934.391.01.665-.396.953-.534.291-.142 1.098.08 1.473-.5.375-.582-.066-.668 1.191-1.078 1.26-.41 1.248-.02 2.313-1.121 1.065-1.102 1.342-1.18 2.424-1.688 1.08-.511 1.48-1.547 2.76-2.41 1.145-.772 1.747-1.437 2.383-1.61-.444-.005-1.176-.084-1.853-.453zM79.256-176.54c-.795-.066-2.518-.994-2.188-1.458.333-.464-2.316.794-2.98-.397-.661-1.193-.065-1.127.465-1.988s-.928-.73-1.324-.794c-.396-.067 4.504-6.227 2.318-6.424-2.185-.2-5.63 1.458-5.364-.133.265-1.59 1.257-1.921 1.06-1.921-.2 0-1.192 1.193-.862-.264.332-1.458.927-3.313.927-3.313l-2.847-.065s.928-6.36.86-6.89c-.065-.528-2.251.796-2.517 0-.265-.793.663-2.713.066-2.582-.596.134-.861.598-.861-.065 0 0 1.523-3.643.795-4.505 0 0-.463.067-1.126.199-.662.132-1.06.596-1.126-.2-.066-.793-.53-3.576-.53-3.841 0-.263-.66 1.062-1.258.464-.595-.595.598-4.04.199-3.84-.397.198-.397-.2-.132-.862.203-.51.056-.431-.024-.368.213-.186 1.658-1.435 2.209-1.618.597-.2 1.723-1.524 1.723-1.524s-1.061-.2-2.45-.131c-1.393.066-3.444.33-3.975.594-.53.266-1.921.928-2.915 1.325-.993.398-2.12 1.325-2.184.132-.068-1.192-.397-1.787-1.325-.794-.928.993-3.313 2.583-3.313 2.583s.928-3.046-.331-2.12c-1.26.928-3.378 2.518-3.643 2.783-.266.265-1.854-1.855-1.723-2.518.132-.662-1.522 1.126-2.384 2.187-.86 1.059-.331 2.98-.993 2.119-.663-.862.133-2.318-.663-1.126-.794 1.192-2.12 2.782-2.384 2.385-.266-.398-1.458-3.644-1.855-2.65-.396.994-1.722 5.1-2.385 5.43-.661.332-.793-.464-.793-.464s-.861 2.783-1.391 2.584c-.53-.198-3.245-3.378-3.18-3.775.067-.397-2.186 6.424-2.914 5.96-.73-.463-1.061-.397-1.061-.397s.265 2.65-.264 2.915c-.53.263-2.583-4.04-3.18-4.637-.596-.596-.73.463-.73.463s-3.111-3.511-2.978-7.351c-.397-1.258-.266-.265-1.061.993 0 0-.928 5.96-2.187 4.37l.265-.728s-.927 2.319-1.788 2.583c-.86.266-.928-1.854-1.788-.662-.86 1.192.065 3.245-.927 4.835-.36.577-2.008.2-1.922-.927 0 0-1.258 4.569-1.258 5.033 0 .464-2.186-1.854-2.716-1.325-.528.53-.528 4.04-.662 4.836-.13.795-1.523-.132-1.72.398-.2.529.99 2.118.66 2.582-.33.463-4.106-.064-4.569-.861 0 0-1.126-1.455-.597.797.53 2.25-.397 3.576.53 4.503.928.927 1.722 1.457 1.391 1.789-.33.33-2.782-1.26-2.649-.133.133 1.126 2.583 3.178 1.391 4.105-1.19.928-4.039-.331-4.77.663.663 1.59 1.723 3.708 2.253 4.438 0 0 .265.332-.663.463-.927.132 1.06 2.052 1.59 2.649.53.596-1.59-.53-1.59.397 0 .928 3.114 2.384 1.988 3.577-1.127 1.192-4.04.662-4.77.596-.728-.066.265 4.04 1.392 4.967 1.125.927-.132.397-.662.596-.53.199 1.521 1.458 2.118 2.65.597 1.193-1.126.265-.926 1.126.197.86 3.708 2.913 3.642 3.11-.066.2-1.324 1.724-1.324 1.724s4.304 2.252 4.106 2.65c-.199.397-1.192-.266-.397.728.795.994 2.648 1.193 2.648 1.193s-.463 2.25-.993 2.449c-.53.199 2.12 2.517 5.231 1.59 0 0 .134.596 0 .994-.13.397.267-.464 1.722-.464 1.458 0 2.72-.463 2.253.265-.463.728 0 2.252-.992 3.113-.995.86 5.033.198 5.762-.265.729-.463.199.397.199.728 0 .33 1.789-1.391 2.584-1.59.795-.198-.795 1.524.795.73 1.588-.794 3.442-3.18 4.105-4.372.662-1.192 6.293-6.16 8.146-6.954 1.854-.795 2.383-.73 2.782-1.126.179-.18.399-.74.66-1.292.059.682.133 1.21.133 1.21.089 1.102.883 3.805 1.325 4.906.44 1.102 1.325 9.012 1.325 9.012.132 2.25.265 9.609.265 9.609l1.457-1.2s.309-2.303.22-6.207c-1.235-2.405-1.59-11.013-2.383-13.417-.607-1.834-.7-3.55-.67-4.884.399.49.522 1.46.184 2.33 0 0 1.59 2.186 2.716 3.444 1.126 1.258 1.457 1.457 1.523 3.246.066 1.788.86 4.106.86 5.497 0 1.39-.065 2.583 0 2.914.066.332 1.06-1.325.994-.462-.067.86 1.06 2.914 1.656 3.245.597.33.66-.53.729-.794.065-.265 3.245 2.716 4.502 1.855l.598-2.32s3.71 1.193 4.105.929c.329-.221.245-1.25-.095-1.522.82.234 3.603.979 4.334.528 0 0 .13-1.192.13-1.458 0-.263 4.24.53 4.24-.133 0-.662-.265-1.125-.265-1.125l2.253-.595-.266-.598s3.18-.86 3.444-1.456c.266-.596-2.186-2.915-2.517-3.378-.332-.464 4.106-.464 4.106-.464s-1.324-1.192-.795-1.59c.53-.396 3.643-.464 3.313-.926-.333-.464-.995-.397-.73-.663.266-.265 4.107-1.854 4.306-2.385.199-.531-1.06-.53-1.854-1.325l-.793-.794s2.252-.861 2.382-1.193c.134-.331-1.258-.53-1.058-.927.198-.397 3.44-.728 3.642-3.178 0 0-1.192.199-2.318-.596 0 0 .86-.465 1.392-.795.529-.331.133-.861.992-1.258.862-.397 1.525-1.59 1.525-1.59s-1.325-.928-2.055-.994c-.73-.066 3.312-2.384 3.312-2.384l-1.522-1.258 2.053-2.251-1.061-.398s2.054-4.833 3.444-6.026c1.396-1.194-4.034 1.255-4.83 1.19zM-51.92-178.404c-10.146-4.507-10.709-.563-13.528-.186-2.818.375-2.818-.377-2.818-2.631 0-2.253 14.277-3.568 14.277-3.568 5.263-5.072 5.073-8.455 5.073-8.455 1.881-3.567-1.5-3.943-1.876-5.822-.378-1.88.186-3.007 2.815-4.32 2.632-1.317 1.506-3.195.19-5.263-1.314-2.065.562-6.386-.19-7.7-.749-1.314-2.066-4.51-2.066-4.51s-10.52-2.252-16.532-.563c-6.012 1.69-4.32 5.073-5.822 6.952-1.502 1.878-4.695-2.256-5.637-2.256-.938 0-4.505 4.51-5.447 6.202-.938 1.69.942 11.082 0 12.396-.938 1.316-2.44-.563-2.44-2.818 0-2.253-.379-7.324-2.065-10.707-1.697-3.382-10.338-12.586-10.338-12.586-9.393 6.575-13.524 13.714-14.652 16.53-1.127 2.818.375 9.207.564 10.708.19 1.503 2.443 5.823 2.443 5.823 0 5.26-1.127 2.068-1.127 2.068-4.699-10.897-14.84-6.764-14.84-6.764 1.501 2.255-.19 9.393-.19 9.393-2.065 23.107 8.641 25.172 8.641 25.172 1.506 1.502 5.637.754 10.521-.563 1.331-.358 2.375-.645 3.201-.875-2.752 3.186-6.167 6.835-7.252 7.81-1.912 1.72-12.555 12.327-15.11 11.468 0 0 2.555 4.298 2.342 6.019 0 0 12.342-13.186 14.896-14.62 0 0 4.675-4.721 7.898-8.398-3.67 15.908 4.452 22.012 6.426 20.576 2.066-1.501 1.876.188 1.876.188 3.193 4.133 16.532 3.946 18.972 2.067 2.444-1.878-1.687-9.204-1.687-9.204-3.382-5.637 0-3.946 0-3.946 7.324 9.204 12.023 4.507 12.023 4.507 3.941-1.314 5.632-2.63 6.95-5.26 1.103-2.21 1.69-2.254 1.69-2.254 7.703-2.816 7.14-6.95 9.205-9.955 1.944-2.83 3.057-10.486 3.18-11.375-.134.199-1.257.415-9.566-3.28zM-42.34-175.21s-.006.03-.014.087c.03-.044.013-.087.013-.087zM54.044-78.088l-.002.05c.004-.03.002-.05.002-.05z"/><path d="M72.181-64.413c-.67-.67-1.563-.39-1.563-.39-1.282-.727-4.018.167-4.018.167-1.227 0-.948 0-.893-.392.056-.39-1.45-.055-2.233-.167-.779-.112-1.45.112-1.73.112-.278 0-.056-.448-.67-.727-.612-.278-2.232.223-3.349.279-1.116.056-2.063-.056-2.567.224-.503.279-2.735 1.507-3.852 1.618-1.117.11-2.176 1.173-3.237 1.45-1.059.28-.949.503-1.339.615-.39.11.335-.614 1.116-1.228.781-.615 4.02-2.011 5.191-2.122 1.171-.11 3.014-1.896 2.68-2.511-.336-.614-.503-.501.277-.95.783-.444 1.564-.278 2.29-.67.726-.39 1.896-1.116 2.623-2.176.726-1.061-1.062-.28-1.563-.67-.503-.391.445-.447 1.51-.78 1.06-.336 2.006-1.396 2.565-2.458.557-1.06-1.06-.221-.894-.724.17-.502 2.344-1.173 2.344-1.173s-.334 0 .112-.224c.446-.223.446-.838.948-1.45.501-.613-.335-.445 0-.613.336-.168.838 0 1.395-.223.56-.224 2.457-2.625 2.291-2.512-.169.11-1.117.11-1.786.166-.67.057-.615.225-1.175.28-.557.057-.61.057-1.395.948-.779.894.335-.725-.502-.613-.838.112-2.232 1.395-2.232 1.395-1.73 1.452-.559-.445-.559-.445-.837-.503-1.786.558-1.786.558-.893.39-1.506.838-1.952 1.172-.447.335 0-.782 0-.782-.838.167-1.507.559-3.237 1.339-.963 1.824-.959.34-.95.05-.008.069-.059.19-.334.23-.392.055-1.285.725-2.12 1.283-.837.558-2.568 2.12-3.965 3.182-1.396 1.059-1.506 2.343-1.842 2.622-.335.28-1.507 1.284-2.008 1.619-.504.337-.448-.166-.335-.67.11-.501 1.563-1.17 2.063-2.064.502-.892 1.618-3.015 1.843-3.685.222-.67.837-1.842 1.618-2.344.781-.502.446-1.06 1.396-2.902.947-1.841 1.673-1.394 1.34-1.955-.336-.556-.56-.501-.279-.668.278-.168 1.116-1.061 1.172-1.51.055-.444.167-1.225.167-1.225s-1.62.836-1.507 0c.111-.838 2.01-1.786 1.674-1.843-.334-.055-1.228.559-.334-.724.893-1.285.446-1.843.223-1.788-.223.057-.56.334-.948-.055-.392-.392 1.786-3.125 1.506-3.016-.277.113-1.117.503-.949-.278.17-.782 2.456-1.841 2.232-1.787-.224.057-1.116-.055-.779-.39.333-.334 1.953-1.34 1.953-1.507 0-.167-.504 0-.28-.392.225-.39 1.452-1.005 1.396-1.396-.055-.391-.335.058-.278-.56.057-.613.726-2.063.726-2.063s-1.618.614-1.843 1.45c-.224.838-1.172.112-1.563.449-.39.333-.78.612-1.17 1.283-.393.67-.616.223-.67.392-.058.166-.335.055-.894.444-.559.392-1.676 1.619-1.843 2.512-.167.893-.668-.613-.668-.613-1.899.725-2.364 3.2-2.364 3.2-.373 1.04-.446-.746-.817-.298-.373.446-2.01 2.679-2.234 3.647-.223.966-.447-.744-.595-.225-.148.52-1.488 1.936-1.71 2.829-.225.893-.447.148-.82.968-.373.818-.818 2.38-1.488 2.606-.67.223-.968 2.307-1.489 3.572-.52 1.265-1.338 5.729-1.414 6.175-.073.447-.297-5.06.15-6.772.446-1.711.67-2.53.742-3.572.077-1.043-.52-2.157-.223-3.647.3-1.487.075-1.412.075-2.753 0-1.34-.707-2.381-.707-2.381.148-3.906-1.077-3.906-1.077-3.906-.113.669-1.64 3.31-1.007.893.968-3.87-.743-4.02-.743-4.02-1.266 2.047-.91.448-.91.448.222-2.066-.225-4.187-.393-4.075-.168.11-1.116.445-.95.224.17-.224.336-.672.336-1.12 0-.445-.502-.445-.336-.835.17-.392.17-1.228-.056-1.117-.222.112-.278.112-.389-.168-.112-.278.167-1.226-.225-1.841a6.062 6.062 0 0 0-.725-.95c-1.34 1.06-.335 2.568-.335 3.014 0 .447-.727-.781-.838-.278-.112.503.335 2.51.446 3.237.111.727-.947-.67-1.17-.167-.225.502.277 3.069.223 3.294-.056.222-.56-1.9-1.229-.17-.67 1.733-.037 3.519-.037 3.519l-1.189-.894s-.15.744-.3 1.19c-.148.447-.37.968-.67 1.563-.297.595.076 1.043.076 1.638 0 .596-.149 1.042-.149 1.042s-.299-.373-.745.074-.298 1.042-.446 1.266c-.147.222 0 0-.222.893-.225.894.743 2.976.743 2.976l-.446.745c-.447.744.296 1.043.296 1.936s.671 3.645.671 3.645-.223.895-.52-.668c-.298-1.564-1.044-1.713-2.01-2.904-.968-1.19-.67.374-.67.374-.597-3.052-3.424-4.392-3.424-4.392l-.262 1.303c-.482-2.01-3.16-4.616-3.272-4.094-.112.52-.559 2.978-.483 1.488.073-1.488-2.234-3.2-2.53-2.902-.297.298-.224 1.08-.522.708-.298-.373-2.494-3.127-2.604-3.014-.113.11.223 1.599-.224.892-.446-.707-1.639-2.902-1.749-2.27-.11.633-.382.214-.382.214-.584-1.423-1.507-1.312-1.507-1.312-1.45-1.09-1.396-.782-1.45-.447-.057.335.42 1.089.781 1.34.361.252.111.53.111.53.056.588.781.978.865.978.083 0 .53 0 .615.92.082.922.92 1.48.92 1.48-.336 1.284 2.037 2.875 2.037 2.875s.42.392-.14 0c-.558-.39-1.09-.335-1.09-.335-.194 2.177 2.254 3.954 2.254 3.954-.672-.446-.97-.223-.97-.223s0 1.189.373 2.829c.37 1.635 1.487 1.934.966 2.38-.52.447.894 1.713.894 2.084 0 .37 3.201 2.009 2.16 2.306-1.044.298 1.944 3.806 1.944 3.806-2.15-1.37-4.019-1.312-4.019-1.312l-.048.743c-.148-.408-3.387-1.525-3.906-1.6-.52-.074-.224 1.34-.634.484-.409-.856-2.94-.93-3.608-.817-.556.092-.144.564.016.724-.43-.323-2.849-1.157-2.919-.948-.075.224.187.968-.408.446-.596-.52-1.785-.968-2.047-.893-.262.075-.485.558-.485.558-.816-1.227-1.6-.93-1.6-.93-1.152-.893-2.828-.558-2.568-.445.264.11.783.78 1.192 1.375.41.597-.073.597.447.632.52.039.742.076.78.448.038.372.41.335.892.445.486.113 4.243 1.043 2.458 1.006-1.788-.036-.372.746-.372.746.447.22 2.306.817 3.422 1.115 1.116.297-.52.148-1.189.372-.67.223.073.373.818.895.744.52 0 .52.298.816.297.297 1.49.077 2.455.077.967 0 .225.52.15.966-.076.446-.969.073-1.564.223-.595.148.374.075.148.893-.223.818 2.011.148 1.862.372-.15.225-.744.52.521.52 1.266 0 3.35.744 2.16.744-1.194 0-.524.746.965 1.19 1.49.45.968.375.67.67-.297.298.893.672 2.307 1.043 1.415.372 1.042.149 1.042.149.298.075 1.34 1.563 3.722 1.86 6.177.894 5.877 1.638 5.877 1.638-3.27-1.861-5.58-.371-6.323-.371-.743 0 1.266-.745-3.199.668-4.467 1.414-3.945 2.01-4.467 2.382-.52.37-1.86.223-2.68.446-.816.224-.744.67-1.712.968-.967.298-1.19 0-1.71-.074-.522-.077-1.415.37-2.159.894-.744.519-1.116.519-2.009.816-.894.298-1.787 0-2.902.449-1.116.445 1.043.296 2.232.223 1.191-.075.744-.075 2.382-.15 1.636-.073 1.041.075 2.232-.297 1.063-.333 2.538-.398 2.71-.408-.197.01-1.03.63-.44.557.596-.075 2.047.335 2.418.26.374-.074 1.638-.26 1.378-.037-.262.223-.817.894-.37 1.04.445.149 1.375-.072 1.448.114.073.186-.334.445.224.333.56-.11 2.792-.707 3.237-.893.447-.185-.112.26-.93 1.08-.818.818 1.823-.558 1.71-.334-.109.223-.26.52.262.296.521-.224 2.827-.782 2.717-.482-.113.297.37.333.37.333s2.011-.594 2.792-.707c.78-.111 2.121-.706 2.902-.968.783-.26 1.451-.41 1.153.075-.297.485-3.945 1.339-3.945 1.339-.706.298-1.784 1.34-2.156 1.34-.373 0-2.418 1.155-2.492 1.525-.076.373 0 .894-.225 1.005-.223.112-1.749 1.377-2.232 1.86-.484.485-.11.857-.669.93-.559.075-.969.969-1.786 2.01-.82 1.043-2.94 4.467-2.458 4.057.483-.41 2.532-2.085 2.865-2.605.337-.521 1.677-1.116 1.677-.894 0 .224.073.449.52.039.446-.41 1.526-1.08 1.526-.781 0 .297.67-.077 1.376-.672.707-.595 1.19-.93 1.19-.93l-.038.148c-.036.15-.073.337-.26.857-.186.52.56.11.932.037.371-.074 1.396-.353 1.396-.353.39-.67.612-1.061.724-.725.11.335.837.279 1.673-.614.838-.894 2.373-2.344 2.373-2.344-1.618 1.786-.78 2.623-.78 2.623.056.56.976-.083 1.423-.474.446-.39 1.23-.362 1.23-.362l-.113-.057c3.423-2.753 6.847-8.223 6.847-8.223s1.024-1.6.911-2.27a.79.79 0 0 1 .038-.436c.333.508.627.95.744 1.106.334.446 2.344 11.498 2.566 13.73.224 2.232 3.183 17.415 3.183 17.415-.504 4.464.78 3.236.78 3.236.374 0 1.043-.446.97-.818-.076-.373.445 0-.373-2.158-.819-2.158-5.73-31.48-5.73-31.48s.15-.037.36-.112c5.596 6.282 11.416 7.387 11.416 7.387 1.34.39 1.508-.615.948-1.06-.557-.448 1.564.333 2.902.39 1.341.055 3.35.055 5.416-.112 2.063-.168.166-.727 1.34-.448 1.17.279 1.617.225 2.623.225 1.003 0 .948.167 1.898.39.947.225 1.337.67 2.12.78.78.115 2.121 1.174 2.121 1.174l-2.12-2.456c-.728-.836-1.23-.947-1.9-1.507-.67-.558-.557-.67-1.617-1.06-1.062-.392-1.675-.336-2.513-1.117-.837-.78-1.396-.613-1.396-.613-1.563-.614-1.117.309-2.568-.194-1.45-.503-1.45.64-3.182.64H47.01c-.615 0-1.395-.752-2.066-.807-.67-.058-.893-.07-.727-.572.17-.502 2.291.38 2.291.38h.222c1.954 0 2.345-.59 4.521-.59 2.178 0 2.287-1.046 3.125-1.215.838-.167.67-.411 2.232-.411 1.562 0 1.676-1.35 2.68-1.52 1.005-.166 2.345-1.26 1.842-1.874-.503-.615.057-.518 1.283-.518 1.23 0 1.061-.736 2.29-1.406 1.227-.67.78-.226 1.728-.283.95-.055 1.284-.838 2.737-1.341 1.45-.502 1.563-.334 2.4-.503.835-.168 1.283-.17 1.283-.17s.001.004-.67-.665zM160.203 71.703s-4.67-.53-6.261-.423c0 0 4.987-7.112 4.244-10.296 0 0-4.457-.106-5.624.637 0 0 5.624-6.367 5.094-8.81-.53-2.441-4.775-.318-5.201-.104l-.424.21s4.139-6.26 1.91-9.337c0 0-3.927 1.378-5.2 2.333-1.273.956 3.024-3.768 1.91-10.825 0 0-1.91-.743-3.555.902 0 0 1.645-6.578.266-8.118 0 0-3.942.1-5.924 2.815 0 0 2.229-7.483.849-10.188 0 0-1.52-.103-3.421 1.328-.044.034.387.013.344.05-1.221 1.063.478-5.041-2.122-7.693 0 0-2.176-.265-3.237 2.068 0 0 1.008-3.766-2.76-7.374 0 0-1.062-.214-1.326.742 0 0-.053-2.866-2.813-2.547 0 0-.32-.425-.477-.425-.16 0-.214.318-.478.425-.267.105-1.912.425-1.858 2.176 0 0-.85-.106-.85-.266 0-.16-2.388 3.343-2.6 4.033-.213.69-1.167 2.015-1.062 2.759.106.743.902 2.176.902 2.176s-2.23-1.433-3.13-1.38c-.903.054-1.063 2.017-.903 2.76.16.743-1.963 3.872-.425 6.103 0 0 .796.955-1.113-.212-1.911-1.17-3.185-.69-3.768-.584 0 0-.792 8.205 1.817 10.063-1.117-.521-3.681-1.538-5.851-1.096 0 0-.32 5.89 3.132 8.86 0 0-1.435-.901-2.602-1.22-1.168-.317-2.706-.425-3.29-.371-.585.054-.954 5.677 1.22 7.8 0 0 .633.56-.69.267-1.91-.425-3.13-.902-3.872-.212-.74.686.838 7.638 3.736 9.42-.284-.202-2.543-1.722-5.913-1.16 0 0 0 4.952 4.529 8.206 0 0-4.582-.68-5.404.01-.816.686 1.486 5.937 6.496 8.63.027.017.057.03.085.046 0 0 1.299.558-.24.53-1.538-.026-6.13.823-6.554 1.566 0 0-.61 2.36 6.184 4.563 0 0 1.325.45.29.557-1.033.106-2.812.77-3.342 1.248-.531.477-1.565 1.008-1.645 1.354-.08.344 1.83 2.837 8.993 2.625 0 0-1.99 2.31-2.334 3.265-.346.955-.425 1.564-.425 1.67 0 .108 2.096-.052 3.237-.157 1.142-.107 2.945-.054 3.714-.425.77-.371.796-.638.69-.133-.106.504-.77 2.334-.742 2.999.025.662.397.715.98.317.584-.398 1.75-.982 2.176-1.433.425-.451 1.274-.822 1.91-1.221.637-.397 6.819-2.52 6.555-6.845 0 0-.347-.931.238-1.486.584-.558 1.618-.771 2.017-.371.397.398 1.007.079.9 1.194-.104 1.113-2.333 8.754-2.758 10.028-.425 1.274-.531 1.38-.451 1.459.08.079 1.274-.052 1.564-.052.292 0 1.487-4.565 1.62-5.07.13-.503.796-5.013 1.06-5.597.267-.584.399-1.036.77-1.114 0 0 1.978-.564 2.767.129 0 0 .819 4.605 3.876 5.452 2.62.724 3.396 3.537 3.396 3.537s1.218-1.984 2.279-1.56c1.06.425 6.898 2.759 6.686 2.122-.212-.638-1.38-4.033-1.38-4.033s7.11 2.123 9.34-.743c0 0-2.547-3.396-3.82-3.608-1.274-.212 6.897-2.122 7.429-5.093-2.548-1.063-6.367-1.805-6.367-1.805s7.007-2.756 7.007-6.047zM165.76-56.38c-1.383 0-1.522-.208-3.322.069-1.803.276-2.356-.97-3.117-.901-.763.069-1.732.693-1.871-.068-.138-.763 1.455-.21.139-1.11-1.316-.9-2.147-1.454-.97-1.8 1.177-.346 3.532-1.04 2.078-1.524l-1.455-.485s-2.631 1.248-1.523 0c0 0 2.008-1.732 1.594-2.632-.417-.901-.832-1.594 0-2.218.83-.623 1.385-1.593 2.076-2.563.693-.97.832-1.94-.138-1.94s-3.395 0-2.355-.762c1.039-.762 1.594-1.455 1.316-2.01-.277-.554 1.594-.97.832-2.007-.763-1.04-2.078-1.11-1.455-2.217.623-1.11 1.108-1.248.83-2.148-.276-.9-.83.208-.553-.762.276-.97 1.522-2.563 1.522-2.563s.209-1.385-.483-1.871c-.693-.484-.555-2.771.207-3.81.763-1.04.97-1.316.416-1.316s-2.702 1.386.138-5.057c2.84-6.443 2.633-6.443 3.74-9.352 0 0 2.219-5.957.556-7.62 0 0-.07 3.256-.555 3.742-.484.484-1.594 1.455-2.078 2.839-.485 1.386-5.126 7.62-5.681 8.175-.554.554-.9 1.178-1.662.9-.763-.276-1.871-.346-2.563.347l-.693.692s-1.524 1.386-2.078 2.009c0 0-1.731-1.801-2.217-1.247-.485.554-1.524 3.256-2.771 4.71-1.247 1.455-2.217-.276-2.563-.9-.346-.624-.346-1.177-1.802.485-1.453 1.662-3.255 4.918-3.878 2.77-.623-2.146-1.386-5.402-1.732-2.493-.346 2.91-.14 2.01-.762 2.287-.624.276-.762.068-1.94.969-1.177.9-1.04.9-1.8.762-.762-.14-1.11-.208-2.218-1.108-1.108-.9-1.594-1.247-2.008.139-.417 1.385-.694 1.8-2.08 2.216-1.384.416-.553 1.248-2.077.693-1.522-.554-2.078-.554-2.493.277-.416.832-.485 1.94-1.386-.484-.9-2.425.069-4.988-.9-4.503-.97.485-2.354.485-2.84 2.079-.486 1.594-2.147 1.87-2.495 1.87-.346 0 .278 1.109-.414 2.217-.694 1.109-1.18.693-2.217.416-1.04-.277-1.316-2.494-1.11.069.105 1.27.24 1.519.277 1.557-.027-.011-.125-.005-.346.313-.622.9-.762 2.355-.762 2.355s-1.177-.693-1.663-.693c-.484 0-1.177.277-.83 1.663.346 1.386-1.248 1.317-1.248 1.317s0 1.73-.623 2.285c-.623.554-2.493-2.078-2.632-.831-.14 1.247 1.246 2.909.068 3.395-1.178.484-2.285-.555-1.94.969.349 1.524 1.526 2.77.07 2.91-1.454.139-2.217.9-1.246 2.078.968 1.178 1.802 2.77-.416 2.7-2.217-.068-3.047.14-1.801 2.15 1.246 2.008 1.8 2.008.277 2.632-1.524.624-2.078.207-1.11 2.009.972 1.8-1.107 2.008-1.245 2.909-.14.9 1.246-1.108 2.147.762.899 1.87-.762.97-.693 2.563.069 1.594.624 1.662 1.456 2.632.83.97 1.245.623.76 1.87-.482 1.247.485.9.833 2.424.347 1.524-3.464-.484-1.94 1.178 1.524 1.663 2.287.485 3.187 1.524.9 1.04-1.731 1.455-.138 1.73 1.593.278 3.948.347 2.7 1.179-1.247.83-1.314 1.524.832 1.73 2.147.209 2.84-.345 4.435-1.176 1.592-.831 1.522-1.663 4.432-2.424 2.91-.763 6.443-.763 6.72-.832.278-.07-7.758 6.582-9.63 8.867 0 0-6.72 4.018-7.618 7.343l.277-.07c.209 0-.208 1.11 1.246 1.249 1.455.138 3.117.138 3.257-.416.138-.555-1.871-1.594-.416-1.386 1.453.208 2.493.208 3.464.347.97.138 3.6 1.316 3.046.138-.554-1.177-1.315-1.87-2.77-2.98-1.454-1.108 5.472-5.68 6.927-6.857 1.455-1.178 5.543-5.057 5.68-5.403.14-.347.972.9 1.525 2.563.555 1.662 1.662 4.503 1.317 5.75-.35 1.248-1.248 3.325-1.248 4.78s-.277 2.563.068 3.325c.347.76.97-.97 1.802.623.83 1.593.554 2.84 1.8 3.187 1.248.348 2.286-1.455 3.118-.553.832.9 2.286 3.047 3.672 3.047 1.385 0 0-.276.97-1.386.969-1.108.415-.484 1.386-1.178.97-.692.83-.415 1.8.208.97.624 1.94-1.04 1.94-1.04s.97.9 2.009-.553c1.039-1.455.97-2.216 2.703-2.563 1.73-.347 3.115-.14 2.7-1.178-.415-1.04-1.315-1.593-.485-2.078.83-.484-.14-.692 1.455-.97 1.593-.277 2.217-.416 1.938-1.593-.276-1.178-.068-1.386.97-1.871 1.04-.485 1.18-1.248.9-2.078 0 0 3.534-.415 2.703-1.455s-1.731-.763-.901-1.801c.83-1.04 1.455-1.94 2.217-2.217.763-.277-.97 0 .208-1.04 1.179-1.04 1.663-1.593 1.316-1.94-.346-.345 2.563-.068 2.147-.97-.415-.9-.624-1.592-.624-1.592s-.83-1.108 1.04-1.385c1.87-.277 2.563-1.247 2.216-1.316-.346-.07-.761-.623-1.177-.762-.415-.14.347-.416 1.316-1.455.969-1.04 1.108-.832.76-2.01-.345-1.177-.483-1.04 1.525-2.562 2.012-1.524 4.088-2.908 2.702-2.908zM57.409 159.685c-2.544.637-10.083-1.998-10.083-1.998 4.179-6.268 11.627-8.72 11.627-8.72-2.055-3.123 2.358-6.69 3.219-7.342-.257.055-.968.025-2.946-.47-3.271-.816-3.634-1.725-3.815-2.724-.181-1 1.817-2.544 1.817-2.544s-.727-.363-1-1.726c-.272-1.361.727-.817 1.453-2.997.726-2.18-.817-1.907-2.452-3.27-1.634-1.362.546-4.633.546-4.633-1.272 1-3.906 2.36-5.36 1.908-1.452-.455-1.18-1-1.906-.182-.727.817-1.635 2.36-1.635 2.36-4.814 2.726-7.084-1.634-7.084-1.634-.546 3.542-2.998 7.356-2.998 7.356-.272 1.362-3.633 7.356-4.36 7.63-.726-.727-.09-1-.453-3.815s1.726-9.445 2.27-11.354c.546-1.906 1.545-6.63 1.545-6.63-2.815 1.635-5.632 2.27-5.632 2.27-3.18-1.181-4.541-8.537-4.541-8.537l.09-.455c-3.724 3.725-4.268-5.177-4.268-5.177-.273 4.723-3.542 7.267-4.36 7.267-.817 0-2.633-1.363-2.18-.817.454.545.636 4.087.636 4.087.09 5.63-1.453 8.266-2.452 8.266-1 0-3.724-3.725-3.724-3.725-1 1.27 0 4.724.18 5.994.183 1.272 2.09 6.358 2.454 7.357.363.999.363 6.448-.273 6.54-.635.09-1.726-1.09-2.542-1.726-.818-.636-1.272-6.722-1.272-6.722-.999.09-2.089-.272-3.27-1.09-1.18-.817-1.272-3.27-1.998-4.813-.728-1.544-1.09-4.36-1.09-4.36-.183.817-2.182 3.18-2.182 3.18-.635.908-1.906.817-1.906.817-1.816-1.907-3.27-2.726-3.27-2.726-.908-1-2.997.182-3.814-.363-.818-.544-1.09-.363-1.09-.363 1.726 5.904-.818 6.268-.818 6.268-2.634.182-1.634.363-1.634.363 1.906 1.726 3.723 5.54 3.723 5.54 2.271 6.177-3.179 6.994-3.179 6.994-2.725 0-3.906.545-3.906.545 1.363.454 3.452 2.543 3.452 2.543 1.544 1.18 2 3.542 3.088 3.905 1.091.363 2.362 1.816 3.906 2.362 1.544.545 3.36 3.814 3.36 3.814 1.726 1.816 1.453 3.542 1.453 3.542-1.09.454-3.996.727-3.996.727-4.542 1.09-5.904.182-5.904.182-1.816 4.36-10.08 5.994-10.08 5.994 13.26 2.27 9.536 6.813 9.536 6.813.907-.636 5.903-.182 5.903-.182 2.725 1.544-.455 6.903-.455 6.903 7.63-4.814 13.171-4.178 13.171-4.178 1.816.727 1.362 3.542 1.362 3.542-.453 1.362.636-.183-1.635 7.447 1.543 0 4.178-3.633 5.813-4.541 1.636-.908 6.722-4.36 6.722-4.36 1.203-2.805 2.306-3.25 2.805-3.291-.096 1.7-.24 4.07-.352 5.018-.182 1.544.454 3.542.545 4.269.09.727.272 3.36.545 4.905.272 1.544.363 6.448.363 6.812 0 .364 1.362 0 1.362-.545s-1.453-7.357-1.453-8.992c0-1.635 0-5.54-.091-6.903-.063-.927-.04-2.865.182-4.41 2.259.632 2.998 3.412 2.998 3.412 3.904-1.817 8.81 5.177 8.99 3.814.183-1.362 2.727-1.271 5.269-.908 2.543.363 4.995 2.452 4.995 1.907 0-.545-1.634-2.09-1.634-2.09-3.815-2.452-3.725-6.721-3.725-6.721.454-3.633 8.629-.544 8.629-.544 3.634.998 4.27-1.272 4.27-1.272-1.817 1.362-1.817 0-1.272-1.453.546-1.453 1.09-.182 2.452-.817 1.362-.635 4.178-3.271 4.178-3.271 4.27-1.997 6.903-1.906 6.903-1.906-9.721-1.27-7.722-5.356-7.722-5.356zM-51.777 152.665c0-.65-1.679-1.404-2.399-1.781.653-.755-.445-1.887-1.166-2.023.137-.65-1.302-1.68-3.36-2.331.583-1.782-.855-2.091-1.849-2.057.24-.651-2.4-.822-2.95-.685-1.37-.995-8.124 1.232-8.124 1.232s1.268-2.192 2.708-3.702c1.44-1.508 2.467-3.736 2.467-3.736s2.092-1.886 2.571-3.153c1.27-.617.721-2.571.446-3.222.446-.035.41-1.407.96-2.983.548-1.576.478-1.92.478-1.92s1.03-2.502.516-3.223c.375-1.474-2.057-2.88-2.057-2.88s1.336-3.05.96-4.011c.273-.822-.48-2.158-1.27-2.536.342-.55.104-2.126-.377-2.812-.479-.686-.274-1.852-.65-3.258-.378-1.404-1.236.036-2.093 1.133-1.439-.104-2.947 1.816-2.947 1.816s-.412-.754-.72-.856c-.309-.104-1.234.273-1.44 1.164-.825-.205-2.366 1.75-3.155 2.469-.617-1.233-3.153-2.16-3.153-2.16s.104-.205-.103-.514c-.892 0-2.092 1.2-2.57 3.018 0 .137-1.03.778-1.509 1.602-2.057.856-2.88 3.829-2.88 3.829h-1.507s-.446-.23-.755.49c-.308.72-.89 1.789-.89 1.789s-.137-.36-.345.053c-.136.96-2.262 4.26-2.262 4.26s-.994 1.84-1.336 4.068c-.342 2.228-1.85 4.363-2.846 5.736-.788-6.173-3.872-10.708-4.558-10.948-.137-.754-2.4-3.878-3.155-3.811-.24-.686-1.577-1.443-2.022-1.478 0 .377-1.337.648-1.714 1.336-.342-1.303-3.635-2.71-3.703-2.197-.445-.238-2.16-1.164-2.332-.136-.068-.274-1.199-.48-1.953-.48-.755 0-1.954-1.438-2.16-1.61-.205-.172-.377-.103-.48.274-.104.376.205 2.467.822 5.313-.892.24-.72 2.434 0 4.696-.994-.034-1.474 2.023-1.098 3.703-.547.445.311 4.422.618 5.827-.96.617-.789 2.193-.789 2.193s-.65.377-.72.755c-.069.377.685 1.714.685 1.714s-.308.138-.035.583c.07.822 2.47 4.113 2.47 4.113l-.07.789s2.745 2.674 3.737 3.736c.995 1.063 2.264 3.05 2.264 4.354-2.95-.205-5.932 2.709-5.657 3.086-.172.069-1.78 1.749-1.749 3.359-1.267.926-2.296 2.263-2.296 2.263l1.062 1.13c.651 1.44 4.8 2.778 4.8 2.778s-.035.309.068 1.132c4.08 2.503 7.747 1.473 10.901.034.035.719 1.132 2.124 2.092 3.428 1.61-.034 1.782-1.783 1.817-4.354.515.41.788-.24.824-1.198.035-.96-.687-3.224-.687-3.224-.035-.787 2.194-.411 2.332-.344.07.035.313.216.862.635-2.36 6.469-10.407 29.307-10.688 30.853-.35 1.916 1.468 2.629 1.468 2.629l9.65-33.154c.493.375.938.718.938.718l-.035.377c-.344 3.018-.618 8.468 1.371 9.462.926.89 2.092-.584 2.092-.584l2.674 2.505.375-.378 3.977 1.576.412-1.028 3.43 1.544s.067-.172.102-.687c.89.207 2.502-1.646 3.461-3.324.96-1.681-.959-5.382-.959-5.382s5.553.272 8.501-.07c2.948-.343 1.748-1.303 1.748-1.303s1.131-.136 3.018-.377c1.885-.24 1.713-1.028 1.713-1.028s.377.034 1.337-1.336c.96-1.372 1.063-3.086 1.063-3.086s1.2-.137 2.365-1.577c1.164-1.438.994-2.674.994-2.674s1.234.035 2.16-.31c.926-.342.892-1.404.892-1.404s2.366-.618 2.811-1.132c.447-.514-.135-.856-1.439-1.097zM-184.763 149.158c.27-1.726-1.195-8.477-1.587-9.858-.395-1.382-3.262-6.458-3.262-6.458l.021-.155c-1.185-5.218-3.813-6.98-3.813-6.98-2.16-5.413-7.072-13.818-7.39-15.786-.319-1.967-1.39-1.96-1.39-1.96-2.71 13.348-17.23 22.54-17.23 22.54-5.32 3.67-10.234 8.603-10.234 8.603-1.466 2.523-5.239 5.249-6.487 6.088-1.25.838-1.787 1.696-2.774 2.71-.986 1.016-2.002 2.812-2.522 4.1-.523 1.289-2.095 3.695-2.095 3.695a4.67 4.67 0 0 0-.423.989c-.375 1.255-.3 2.748-.475 5.268-.22 3.206.603 5.689.603 5.689 2.724 18.802 16.69 13.744 16.69 13.744 2.578-1.57 6.367-.704 6.367-.704.373 3.759-8.083 13.326-8.083 13.326.884 1.255 1.952.375 1.952.375 3.093-4.098 7.993-12.813 8.906-13.267.915-.453 2.247.288 2.247.288 4.12 6.806 7.621 6.756 9.726 7.025 2.106.27 3.89-.286 5.127-.483 1.238-.196 4.201-1.601 5.6-2.491 1.397-.89 1.998-2.24 2.853-3.343.855-1.104 1.651-3.053 1.651-3.053 4.377-5.573 4.415-9.944 4.415-9.944-.432-2.195.301-5.668.301-5.668 2.567-9.658 1.038-12.565 1.306-14.29zM110.123 195.02s-2.06 5.768-1.791 7.378c.269 1.61 1.54 1.575 2.158.449.615-1.123 1.745-7.197 1.745-7.197 16.855 7.973 34.407-20.47 34.407-20.47 8.186-13.81 9.005-29.248 9.005-29.248 1.053-1.78-.048-11.944-.048-11.944-.581-.944-2.707-9.947-3.41-10.958-.698-1.011-2.105-7.896-2.105-7.896-4.404 2.605-12.857 3.154-13.946 4.283-1.09 1.129-5.568 2.439-5.568 2.439-17.121 13.52-22.868 25.738-22.868 25.738-.8 4.895-2.46 8.219-2.46 8.219-9.358 26.549 4.88 39.207 4.88 39.207z"/></svg>