<?xml version="1.0" encoding="UTF-8" standalone="no"?>
<svg
   xmlns:dc="http://purl.org/dc/elements/1.1/"
   xmlns:cc="http://creativecommons.org/ns#"
   xmlns:rdf="http://www.w3.org/1999/02/22-rdf-syntax-ns#"
   xmlns:svg="http://www.w3.org/2000/svg"
   xmlns="http://www.w3.org/2000/svg"
   xmlns:sodipodi="http://sodipodi.sourceforge.net/DTD/sodipodi-0.dtd"
   xmlns:inkscape="http://www.inkscape.org/namespaces/inkscape"
   width="76"
   height="76"
   viewBox="0 0 76.00 76.00"
   id="svg2"
   version="1.1"
   inkscape:version="0.91 r13725"
   sodipodi:docname="plantines2.svg">
  <metadata
     id="metadata12">
    <rdf:RDF>
      <cc:Work
         rdf:about="">
        <dc:format>image/svg+xml</dc:format>
        <dc:type
           rdf:resource="http://purl.org/dc/dcmitype/StillImage" />
        <dc:title></dc:title>
      </cc:Work>
    </rdf:RDF>
  </metadata>
  <defs
     id="defs10" />
  <sodipodi:namedview
     pagecolor="#ffffff"
     bordercolor="#666666"
     borderopacity="1"
     objecttolerance="10"
     gridtolerance="10"
     guidetolerance="10"
     inkscape:pageopacity="0"
     inkscape:pageshadow="2"
     inkscape:window-width="640"
     inkscape:window-height="480"
     id="namedview8"
     showgrid="false"
     inkscape:zoom="3.1052632"
     inkscape:cx="32.364407"
     inkscape:cy="44.46511"
     inkscape:window-x="10"
     inkscape:window-y="156"
     inkscape:window-maximized="0"
     inkscape:current-layer="svg2" />
  <path
     d="m 26.471301,45.111132 18.949814,0 L 41.973831,61.949 30.525143,61.827537 Z"
     id="path4"
     inkscape:connector-curvature="0" />
  <path
     d="m 34.838613,35.141262 c 0,0 -7.785805,-0.217875 -10.808726,-3.332653 -3.025199,-3.113259 -3.973373,-6.169583 -6.938599,-11.299135 0,0 6.822449,-2.335135 11.863181,2.855149 5.039214,5.189526 5.883385,11.77588 5.883385,11.77588 z m 0.305936,15.910191 0.362872,-20.939536 c 0,0 -3.650735,-8.270141 -3.556601,-11.459315 0.119946,-4.034864 2.789864,-6.485388 8.1297,-11.38416 0,0 2.619814,6.716168 3.318988,10.695614 0.886683,5.071857 -7.107129,11.916321 -7.107129,11.916321 l 0.928436,21.230289 -2.076266,-0.0577 z M 55.662,20.600571 c 0,0 -3.095799,8.194986 -6.243979,10.134605 -3.150458,1.938101 -7.22252,2.403458 -12.08713,3.967299 0,0 2.263016,-7.439635 7.511754,-10.671321 C 50.091383,20.800986 55.662,20.599812 55.662,20.599812 Z"
     id="path6"
     inkscape:connector-curvature="0"
     sodipodi:nodetypes="ccccccccccccccccccccc" />
  <path
     d="m 6.5016279,50.915384 20.2548081,0 -3.684684,17.997421 -12.237112,-0.129828 z"
     id="path4-3"
     inkscape:connector-curvature="0" />
  <path
     d="m 15.99956,46.578887 c 0,0 -5.240718,-0.146654 -7.2754815,-2.243249 -2.0362966,-2.09557 -2.6745242,-4.152818 -4.6704525,-7.60558 0,0 4.5922702,-1.571807 7.985247,1.921835 3.391955,3.49313 3.960176,7.926483 3.960176,7.926483 z m 0.20593,10.709336 0.244253,-14.094647 c 0,0 -2.457353,-5.566729 -2.39399,-7.713401 0.08074,-2.715913 1.87789,-4.36539 5.472196,-7.662811 0,0 1.763428,4.520731 2.23405,7.199344 0.596836,3.413926 -4.783892,8.021015 -4.783892,8.021015 l 0.624941,14.290358 -1.397558,-0.03884 z M 30.016027,36.791376 c 0,0 -2.083819,5.516143 -4.202896,6.821723 -2.12061,1.304558 -4.861563,1.617796 -8.135988,2.670436 0,0 1.523261,-5.007706 5.056249,-7.182992 3.532987,-2.174265 7.282635,-2.309677 7.282635,-2.309677 z"
     id="path6-6"
     inkscape:connector-curvature="0"
     sodipodi:nodetypes="ccccccccccccccccccccc" />
  <path
     d="m 45.466801,51.363859 20.254808,0 -3.684684,17.997421 -12.237112,-0.129828 z"
     id="path4-3-3"
     inkscape:connector-curvature="0" />
  <path
     d="m 54.964733,47.027362 c 0,0 -5.240718,-0.146654 -7.275481,-2.243249 -2.036297,-2.09557 -2.674524,-4.152818 -4.670453,-7.60558 0,0 4.592271,-1.571807 7.985247,1.921835 3.391955,3.49313 3.960177,7.926483 3.960177,7.926483 z m 0.205931,10.709336 0.244253,-14.094647 c 0,0 -2.457353,-5.566729 -2.39399,-7.713401 0.08074,-2.715913 1.877889,-4.36539 5.472195,-7.662811 0,0 1.763429,4.520731 2.23405,7.199344 0.596837,3.413926 -4.783892,8.021015 -4.783892,8.021015 l 0.624942,14.290358 -1.397558,-0.03884 z M 68.9812,37.239851 c 0,0 -2.083819,5.516143 -4.202895,6.821723 -2.12061,1.304558 -4.861564,1.617796 -8.135988,2.670436 0,0 1.52326,-5.007706 5.056248,-7.182992 3.532987,-2.174265 7.282635,-2.309677 7.282635,-2.309677 z"
     id="path6-6-5"
     inkscape:connector-curvature="0"
     sodipodi:nodetypes="ccccccccccccccccccccc" />
</svg>
