<?xml version="1.0" encoding="UTF-8" standalone="no"?>
<svg
   xmlns:dc="http://purl.org/dc/elements/1.1/"
   xmlns:cc="http://creativecommons.org/ns#"
   xmlns:rdf="http://www.w3.org/1999/02/22-rdf-syntax-ns#"
   xmlns:svg="http://www.w3.org/2000/svg"
   xmlns="http://www.w3.org/2000/svg"
   xmlns:sodipodi="http://sodipodi.sourceforge.net/DTD/sodipodi-0.dtd"
   xmlns:inkscape="http://www.inkscape.org/namespaces/inkscape"
   version="1.1"
   width="76"
   height="76"
   viewBox="0 0 76.00 76.00"
   enable-background="new 0 0 76.00 76.00"
   xml:space="preserve"
   id="svg2"
   inkscape:version="0.91 r13725"
   sodipodi:docname="appbar.food.cupcake.svg"><metadata
     id="metadata10"><rdf:RDF><cc:Work
         rdf:about=""><dc:format>image/svg+xml</dc:format><dc:type
           rdf:resource="http://purl.org/dc/dcmitype/StillImage" /></cc:Work></rdf:RDF></metadata><defs
     id="defs8" /><sodipodi:namedview
     pagecolor="#ffffff"
     bordercolor="#666666"
     borderopacity="1"
     objecttolerance="10"
     gridtolerance="10"
     guidetolerance="10"
     inkscape:pageopacity="0"
     inkscape:pageshadow="2"
     inkscape:window-width="1163"
     inkscape:window-height="680"
     id="namedview6"
     showgrid="false"
     inkscape:zoom="4.3915053"
     inkscape:cx="50.27903"
     inkscape:cy="39.060168"
     inkscape:window-x="10"
     inkscape:window-y="156"
     inkscape:window-maximized="0"
     inkscape:current-layer="svg2" /><path
     d="m 46.00992,44.617198 -17.819242,0 c 0.241635,-3.542373 17.758819,-3.864407 17.819242,0 z m -17.819242,1.5834 17.819242,0 -2.672884,15.8333 -12.473475,0 z"
     id="path4"
     inkscape:connector-curvature="0"
     sodipodi:nodetypes="cccccccc" /><path
     d="m 36.142553,31.405786 c 0,0 -5.793474,-0.169883 -8.044052,-2.594786 -2.250577,-2.424904 -2.95626,-4.804507 -5.162247,-8.800726 0,0 5.076704,-1.816876 8.827634,2.224595 3.750979,4.041523 4.378665,9.170917 4.378665,9.170917 z m 0.228582,12.390978 0.26902,-16.30792 c 0,0 -2.716618,-6.439032 -2.64619,-8.923506 0.08903,-3.142586 2.075902,-5.050116 6.049586,-8.865029 0,0 1.951163,5.229235 2.469796,8.328557 0.661092,3.950918 -5.288278,9.28062 -5.288278,9.28062 l 0.69096,16.532579 -1.544894,-0.0453 z M 51.640018,20.080668 c 0,0 -2.303564,6.382555 -4.647269,7.892314 -2.343655,1.50971 -5.37486,1.872495 -8.994622,3.090918 5e-5,-4.9e-5 1.683417,-5.79393 5.589625,-8.310193 3.906109,-2.516266 8.052266,-2.673039 8.052266,-2.673039 z"
     id="path4-3"
     inkscape:connector-curvature="0"/></svg>