<svg xmlns="http://www.w3.org/2000/svg" width="76" height="76" viewBox="0 0 76.00 76.00"><path d="M25.21 51.769h24.962l-4.541 22.18-15.081-.16z"/><path d="M36.232 38.636s-10.256-.287-14.238-4.39c-3.985-4.101-5.234-8.127-9.14-14.884 0 0 8.987-3.076 15.627 3.761 6.638 6.836 7.75 15.512 7.75 15.512zm.403 20.958l.478-27.583s-4.809-10.894-4.685-15.095c.158-5.315 3.675-8.543 10.709-14.996 0 0 3.451 8.847 4.372 14.089 1.168 6.681-9.362 15.697-9.362 15.697l1.223 27.966-2.735-.076zm27.027-40.112s-4.078 10.795-8.225 13.35c-4.15 2.553-9.514 3.166-15.922 5.226 0 0 2.981-9.8 9.895-14.057 6.914-4.255 14.252-4.52 14.252-4.52zM5.965 48.864h15.81L18.9 62.913l-9.552-.102z"/><path d="M13.378 45.48s-4.09-.115-5.679-1.752c-1.59-1.636-2.087-3.241-3.645-5.937 0 0 3.584-1.226 6.233 1.5 2.648 2.727 3.091 6.188 3.091 6.188zm.161 8.359l.19-11.002s-1.917-4.346-1.868-6.021c.063-2.12 1.466-3.408 4.272-5.982 0 0 1.376 3.53 1.744 5.62.465 2.665-3.735 6.261-3.735 6.261l.488 11.155-1.09-.03zm10.78-16s-1.626 4.306-3.28 5.325c-1.656 1.019-3.795 1.263-6.351 2.085 0 0 1.189-3.91 3.947-5.607s5.684-1.803 5.684-1.803zM52.49 48.838H68.3l-2.876 14.049-9.552-.102z"/><path d="M59.904 45.453s-4.091-.114-5.68-1.75c-1.589-1.637-2.087-3.242-3.645-5.938 0 0 3.585-1.227 6.233 1.5 2.648 2.727 3.091 6.188 3.091 6.188zm.16 8.36l.191-11.002s-1.918-4.346-1.869-6.021c.063-2.12 1.466-3.408 4.272-5.982 0 0 1.376 3.529 1.744 5.62.466 2.665-3.734 6.261-3.734 6.261l.487 11.155-1.09-.03zm10.78-16s-1.626 4.306-3.28 5.325c-1.655 1.018-3.795 1.263-6.35 2.085 0 0 1.188-3.91 3.946-5.607 2.758-1.698 5.685-1.803 5.685-1.803z"/></svg>