<svg xmlns="http://www.w3.org/2000/svg" width="76" height="76" viewBox="0 0 76.00 76.00"><path d="M26.471 45.111h18.95L41.974 61.95l-11.449-.121z"/><path d="M34.839 35.141s-7.786-.218-10.81-3.332c-3.024-3.114-3.972-6.17-6.938-11.3 0 0 6.823-2.335 11.863 2.856 5.04 5.19 5.884 11.776 5.884 11.776zm.306 15.91l.362-20.94s-3.65-8.27-3.556-11.458c.12-4.035 2.79-6.486 8.13-11.385 0 0 2.62 6.717 3.319 10.696.886 5.072-7.108 11.916-7.108 11.916l.929 21.23-2.076-.057zm20.517-30.45s-3.096 8.195-6.244 10.134c-3.15 1.938-7.222 2.404-12.087 3.967 0 0 2.263-7.44 7.512-10.67C50.09 20.8 55.662 20.6 55.662 20.6zM6.502 50.915h20.254l-3.684 17.998-12.237-.13z"/><path d="M16 46.579s-5.241-.147-7.276-2.243c-2.036-2.096-2.674-4.153-4.67-7.606 0 0 4.592-1.572 7.985 1.922 3.392 3.493 3.96 7.926 3.96 7.926zm.205 10.71l.245-14.095s-2.458-5.567-2.394-7.714c.08-2.716 1.878-4.365 5.472-7.663 0 0 1.763 4.521 2.234 7.2.597 3.414-4.784 8.02-4.784 8.02l.625 14.291-1.398-.039zM30.016 36.79s-2.084 5.517-4.203 6.822c-2.12 1.305-4.861 1.618-8.136 2.67 0 0 1.523-5.007 5.056-7.182 3.533-2.175 7.283-2.31 7.283-2.31zm15.451 14.574h20.255L62.037 69.36 49.8 69.23z"/><path d="M54.965 47.027s-5.241-.146-7.276-2.243c-2.036-2.095-2.674-4.153-4.67-7.605 0 0 4.592-1.572 7.985 1.921 3.392 3.493 3.96 7.927 3.96 7.927zm.206 10.71l.244-14.095s-2.457-5.567-2.394-7.713c.08-2.716 1.878-4.366 5.472-7.663 0 0 1.764 4.52 2.234 7.2.597 3.413-4.784 8.02-4.784 8.02l.625 14.29-1.397-.038zM68.98 37.24s-2.084 5.516-4.203 6.822c-2.12 1.304-4.861 1.617-8.136 2.67 0 0 1.524-5.008 5.057-7.183 3.533-2.174 7.282-2.31 7.282-2.31z"/></svg>