<svg xmlns="http://www.w3.org/2000/svg" width="52.448" height="44.709" viewBox="0 0 49.170411 41.914845"><path d="M24.615 31.123c-.552-1.554-1.398-2.924-3.033-3.475-1.544-.52-3.054.395-3.935 1.601-.812 1.111-.916 2.552-.678 3.86.282 1.551 1.528 2.847 2.853 3.593a2.252 2.252 0 0 0 2.69-.347c.662-.642 1.025-1.359 1.364-2.197.455-1.124-.486-2.439-1.551-2.732-1.27-.349-2.278.43-2.731 1.551.276-.683.078-.194.01-.053-.055.102-.115.2-.182.295.15-.198.136-.199-.046-.004l2.69-.347a5.903 5.903 0 0 1-.533-.337c.515.364-.056-.092-.17-.219.435.483.079.095-.014-.062-.305-.515.125.445-.043-.107-.058-.188-.1-.716-.02.057a3.2 3.2 0 0 1 0-.518c-.061.76-.04.306.014.102.14-.53-.257.482-.013.007.088-.17.385-.528-.101.083.139-.175.557-.45-.088.014.177-.128.542-.21-.188.053.45-.162-.627.003-.148.027-.461-.078-.582-.09-.363-.035.205.07.104.027-.301-.13.452.222-.387-.389 0 .01.147.166.103.106-.13-.182.079.105.144.22.209.333.047.084.09.171.132.26-.264-.539-.02-.034.02.082.406 1.14 1.5 1.89 2.732 1.551 1.106-.306 1.96-1.593 1.554-2.734zM15.644 3.624C15.09 2.071 14.246.7 12.61.15 11.067-.37 9.557.544 8.676 1.75c-.812 1.111-.916 2.551-.678 3.86.282 1.551 1.528 2.847 2.854 3.592a2.253 2.253 0 0 0 2.69-.347c.663-.642 1.024-1.359 1.364-2.197.456-1.124-.486-2.439-1.551-2.732-1.271-.35-2.277.43-2.731 1.551.277-.684.078-.194.01-.053-.055.102-.115.2-.182.295.15-.198.136-.199-.046-.004l2.69-.347a6.14 6.14 0 0 1-.534-.336c.515.364-.055-.092-.17-.219.435.482.08.095-.013-.062-.306-.515.125.445-.043-.107-.058-.188-.1-.716-.018.057a2.999 2.999 0 0 1 0-.519c-.061.76-.041.306.013.103.14-.53-.257.481-.012.007.087-.17.384-.528-.101.082.139-.175.557-.45-.088.014.177-.128.542-.209-.188.053.45-.162-.627.003-.148.027-.461-.078-.582-.09-.362-.036.205.071.104.028-.302-.129.452.222-.387-.389 0 .01.145.166.102.106-.13-.182.078.105.143.22.208.333.047.085.09.172.132.26-.264-.539-.02-.033.022.083.405 1.14 1.5 1.89 2.73 1.551 1.102-.306 1.957-1.593 1.55-2.734zM42.754 24.507c.489-1.774.879-3.602.595-5.44-.222-1.436-1.59-2.745-3.1-2.6-2.243.212-4.15 2.237-5.01 4.226-.554 1.283-.982 2.962-.058 4.206.543.731 1.227 1.284 2.144 1.467.976.195 1.902.105 2.873-.096 1.186-.245 1.856-1.622 1.55-2.73-.335-1.223-1.546-1.797-2.73-1.552a9.358 9.358 0 0 1-.473.085c.89-.135.32-.043.103-.03a3.417 3.417 0 0 1-.365.002c-.055-.002-.11-.007-.165-.012-.312-.028.723.118.34.041A1.959 1.959 0 0 1 38.2 22c.812.294.479.222.282.1-.293-.182.534.47.255.188-.23-.23.4.615.188.227-.163-.295.247.687.136.306-.124-.426.055.543.035.341a.885.885 0 0 1 0-.23c.017-.499-.105.627-.041.264.03-.178.083-.352.143-.52.07-.202.266-.628-.1.215a6.653 6.653 0 0 1 .738-1.256c.236-.32-.372.475-.184.237a6.77 6.77 0 0 1 .88-.926c.375-.323-.325.242-.192.143a3.67 3.67 0 0 1 .432-.277c.424-.229-.568.218-.253.1.065-.026.13-.044.199-.06.33-.077-.752.065-.37.052.374-.013-.7-.126-.387-.058.355.077-.635-.326-.322-.136.216.131-.558-.465-.334-.256.137.128.306.434-.245-.328.027.038.05.08.072.12.165.306-.25-.656-.134-.312.078.234.13.843.017-.116.02.183.025.368.023.551 0 .2-.017.398-.035.597-.018.188-.084.663.028-.164-.021.156-.047.312-.074.468a21.73 21.73 0 0 1-.48 2.06c-.32 1.166.386 2.411 1.552 2.732 1.165.317 2.408-.389 2.729-1.555zM15.985 13.437c-.986-1.018-2.45-1.367-3.712-.624-.96.565-1.522 1.7-1.691 2.768-.19 1.194.288 2.384 1.55 2.732 1.068.293 2.543-.354 2.732-1.55.025-.157.056-.308.094-.46.026-.096.057-.19.092-.282-.14.313-.154.37-.045.167l-.203.257c.28-.266.067-.153-.64.34-.436.11-.837.061-1.205-.147-.262-.222-.3-.242-.112-.06.842.87 2.294.846 3.14 0 .865-.867.842-2.273 0-3.14zM33.58 37.584c.284.182.734.633.89.874.26.4.388.958.397 1.227l2.22-2.22c.31.035-.45-.094-.404-.084-.116-.025-.891-.337-.44-.119-.218-.135-.205-.112.04.07-.171-.177-.142-.136.086.121.202.343.256.695.16 1.056-.14.284-.144.31-.014.076 1.457-2.474-2.383-4.707-3.835-2.242-.82 1.393-.625 2.792.358 4.025.91 1.141 2.714 1.381 4.049 1.536 1.18.138 2.253-1.114 2.22-2.22-.073-2.486-1.412-4.61-3.485-5.936-1.021-.653-2.445-.216-3.038.797-.631 1.077-.221 2.388.796 3.04zM6.82 15.395c.522-1.64.322-3.334-1.143-4.39-1.09-.786-2.588-.488-3.694.065-1.131.566-1.925 1.706-1.98 2.971-.076 1.735 1.574 2.825 3.082 3.118 1.188.23 2.393-.318 2.73-1.55.303-1.099-.361-2.502-1.55-2.733a5.197 5.197 0 0 1-.563-.139c-.478-.15.543.297.063.016-.271-.159.492.406.266.212-.14-.12-.297-.4.219.303-.107-.146-.188-.493.146.378-.125-.327.054.67.048.395-.01-.278-.12.705-.058.432.04-.174.226-.476-.165.373a1.02 1.02 0 0 1 .066-.116c.15-.243-.453.544-.201.263.143-.159.53-.43-.182.11.1-.076.209-.139.319-.198.364-.193-.655.238-.182.078.099-.033.202-.056.305-.073-.88.148-.49.05-.248.066-.785-.054-.614-.098-.41-.047.354.087-.571-.275-.326-.139-.194-.108-.433-.372-.544-.545.157.244-.241-.629-.141-.346.068.19.067.572-.022-.3.022.218-.07.794.053-.063-.033.231-.1.457-.17.68-.366 1.153.418 2.42 1.55 2.731 1.203.33 2.368-.399 2.733-1.552z" fill="#c4007f"/><path d="M9.967 5.124C8.414 8.72 4.94 10.861 2.999 14.212c-.461.796.77 1.513 1.229.72 1.943-3.356 5.406-5.474 6.968-9.089.36-.834-.866-1.56-1.23-.719zM14.409 6.69c.869.605 1.73 1.047 2.803 1.102.406.021.895-.098 1.262-.262.368-.165.78-.653 1.204-.57.897.176 1.28-1.197.379-1.373-.676-.133-1.174-.035-1.728.378-1.09.813-2.235.167-3.201-.505-.756-.527-1.467.71-.72 1.23zM23.813 11.906c.146 2.005.1 3.926-.364 5.891-.348 1.472-1.16 2.46-.772 3.975.228.89 1.602.512 1.374-.378-.16-.62.35-1.85.58-2.543.287-.863.439-1.76.566-2.656.2-1.423.145-2.86.04-4.288-.066-.912-1.491-.918-1.424 0zM13.236 16.854c1.95 3.317 4.708 5.006 8.509 5.442.912.104.902-1.32 0-1.424-3.284-.376-5.603-1.885-7.28-4.736-.465-.792-1.696-.075-1.23.718zM10.627 29.081c2.686.076 4.776 1.28 7.2 2.274.85.348 1.216-1.03.379-1.374-2.572-1.054-4.733-2.244-7.58-2.324-.92-.026-.916 1.398 0 1.424zM22.427 32.191c2.285-2 5.474-2.324 8.388-2.073.916.08.908-1.347 0-1.425-3.32-.286-6.818.234-9.395 2.49-.692.606.319 1.61 1.007 1.008zM24.37 24.098c1.18 1.77 2.894 2.494 4.667 3.524.796.462 1.513-.769.719-1.23-1.526-.886-3.136-1.486-4.157-3.013-.506-.759-1.74-.047-1.23.72zM33.98 29.662c1.156-.237 2.095-.762 3.016-1.484.808-.633 1.78-2.375 2.857-2.33.919.035.916-1.389 0-1.425-1.083-.044-1.625.448-2.294 1.23-1.06 1.235-2.333 2.304-3.957 2.636-.9.183-.518 1.556.379 1.373zM39.084 21.561c-.795-2.959-2.467-5.984-1.927-9.126.154-.898-1.22-1.283-1.374-.379-.597 3.48 1.045 6.604 1.927 9.884.238.886 1.612.51 1.374-.379zM40.822 25.23c1.025 2.901 3.31 4.551 5.438 6.615.659.64 1.667-.367 1.007-1.007-1.913-1.856-4.146-3.37-5.07-5.987-.304-.859-1.681-.489-1.375.38zM32.304 31.252c1.26 2.472 1.683 5.515 3.916 7.378.7.584 1.713-.418 1.007-1.008-2.106-1.758-2.498-4.745-3.693-7.09-.418-.818-1.647-.097-1.23.72z" fill="#ffa969"/><path d="M28.754 28.914c.285.182.735.632.893.874.26.4.387.958.395 1.226l2.22-2.22c.31.035-.45-.093-.403-.083-.117-.025-.891-.337-.44-.119-.218-.135-.205-.112.04.07-.171-.176-.143-.135.086.121.202.343.256.695.16 1.056-.14.283-.144.31-.014.077 1.454-2.475-2.386-4.709-3.835-2.242-.818 1.394-.625 2.792.358 4.025.91 1.141 2.714 1.381 4.048 1.536 1.18.137 2.252-1.113 2.22-2.22-.072-2.485-1.412-4.61-3.486-5.935-1.021-.652-2.444-.217-3.038.796-.631 1.075-.222 2.388.796 3.038zM26.149 20.248c-.985-1.016-2.45-1.366-3.711-.623-.96.566-1.522 1.7-1.69 2.77-.188 1.193.287 2.383 1.55 2.73 1.067.293 2.544-.354 2.732-1.55a5.13 5.13 0 0 1 .093-.46c.026-.096.057-.19.092-.282-.14.313-.154.37-.045.167l-.203.257c.28-.267.067-.154-.64.34-.436.11-.838.06-1.206-.148-.262-.222-.3-.242-.112-.06.842.868 2.294.845 3.14 0 .865-.866.842-2.273 0-3.14zM9.29 25.777c-.253.046-.233.044.06-.006a4.28 4.28 0 0 1-.716-.007c.558.038-.01-.01-.117-.035-.146-.03-.984-.347-.46-.115a4.46 4.46 0 0 1-.702-.404c.49.334.016-.019-.092-.137.204.28.244.325.12.134-.185-.299.115.504.124.571 0-.235-.018-.149-.052.257l-.143.311c.115-.193.074-.15-.124.128.166-.156.135-.142-.093.042.153-.114.328-.198.499-.283-.296.15.413-.102.508-.12-.614.123.786.152.089.021.11.025.222.054.33.09.533.157-.404-.214.072.042.093.052.182.11.269.17-.461-.31-.091-.049.01.053.266.271-.224-.395.06.13-.126-.329-.153-.383-.08-.163.137.44-.02-.545-.023-.096.068-.386.072-.464.012-.232.04-.102.082-.203.123-.304-.124.192-.09.147.105-.135.27-.187.3-.212.093-.074-.445.29.44-.128-.136.056-1.152.368-1.882 1.528-1.551 2.732.31 1.131 1.578 1.92 2.73 1.551 1.335-.427 2.355-1.205 2.873-2.53.416-1.066.137-2.343-.45-3.285-1.344-2.158-4.224-2.964-6.546-2.053-1.263.495-2.457 1.296-2.877 2.66-.4 1.295.106 2.475.917 3.47 1.447 1.773 4.235 2.24 6.349 1.844 1.19-.223 1.852-1.64 1.55-2.732-.34-1.239-1.542-1.773-2.731-1.55zM48.479 34.764c.489-1.774.88-3.603.596-5.44-.222-1.436-1.59-2.745-3.1-2.602-2.242.213-4.15 2.238-5.01 4.227-.556 1.283-.983 2.962-.06 4.207.543.731 1.227 1.284 2.144 1.468.976.195 1.9.105 2.872-.096 1.186-.245 1.856-1.623 1.55-2.73-.335-1.225-1.546-1.797-2.73-1.552a7.552 7.552 0 0 1-.473.085c.89-.135.32-.043.103-.03a3.703 3.703 0 0 1-.365.002c-.055-.002-.11-.007-.165-.012-.312-.029.723.117.34.041a1.772 1.772 0 0 1-.257-.075c.812.295.478.222.28.1-.291-.182.534.47.256.187-.228-.23.4.616.188.227-.162-.296.247.687.136.306-.124-.426.056.543.036.34a.885.885 0 0 1 0-.23c.018-.499-.105.627-.041.264.032-.178.083-.35.143-.52.069-.203.266-.628-.1.215a6.489 6.489 0 0 1 .645-1.126c.03-.044.063-.087.094-.13.235-.32-.373.476-.185.237.264-.335.559-.647.882-.927.374-.323-.326.242-.194.143a3.325 3.325 0 0 1 .432-.277c.425-.23-.568.218-.253.1.065-.025.132-.044.199-.06.33-.077-.753.065-.37.052.374-.012-.701-.126-.387-.058.355.077-.634-.326-.322-.136.216.131-.558-.465-.334-.256.137.13.306.434-.245-.327.027.038.05.078.07.12.166.306-.25-.657-.133-.313.079.234.13.844.017-.116.02.183.024.368.023.552 0 .2-.017.398-.036.596-.017.188-.083.664.029-.164-.021.157-.047.313-.074.47-.121.694-.293 1.38-.48 2.06-.321 1.165.385 2.41 1.55 2.731 1.168.318 2.41-.387 2.733-1.553zM38.295 12.608c.52-1.642.32-3.333-1.144-4.39-1.088-.787-2.588-.489-3.693.065-1.131.566-1.924 1.706-1.98 2.97-.077 1.735 1.573 2.825 3.08 3.118 1.189.23 2.394-.318 2.732-1.55.302-1.099-.362-2.502-1.551-2.733a5.18 5.18 0 0 1-.562-.139c-.48-.149.543.297.063.016-.272-.159.492.406.266.211-.14-.119-.297-.4.219.305-.107-.147-.188-.494.146.378-.125-.328.054.67.048.394-.01-.278-.12.706-.058.432.04-.174.226-.474-.165.373.019-.04.043-.078.066-.116.152-.243-.453.544-.2.264.143-.159.529-.43-.183.11.1-.076.209-.14.319-.198.364-.193-.655.237-.182.078a1.88 1.88 0 0 1 .305-.073c-.88.148-.49.05-.248.066-.786-.055-.614-.098-.41-.047.353.087-.572-.275-.326-.139-.195-.108-.433-.372-.544-.545.158.244-.242-.628-.14-.346.068.19.066.571-.023-.3.022.218-.07.793.053-.064-.033.231-.1.458-.17.68-.366 1.153.418 2.42 1.55 2.731 1.202.331 2.366-.398 2.732-1.55zM22.174 9.342c.188-.469-.28-.655.232-1.262-.888.187-2.055 1.076-2.803 1.593 1.17.465 2.665.791 4.257.882 0-1.355-.705-2.99-1.688-3.924-.42.375-.513.607-.935.984" fill="#c4007f"/><path d="M24.316 9.933c.076-.294.12-.595.122-.9.01-1.938-.664.94-.114.17 1.185-1.66-.757-3.723-2.508-3.263-1.25.33-2.292 1.09-3.334 1.817-1.646 1.148-1.31 3.355.53 4.06 1.55.59 3.199.85 4.848.96 1.182.078 2.257-1.07 2.22-2.22-.064-2.046-.893-4.04-2.338-5.495-.864-.87-2.271-.837-3.141 0-.327.315-.607.67-.935.984-2.064 1.991 1.08 5.128 3.14 3.14.328-.314.608-.669.936-.984H20.6c.365.368.543.675.81 1.233.138.284.222.917.229 1.122l2.22-2.22a12.55 12.55 0 0 1-3.666-.803l.53 4.06c.718-.5 1.733-1.228 2.274-1.369L20.49 6.962c-.224.315-.416.69-.473 1.073a1.752 1.752 0 0 0-.07.731c.107 1.318-.014.374.086-.012-.724 2.772 3.559 3.948 4.283 1.18z" fill="#c4007f"/></svg>