<?xml version="1.0" encoding="UTF-8" standalone="no"?>
<!-- Created with Inkscape (http://www.inkscape.org/) -->

<svg
   xmlns:dc="http://purl.org/dc/elements/1.1/"
   xmlns:cc="http://creativecommons.org/ns#"
   xmlns:rdf="http://www.w3.org/1999/02/22-rdf-syntax-ns#"
   xmlns:svg="http://www.w3.org/2000/svg"
   xmlns="http://www.w3.org/2000/svg"
   xmlns:sodipodi="http://sodipodi.sourceforge.net/DTD/sodipodi-0.dtd"
   xmlns:inkscape="http://www.inkscape.org/namespaces/inkscape"
   width="48.847023mm"
   height="23.33865mm"
   viewBox="0 0 173.08 82.696003"
   id="svg7595"
   version="1.1"
   inkscape:version="0.91 r13725"
   sodipodi:docname="arbolitos.svg">
  <defs
     id="defs7597" />
  <sodipodi:namedview
     id="base"
     pagecolor="#ffffff"
     bordercolor="#666666"
     borderopacity="1.0"
     inkscape:pageopacity="0.0"
     inkscape:pageshadow="2"
     inkscape:zoom="0.35"
     inkscape:cx="-45.6029"
     inkscape:cy="164.20515"
     inkscape:document-units="px"
     inkscape:current-layer="layer1"
     showgrid="false"
     fit-margin-top="0"
     fit-margin-left="0"
     fit-margin-right="0"
     fit-margin-bottom="0"
     inkscape:window-width="1024"
     inkscape:window-height="744"
     inkscape:window-x="0"
     inkscape:window-y="24"
     inkscape:window-maximized="1" />
  <metadata
     id="metadata7600">
    <rdf:RDF>
      <cc:Work
         rdf:about="">
        <dc:format>image/svg+xml</dc:format>
        <dc:type
           rdf:resource="http://purl.org/dc/dcmitype/StillImage" />
        <dc:title></dc:title>
      </cc:Work>
    </rdf:RDF>
  </metadata>
  <g
     inkscape:label="Capa 1"
     inkscape:groupmode="layer"
     id="layer1"
     transform="translate(-370.6029,-613.87135)">
    <g
       id="g283"
       transform="translate(3515.9649,144.84235)">
      <polyline
         points="-2977.041,549.384 -2981.046,545.379 -2985.051,549.384 -2989.056,545.379 -2993.06,549.384    -2997.065,545.379 -3001.07,549.384 -3005.074,545.379 -3009.079,549.384 -3013.084,545.379 -3017.089,549.384 -3021.094,545.379    -3025.098,549.384 -3029.103,545.379 -3033.108,549.384 -3037.112,545.379 -3041.117,549.384 -3045.123,545.379 -3049.127,549.384    -3053.131,545.379 -3057.136,549.384 -3061.141,545.379 -3065.146,549.384 -3069.15,545.379 -3073.155,549.384 -3077.16,545.379    -3081.165,549.384 -3085.169,545.379 -3089.174,549.384 -3093.179,545.379 -3097.184,549.384 -3101.188,545.379 -3105.193,549.384    -3109.197,545.379 -3113.203,549.384 -3117.208,545.379 -3121.212,549.384 -3125.217,545.379 -3129.222,549.384 -3133.226,545.379    -3137.23,549.384 -3138.72,550.873 -3135.742,550.873 -3130.71,550.873 -3127.732,550.873 -3122.701,550.873 -3119.723,550.873    -3114.691,550.873 -3111.713,550.873 -3106.682,550.873 -3103.705,550.873 -3098.672,550.873 -3095.694,550.873 -3090.664,550.873    -3087.685,550.873 -3082.653,550.873 -3079.676,550.873 -3074.644,550.873 -3071.666,550.873 -3066.635,550.873 -3063.656,550.873    -3058.625,550.873 -3055.647,550.873 -3050.615,550.873 -3047.638,550.873 -3042.605,550.873 -3039.628,550.873 -3034.597,550.873    -3031.619,550.873 -3026.587,550.873 -3023.609,550.873 -3018.578,550.873 -3015.6,550.873 -3010.568,550.873 -3007.59,550.873    -3002.559,550.873 -2999.581,550.873 -2994.549,550.873 -2991.571,550.873 -2986.54,550.873 -2983.562,550.873 -2978.53,550.873    -2975.553,550.873  "
         id="polyline285"
         style="fill:#ff7d5f" />
      <g
         id="g287">
        <path
           d="m -2999.805,517.094 c 0,-0.06 -0.719,-33.383 -12.779,-33.383 l 0,0 0,0 -4.479,0 0,0 0,0 c -12.06,0 -12.777,33.324 -12.778,33.383 l 0,10e-4 c 0,5.738 5.722,10.39 12.779,10.39 l 0,0 4.479,0 0,0 c 7.058,0 12.779,-4.652 12.779,-10.391 l 0,0 z"
           id="path289"
           inkscape:connector-curvature="0"
           style="fill:#009aff" />
        <polygon
           points="-3015.522,515.665 -3025.865,509.415 -3026.632,510.684 -3022.018,513.472 -3027.393,516.324 -3026.697,517.634 -3020.54,514.366 -3015.522,517.398 -3015.522,550.191 -3014.041,550.191 -3014.041,525.53 -3009.739,517.61 -3002.252,515.543 -3002.647,514.114 -3008.757,515.801 -3005.049,508.97 -3006.351,508.263 -3014.041,522.422 -3014.041,507.846 -3007.44,495.913 -3008.738,495.196 -3014.041,504.782 -3014.041,491.094 -3015.522,491.094 -3015.522,499.489 -3022.994,494.922 -3023.768,496.187 -3015.522,501.226 "
           id="polygon291"
           style="fill:#ec9c55" />
        <path
           d="m -3024.599,515.145 c -10e-4,-0.082 -0.992,-46.116 -17.652,-46.116 l 0,0 0,0 -6.186,0 0,0 0,0 c -16.66,0 -17.65,46.034 -17.652,46.116 l 0,10e-4 c 0,7.927 7.903,14.354 17.652,14.354 l 0,0 6.186,0 0,0 c 9.75,0 17.653,-6.427 17.653,-14.354 l 0,-10e-4 z"
           id="path293"
           inkscape:connector-curvature="0"
           style="fill:#2bd873" />
        <polygon
           points="-3046.227,508.8 -3058.539,501.361 -3059.452,502.871 -3053.959,506.191 -3060.356,509.584 -3059.529,511.144 -3052.198,507.253 -3046.227,510.863 -3046.227,549.902 -3044.461,549.902 -3044.461,520.544 -3039.342,511.115 -3030.429,508.655 -3030.898,506.953 -3038.172,508.961 -3033.757,500.83 -3035.308,499.988 -3044.461,516.844 -3044.461,499.492 -3036.604,485.286 -3038.149,484.432 -3044.461,495.845 -3044.461,479.549 -3046.227,479.549 -3046.227,489.543 -3055.121,484.106 -3056.042,485.612 -3046.227,491.612 "
           id="polygon295"
           style="fill:#ec9c55" />
        <path
           d="m -3042.25,469.029 0,0 0,0 -3.142,0 0,80.873 0.932,0 0,-20.402 2.21,0 0,0 c 9.75,0 17.653,-6.427 17.653,-14.354 l -10e-4,-10e-4 c 0,-0.082 -0.993,-46.115 -17.652,-46.116 z"
           id="path297"
           inkscape:connector-curvature="0"
           style="opacity:0.25;fill:#013440" />
        <path
           d="m -3012.583,483.711 -2.239,0 0,66.48 0.782,0 0,-22.706 1.457,0 c 7.058,0 12.779,-4.652 12.779,-10.39 l 0,-10e-4 c 0,-0.06 -0.719,-33.383 -12.779,-33.383 z"
           id="path299"
           inkscape:connector-curvature="0"
           style="opacity:0.25;fill:#013440" />
      </g>
      <g
         id="g301">
        <line
           x1="-3088.0161"
           y1="524.09601"
           x2="-3088.0161"
           y2="550.17902"
           id="line303"
           style="fill:none;stroke:#a33807;stroke-width:1.76530004" />
        <ellipse
           cx="-3087.696"
           cy="510.70001"
           rx="13.121"
           ry="14.702"
           id="ellipse305"
           style="fill:#baa92f" />
        <path
           d="m -3087.697,495.997 c -0.107,0 -0.213,0.006 -0.319,0.009 l 0,29.387 c 0.106,0.003 0.212,0.009 0.319,0.009 7.247,0 13.121,-6.583 13.121,-14.702 0,-8.12 -5.874,-14.703 -13.121,-14.703 z"
           id="path307"
           inkscape:connector-curvature="0"
           style="opacity:0.25;fill:#013440" />
        <polyline
           points="-3078.095,523.513 -3088.016,536.441 -3097.264,531.275       "
           id="polyline309"
           style="fill:none;stroke:#a33807;stroke-width:1.76530004" />
        <line
           x1="-3093.4751"
           y1="528.42499"
           x2="-3092.248"
           y2="534.07599"
           id="line311"
           style="fill:none;stroke:#a33807;stroke-width:1.76530004" />
        <line
           x1="-3115.9351"
           y1="551.06799"
           x2="-3115.9351"
           y2="515.89099"
           id="line313"
           style="fill:none;stroke:#a33807;stroke-width:1.76530004" />
        <ellipse
           cx="-3115.9351"
           cy="497.39801"
           rx="21.732"
           ry="24.353001"
           id="ellipse315"
           style="fill:#2bd873" />
        <path
           d="m -3115.662,473.052 0,48.69 c 11.876,-0.165 21.459,-10.998 21.459,-24.345 0,-13.347 -9.583,-24.179 -21.459,-24.345 z"
           id="path317"
           inkscape:connector-curvature="0"
           style="opacity:0.25;fill:#013440" />
        <line
           x1="-3115.6621"
           y1="533.479"
           x2="-3095.479"
           y2="514.71399"
           id="line319"
           style="fill:none;stroke:#a33807;stroke-width:1.76530004" />
        <line
           x1="-3095.479"
           y1="524.09601"
           x2="-3104.9419"
           y2="523.513"
           id="line321"
           style="fill:none;stroke:#a33807;stroke-width:1.76530004" />
        <line
           x1="-3116.1201"
           y1="528.42499"
           x2="-3139.9199"
           y2="523.513"
           id="line323"
           style="fill:none;stroke:#a33807;stroke-width:1.76530004" />
        <line
           x1="-3133.9861"
           y1="511.61401"
           x2="-3132.9929"
           y2="524.94299"
           id="line325"
           style="fill:none;stroke:#a33807;stroke-width:1.76530004" />
        <polyline
           points="-3139.92,483.699 -3133.49,500.488 -3132.993,483.699   "
           id="polyline327"
           style="fill:none;stroke:#a33807;stroke-width:1.76530004" />
        <line
           x1="-3096.48"
           y1="503.207"
           x2="-3096.48"
           y2="484.79099"
           id="line329"
           style="fill:none;stroke:#a33807;stroke-width:1.76530004" />
        <line
           x1="-3088.0161"
           y1="491.08301"
           x2="-3096.48"
           y2="493.99899"
           id="line331"
           style="fill:none;stroke:#a33807;stroke-width:1.76530004" />
        <line
           x1="-3104.9419"
           y1="489.60999"
           x2="-3096.48"
           y2="491.08301"
           id="line333"
           style="fill:none;stroke:#a33807;stroke-width:1.76530004" />
        <circle
           cx="-3134.3479"
           cy="479.439"
           r="8.8669996"
           id="circle335"
           style="fill:#2bd873" />
        <path
           d="m -3125.481,479.439 c 0,-4.897 -3.97,-8.867 -8.867,-8.867 l 0,17.734 c 4.897,0.001 8.867,-3.97 8.867,-8.867 z"
           id="path337"
           inkscape:connector-curvature="0"
           style="opacity:0.25;fill:#013440" />
        <circle
           cx="-3095.479"
           cy="480.67599"
           r="7.6300001"
           id="circle339"
           style="fill:#2bd873" />
        <path
           d="m -3095.479,473.045 c -0.045,0 -0.09,0.002 -0.135,0.003 l 0,15.255 c 0.045,0 0.09,0.004 0.135,0.004 4.214,0 7.63,-3.417 7.63,-7.631 0,-4.214 -3.415,-7.631 -7.63,-7.631 z"
           id="path341"
           inkscape:connector-curvature="0"
           style="opacity:0.25;fill:#013440" />
        <circle
           cx="-3131.7539"
           cy="505.586"
           r="10.028"
           id="circle343"
           style="fill:#2bd873" />
        <path
           d="m -3131.754,495.558 c -0.01,0 -0.012,0.001 -0.018,0.001 l 0,20.055 c 0.01,0 0.012,10e-4 0.018,10e-4 5.539,0 10.028,-4.491 10.028,-10.029 0,-5.538 -4.49,-10.028 -10.028,-10.028 z"
           id="path345"
           inkscape:connector-curvature="0"
           style="opacity:0.25;fill:#013440" />
        <circle
           cx="-3096.479"
           cy="507.716"
           r="8.4630003"
           id="circle347"
           style="fill:#2bd873" />
        <path
           d="m -3096.479,499.253 c -0.045,0 -0.088,0.003 -0.133,0.004 l 0,16.918 c 0.044,0.001 0.088,0.003 0.133,0.003 4.673,0 8.463,-3.789 8.463,-8.462 0,-4.673 -3.79,-8.463 -8.463,-8.463 z"
           id="path349"
           inkscape:connector-curvature="0"
           style="opacity:0.25;fill:#013440" />
        <path
           d="m -3142.802,476.411 c 0.87,0.347 1.481,1.06 1.733,1.891 -0.755,0.429 -1.69,0.524 -2.56,0.178 -0.869,-0.347 -1.481,-1.061 -1.733,-1.892 0.756,-0.429 1.691,-0.524 2.56,-0.177 z"
           id="path351"
           inkscape:connector-curvature="0"
           style="fill:#f0ce3b" />
        <path
           d="m -3102.465,481.394 c 0.869,0.348 1.48,1.061 1.732,1.892 -0.755,0.429 -1.69,0.525 -2.559,0.178 -0.869,-0.348 -1.481,-1.061 -1.733,-1.892 0.755,-0.429 1.691,-0.525 2.56,-0.178 z"
           id="path353"
           inkscape:connector-curvature="0"
           style="fill:#a39128" />
        <path
           d="m -3089.232,495.385 c 0.515,0.782 0.609,1.717 0.34,2.542 -0.864,-0.079 -1.687,-0.535 -2.201,-1.316 -0.515,-0.782 -0.609,-1.717 -0.341,-2.543 0.865,0.079 1.686,0.536 2.202,1.317 z"
           id="path355"
           inkscape:connector-curvature="0"
           style="fill:#a39128" />
        <path
           d="m -3103.815,508.419 c 0.869,0.348 1.48,1.061 1.733,1.892 -0.755,0.43 -1.691,0.525 -2.56,0.178 -0.869,-0.347 -1.481,-1.06 -1.733,-1.891 0.755,-0.43 1.691,-0.525 2.56,-0.179 z"
           id="path357"
           inkscape:connector-curvature="0"
           style="fill:#f0ce3b" />
        <path
           d="m -3102.696,501.533 c 0.869,0.347 1.481,1.06 1.733,1.892 -0.755,0.428 -1.69,0.524 -2.56,0.178 -0.869,-0.349 -1.481,-1.062 -1.733,-1.892 0.756,-0.43 1.691,-0.525 2.56,-0.178 z"
           id="path359"
           inkscape:connector-curvature="0"
           style="fill:#f0ce3b" />
        <path
           d="m -3140.656,501.533 c 0.869,0.347 1.48,1.06 1.732,1.892 -0.754,0.428 -1.69,0.524 -2.559,0.178 -0.87,-0.349 -1.481,-1.062 -1.733,-1.892 0.756,-0.43 1.691,-0.525 2.56,-0.178 z"
           id="path361"
           inkscape:connector-curvature="0"
           style="fill:#a39128" />
        <path
           d="m -3125.895,478.405 c -0.869,0.348 -1.481,1.061 -1.732,1.892 0.754,0.429 1.69,0.524 2.559,0.178 0.87,-0.347 1.481,-1.061 1.733,-1.892 -0.755,-0.429 -1.69,-0.525 -2.56,-0.178 z"
           id="path363"
           inkscape:connector-curvature="0"
           style="fill:#f0ce3b" />
        <path
           d="m -3123.171,508.419 c -0.869,0.348 -1.481,1.061 -1.733,1.892 0.755,0.43 1.69,0.525 2.559,0.178 0.87,-0.347 1.481,-1.06 1.733,-1.891 -0.755,-0.43 -1.69,-0.525 -2.559,-0.179 z"
           id="path365"
           inkscape:connector-curvature="0"
           style="fill:#a39128" />
        <path
           d="m -3108.096,474.487 c -0.732,0.584 -1.111,1.443 -1.112,2.311 0.847,0.193 1.77,0.015 2.501,-0.568 0.732,-0.584 1.111,-1.443 1.112,-2.312 -0.846,-0.194 -1.769,-0.015 -2.501,0.569 z"
           id="path367"
           inkscape:connector-curvature="0"
           style="fill:#a39128" />
        <path
           d="m -3126.908,518.245 c -0.732,0.584 -1.111,1.443 -1.112,2.312 0.847,0.192 1.77,0.014 2.502,-0.569 0.731,-0.584 1.11,-1.443 1.112,-2.312 -0.847,-0.193 -1.77,-0.014 -2.502,0.569 z"
           id="path369"
           inkscape:connector-curvature="0"
           style="fill:#a39128" />
        <path
           d="m -3106.706,518.922 c 0.731,0.583 1.11,1.443 1.111,2.312 -0.847,0.193 -1.77,0.014 -2.501,-0.568 -0.731,-0.585 -1.111,-1.444 -1.112,-2.312 0.847,-0.195 1.77,-0.015 2.502,0.568 z"
           id="path371"
           inkscape:connector-curvature="0"
           style="fill:#a39128" />
        <path
           d="m -3123.711,473.24 c 0.731,0.584 1.111,1.443 1.112,2.312 -0.847,0.193 -1.771,0.015 -2.502,-0.569 -0.731,-0.584 -1.111,-1.444 -1.111,-2.312 0.846,-0.193 1.769,-0.014 2.501,0.569 z"
           id="path373"
           inkscape:connector-curvature="0"
           style="fill:#a39128" />
        <path
           d="m -3088.43,504.025 c -0.869,0.347 -1.481,1.061 -1.732,1.891 0.755,0.43 1.689,0.526 2.559,0.179 0.869,-0.348 1.481,-1.061 1.733,-1.892 -0.756,-0.43 -1.691,-0.526 -2.56,-0.178 z"
           id="path375"
           inkscape:connector-curvature="0"
           style="fill:#f0ce3b" />
        <path
           d="m -3078.508,499.453 c -0.87,0.347 -1.481,1.06 -1.733,1.891 0.755,0.429 1.69,0.525 2.56,0.178 0.869,-0.347 1.48,-1.061 1.732,-1.892 -0.756,-0.429 -1.691,-0.524 -2.559,-0.177 z"
           id="path377"
           inkscape:connector-curvature="0"
           style="fill:#a39128" />
        <path
           d="m -3088.43,478.903 c -0.869,0.347 -1.481,1.06 -1.732,1.892 0.755,0.429 1.689,0.524 2.559,0.177 0.869,-0.347 1.481,-1.06 1.733,-1.891 -0.756,-0.43 -1.691,-0.526 -2.56,-0.178 z"
           id="path379"
           inkscape:connector-curvature="0"
           style="fill:#a39128" />
        <path
           d="m -3090.157,474.323 c -0.869,0.348 -1.48,1.061 -1.732,1.892 0.755,0.429 1.69,0.525 2.559,0.178 0.87,-0.347 1.481,-1.06 1.733,-1.891 -0.756,-0.43 -1.691,-0.526 -2.56,-0.179 z"
           id="path381"
           inkscape:connector-curvature="0"
           style="fill:#a39128" />
        <circle
           cx="-3078.095"
           cy="517.97998"
           r="7.171"
           id="circle383"
           style="fill:#a39128" />
        <path
           d="m -3070.924,517.98 c 0,-3.961 -3.21,-7.171 -7.171,-7.171 l 0,14.342 c 3.96,0 7.171,-3.211 7.171,-7.171 z"
           id="path385"
           inkscape:connector-curvature="0"
           style="opacity:0.25;fill:#013440" />
        <path
           d="m -3071.337,518.081 c -0.869,0.348 -1.481,1.061 -1.733,1.893 0.754,0.429 1.69,0.524 2.559,0.177 0.869,-0.347 1.48,-1.061 1.732,-1.892 -0.755,-0.429 -1.689,-0.524 -2.558,-0.178 z"
           id="path387"
           inkscape:connector-curvature="0"
           style="fill:#f0ce3b" />
        <path
           d="m -3084.853,515.905 c 0.869,0.348 1.48,1.061 1.732,1.892 -0.755,0.429 -1.69,0.525 -2.559,0.178 -0.87,-0.348 -1.481,-1.06 -1.733,-1.891 0.755,-0.43 1.691,-0.526 2.56,-0.179 z"
           id="path389"
           inkscape:connector-curvature="0"
           style="fill:#f0ce3b" />
      </g>
      <polyline
         points="-2972.282,551.657 -2977.708,546.231 -2981.713,550.236 -2985.718,546.231 -2989.722,550.236    -2993.727,546.231 -2997.731,550.236 -3001.736,546.231 -3005.741,550.236 -3009.747,546.231 -3013.75,550.236 -3017.755,546.231    -3021.76,550.236 -3025.765,546.231 -3029.77,550.236 -3033.774,546.231 -3037.779,550.236 -3041.784,546.231 -3045.79,550.236    -3049.793,546.231 -3053.798,550.236 -3057.803,546.231 -3061.808,550.236 -3065.812,546.231 -3069.817,550.236 -3073.821,546.231    -3077.826,550.236 -3081.831,546.231 -3085.836,550.236 -3089.841,546.231 -3093.845,550.236 -3097.851,546.231 -3101.855,550.236    -3105.859,546.231 -3109.864,550.236 -3113.869,546.231 -3117.874,550.236 -3121.879,546.231 -3125.883,550.236 -3129.888,546.231    -3133.893,550.236 -3137.897,546.231 -3143.391,551.725 -3135.382,551.725 -3132.404,551.725 -3127.373,551.725 -3124.395,551.725    -3119.362,551.725 -3116.385,551.725 -3111.354,551.725 -3108.375,551.725 -3103.344,551.725 -3100.366,551.725 -3095.334,551.725    -3092.356,551.725 -3087.324,551.725 -3084.347,551.725 -3079.315,551.725 -3076.338,551.725 -3071.306,551.725 -3068.328,551.725    -3063.296,551.725 -3060.319,551.725 -3055.287,551.725 -3052.31,551.725 -3047.277,551.725 -3044.3,551.725 -3039.269,551.725    -3036.291,551.725 -3031.259,551.725 -3028.281,551.725 -3023.249,551.725 -3020.271,551.725 -3015.24,551.725 -3012.262,551.725    -3007.23,551.725 -3004.252,551.725 -2999.221,551.725 -2996.243,551.725 -2991.211,551.725 -2988.233,551.725 -2983.202,551.725    -2980.224,551.725 -2972.533,551.725  "
         id="polyline391"
         style="fill:#2bd873" />
    </g>
  </g>
</svg>
