<svg xmlns="http://www.w3.org/2000/svg" width="184.619" height="88.209" viewBox="0 0 173.08 82.696003"><path fill="#ff7d5f" d="M168.321 80.355l-4.005-4.005-4.005 4.005-4.005-4.005-4.004 4.005-4.005-4.005-4.005 4.005-4.004-4.005-4.005 4.005-4.005-4.005-4.005 4.005-4.005-4.005-4.004 4.005-4.005-4.005-4.005 4.005-4.004-4.005-4.005 4.005-4.006-4.005-4.004 4.005-4.004-4.005-4.005 4.005-4.005-4.005-4.005 4.005-4.004-4.005-4.005 4.005-4.005-4.005-4.005 4.005-4.004-4.005-4.005 4.005-4.005-4.005-4.005 4.005-4.004-4.005-4.005 4.005-4.004-4.005-4.006 4.005-4.005-4.005-4.004 4.005-4.005-4.005-4.005 4.005-4.004-4.005-4.004 4.005-1.49 1.489H169.809"/><path d="M145.557 48.065c0-.06-.719-33.383-12.779-33.383h-4.479c-12.06 0-12.777 33.324-12.778 33.383v.001c0 5.738 5.722 10.39 12.779 10.39h4.479c7.058 0 12.779-4.652 12.779-10.391z" fill="#009aff"/><path fill="#ec9c55" d="M129.84 46.636l-10.343-6.25-.767 1.269 4.614 2.788-5.375 2.852.696 1.31 6.157-3.268 5.018 3.032v32.793h1.481V56.501l4.302-7.92 7.487-2.067-.395-1.429-6.11 1.687 3.708-6.831-1.302-.707-7.69 14.159V38.817l6.601-11.933-1.298-.717-5.303 9.586V22.065h-1.481v8.395l-7.472-4.567-.774 1.265 8.246 5.039z"/><path d="M120.763 46.116C120.762 46.034 119.771 0 103.111 0h-6.186c-16.66 0-17.65 46.034-17.652 46.116v.001c0 7.927 7.903 14.354 17.652 14.354h6.186c9.75 0 17.653-6.427 17.653-14.354v-.001z" fill="#2bd873"/><path fill="#ec9c55" d="M99.135 39.771l-12.312-7.439-.913 1.51 5.493 3.32-6.397 3.393.827 1.56 7.331-3.891 5.971 3.61v39.039h1.766V51.515l5.119-9.429 8.913-2.46-.469-1.702-7.274 2.008 4.415-8.131-1.551-.842-9.153 16.856V30.463l7.857-14.206-1.545-.854-6.312 11.413V10.52h-1.766v9.994l-8.894-5.437-.921 1.506 9.815 6z"/><path d="M103.112 0H99.97v80.873h.932V60.471h2.21c9.75 0 17.653-6.427 17.653-14.354l-.001-.001c0-.082-.993-46.115-17.652-46.116zM132.779 14.682h-2.239v66.48h.782V58.456h1.457c7.058 0 12.779-4.652 12.779-10.39v-.001c0-.06-.719-33.383-12.779-33.383z" opacity=".25" fill="#013440"/><g transform="translate(3145.362 -469.029)"><path fill="none" stroke="#a33807" stroke-width="1.765" d="M-3088.016 524.096v26.083"/><ellipse cx="-3087.696" cy="510.7" rx="13.121" ry="14.702" fill="#baa92f"/><path d="M-3087.697 495.997c-.107 0-.213.006-.319.009v29.387c.106.003.212.009.319.009 7.247 0 13.121-6.583 13.121-14.702 0-8.12-5.874-14.703-13.121-14.703z" opacity=".25" fill="#013440"/><path fill="none" stroke="#a33807" stroke-width="1.765" d="M-3078.095 523.513l-9.921 12.928-9.248-5.166M-3093.475 528.425l1.227 5.651M-3115.935 551.068v-35.177"/><ellipse cx="-3115.935" cy="497.398" rx="21.732" ry="24.353" fill="#2bd873"/><path d="M-3115.662 473.052v48.69c11.876-.165 21.459-10.998 21.459-24.345s-9.583-24.179-21.459-24.345z" opacity=".25" fill="#013440"/><path fill="none" stroke="#a33807" stroke-width="1.765" d="M-3115.662 533.479l20.183-18.765M-3095.479 524.096l-9.463-.583M-3116.12 528.425l-23.8-4.912M-3133.986 511.614l.993 13.329M-3139.92 483.699l6.43 16.789.497-16.789M-3096.48 503.207v-18.416M-3088.016 491.083l-8.464 2.916M-3104.942 489.61l8.462 1.473"/><circle cx="-3134.348" cy="479.439" r="8.867" fill="#2bd873"/><path d="M-3125.481 479.439a8.867 8.867 0 0 0-8.867-8.867v17.734a8.866 8.866 0 0 0 8.867-8.867z" opacity=".25" fill="#013440"/><circle cx="-3095.479" cy="480.676" r="7.63" fill="#2bd873"/><path d="M-3095.479 473.045l-.135.003v15.255c.045 0 .09.004.135.004a7.63 7.63 0 0 0 7.63-7.631 7.63 7.63 0 0 0-7.63-7.631z" opacity=".25" fill="#013440"/><circle cx="-3131.754" cy="505.586" r="10.028" fill="#2bd873"/><path d="M-3131.754 495.558l-.018.001v20.055l.018.001c5.539 0 10.028-4.491 10.028-10.029s-4.49-10.028-10.028-10.028z" opacity=".25" fill="#013440"/><circle cx="-3096.479" cy="507.716" r="8.463" fill="#2bd873"/><path d="M-3096.479 499.253c-.045 0-.088.003-.133.004v16.918c.044.001.088.003.133.003a8.463 8.463 0 0 0 0-16.925z" opacity=".25" fill="#013440"/><path d="M-3142.802 476.411a2.948 2.948 0 0 1 1.733 1.891 2.956 2.956 0 0 1-4.293-1.714 2.953 2.953 0 0 1 2.56-.177z" fill="#f0ce3b"/><path d="M-3102.465 481.394a2.953 2.953 0 0 1 1.732 1.892 2.95 2.95 0 0 1-4.292-1.714 2.953 2.953 0 0 1 2.56-.178zM-3089.232 495.385c.515.782.609 1.717.34 2.542a2.952 2.952 0 0 1-2.542-3.859 2.953 2.953 0 0 1 2.202 1.317z" fill="#a39128"/><path d="M-3103.815 508.419a2.957 2.957 0 0 1 1.733 1.892 2.95 2.95 0 0 1-2.56.178 2.95 2.95 0 0 1-1.733-1.891 2.953 2.953 0 0 1 2.56-.179zM-3102.696 501.533a2.95 2.95 0 0 1 1.733 1.892 2.96 2.96 0 0 1-2.56.178 2.96 2.96 0 0 1-1.733-1.892 2.95 2.95 0 0 1 2.56-.178z" fill="#f0ce3b"/><path d="M-3140.656 501.533a2.948 2.948 0 0 1 1.732 1.892 2.957 2.957 0 0 1-2.559.178 2.957 2.957 0 0 1-1.733-1.892 2.95 2.95 0 0 1 2.56-.178z" fill="#a39128"/><path d="M-3125.895 478.405a2.95 2.95 0 0 0-1.732 1.892 2.954 2.954 0 0 0 4.292-1.714 2.952 2.952 0 0 0-2.56-.178z" fill="#f0ce3b"/><path d="M-3123.171 508.419a2.955 2.955 0 0 0-1.733 1.892c.755.43 1.69.525 2.559.178a2.948 2.948 0 0 0 1.733-1.891 2.95 2.95 0 0 0-2.559-.179zM-3108.096 474.487a2.95 2.95 0 0 0-1.112 2.311 2.948 2.948 0 0 0 3.613-2.88 2.944 2.944 0 0 0-2.501.569zM-3126.908 518.245a2.95 2.95 0 0 0-1.112 2.312 2.955 2.955 0 0 0 3.614-2.881 2.952 2.952 0 0 0-2.502.569zM-3106.706 518.922a2.951 2.951 0 0 1 1.111 2.312 2.952 2.952 0 0 1-3.613-2.88 2.944 2.944 0 0 1 2.502.568zM-3123.711 473.24a2.954 2.954 0 0 1 1.112 2.312 2.95 2.95 0 0 1-3.613-2.881 2.95 2.95 0 0 1 2.501.569z" fill="#a39128"/><path d="M-3088.43 504.025a2.949 2.949 0 0 0-1.732 1.891 2.955 2.955 0 0 0 4.292-1.713 2.946 2.946 0 0 0-2.56-.178z" fill="#f0ce3b"/><path d="M-3078.508 499.453a2.948 2.948 0 0 0-1.733 1.891 2.952 2.952 0 0 0 4.292-1.714 2.951 2.951 0 0 0-2.559-.177zM-3088.43 478.903a2.946 2.946 0 0 0-1.732 1.892 2.95 2.95 0 0 0 2.559.177 2.95 2.95 0 0 0 1.733-1.891 2.946 2.946 0 0 0-2.56-.178zM-3090.157 474.323a2.953 2.953 0 0 0-1.732 1.892 2.95 2.95 0 0 0 4.292-1.713 2.95 2.95 0 0 0-2.56-.179z" fill="#a39128"/><circle cx="-3078.095" cy="517.98" r="7.171" fill="#a39128"/><path d="M-3070.924 517.98a7.17 7.17 0 0 0-7.171-7.171v14.342a7.172 7.172 0 0 0 7.171-7.171z" opacity=".25" fill="#013440"/><path d="M-3071.337 518.081a2.954 2.954 0 0 0-1.733 1.893 2.95 2.95 0 0 0 4.291-1.715 2.952 2.952 0 0 0-2.558-.178zM-3084.853 515.905a2.953 2.953 0 0 1 1.732 1.892 2.95 2.95 0 0 1-4.292-1.713 2.95 2.95 0 0 1 2.56-.179z" fill="#f0ce3b"/></g><path fill="#2bd873" d="M173.08 82.628l-5.426-5.426-4.005 4.005-4.005-4.005-4.004 4.005-4.005-4.005-4.004 4.005-4.005-4.005-4.005 4.005-4.006-4.005-4.003 4.005-4.005-4.005-4.005 4.005-4.005-4.005-4.005 4.005-4.004-4.005-4.005 4.005-4.005-4.005-4.006 4.005-4.003-4.005-4.005 4.005-4.005-4.005-4.005 4.005-4.004-4.005-4.005 4.005-4.004-4.005-4.005 4.005-4.005-4.005-4.005 4.005-4.005-4.005-4.004 4.005-4.006-4.005-4.004 4.005-4.004-4.005-4.005 4.005-4.005-4.005-4.005 4.005-4.005-4.005-4.004 4.005-4.005-4.005-4.005 4.005-4.004-4.005-5.494 5.494H172.829"/></svg>