<svg xmlns="http://www.w3.org/2000/svg" width="24.913" height="44.604" viewBox="0 0 23.355547 41.816184"><g stroke-miterlimit="22.926" fill="none" stroke="#fff" stroke-width="1.143" stroke-linecap="round" stroke-linejoin="round"><path d="M10.413 19.01a3.73 3.73 0 0 1-3.814 6.41C4.828 24.367-.332 19.354.72 17.583c1.053-1.77 7.922.374 9.693 1.427zM16.591 12.588a2.563 2.563 0 0 1-3.558-.69 2.564 2.564 0 0 1 .691-3.556c1.173-.793 5.799-2.532 6.592-1.36.792 1.175-2.551 4.814-3.725 5.606zM12.136 32.186L12.041.58M2.499 34.857c-.01-1.46 4.529-2.656 10.134-2.673 5.601-.017 10.147 1.152 10.151 2.612.01 1.459-4.524 6.432-10.124 6.449-5.605.017-10.156-4.93-10.161-6.388z"/></g></svg>