<?xml version="1.0" encoding="UTF-8" standalone="no"?>
<!-- Created with Inkscape (http://www.inkscape.org/) -->

<svg
   xmlns:dc="http://purl.org/dc/elements/1.1/"
   xmlns:cc="http://creativecommons.org/ns#"
   xmlns:rdf="http://www.w3.org/1999/02/22-rdf-syntax-ns#"
   xmlns:svg="http://www.w3.org/2000/svg"
   xmlns="http://www.w3.org/2000/svg"
   xmlns:sodipodi="http://sodipodi.sourceforge.net/DTD/sodipodi-0.dtd"
   xmlns:inkscape="http://www.inkscape.org/namespaces/inkscape"
   width="35.377403mm"
   height="36.089447mm"
   viewBox="0 0 125.353 127.87599"
   id="svg4467"
   version="1.1"
   inkscape:version="0.91 r13725"
   sodipodi:docname="cul.svg">
  <defs
     id="defs4469" />
  <sodipodi:namedview
     id="base"
     pagecolor="#ffffff"
     bordercolor="#666666"
     borderopacity="1.0"
     inkscape:pageopacity="0.0"
     inkscape:pageshadow="2"
     inkscape:zoom="0.35"
     inkscape:cx="71.962199"
     inkscape:cy="332.5094"
     inkscape:document-units="px"
     inkscape:current-layer="layer1"
     showgrid="false"
     fit-margin-top="0"
     fit-margin-left="0"
     fit-margin-right="0"
     fit-margin-bottom="0"
     inkscape:window-width="900"
     inkscape:window-height="1416"
     inkscape:window-x="0"
     inkscape:window-y="24"
     inkscape:window-maximized="1" />
  <metadata
     id="metadata4472">
    <rdf:RDF>
      <cc:Work
         rdf:about="">
        <dc:format>image/svg+xml</dc:format>
        <dc:type
           rdf:resource="http://purl.org/dc/dcmitype/StillImage" />
        <dc:title></dc:title>
      </cc:Work>
    </rdf:RDF>
  </metadata>
  <g
     inkscape:label="Capa 1"
     inkscape:groupmode="layer"
     id="layer1"
     transform="translate(-303.0378,-736.9956)">
    <g
       transform="translate(1925.3993,-2226.6664)"
       id="g655">
      <g
         id="g657">
        <path
           style="fill:#945f28"
           inkscape:connector-curvature="0"
           d="m -1560.174,3066.468 c 0.612,0.408 0.779,1.232 0.373,1.848 l 0,0 c -0.405,0.611 -1.232,0.779 -1.846,0.373 l -25.996,-17.223 c -0.613,-0.406 -0.78,-1.232 -0.375,-1.846 l 0,0 c 0.407,-0.613 1.233,-0.779 1.848,-0.375 l 25.996,17.223 z"
           id="path659" />
        <path
           style="fill:#ffa445"
           inkscape:connector-curvature="0"
           d="m -1581.868,3024.794 c -1.566,-1.039 -4.432,-1.176 -5.549,0.303 -0.024,-0.01 -0.049,-0.02 -0.072,-0.029 0.635,-1.533 0.119,-3.35 -1.315,-4.301 -1.628,-1.078 -3.823,-0.633 -4.902,0.996 -0.094,0.141 -0.173,0.289 -0.243,0.438 -0.023,-1.121 -0.576,-2.213 -1.582,-2.879 -1.628,-1.078 -3.822,-0.633 -4.902,0.996 -0.404,0.607 -0.594,1.297 -0.588,1.977 -0.203,-0.836 -0.706,-1.604 -1.48,-2.115 -1.629,-1.08 -3.824,-0.635 -4.902,0.994 -0.562,0.85 -0.708,1.852 -0.49,2.77 -0.229,-0.293 -0.506,-0.557 -0.833,-0.773 -1.629,-1.078 -3.823,-0.633 -4.903,0.996 -0.815,1.23 -0.758,2.787 0.022,3.938 -0.072,0.068 -0.144,0.137 -0.215,0.205 -0.101,-0.084 -0.204,-0.162 -0.315,-0.236 -1.629,-1.08 -3.823,-0.633 -4.902,0.994 -1.08,1.629 -0.634,3.824 0.995,4.904 0.111,0.072 0.226,0.139 0.341,0.197 -0.035,0.094 -0.07,0.184 -0.104,0.277 -1.364,-0.268 -2.819,0.285 -3.636,1.516 -1.078,1.629 -0.633,3.824 0.996,4.902 0.326,0.217 0.678,0.369 1.037,0.467 -0.932,0.158 -1.797,0.68 -2.359,1.531 -1.08,1.629 -0.634,3.822 0.994,4.9 0.775,0.514 1.678,0.68 2.527,0.539 -0.629,0.26 -1.188,0.705 -1.593,1.312 -1.079,1.629 -0.633,3.824 0.995,4.902 1.006,0.666 2.227,0.75 3.268,0.334 -0.109,0.123 -0.215,0.254 -0.309,0.395 -1.078,1.629 -0.633,3.824 0.996,4.902 1.435,0.951 3.308,0.717 4.472,-0.465 0.019,0.018 0.037,0.037 0.057,0.055 -0.927,1.605 0.316,4.189 1.884,5.229 1.611,1.068 4.494,1.117 5.585,-0.469 10.661,3.268 27.661,-6.406 27.661,-6.406 0,0 2.278,-19.426 -4.887,-27.969 1.033,-1.624 -0.137,-4.26 -1.749,-5.327 z"
           id="path661" />
        <path
           style="fill:#945f28"
           inkscape:connector-curvature="0"
           d="m -1559.196,3073.281 c -0.613,0.404 -0.78,1.232 -0.375,1.846 l 0,0 c 0.406,0.613 1.232,0.779 1.847,0.375 l 25.995,-17.223 c 0.614,-0.408 0.783,-1.234 0.375,-1.846 l 0,0 c -0.406,-0.613 -1.232,-0.783 -1.846,-0.375 l -25.996,17.223 z"
           id="path663" />
        <path
           style="fill:#ffa445"
           inkscape:connector-curvature="0"
           d="m -1537.502,3031.605 c 1.567,-1.039 4.432,-1.176 5.549,0.303 0.024,-0.01 0.049,-0.02 0.072,-0.029 -0.635,-1.533 -0.121,-3.35 1.314,-4.299 1.629,-1.08 3.824,-0.635 4.903,0.994 0.094,0.143 0.171,0.289 0.243,0.438 0.023,-1.119 0.576,-2.211 1.581,-2.879 1.628,-1.078 3.823,-0.633 4.903,0.996 0.403,0.609 0.594,1.299 0.588,1.979 0.203,-0.838 0.705,-1.604 1.48,-2.117 1.628,-1.078 3.824,-0.633 4.902,0.996 0.562,0.848 0.707,1.852 0.489,2.768 0.23,-0.293 0.507,-0.557 0.833,-0.771 1.629,-1.08 3.824,-0.635 4.903,0.994 0.815,1.232 0.759,2.787 -0.021,3.939 0.071,0.066 0.144,0.135 0.215,0.203 0.101,-0.082 0.204,-0.162 0.315,-0.236 1.628,-1.08 3.824,-0.633 4.902,0.996 1.078,1.627 0.634,3.824 -0.995,4.902 -0.111,0.074 -0.226,0.139 -0.341,0.197 0.035,0.092 0.07,0.186 0.104,0.279 1.365,-0.271 2.82,0.283 3.636,1.516 1.079,1.627 0.634,3.824 -0.995,4.9 -0.328,0.219 -0.678,0.369 -1.037,0.467 0.93,0.158 1.797,0.682 2.359,1.529 1.08,1.631 0.634,3.824 -0.994,4.904 -0.775,0.514 -1.678,0.678 -2.527,0.537 0.629,0.26 1.188,0.703 1.592,1.314 1.079,1.627 0.634,3.824 -0.995,4.902 -1.005,0.666 -2.226,0.748 -3.268,0.334 0.11,0.123 0.215,0.252 0.309,0.395 1.079,1.629 0.634,3.822 -0.995,4.902 -1.436,0.949 -3.307,0.717 -4.471,-0.465 -0.02,0.018 -0.039,0.035 -0.059,0.053 0.928,1.607 -0.315,4.191 -1.883,5.229 -1.612,1.068 -4.495,1.117 -5.586,-0.469 -10.661,3.266 -27.66,-6.406 -27.66,-6.406 0,0 -2.279,-19.426 4.887,-27.969 -1.034,-1.623 0.136,-4.258 1.748,-5.326 z"
           id="path665" />
        <path
           style="fill:#ed973e"
           inkscape:connector-curvature="0"
           d="m -1588.275,3045.052 c 0,0 -6.067,8.039 -15.42,20.15 0.312,-0.186 0.594,-0.408 0.799,-0.707 10.661,3.268 27.661,-6.406 27.661,-6.406 0,0 2.226,-19.021 -4.676,-27.695 -5.132,9.062 -8.364,14.658 -8.364,14.658 z"
           id="path667" />
        <path
           style="fill:#ed973e"
           inkscape:connector-curvature="0"
           d="m -1533.383,3053.447 c 0,0 -3.201,-6.611 -6.787,-15.266 -6.033,9.043 -3.965,26.719 -3.965,26.719 0,0 16.469,9.363 27.152,6.541 -9.79,-10.551 -16.4,-17.994 -16.4,-17.994 z"
           id="path669" />
        <path
           style="opacity:0.1"
           inkscape:connector-curvature="0"
           d="m -1500.329,3035.878 c 1.078,1.627 0.634,3.824 -0.995,4.902 -0.111,0.074 -0.226,0.139 -0.341,0.197 0.035,0.092 0.07,0.186 0.104,0.279 1.365,-0.271 2.82,0.283 3.636,1.516 1.079,1.627 0.634,3.824 -0.995,4.9 -0.328,0.219 -0.678,0.369 -1.037,0.467 0.93,0.158 1.797,0.682 2.359,1.529 1.08,1.631 0.634,3.824 -0.994,4.904 -0.775,0.514 -1.678,0.678 -2.527,0.537 0.629,0.26 1.188,0.703 1.592,1.314 1.079,1.627 0.634,3.824 -0.995,4.902 -1.005,0.666 -2.226,0.748 -3.268,0.334 0.11,0.123 0.215,0.252 0.309,0.395 1.079,1.629 0.634,3.822 -0.995,4.902 -1.436,0.949 -3.307,0.717 -4.471,-0.465 -0.02,0.018 -0.039,0.035 -0.059,0.053 0.928,1.607 -0.315,4.191 -1.883,5.229 -1.612,1.068 -4.495,1.117 -5.586,-0.469 -10.661,3.266 -27.66,-6.406 -27.66,-6.406 l 43.806,-29.02 z"
           id="path671" />
        <path
           style="opacity:0.1"
           inkscape:connector-curvature="0"
           d="m -1619.042,3029.066 c -1.08,1.629 -0.634,3.824 0.995,4.904 0.111,0.072 0.226,0.139 0.341,0.197 -0.035,0.094 -0.07,0.184 -0.104,0.277 -1.364,-0.268 -2.819,0.285 -3.636,1.516 -1.078,1.629 -0.633,3.824 0.996,4.902 0.326,0.217 0.678,0.369 1.037,0.467 -0.932,0.158 -1.797,0.68 -2.359,1.531 -1.08,1.629 -0.634,3.822 0.994,4.9 0.775,0.514 1.678,0.68 2.527,0.539 -0.629,0.26 -1.188,0.705 -1.593,1.312 -1.079,1.629 -0.633,3.824 0.995,4.902 1.006,0.666 2.227,0.75 3.268,0.334 -0.109,0.123 -0.215,0.254 -0.309,0.395 -1.078,1.629 -0.633,3.824 0.996,4.902 1.435,0.951 3.308,0.717 4.472,-0.465 0.019,0.018 0.037,0.037 0.057,0.055 -0.927,1.605 0.316,4.189 1.884,5.229 1.611,1.068 4.494,1.117 5.585,-0.469 10.661,3.268 27.661,-6.406 27.661,-6.406 l -43.807,-29.022 z"
           id="path673" />
        <path
           style="fill:#70491e"
           inkscape:connector-curvature="0"
           d="m -1557.635,3089.706 c 0,1.012 -0.818,1.832 -1.829,1.832 l 0,0 c -1.011,0 -1.829,-0.82 -1.829,-1.832 l 0,-73.105 c 0,-1.01 0.818,-1.83 1.829,-1.83 l 0,0 c 1.011,0 1.829,0.82 1.829,1.83 l 0,73.105 z"
           id="path675" />
        <path
           style="fill:#ffa445"
           inkscape:connector-curvature="0"
           d="m -1526.374,3002.98 c 0,-2.582 -2.016,-5.967 -4.557,-6.121 -0.01,-0.037 -0.014,-0.072 -0.02,-0.107 2.236,-0.436 3.924,-2.404 3.924,-4.768 0,-2.682 -2.174,-4.857 -4.858,-4.857 -0.233,0 -0.461,0.021 -0.685,0.053 1.265,-0.877 2.096,-2.338 2.096,-3.994 0,-2.684 -2.176,-4.857 -4.857,-4.857 -1.005,0 -1.938,0.305 -2.712,0.826 0.804,-0.867 1.3,-2.025 1.3,-3.301 0,-2.684 -2.174,-4.859 -4.857,-4.859 -1.399,0 -2.656,0.596 -3.543,1.541 0.162,-0.484 0.254,-1.002 0.254,-1.541 0,-2.682 -2.175,-4.857 -4.858,-4.857 -2.03,0 -3.767,1.244 -4.493,3.012 -0.132,-0.031 -0.264,-0.061 -0.396,-0.09 0.02,-0.178 0.031,-0.357 0.031,-0.541 0,-2.684 -2.176,-4.857 -4.858,-4.857 -2.682,0 -4.858,2.174 -4.858,4.857 0,0.184 0.013,0.363 0.031,0.541 -0.131,0.029 -0.266,0.059 -0.396,0.09 -0.727,-1.768 -2.464,-3.012 -4.493,-3.012 -2.683,0 -4.858,2.176 -4.858,4.857 0,0.539 0.092,1.057 0.254,1.541 -0.887,-0.945 -2.144,-1.541 -3.543,-1.541 -2.683,0 -4.858,2.176 -4.858,4.859 0,1.275 0.497,2.434 1.302,3.301 -0.775,-0.521 -1.708,-0.826 -2.711,-0.826 -2.684,0 -4.859,2.174 -4.859,4.857 0,1.656 0.83,3.117 2.097,3.994 -0.226,-0.031 -0.452,-0.053 -0.687,-0.053 -2.683,0 -4.857,2.176 -4.857,4.857 0,2.363 1.688,4.332 3.925,4.768 -0.01,0.035 -0.014,0.07 -0.02,0.107 -2.542,0.154 -4.558,3.539 -4.558,6.121 0,2.654 2.131,5.994 4.773,6.039 4.348,14.686 28.317,26.812 28.317,26.812 0,0 23.97,-12.127 28.315,-26.812 2.643,-0.045 4.773,-3.385 4.773,-6.039 z"
           id="path677" />
        <path
           style="fill:#ed973e"
           inkscape:connector-curvature="0"
           d="m -1559.464,3011.62 c 0,0 -11.108,-0.785 -28.181,-2.197 4.663,14.502 28.181,26.408 28.181,26.408 0,0 23.518,-11.906 28.179,-26.408 -17.071,1.412 -28.179,2.197 -28.179,2.197 z"
           id="path679" />
        <path
           style="opacity:0.1"
           inkscape:connector-curvature="0"
           d="m -1559.464,3035.831 c 0,0 23.97,-12.127 28.315,-26.812 2.645,-0.045 4.775,-3.385 4.775,-6.039 0,-2.582 -2.016,-5.967 -4.557,-6.121 -0.01,-0.037 -0.014,-0.072 -0.02,-0.107 2.236,-0.436 3.924,-2.404 3.924,-4.768 0,-2.682 -2.174,-4.857 -4.858,-4.857 -0.233,0 -0.461,0.021 -0.685,0.053 1.265,-0.877 2.096,-2.338 2.096,-3.994 0,-2.684 -2.176,-4.857 -4.857,-4.857 -1.005,0 -1.938,0.305 -2.712,0.826 0.804,-0.867 1.3,-2.025 1.3,-3.301 0,-2.684 -2.174,-4.859 -4.857,-4.859 -1.399,0 -2.656,0.596 -3.543,1.541 0.162,-0.484 0.254,-1.002 0.254,-1.541 0,-2.682 -2.175,-4.857 -4.858,-4.857 -2.03,0 -3.767,1.244 -4.493,3.012 -0.132,-0.031 -0.264,-0.061 -0.396,-0.09 0.02,-0.178 0.031,-0.357 0.031,-0.541 0,-2.684 -2.176,-4.857 -4.858,-4.857 l 0,72.169 z"
           id="path681" />
      </g>
    </g>
  </g>
</svg>
