<svg xmlns="http://www.w3.org/2000/svg" width="133.71" height="136.401" viewBox="0 0 125.353 127.87599"><path d="M62.188 102.806a1.333 1.333 0 0 1-1.473 2.221L34.718 87.804a1.333 1.333 0 0 1-.374-1.846 1.336 1.336 0 0 1 1.848-.375l25.996 17.223z" fill="#945f28"/><path d="M40.494 61.132c-1.566-1.039-4.432-1.176-5.55.303a3.625 3.625 0 0 0-.071-.029 3.538 3.538 0 0 0-6.217-3.305 3.368 3.368 0 0 0-.243.438 3.538 3.538 0 1 0-7.072.094 3.535 3.535 0 0 0-6.872 1.649 3.539 3.539 0 0 0-5.736.223 3.539 3.539 0 0 0 .022 3.938l-.215.205a3.537 3.537 0 1 0-3.881 5.859l-.104.277a3.537 3.537 0 1 0-1.603 6.885 3.533 3.533 0 1 0 1.162 6.97 3.536 3.536 0 0 0 2.67 6.548 3.664 3.664 0 0 0-.31.395 3.537 3.537 0 0 0 5.469 4.437l.057.055c-.927 1.605.316 4.189 1.884 5.229 1.61 1.068 4.494 1.117 5.585-.469 10.66 3.268 27.66-6.406 27.66-6.406s2.279-19.426-4.886-27.969c1.033-1.624-.137-4.26-1.75-5.327z" fill="#ffa445"/><path d="M63.166 109.619a1.333 1.333 0 0 0-.375 1.846 1.335 1.335 0 0 0 1.847.375l25.995-17.223a1.33 1.33 0 0 0 .375-1.846 1.33 1.33 0 0 0-1.846-.375l-25.996 17.223z" fill="#945f28"/><path d="M84.86 67.943c1.567-1.039 4.432-1.176 5.549.303l.072-.029a3.536 3.536 0 0 1 6.217-3.305c.094.143.17.289.243.438a3.538 3.538 0 0 1 1.58-2.879 3.539 3.539 0 0 1 5.492 2.975 3.517 3.517 0 0 1 1.48-2.117 3.537 3.537 0 0 1 4.902.996c.562.848.707 1.852.489 2.768a3.536 3.536 0 0 1 5.715 4.162l.215.203a3.536 3.536 0 0 1 5.217.76 3.537 3.537 0 0 1-1.336 5.099l.104.279a3.534 3.534 0 0 1 3.636 1.516 3.534 3.534 0 0 1-2.032 5.367 3.53 3.53 0 0 1 2.359 1.529 3.538 3.538 0 0 1-.994 4.904 3.513 3.513 0 0 1-2.527.537 3.536 3.536 0 0 1-2.671 6.55c.11.123.215.252.309.395a3.536 3.536 0 0 1-5.466 4.437l-.06.053c.929 1.607-.314 4.191-1.882 5.229-1.612 1.068-4.495 1.117-5.586-.469-10.661 3.266-27.66-6.406-27.66-6.406s-2.28-19.426 4.887-27.969c-1.034-1.623.136-4.258 1.748-5.326z" fill="#ffa445"/><path d="M34.086 81.39s-6.067 8.039-15.42 20.15c.312-.186.594-.408.8-.707 10.66 3.268 27.66-6.406 27.66-6.406s2.226-19.021-4.676-27.695c-5.132 9.062-8.364 14.658-8.364 14.658zM88.978 89.785s-3.2-6.611-6.787-15.266c-6.033 9.043-3.965 26.719-3.965 26.719s16.47 9.363 27.152 6.541c-9.79-10.551-16.4-17.994-16.4-17.994z" fill="#ed973e"/><path d="M122.033 72.216a3.537 3.537 0 0 1-1.336 5.099l.104.279a3.534 3.534 0 0 1 3.636 1.516 3.534 3.534 0 0 1-2.032 5.367 3.53 3.53 0 0 1 2.359 1.529 3.538 3.538 0 0 1-.994 4.904 3.513 3.513 0 0 1-2.527.537 3.536 3.536 0 0 1-2.671 6.55c.11.123.215.252.309.395a3.536 3.536 0 0 1-5.467 4.437l-.059.053c.928 1.607-.315 4.191-1.883 5.229-1.611 1.068-4.494 1.117-5.585-.469-10.662 3.266-27.66-6.406-27.66-6.406l43.805-29.02zM3.32 65.404a3.538 3.538 0 0 0 1.336 5.101l-.104.277a3.537 3.537 0 1 0-1.603 6.885 3.533 3.533 0 1 0 1.162 6.97 3.536 3.536 0 0 0 2.67 6.548 3.664 3.664 0 0 0-.31.395 3.537 3.537 0 0 0 5.469 4.437l.057.055c-.927 1.605.316 4.189 1.884 5.229 1.61 1.068 4.494 1.117 5.585-.469 10.66 3.268 27.66-6.406 27.66-6.406L3.32 65.404z" opacity=".1"/><path d="M64.726 126.044a1.83 1.83 0 0 1-3.658 0V52.939a1.83 1.83 0 1 1 3.658 0v73.105z" fill="#70491e"/><path d="M95.987 39.318c0-2.582-2.016-5.967-4.557-6.121-.01-.037-.014-.072-.02-.107a4.857 4.857 0 0 0-.934-9.625c-.233 0-.46.021-.685.053a4.857 4.857 0 1 0-5.473-8.025 4.84 4.84 0 0 0 1.3-3.301 4.857 4.857 0 0 0-4.857-4.859 4.846 4.846 0 0 0-3.543 1.541 4.848 4.848 0 0 0 .254-1.541 4.858 4.858 0 0 0-9.35-1.845 28.187 28.187 0 0 0-.397-.09A4.857 4.857 0 0 0 62.898 0a4.858 4.858 0 0 0-4.827 5.398c-.13.029-.266.059-.396.09a4.857 4.857 0 0 0-9.097 3.386 4.846 4.846 0 0 0-3.543-1.541 4.859 4.859 0 0 0-4.858 4.859c0 1.275.497 2.434 1.302 3.301a4.857 4.857 0 0 0-7.57 4.031c0 1.656.83 3.117 2.097 3.994a5.014 5.014 0 0 0-.687-.053 4.858 4.858 0 0 0-.932 9.625c-.01.035-.014.07-.02.107-2.542.154-4.558 3.539-4.558 6.121 0 2.654 2.131 5.994 4.773 6.039C38.93 60.043 62.9 72.169 62.9 72.169s23.97-12.127 28.315-26.812c2.643-.045 4.773-3.385 4.773-6.039z" fill="#ffa445"/><path d="M62.898 47.958s-11.108-.785-28.181-2.197c4.663 14.502 28.18 26.408 28.18 26.408s23.519-11.906 28.18-26.408c-17.071 1.412-28.18 2.197-28.18 2.197z" fill="#ed973e"/><path d="M62.898 72.169s23.97-12.127 28.315-26.812c2.645-.045 4.775-3.385 4.775-6.039 0-2.582-2.016-5.967-4.557-6.121-.01-.037-.014-.072-.02-.107a4.857 4.857 0 0 0-.934-9.625c-.233 0-.461.021-.685.053a4.857 4.857 0 1 0-5.473-8.025 4.84 4.84 0 0 0 1.3-3.301 4.857 4.857 0 0 0-4.857-4.859 4.846 4.846 0 0 0-3.543 1.541 4.848 4.848 0 0 0 .254-1.541 4.858 4.858 0 0 0-9.351-1.845 28.187 28.187 0 0 0-.396-.09A4.857 4.857 0 0 0 62.899 0v72.169z" opacity=".1"/></svg>