<?xml version="1.0" encoding="UTF-8" standalone="no"?>
<!-- Created with Inkscape (http://www.inkscape.org/) -->

<svg
   xmlns:dc="http://purl.org/dc/elements/1.1/"
   xmlns:cc="http://creativecommons.org/ns#"
   xmlns:rdf="http://www.w3.org/1999/02/22-rdf-syntax-ns#"
   xmlns:svg="http://www.w3.org/2000/svg"
   xmlns="http://www.w3.org/2000/svg"
   xmlns:sodipodi="http://sodipodi.sourceforge.net/DTD/sodipodi-0.dtd"
   xmlns:inkscape="http://www.inkscape.org/namespaces/inkscape"
   width="21.317656mm"
   height="39.007061mm"
   viewBox="0 0 75.535 138.214"
   id="svg4396"
   version="1.1"
   inkscape:version="0.91 r13725"
   sodipodi:docname="esc.svg">
  <defs
     id="defs4398" />
  <sodipodi:namedview
     id="base"
     pagecolor="#ffffff"
     bordercolor="#666666"
     borderopacity="1.0"
     inkscape:pageopacity="0.0"
     inkscape:pageshadow="2"
     inkscape:zoom="0.35"
     inkscape:cx="-90.0896"
     inkscape:cy="443.3927"
     inkscape:document-units="px"
     inkscape:current-layer="layer1"
     showgrid="false"
     fit-margin-top="0"
     fit-margin-left="0"
     fit-margin-right="0"
     fit-margin-bottom="0"
     inkscape:window-width="900"
     inkscape:window-height="1416"
     inkscape:window-x="0"
     inkscape:window-y="24"
     inkscape:window-maximized="1" />
  <metadata
     id="metadata4401">
    <rdf:RDF>
      <cc:Work
         rdf:about="">
        <dc:format>image/svg+xml</dc:format>
        <dc:type
           rdf:resource="http://purl.org/dc/dcmitype/StillImage" />
        <dc:title></dc:title>
      </cc:Work>
    </rdf:RDF>
  </metadata>
  <g
     inkscape:label="Capa 1"
     inkscape:groupmode="layer"
     id="layer1"
     transform="translate(-465.0896,-837.5409)">
    <g
       transform="translate(2054.3596,-1922.9511)"
       id="g629">
      <g
         id="g631">
        <polygon
           style="fill:#664934"
           points="-1548.892,2898.706 -1554.113,2898.706 -1552.218,2875.099 -1550.787,2875.099 "
           id="polygon633" />
        <path
           style="fill:#966c4d"
           inkscape:connector-curvature="0"
           d="m -1543.447,2857.47 c 1.807,-0.893 3.691,-1.574 5.656,-2.02 5.102,-1.15 10.398,-0.666 15.754,1.258 3.896,-6.535 6.713,-14.086 7.812,-22.752 -7.813,-6.174 -15.751,-9.613 -23.386,-9.727 1.807,-0.895 3.691,-1.574 5.657,-2.018 5.882,-1.33 12.024,-0.486 18.218,2.238 -0.117,-7.15 -1.181,-14.578 -3.032,-21.738 -7.894,-6.299 -15.919,-9.807 -23.634,-9.92 1.807,-0.895 3.691,-1.576 5.656,-2.018 4.664,-1.053 9.49,-0.742 14.376,0.791 -6.841,-17.461 -18.282,-31.072 -31.133,-31.072 -12.851,0 -24.293,13.611 -31.134,31.072 4.886,-1.533 9.713,-1.844 14.375,-0.791 1.966,0.441 3.852,1.123 5.658,2.018 -7.715,0.113 -15.74,3.621 -23.635,9.92 -1.852,7.16 -2.915,14.588 -3.031,21.738 6.191,-2.725 12.335,-3.568 18.217,-2.238 1.966,0.443 3.852,1.123 5.658,2.018 -7.635,0.113 -15.572,3.553 -23.387,9.727 1.1,8.666 3.914,16.217 7.812,22.752 5.355,-1.924 10.653,-2.408 15.753,-1.258 1.966,0.445 3.852,1.127 5.658,2.02 -5.621,0.084 -11.404,1.969 -17.184,5.422 7.086,9.141 16.289,15.891 25.239,20.59 8.949,-4.699 18.153,-11.449 25.239,-20.59 -5.777,-3.453 -11.563,-5.338 -17.182,-5.422 z"
           id="path635" />
        <path
           style="fill:#78563e"
           inkscape:connector-curvature="0"
           d="m -1543.447,2857.47 c 1.807,-0.893 3.691,-1.574 5.656,-2.02 5.102,-1.15 10.398,-0.666 15.754,1.258 3.896,-6.535 6.713,-14.086 7.812,-22.752 -7.813,-6.174 -15.751,-9.613 -23.386,-9.727 1.807,-0.895 3.691,-1.574 5.657,-2.018 5.882,-1.33 12.024,-0.486 18.218,2.238 -0.117,-7.15 -1.181,-14.578 -3.032,-21.738 -7.894,-6.299 -15.919,-9.807 -23.634,-9.92 1.807,-0.895 3.691,-1.576 5.656,-2.018 4.664,-1.053 9.49,-0.742 14.376,0.791 -6.841,-17.461 -18.282,-31.072 -31.133,-31.072 -12.851,0 -24.293,13.611 -31.134,31.072 4.886,-1.533 9.713,-1.844 14.375,-0.791 1.966,0.441 3.852,1.123 5.658,2.018 -7.715,0.113 -15.74,3.621 -23.635,9.92 -1.852,7.16 -2.915,14.588 -3.031,21.738 6.191,-2.725 12.335,-3.568 18.217,-2.238 1.966,0.443 3.852,1.123 5.658,2.018 -7.635,0.113 -15.572,3.553 -23.387,9.727 1.1,8.666 3.914,16.217 7.812,22.752 5.355,-1.924 10.653,-2.408 15.753,-1.258 1.966,0.445 3.852,1.127 5.658,2.02 -5.621,0.084 -11.404,1.969 -17.184,5.422 7.086,9.141 16.289,15.891 25.239,20.59 8.949,-4.699 18.153,-11.449 25.239,-20.59 -5.777,-3.453 -11.563,-5.338 -17.182,-5.422 z"
           id="path637" />
        <path
           style="fill:#966c4d"
           inkscape:connector-curvature="0"
           d="m -1571.052,2822.212 c 1.966,0.443 3.852,1.123 5.658,2.018 -7.635,0.113 -15.572,3.553 -23.387,9.727 1.1,8.666 3.914,16.217 7.812,22.752 5.355,-1.924 10.653,-2.408 15.753,-1.258 1.139,0.258 2.246,0.604 3.33,1.014 3.484,-0.227 7.021,-0.346 10.604,-0.346 3.454,0 6.866,0.109 10.228,0.32 1.063,-0.4 2.149,-0.736 3.264,-0.988 5.102,-1.15 10.398,-0.666 15.754,1.258 3.896,-6.535 6.713,-14.086 7.812,-22.752 -7.813,-6.174 -15.751,-9.613 -23.386,-9.727 1.807,-0.895 3.691,-1.574 5.657,-2.018 5.882,-1.33 12.024,-0.486 18.218,2.238 -0.117,-7.15 -1.181,-14.578 -3.032,-21.738 -7.894,-6.299 -15.919,-9.807 -23.634,-9.92 1.807,-0.895 3.691,-1.576 5.656,-2.018 4.664,-1.053 9.49,-0.742 14.376,0.791 -6.841,-17.461 -18.282,-31.072 -31.133,-31.072 -12.851,0 -24.293,13.611 -31.134,31.072 4.886,-1.533 9.713,-1.844 14.375,-0.791 1.966,0.441 3.852,1.123 5.658,2.018 -7.715,0.113 -15.74,3.621 -23.635,9.92 -1.852,7.16 -2.915,14.588 -3.031,21.738 6.191,-2.724 12.335,-3.568 18.217,-2.238 z"
           id="path639" />
        <path
           style="fill:#ab7b58"
           inkscape:connector-curvature="0"
           d="m -1571.052,2822.212 c 0.834,0.188 1.65,0.428 2.456,0.699 5.619,-0.607 11.405,-0.924 17.314,-0.924 5.792,0 11.465,0.305 16.979,0.889 0.771,-0.256 1.551,-0.484 2.349,-0.664 5.882,-1.33 12.024,-0.486 18.218,2.238 -0.117,-7.15 -1.181,-14.578 -3.032,-21.738 -7.894,-6.299 -15.919,-9.807 -23.634,-9.92 1.807,-0.895 3.691,-1.576 5.656,-2.018 4.664,-1.053 9.49,-0.742 14.376,0.791 -6.841,-17.461 -18.282,-31.072 -31.133,-31.072 -12.851,0 -24.293,13.611 -31.134,31.072 4.886,-1.533 9.713,-1.844 14.375,-0.791 1.966,0.441 3.852,1.123 5.658,2.018 -7.715,0.113 -15.74,3.621 -23.635,9.92 -1.852,7.16 -2.915,14.588 -3.031,21.738 6.192,-2.724 12.336,-3.568 18.218,-2.238 z"
           id="path641" />
        <path
           style="fill:#c28b64"
           inkscape:connector-curvature="0"
           d="m -1568.261,2790.775 c 1.847,0.414 3.619,1.049 5.326,1.863 3.821,-0.273 7.709,-0.418 11.653,-0.418 3.812,0 7.571,0.137 11.27,0.393 1.688,-0.803 3.442,-1.428 5.267,-1.838 4.664,-1.053 9.49,-0.742 14.376,0.791 -6.841,-17.461 -18.282,-31.072 -31.133,-31.072 -12.851,0 -24.293,13.611 -31.134,31.072 4.886,-1.534 9.713,-1.844 14.375,-0.791 z"
           id="path643" />
        <path
           style="opacity:0.1"
           inkscape:connector-curvature="0"
           d="m -1534.303,2822.876 c 0,0 0,0 0,0 0.373,-0.123 0.748,-0.24 1.126,-0.35 0.405,-0.113 0.812,-0.223 1.224,-0.314 5.882,-1.33 12.024,-0.486 18.218,2.238 -0.117,-7.15 -1.181,-14.578 -3.032,-21.738 -7.894,-6.299 -15.919,-9.807 -23.634,-9.92 0.135,-0.066 0.273,-0.125 0.409,-0.189 0.413,-0.195 0.831,-0.381 1.252,-0.557 0.015,-0.01 0.03,-0.01 0.045,-0.016 0.41,-0.17 0.824,-0.328 1.242,-0.475 0.102,-0.037 0.205,-0.066 0.308,-0.1 0.336,-0.115 0.674,-0.227 1.016,-0.326 0.458,-0.131 0.919,-0.252 1.385,-0.355 4.664,-1.053 9.49,-0.742 14.376,0.791 -6.813,-17.391 -18.19,-30.959 -30.978,-31.068 l 0,138.209 2.455,0 -1.281,-15.959 c 8.525,-4.662 17.174,-11.166 23.91,-19.855 -5.779,-3.453 -11.564,-5.338 -17.184,-5.422 0.781,-0.387 1.581,-0.725 2.393,-1.031 l 0,0 c 0.512,-0.191 1.029,-0.367 1.553,-0.529 0.025,-0.01 0.051,-0.018 0.077,-0.025 0.538,-0.162 1.083,-0.309 1.634,-0.434 5.102,-1.15 10.398,-0.666 15.754,1.258 3.896,-6.535 6.713,-14.086 7.812,-22.752 -7.813,-6.174 -15.751,-9.613 -23.386,-9.727 1.071,-0.532 2.176,-0.979 3.306,-1.354 z"
           id="path645" />
      </g>
    </g>
  </g>
</svg>
