<svg xmlns="http://www.w3.org/2000/svg" width="80.571" height="147.428" viewBox="0 0 75.535 138.214"><path fill="#664934" d="M40.378 138.214h-5.221l1.895-23.607h1.431z"/><path d="M45.823 96.978a25.45 25.45 0 0 1 5.656-2.02c5.102-1.15 10.398-.666 15.754 1.258 3.896-6.535 6.713-14.086 7.812-22.752-7.813-6.174-15.751-9.613-23.386-9.727a25.235 25.235 0 0 1 5.657-2.018c5.882-1.33 12.024-.486 18.218 2.238-.117-7.15-1.181-14.578-3.032-21.738-7.894-6.299-15.919-9.807-23.634-9.92a25.146 25.146 0 0 1 5.656-2.018c4.664-1.053 9.49-.742 14.376.791C62.059 13.611 50.618 0 37.767 0 24.916 0 13.474 13.611 6.633 31.072c4.886-1.533 9.713-1.844 14.375-.791a25.078 25.078 0 0 1 5.658 2.018c-7.715.113-15.74 3.621-23.635 9.92C1.179 49.379.116 56.807 0 63.957c6.191-2.725 12.335-3.568 18.217-2.238a25.176 25.176 0 0 1 5.658 2.018C16.24 63.85 8.303 67.29.488 73.464c1.1 8.666 3.914 16.217 7.812 22.752 5.355-1.924 10.653-2.408 15.753-1.258a25.38 25.38 0 0 1 5.658 2.02c-5.621.084-11.404 1.969-17.184 5.422 7.086 9.141 16.289 15.891 25.239 20.59 8.949-4.699 18.153-11.449 25.239-20.59-5.777-3.453-11.563-5.338-17.182-5.422z" fill="#966c4d"/><path d="M45.823 96.978a25.45 25.45 0 0 1 5.656-2.02c5.102-1.15 10.398-.666 15.754 1.258 3.896-6.535 6.713-14.086 7.812-22.752-7.813-6.174-15.751-9.613-23.386-9.727a25.235 25.235 0 0 1 5.657-2.018c5.882-1.33 12.024-.486 18.218 2.238-.117-7.15-1.181-14.578-3.032-21.738-7.894-6.299-15.919-9.807-23.634-9.92a25.146 25.146 0 0 1 5.656-2.018c4.664-1.053 9.49-.742 14.376.791C62.059 13.611 50.618 0 37.767 0 24.916 0 13.474 13.611 6.633 31.072c4.886-1.533 9.713-1.844 14.375-.791a25.078 25.078 0 0 1 5.658 2.018c-7.715.113-15.74 3.621-23.635 9.92C1.179 49.379.116 56.807 0 63.957c6.191-2.725 12.335-3.568 18.217-2.238a25.176 25.176 0 0 1 5.658 2.018C16.24 63.85 8.303 67.29.488 73.464c1.1 8.666 3.914 16.217 7.812 22.752 5.355-1.924 10.653-2.408 15.753-1.258a25.38 25.38 0 0 1 5.658 2.02c-5.621.084-11.404 1.969-17.184 5.422 7.086 9.141 16.289 15.891 25.239 20.59 8.949-4.699 18.153-11.449 25.239-20.59-5.777-3.453-11.563-5.338-17.182-5.422z" fill="#78563e"/><path d="M18.218 61.72a25.176 25.176 0 0 1 5.658 2.018c-7.635.113-15.572 3.553-23.387 9.727 1.1 8.666 3.914 16.217 7.812 22.752 5.355-1.924 10.653-2.408 15.753-1.258a25.05 25.05 0 0 1 3.33 1.014 163.097 163.097 0 0 1 20.832-.026c1.063-.4 2.149-.736 3.264-.988 5.102-1.15 10.398-.666 15.754 1.258 3.896-6.535 6.713-14.086 7.812-22.752-7.813-6.174-15.751-9.613-23.386-9.727a25.235 25.235 0 0 1 5.657-2.018c5.882-1.33 12.024-.486 18.218 2.238-.117-7.15-1.181-14.578-3.032-21.738-7.894-6.299-15.919-9.807-23.634-9.92a25.146 25.146 0 0 1 5.656-2.018c4.664-1.053 9.49-.742 14.376.791C62.06 13.612 50.619.001 37.768.001c-12.851 0-24.293 13.611-31.134 31.072 4.886-1.533 9.713-1.844 14.375-.791a25.078 25.078 0 0 1 5.658 2.018c-7.715.113-15.74 3.621-23.635 9.92C1.18 49.38.117 56.808.001 63.958c6.191-2.724 12.335-3.568 18.217-2.238z" fill="#966c4d"/><path d="M18.218 61.72c.834.188 1.65.428 2.456.699a161.31 161.31 0 0 1 17.314-.924 161.3 161.3 0 0 1 16.979.889 24.695 24.695 0 0 1 2.349-.664c5.882-1.33 12.024-.486 18.218 2.238-.117-7.15-1.181-14.578-3.032-21.738-7.894-6.299-15.919-9.807-23.634-9.92a25.146 25.146 0 0 1 5.656-2.018c4.664-1.053 9.49-.742 14.376.791C62.059 13.612 50.618.001 37.767.001c-12.851 0-24.293 13.611-31.134 31.072 4.886-1.533 9.713-1.844 14.375-.791a25.078 25.078 0 0 1 5.658 2.018c-7.715.113-15.74 3.621-23.635 9.92C1.179 49.38.116 56.808 0 63.958c6.192-2.724 12.336-3.568 18.218-2.238z" fill="#ab7b58"/><path d="M21.009 30.283a25.12 25.12 0 0 1 5.326 1.863c3.821-.273 7.709-.418 11.653-.418 3.812 0 7.571.137 11.27.393a25.002 25.002 0 0 1 5.267-1.838c4.664-1.053 9.49-.742 14.376.791C62.06 13.613 50.619.002 37.768.002c-12.851 0-24.293 13.611-31.134 31.072 4.886-1.534 9.713-1.844 14.375-.791z" fill="#c28b64"/><path d="M54.967 62.384c.373-.123.748-.24 1.126-.35.405-.113.812-.223 1.224-.314 5.882-1.33 12.024-.486 18.218 2.238-.117-7.15-1.181-14.578-3.032-21.738-7.894-6.299-15.919-9.807-23.634-9.92.135-.066.273-.125.409-.189.413-.195.831-.381 1.252-.557.015-.01.03-.01.045-.016.41-.17.824-.328 1.242-.475.102-.037.205-.066.308-.1.336-.115.674-.227 1.016-.326.458-.131.919-.252 1.385-.355 4.664-1.053 9.49-.742 14.376.791C62.089 13.682 50.712.114 37.924.005v138.209h2.455l-1.281-15.959c8.525-4.662 17.174-11.166 23.91-19.855-5.779-3.453-11.564-5.338-17.184-5.422a26.133 26.133 0 0 1 2.393-1.031 28.652 28.652 0 0 1 1.63-.554 24.377 24.377 0 0 1 1.634-.434c5.102-1.15 10.398-.666 15.754 1.258 3.896-6.535 6.713-14.086 7.812-22.752-7.813-6.174-15.751-9.613-23.386-9.727a25.408 25.408 0 0 1 3.306-1.354z" opacity=".1"/></svg>