<svg xmlns="http://www.w3.org/2000/svg" width="46.29" height="52.181" viewBox="0 0 43.397 48.919241"><path fill="#ff687b" d="M0 5.522h43.397V48.92H0z"/><path fill="#fff" d="M2.494 22.98h38.41v23.445H2.493z"/><g stroke-miterlimit="10" fill="none" stroke="#ff687b" stroke-width="2.182"><path d="M12.693 7.911a3.002 3.002 0 0 1-6.002 0V4.092a3.002 3.002 0 0 1 6.002 0v3.82zM36.701 7.911a3.002 3.002 0 0 1-6.002 0V4.092a3.002 3.002 0 0 1 6.002 0v3.82z"/></g><g font-size="14.993" font-family="P22Underground-Heavy" fill="#f7f5f5"><path d="M15.52 9.512v1.442q-.841-.403-1.588-.6-.747-.198-1.442-.198-1.208 0-1.867.469-.652.468-.652 1.332 0 .725.432 1.098.44.366 1.655.593l.893.183q1.655.315 2.438 1.113.79.79.79 2.123 0 1.589-1.068 2.409-1.062.82-3.119.82-.776 0-1.654-.176-.872-.176-1.809-.52v-1.523q.9.505 1.765.762.863.256 1.698.256 1.267 0 1.955-.498.688-.498.688-1.42 0-.805-.498-1.26-.49-.453-1.618-.68l-.9-.176q-1.655-.33-2.394-1.032-.74-.703-.74-1.955 0-1.45 1.018-2.284 1.025-.834 2.818-.834.77 0 1.567.139.798.139 1.633.417zM18.486 9.153h6.91v1.245h-5.432v3.236h5.205v1.244h-5.205v3.96h5.564v1.245h-7.042V9.153zM29.452 10.368v4.107h1.86q1.032 0 1.596-.534.563-.534.563-1.523 0-.98-.563-1.515-.564-.535-1.596-.535h-1.86zm-1.479-1.215h3.339q1.837 0 2.774.835.945.827.945 2.43 0 1.618-.945 2.445-.937.828-2.774.828h-1.86v4.392h-1.479V9.153z"/></g><g font-size="20.902" font-family="P22Underground-Heavy" fill="#009aff"><path d="M13.273 39.947h7.195v1.735h-9.676v-1.735q1.174-1.214 3.195-3.256 2.031-2.051 2.552-2.643.99-1.113 1.377-1.878.398-.776.398-1.52 0-1.215-.857-1.98-.847-.766-2.215-.766-.97 0-2.051.337-1.072.336-2.296 1.02V27.18q1.245-.5 2.327-.755 1.081-.255 1.98-.255 2.367 0 3.776 1.184 1.408 1.184 1.408 3.164 0 .939-.357 1.786-.347.837-1.276 1.98-.255.296-1.623 1.714-1.367 1.409-3.857 3.95zM30.47 28.24l-5.205 8.135h5.205V28.24zm-.54-1.796h2.591v9.93h2.174v1.716h-2.174v3.592H30.47V38.09h-6.879V36.1l6.338-9.656z"/></g></svg>