<?xml version="1.0" encoding="UTF-8" standalone="no"?>
<!-- Created with Inkscape (http://www.inkscape.org/) -->

<svg
   xmlns:dc="http://purl.org/dc/elements/1.1/"
   xmlns:cc="http://creativecommons.org/ns#"
   xmlns:rdf="http://www.w3.org/1999/02/22-rdf-syntax-ns#"
   xmlns:svg="http://www.w3.org/2000/svg"
   xmlns="http://www.w3.org/2000/svg"
   xmlns:sodipodi="http://sodipodi.sourceforge.net/DTD/sodipodi-0.dtd"
   xmlns:inkscape="http://www.inkscape.org/namespaces/inkscape"
   width="12.247598mm"
   height="13.806097mm"
   viewBox="0 0 43.397 48.919241"
   id="svg7063"
   version="1.1"
   inkscape:version="0.91 r13725"
   sodipodi:docname="fecha.svg">
  <defs
     id="defs7065" />
  <sodipodi:namedview
     id="base"
     pagecolor="#ffffff"
     bordercolor="#666666"
     borderopacity="1.0"
     inkscape:pageopacity="0.0"
     inkscape:pageshadow="2"
     inkscape:zoom="5.6"
     inkscape:cx="-6.9023987"
     inkscape:cy="22.765881"
     inkscape:document-units="px"
     inkscape:current-layer="g749"
     showgrid="false"
     fit-margin-top="0"
     fit-margin-left="0"
     fit-margin-right="0"
     fit-margin-bottom="0"
     inkscape:window-width="900"
     inkscape:window-height="1416"
     inkscape:window-x="0"
     inkscape:window-y="24"
     inkscape:window-maximized="1" />
  <metadata
     id="metadata7068">
    <rdf:RDF>
      <cc:Work
         rdf:about="">
        <dc:format>image/svg+xml</dc:format>
        <dc:type
           rdf:resource="http://purl.org/dc/dcmitype/StillImage" />
        <dc:title />
      </cc:Work>
    </rdf:RDF>
  </metadata>
  <g
     inkscape:label="Capa 1"
     inkscape:groupmode="layer"
     id="layer1"
     transform="translate(-144.01579,-327.90258)">
    <g
       transform="translate(3285.2299,192.42583)"
       id="g749">
      <rect
         style="fill:#ff687b"
         x="-3141.2141"
         y="140.99899"
         width="43.396999"
         height="43.396999"
         id="rect751" />
      <rect
         style="fill:#ffffff;fill-opacity:1"
         x="-3138.72"
         y="158.457"
         width="38.409"
         height="23.445"
         id="rect753" />
      <g
         id="g755">
        <path
           style="fill:none;stroke:#ff687b;stroke-width:2.18249989;stroke-miterlimit:10"
           inkscape:connector-curvature="0"
           stroke-miterlimit="10"
           d="m -3128.521,143.388 c 0,1.657 -1.344,3.001 -3.001,3.001 l 0,0 c -1.657,0 -3.001,-1.344 -3.001,-3.001 l 0,-3.819 c 0,-1.657 1.344,-3.001 3.001,-3.001 l 0,0 c 1.657,0 3.001,1.344 3.001,3.001 l 0,3.819 z"
           id="path757" />
        <path
           style="fill:none;stroke:#ff687b;stroke-width:2.18249989;stroke-miterlimit:10"
           inkscape:connector-curvature="0"
           stroke-miterlimit="10"
           d="m -3104.513,143.388 c 0,1.657 -1.344,3.001 -3.001,3.001 l 0,0 c -1.657,0 -3.001,-1.344 -3.001,-3.001 l 0,-3.819 c 0,-1.657 1.344,-3.001 3.001,-3.001 l 0,0 c 1.657,0 3.001,1.344 3.001,3.001 l 0,3.819 z"
           id="path759" />
      </g>
      <g
         id="g761"
         transform="translate(-1.6071429,0.57142857)">
        <g
           transform="translate(-3132.1099,154.9885)"
           style="font-size:14.99300003px;font-family:P22Underground-Heavy;fill:#f7f5f5"
           id="text763">
          <path
             d="m 8.0235977,-10.571236 0,1.4421974 Q 7.1817056,-9.5316826 6.4349839,-9.7293443 5.6882622,-9.9270059 4.9927861,-9.9270059 q -1.2079321,0 -1.8668042,0.4685313 -0.6515512,0.4685312 -0.6515512,1.3323857 0,0.7247593 0.4319272,1.0981201 0.4392481,0.3660401 1.654501,0.5929849 l 0.8931377,0.18302 q 1.654501,0.3147945 2.4378267,1.1127617 0.7906464,0.7906465 0.7906464,2.1230323 0,1.5886137 -1.0688369,2.40854343 -1.0615161,0.81992969 -3.1186611,0.81992969 -0.7760049,0 -1.654501,-0.17569922 -0.8711753,-0.17569922 -1.8082378,-0.51977685 l 0,-1.52272655 q 0.9004585,0.5051352 1.764313,0.7613633 0.8638545,0.25622799 1.6984258,0.25622799 1.2664985,0 1.9546538,-0.49781449 0.6881553,-0.4978144 0.6881553,-1.4202353 0,-0.8052881 -0.4978145,-1.2591778 -0.4904936,-0.4538896 -1.617897,-0.6808344 L 4.1216108,-5.0220693 Q 2.4671099,-5.3515054 1.727709,-6.0543023 0.98830811,-6.7570991 0.98830811,-8.0089561 q 0,-1.4495185 1.01759129,-2.2840899 1.0249121,-0.834571 2.8185083,-0.834571 0.7686841,0 1.5666514,0.139095 0.7979673,0.139095 1.6325386,0.417286 z"
             style="font-size:14.99300003px;font-family:P22Underground-Heavy;fill:#f7f5f5"
             id="path7132" />
          <path
             d="m 10.988522,-10.929956 6.910836,0 0,1.2445365 -5.432034,0 0,3.235794 5.205089,0 0,1.2445361 -5.205089,0 0,3.9605533 5.563809,0 0,1.2445361 -7.042611,0 0,-10.929956 z"
             style="font-size:14.99300003px;font-family:P22Underground-Heavy;fill:#f7f5f5"
             id="path7134" />
          <path
             d="m 21.955082,-9.7147027 0,4.1069693 1.859483,0 q 1.032233,0 1.595935,-0.5344185 0.563701,-0.5344184 0.563701,-1.5227265 0,-0.9809873 -0.563701,-1.5154058 -0.563702,-0.5344185 -1.595935,-0.5344185 l -1.859483,0 z m -1.478802,-1.2152533 3.338285,0 q 1.837521,0 2.774584,0.834572 0.944383,0.8272502 0.944383,2.4305056 0,1.6178969 -0.944383,2.4451474 -0.937063,0.8272505 -2.774584,0.8272505 l -1.859483,0 0,4.3924805 -1.478802,0 0,-10.929956 z"
             style="font-size:14.99300003px;font-family:P22Underground-Heavy;fill:#f7f5f5"
             id="path7136" />
        </g>
      </g>
      <g
         transform="translate(-3131.9526,177.1589)"
         style="font-size:20.90229988px;font-family:P22Underground-Heavy;fill:#009aff"
         id="text765">
        <path
           d="m 4.011037,-1.7350542 7.195372,0 0,1.7350542 -9.6754788,0 0,-1.7350542 q 1.1737131,-1.2145379 3.1945409,-3.2557781 2.031034,-2.0514465 2.5515503,-2.6434061 0.9900015,-1.112476 1.3778371,-1.877941 0.3980419,-0.7756716 0.3980419,-1.5207236 0,-1.214538 -0.8573209,-1.980003 -0.8471147,-0.765466 -2.2147456,-0.765466 -0.9695892,0 -2.0514465,0.336805 -1.0716511,0.336805 -2.2963952,1.02062 l 0,-2.082065 q 1.2451565,-0.500104 2.3270138,-0.755259 1.0818574,-0.255155 1.980003,-0.255155 2.3678387,0 3.7762945,1.18392 1.4084555,1.183919 1.4084555,3.163922 0,0.93897 -0.357217,1.7860852 -0.347011,0.8369085 -1.275775,1.980003 -0.255155,0.2959798 -1.6227859,1.7146418 -1.367631,1.4084557 -3.8579441,3.9497998 z"
           style="font-size:20.90229988px;font-family:P22Underground-Heavy;fill:#009aff"
           id="path7139" />
        <path
           d="m 21.208486,-13.441567 -5.205162,8.1343424 5.205162,0 0,-8.1343424 z m -0.540928,-1.796291 2.592375,0 0,9.9306334 2.17392,0 0,1.7146418 -2.17392,0 0,3.5925828 -2.051447,0 0,-3.5925828 -6.878979,0 0,-1.9902092 6.338051,-9.655066 z"
           style="font-size:20.90229988px;font-family:P22Underground-Heavy;fill:#009aff"
           id="path7141" />
      </g>
    </g>
  </g>
</svg>
