<?xml version="1.0" encoding="UTF-8" standalone="no"?>
<!-- Created with Inkscape (http://www.inkscape.org/) -->

<svg
   xmlns:dc="http://purl.org/dc/elements/1.1/"
   xmlns:cc="http://creativecommons.org/ns#"
   xmlns:rdf="http://www.w3.org/1999/02/22-rdf-syntax-ns#"
   xmlns:svg="http://www.w3.org/2000/svg"
   xmlns="http://www.w3.org/2000/svg"
   xmlns:sodipodi="http://sodipodi.sourceforge.net/DTD/sodipodi-0.dtd"
   xmlns:inkscape="http://www.inkscape.org/namespaces/inkscape"
   width="35.902054mm"
   height="40.864368mm"
   viewBox="0 0 127.212 144.79501"
   id="svg4326"
   version="1.1"
   inkscape:version="0.91 r13725"
   sodipodi:docname="org.svg">
  <defs
     id="defs4328" />
  <sodipodi:namedview
     id="base"
     pagecolor="#ffffff"
     bordercolor="#666666"
     borderopacity="1.0"
     inkscape:pageopacity="0.0"
     inkscape:pageshadow="2"
     inkscape:zoom="0.35"
     inkscape:cx="-18.5369"
     inkscape:cy="20.968895"
     inkscape:document-units="px"
     inkscape:current-layer="layer1"
     showgrid="false"
     fit-margin-top="0"
     fit-margin-left="0"
     fit-margin-right="0"
     fit-margin-bottom="0"
     inkscape:window-width="900"
     inkscape:window-height="1416"
     inkscape:window-x="0"
     inkscape:window-y="24"
     inkscape:window-maximized="1" />
  <metadata
     id="metadata4331">
    <rdf:RDF>
      <cc:Work
         rdf:about="">
        <dc:format>image/svg+xml</dc:format>
        <dc:type
           rdf:resource="http://purl.org/dc/dcmitype/StillImage" />
        <dc:title></dc:title>
      </cc:Work>
    </rdf:RDF>
  </metadata>
  <g
     inkscape:label="Capa 1"
     inkscape:groupmode="layer"
     id="layer1"
     transform="translate(-393.5369,-408.5361)">
    <g
       transform="translate(2002.8649,-2159.8949)"
       id="g593">
      <g
         id="g595">
        <path
           style="fill:#a0ae06"
           inkscape:connector-curvature="0"
           d="m -1609.328,2653.443 c 8.864,2.168 16.568,-13.637 37.439,-3.512 16.237,7.877 24.142,33.385 24.142,33.385 0,0 -28.1,10.121 -44.336,2.244 -20.872,-10.125 -10.054,-26.496 -17.245,-32.117 z"
           id="path597" />
        <path
           style="opacity:0.1"
           inkscape:connector-curvature="0"
           d="m -1609.328,2653.443 c 8.864,2.168 16.568,-13.637 37.439,-3.512 16.237,7.877 24.142,33.385 24.142,33.385 l -61.581,-29.873 z"
           id="path599" />
        <path
           style="fill:#626200"
           inkscape:connector-curvature="0"
           d="m -1547.747,2683.316 c -33.473,-17.383 -61.581,-29.873 -61.581,-29.873 0,0 34.75,20.08 61.581,29.873 z"
           id="path601" />
        <path
           style="fill:#a0ae06"
           inkscape:connector-curvature="0"
           d="m -1547.831,2568.431 c 2.753,12.797 30.707,15.814 30.707,49.093 0,25.889 -30.707,49.096 -30.707,49.096 0,0 -30.707,-23.207 -30.707,-49.096 0,-33.278 27.955,-36.296 30.707,-49.093 z"
           id="path603" />
        <path
           style="opacity:0.1"
           inkscape:connector-curvature="0"
           d="m -1547.831,2568.431 c 2.753,12.797 30.707,15.814 30.707,49.093 0,25.889 -30.707,49.096 -30.707,49.096 l 0,-98.189 z"
           id="path605" />
        <path
           style="fill:#a0ae06"
           inkscape:connector-curvature="0"
           d="m -1482.116,2669.323 c -9.103,0.652 -14.812,-17.617 -37.085,-11.133 -17.326,5.047 -28.63,30.268 -28.63,30.268 0,0 24.466,15.004 41.793,9.957 22.272,-6.484 15.892,-24.756 23.922,-29.092 z"
           id="path607" />
        <path
           style="opacity:0.1"
           inkscape:connector-curvature="0"
           d="m -1547.831,2688.458 c 0,0 24.466,15.004 41.793,9.957 22.271,-6.484 15.892,-24.756 23.922,-29.092 l -65.715,19.135 z"
           id="path609" />
        <path
           style="fill:#626200"
           inkscape:connector-curvature="0"
           d="m -1547.914,2689.017 c 34.056,-15.494 65.798,-19.693 65.798,-19.693 0,0 -35.008,9.847 -65.798,19.693 z"
           id="path611" />
        <polygon
           style="fill:#626200"
           points="-1547.831,2568.431 -1545.954,2713.226 -1549.707,2713.226 "
           id="polygon613" />
      </g>
    </g>
  </g>
</svg>
