<svg xmlns="http://www.w3.org/2000/svg" width="135.693" height="154.448" viewBox="0 0 127.212 144.79501"><path d="M0 85.012C8.864 87.18 16.568 71.375 37.439 81.5c16.237 7.877 24.142 33.385 24.142 33.385s-28.1 10.121-44.336 2.244C-3.627 107.004 7.191 90.633 0 85.012z" fill="#a0ae06"/><path d="M0 85.012C8.864 87.18 16.568 71.375 37.439 81.5c16.237 7.877 24.142 33.385 24.142 33.385L0 85.012z" opacity=".1"/><path d="M61.581 114.885C28.108 97.502 0 85.012 0 85.012s34.75 20.08 61.581 29.873z" fill="#626200"/><path d="M61.497 0c2.753 12.797 30.707 15.814 30.707 49.093 0 25.889-30.707 49.096-30.707 49.096S30.79 74.982 30.79 49.093C30.79 15.815 58.745 12.797 61.497 0z" fill="#a0ae06"/><path d="M61.497 0c2.753 12.797 30.707 15.814 30.707 49.093 0 25.889-30.707 49.096-30.707 49.096V0z" opacity=".1"/><path d="M127.212 100.892c-9.103.652-14.812-17.617-37.085-11.133-17.326 5.047-28.63 30.268-28.63 30.268s24.466 15.004 41.793 9.957c22.272-6.484 15.892-24.756 23.922-29.092z" fill="#a0ae06"/><path d="M61.497 120.027s24.466 15.004 41.793 9.957c22.271-6.484 15.892-24.756 23.922-29.092l-65.715 19.135z" opacity=".1"/><path d="M61.414 120.586c34.056-15.494 65.798-19.693 65.798-19.693s-35.008 9.847-65.798 19.693z" fill="#626200"/><path fill="#626200" d="M61.497 0l1.877 144.795h-3.753z"/></svg>