<svg xmlns="http://www.w3.org/2000/svg" width="80.422" height="156.127" viewBox="0 0 75.396002 146.36901"><path d="M28.74 8.319a6.104 6.104 0 0 1-6.104 6.104c-.499 0-.98-.066-1.444-.178a6.104 6.104 0 0 1-5.959 9.046c.454.58.813 1.248 1.038 1.996a6.102 6.102 0 0 1-4.086 7.603 6.022 6.022 0 0 1-2.271.232c-.01.016-.014.031-.021.047a6.052 6.052 0 0 1 1.443 2.461 6.102 6.102 0 0 1-4.086 7.604 6 6 0 0 1-1.361.242 6.055 6.055 0 0 1 1.815 2.818 6.105 6.105 0 0 1-4.085 7.604 6.158 6.158 0 0 1-1.071.215c.479.291.928.648 1.326 1.08a6.103 6.103 0 0 1-3.49 10.156A6.1 6.1 0 0 1 0 76.966c1.33.197 2.605.83 3.588 1.896a6.104 6.104 0 0 1-.352 8.625 5.994 5.994 0 0 1-1.765 1.125c.01.025.013.047.019.07a6.104 6.104 0 0 1 5.078 6.162 6.067 6.067 0 0 1-1.086 3.318 6.07 6.07 0 0 1 2.859-.635 6.102 6.102 0 0 1 5.947 6.256 6.058 6.058 0 0 1-.99 3.174 6.085 6.085 0 0 1 3.095-.762 6.105 6.105 0 0 1 5.949 6.256c-.011.465-.088.91-.198 1.342.041.023.081.051.123.076a6.072 6.072 0 0 1 3.76-1.188 6.105 6.105 0 0 1 5.949 6.256c0 .084-.012.166-.019.248.01.01.017.01.026.014.214-.018.43-.027.648-.021a6.101 6.101 0 0 1 5.064 2.943 6.096 6.096 0 0 1 5.064-2.943c.229-.01.453 0 .677.023a2.992 2.992 0 0 1-.021-.264 6.105 6.105 0 0 1 5.949-6.256 6.074 6.074 0 0 1 3.783 1.203c.036-.021.07-.045.107-.064a5.994 5.994 0 0 1-.205-1.369 6.105 6.105 0 0 1 5.948-6.256 6.08 6.08 0 0 1 3.095.762c-.598-.916-.962-2-.99-3.174a6.104 6.104 0 0 1 5.947-6.256c1.027-.025 2 .207 2.858.635a6.098 6.098 0 0 1-1.084-3.318 6.103 6.103 0 0 1 5.129-6.172c0-.014.01-.027.011-.039a6.126 6.126 0 0 1-1.809-1.146 6.104 6.104 0 0 1-.352-8.625 6.07 6.07 0 0 1 3.589-1.896 6.102 6.102 0 0 1-2.829-10.006 6.078 6.078 0 0 1 2.444-1.611 6.103 6.103 0 0 1-3.49-10.156 6.123 6.123 0 0 1 1.325-1.08 6.046 6.046 0 0 1-1.069-.215 6.104 6.104 0 0 1-4.085-7.604 6.061 6.061 0 0 1 1.814-2.818 6.028 6.028 0 0 1-1.362-.242 6.103 6.103 0 0 1-4.085-7.604 6.075 6.075 0 0 1 1.477-2.5v-.01c-.761.07-1.546 0-2.322-.23a6.103 6.103 0 0 1-4.086-7.603 6.138 6.138 0 0 1 1.038-1.996 6.104 6.104 0 0 1-6.734-6.071c0-1.082.284-2.096.777-2.975a6.193 6.193 0 0 1-1.444.178 6.104 6.104 0 0 1-5.631-8.464 6.07 6.07 0 0 1-3.354 1.007c-3.207 0-5.832-3.822-6.079-6.966-.247 3.144-2.871 6.966-6.079 6.966a6.066 6.066 0 0 1-3.356-1.01c.315.726.483 1.525.483 2.363z" fill="#f0df56"/><path fill="#b89920" d="M34.891 146.369L37.7 3.809l2.811 142.56z"/><path d="M37.7 122.121a6.096 6.096 0 0 1 5.064-2.943c.229-.01.453 0 .677.023a2.992 2.992 0 0 1-.021-.264 6.105 6.105 0 0 1 5.949-6.256 6.074 6.074 0 0 1 3.783 1.203c.036-.021.07-.045.107-.064a5.994 5.994 0 0 1-.205-1.369 6.105 6.105 0 0 1 5.948-6.256 6.08 6.08 0 0 1 3.095.762c-.598-.916-.962-2-.99-3.174a6.104 6.104 0 0 1 5.947-6.256c1.027-.025 2 .207 2.858.635a6.098 6.098 0 0 1-1.084-3.318 6.103 6.103 0 0 1 5.129-6.172c0-.014.01-.027.011-.039a6.126 6.126 0 0 1-1.809-1.146 6.104 6.104 0 0 1-.352-8.625 6.07 6.07 0 0 1 3.589-1.896 6.102 6.102 0 0 1-2.829-10.006 6.078 6.078 0 0 1 2.444-1.611 6.103 6.103 0 0 1-3.49-10.156 6.123 6.123 0 0 1 1.325-1.08 6.046 6.046 0 0 1-1.069-.215 6.104 6.104 0 0 1-4.085-7.604 6.061 6.061 0 0 1 1.814-2.818 6.028 6.028 0 0 1-1.362-.242 6.103 6.103 0 0 1-4.085-7.604 6.075 6.075 0 0 1 1.477-2.5v-.01c-.761.07-1.546 0-2.322-.23a6.103 6.103 0 0 1-4.086-7.603 6.138 6.138 0 0 1 1.038-1.996 6.104 6.104 0 0 1-6.734-6.071c0-1.082.284-2.096.777-2.975a6.193 6.193 0 0 1-1.444.178 6.104 6.104 0 0 1-5.631-8.464 6.07 6.07 0 0 1-3.354 1.007c-3.207 0-5.832-3.822-6.079-6.966v122.121z" opacity=".1"/></svg>