<?xml version="1.0" encoding="UTF-8" standalone="no"?>
<!-- Created with Inkscape (http://www.inkscape.org/) -->

<svg
   xmlns:dc="http://purl.org/dc/elements/1.1/"
   xmlns:cc="http://creativecommons.org/ns#"
   xmlns:rdf="http://www.w3.org/1999/02/22-rdf-syntax-ns#"
   xmlns:svg="http://www.w3.org/2000/svg"
   xmlns="http://www.w3.org/2000/svg"
   xmlns:sodipodi="http://sodipodi.sourceforge.net/DTD/sodipodi-0.dtd"
   xmlns:inkscape="http://www.inkscape.org/namespaces/inkscape"
   width="21.278427mm"
   height="41.308586mm"
   viewBox="0 0 75.396002 146.36901"
   id="svg4120"
   version="1.1"
   inkscape:version="0.91 r13725"
   sodipodi:docname="persona.svg">
  <defs
     id="defs4122" />
  <sodipodi:namedview
     id="base"
     pagecolor="#ffffff"
     bordercolor="#666666"
     borderopacity="1.0"
     inkscape:pageopacity="0.0"
     inkscape:pageshadow="2"
     inkscape:zoom="0.35"
     inkscape:cx="144.1266"
     inkscape:cy="-26.815505"
     inkscape:document-units="px"
     inkscape:current-layer="layer1"
     showgrid="false"
     fit-margin-top="0"
     fit-margin-left="0"
     fit-margin-right="0"
     fit-margin-bottom="0"
     inkscape:window-width="900"
     inkscape:window-height="1416"
     inkscape:window-x="0"
     inkscape:window-y="24"
     inkscape:window-maximized="1" />
  <metadata
     id="metadata4125">
    <rdf:RDF>
      <cc:Work
         rdf:about="">
        <dc:format>image/svg+xml</dc:format>
        <dc:type
           rdf:resource="http://purl.org/dc/dcmitype/StillImage" />
        <dc:title></dc:title>
      </cc:Work>
    </rdf:RDF>
  </metadata>
  <g
     inkscape:label="Capa 1"
     inkscape:groupmode="layer"
     id="layer1"
     transform="translate(-230.8734,-359.1777)">
    <g
       transform="translate(1815.6534,-1858.4663)"
       id="g615">
      <g
         id="g617">
        <g
           id="g619">
          <g
             id="g621">
            <path
               style="fill:#f0df56"
               inkscape:connector-curvature="0"
               d="m -1556.04,2225.963 c 0,3.371 -2.733,6.104 -6.104,6.104 -0.499,0 -0.98,-0.066 -1.444,-0.178 0.492,0.879 0.775,1.893 0.775,2.975 0,3.37 -2.732,6.104 -6.103,6.104 -0.213,0 -0.423,-0.012 -0.631,-0.033 0.454,0.58 0.813,1.248 1.038,1.996 0.972,3.227 -0.857,6.632 -4.086,7.603 -0.759,0.229 -1.526,0.297 -2.271,0.232 -0.01,0.016 -0.014,0.031 -0.021,0.047 0.648,0.674 1.156,1.504 1.443,2.461 0.972,3.229 -0.857,6.633 -4.086,7.604 -0.452,0.137 -0.908,0.213 -1.361,0.242 0.828,0.728 1.475,1.683 1.815,2.818 0.971,3.227 -0.857,6.631 -4.085,7.604 -0.357,0.107 -0.714,0.174 -1.071,0.215 0.479,0.291 0.928,0.648 1.326,1.08 2.284,2.479 2.128,6.34 -0.352,8.625 -0.907,0.838 -2.003,1.344 -3.138,1.531 0.905,0.32 1.748,0.857 2.444,1.611 2.285,2.479 2.128,6.34 -0.353,8.623 -0.729,0.674 -1.58,1.129 -2.475,1.383 1.33,0.197 2.605,0.83 3.588,1.896 2.284,2.479 2.127,6.34 -0.352,8.625 -0.533,0.492 -1.133,0.861 -1.765,1.125 0.01,0.025 0.013,0.047 0.019,0.07 2.943,0.5 5.152,3.09 5.078,6.162 -0.031,1.234 -0.43,2.373 -1.086,3.318 0.861,-0.428 1.833,-0.66 2.859,-0.635 3.371,0.086 6.034,2.887 5.947,6.256 -0.028,1.174 -0.393,2.258 -0.99,3.174 0.918,-0.506 1.973,-0.789 3.095,-0.762 3.37,0.086 6.033,2.885 5.949,6.256 -0.011,0.465 -0.088,0.91 -0.198,1.342 0.041,0.023 0.081,0.051 0.123,0.076 1.052,-0.773 2.354,-1.223 3.76,-1.188 3.371,0.086 6.033,2.885 5.949,6.256 0,0.084 -0.012,0.166 -0.019,0.248 0.01,0.01 0.017,0.01 0.026,0.014 0.214,-0.018 0.43,-0.027 0.648,-0.021 2.158,0.055 4.021,1.227 5.064,2.943 1.043,-1.717 2.906,-2.889 5.064,-2.943 0.229,-0.01 0.453,0 0.677,0.023 -0.01,-0.09 -0.019,-0.176 -0.021,-0.264 -0.084,-3.371 2.579,-6.17 5.949,-6.256 1.416,-0.035 2.728,0.42 3.783,1.203 0.036,-0.021 0.07,-0.045 0.107,-0.064 -0.115,-0.439 -0.193,-0.896 -0.205,-1.369 -0.084,-3.371 2.578,-6.17 5.948,-6.256 1.122,-0.027 2.179,0.256 3.095,0.762 -0.598,-0.916 -0.962,-2 -0.99,-3.174 -0.086,-3.369 2.578,-6.17 5.947,-6.256 1.027,-0.025 2,0.207 2.858,0.635 -0.653,-0.945 -1.052,-2.084 -1.084,-3.318 -0.076,-3.09 2.159,-5.693 5.129,-6.172 0,-0.014 0.01,-0.027 0.011,-0.039 -0.647,-0.268 -1.264,-0.645 -1.809,-1.146 -2.479,-2.285 -2.636,-6.146 -0.352,-8.625 0.982,-1.066 2.258,-1.699 3.589,-1.896 -0.895,-0.254 -1.745,-0.709 -2.476,-1.383 -2.479,-2.283 -2.637,-6.145 -0.353,-8.623 0.696,-0.754 1.54,-1.291 2.444,-1.611 -1.135,-0.188 -2.229,-0.693 -3.138,-1.531 -2.479,-2.285 -2.637,-6.146 -0.352,-8.625 0.398,-0.432 0.847,-0.789 1.325,-1.08 -0.355,-0.041 -0.714,-0.107 -1.069,-0.215 -3.228,-0.973 -5.057,-4.377 -4.085,-7.604 0.341,-1.135 0.986,-2.09 1.814,-2.818 -0.453,-0.029 -0.908,-0.105 -1.362,-0.242 -3.228,-0.971 -5.056,-4.375 -4.085,-7.604 0.294,-0.975 0.811,-1.818 1.477,-2.5 -10e-4,0 0,-0.01 0,-0.01 -0.761,0.07 -1.546,0 -2.322,-0.23 -3.229,-0.971 -5.057,-4.376 -4.086,-7.603 0.227,-0.748 0.586,-1.416 1.038,-1.996 -0.207,0.021 -0.418,0.033 -0.63,0.033 -3.371,0 -6.104,-2.733 -6.104,-6.104 0,-1.082 0.284,-2.096 0.777,-2.975 -0.464,0.111 -0.946,0.178 -1.444,0.178 -3.371,0 -6.104,-2.732 -6.104,-6.104 0,-0.836 0.169,-1.634 0.473,-2.36 -0.963,0.635 -2.114,1.007 -3.354,1.007 -3.207,0 -5.832,-3.822 -6.079,-6.966 -0.247,3.144 -2.871,6.966 -6.079,6.966 -1.241,0 -2.394,-0.374 -3.356,-1.01 0.315,0.726 0.483,1.525 0.483,2.363 z"
               id="path623" />
          </g>
          <polygon
             style="fill:#b89920"
             points="-1549.889,2364.013 -1547.08,2221.453 -1544.269,2364.013 "
             id="polygon625" />
        </g>
        <path
           style="opacity:0.1"
           inkscape:connector-curvature="0"
           d="m -1547.08,2339.765 c 1.043,-1.717 2.906,-2.889 5.064,-2.943 0.229,-0.01 0.453,0 0.677,0.023 -0.01,-0.09 -0.019,-0.176 -0.021,-0.264 -0.084,-3.371 2.579,-6.17 5.949,-6.256 1.416,-0.035 2.728,0.42 3.783,1.203 0.036,-0.021 0.07,-0.045 0.107,-0.064 -0.115,-0.439 -0.193,-0.896 -0.205,-1.369 -0.084,-3.371 2.578,-6.17 5.948,-6.256 1.122,-0.027 2.179,0.256 3.095,0.762 -0.598,-0.916 -0.962,-2 -0.99,-3.174 -0.086,-3.369 2.578,-6.17 5.947,-6.256 1.027,-0.025 2,0.207 2.858,0.635 -0.653,-0.945 -1.052,-2.084 -1.084,-3.318 -0.076,-3.09 2.159,-5.693 5.129,-6.172 0,-0.014 0.01,-0.027 0.011,-0.039 -0.647,-0.268 -1.264,-0.645 -1.809,-1.146 -2.479,-2.285 -2.636,-6.146 -0.352,-8.625 0.982,-1.066 2.258,-1.699 3.589,-1.896 -0.895,-0.254 -1.745,-0.709 -2.476,-1.383 -2.479,-2.283 -2.637,-6.145 -0.353,-8.623 0.696,-0.754 1.54,-1.291 2.444,-1.611 -1.135,-0.188 -2.229,-0.693 -3.138,-1.531 -2.479,-2.285 -2.637,-6.146 -0.352,-8.625 0.398,-0.432 0.847,-0.789 1.325,-1.08 -0.355,-0.041 -0.714,-0.107 -1.069,-0.215 -3.228,-0.973 -5.057,-4.377 -4.085,-7.604 0.341,-1.135 0.986,-2.09 1.814,-2.818 -0.453,-0.029 -0.908,-0.105 -1.362,-0.242 -3.228,-0.971 -5.056,-4.375 -4.085,-7.604 0.294,-0.975 0.811,-1.818 1.477,-2.5 -10e-4,0 0,-0.01 0,-0.01 -0.761,0.07 -1.546,0 -2.322,-0.23 -3.229,-0.971 -5.057,-4.376 -4.086,-7.603 0.227,-0.748 0.586,-1.416 1.038,-1.996 -0.207,0.021 -0.418,0.033 -0.63,0.033 -3.371,0 -6.104,-2.733 -6.104,-6.104 0,-1.082 0.284,-2.096 0.777,-2.975 -0.464,0.111 -0.946,0.178 -1.444,0.178 -3.371,0 -6.104,-2.732 -6.104,-6.104 0,-0.836 0.169,-1.634 0.473,-2.36 -0.963,0.635 -2.114,1.007 -3.354,1.007 -3.207,0 -5.832,-3.822 -6.079,-6.966 l 0,122.121 z"
           id="path627" />
      </g>
    </g>
  </g>
</svg>
