<?xml version="1.0" encoding="UTF-8" standalone="no"?>
<svg
   xmlns:dc="http://purl.org/dc/elements/1.1/"
   xmlns:cc="http://creativecommons.org/ns#"
   xmlns:rdf="http://www.w3.org/1999/02/22-rdf-syntax-ns#"
   xmlns:svg="http://www.w3.org/2000/svg"
   xmlns="http://www.w3.org/2000/svg"
   xmlns:sodipodi="http://sodipodi.sourceforge.net/DTD/sodipodi-0.dtd"
   xmlns:inkscape="http://www.inkscape.org/namespaces/inkscape"
   width="76"
   height="76"
   viewBox="0 0 76.00 76.00"
   id="svg2"
   version="1.1"
   inkscape:version="0.91 r13725"
   sodipodi:docname="plantin.svg">
  <metadata
     id="metadata12">
    <rdf:RDF>
      <cc:Work
         rdf:about="">
        <dc:format>image/svg+xml</dc:format>
        <dc:type
           rdf:resource="http://purl.org/dc/dcmitype/StillImage" />
      </cc:Work>
    </rdf:RDF>
  </metadata>
  <defs
     id="defs10" />
  <sodipodi:namedview
     pagecolor="#ffffff"
     bordercolor="#666666"
     borderopacity="1"
     objecttolerance="10"
     gridtolerance="10"
     guidetolerance="10"
     inkscape:pageopacity="0"
     inkscape:pageshadow="2"
     inkscape:window-width="640"
     inkscape:window-height="480"
     id="namedview8"
     showgrid="false"
     inkscape:zoom="3.1052632"
     inkscape:cx="32.364407"
     inkscape:cy="38"
     inkscape:window-x="10"
     inkscape:window-y="24"
     inkscape:window-maximized="0"
     inkscape:current-layer="svg2" />
  <path
     d="M35.21 51.769h24.962l-4.541 22.18-15.081-.16z"
     id="path4"
     style="fill:#ffffff" />
  <path
     d="M46.232 38.636s-10.256-.287-14.238-4.39c-3.985-4.101-5.234-8.127-9.14-14.884 0 0 8.987-3.076 15.627 3.761 6.638 6.836 7.75 15.512 7.75 15.512zm.403 20.958l.478-27.583s-4.809-10.894-4.685-15.095c.158-5.315 3.675-8.543 10.709-14.996 0 0 3.451 8.847 4.372 14.089 1.168 6.681-9.362 15.697-9.362 15.697l1.223 27.966-2.735-.076zm27.027-40.112s-4.078 10.795-8.225 13.35c-4.15 2.553-9.514 3.166-15.922 5.226 0 0 2.981-9.8 9.895-14.057 6.914-4.255 14.252-4.52 14.252-4.52zM4.457 43.324h6.705v-6.408h4.79v6.408h6.703v4.575h-6.703v6.408h-4.79v-6.408H4.457z"
     id="path6"
     style="fill:#ffffff" />
</svg>
