<svg xmlns="http://www.w3.org/2000/svg" width="35.359" height="44.479" viewBox="0 0 33.149099 41.699154"><g stroke-miterlimit="22.926" fill="none" stroke="#fff" stroke-width="1.143" stroke-linecap="round" stroke-linejoin="round"><path d="M32.578 24.948c.017 5.549-4.47 10.062-10.018 10.078-5.548.017-10.061-4.47-10.077-10.018-.017-5.55 4.425-24.42 9.974-24.436 5.548-.017 10.103 18.826 10.12 24.376zM22.455 41.084l-.018-6.058"/><path d="M20.669 24.984c.017 5.55-4.47 10.06-10.018 10.078C5.103 35.079.589 30.592.57 25.044.556 19.494 5 .624 10.548.607 16.096.59 20.652 19.434 20.669 24.984zM10.547 41.12l-.02-6.058"/></g></svg>