<?xml version="1.0" encoding="UTF-8" standalone="no"?>
<svg
   xmlns:dc="http://purl.org/dc/elements/1.1/"
   xmlns:cc="http://creativecommons.org/ns#"
   xmlns:rdf="http://www.w3.org/1999/02/22-rdf-syntax-ns#"
   xmlns:svg="http://www.w3.org/2000/svg"
   xmlns="http://www.w3.org/2000/svg"
   xmlns:sodipodi="http://sodipodi.sourceforge.net/DTD/sodipodi-0.dtd"
   xmlns:inkscape="http://www.inkscape.org/namespaces/inkscape"
   width="76"
   height="76"
   viewBox="0 0 76.00 76.00"
   id="svg2"
   version="1.1"
   inkscape:version="0.91 r13725"
   sodipodi:docname="reloj.svg">
  <metadata
     id="metadata10">
    <rdf:RDF>
      <cc:Work
         rdf:about="">
        <dc:format>image/svg+xml</dc:format>
        <dc:type
           rdf:resource="http://purl.org/dc/dcmitype/StillImage" />
      </cc:Work>
    </rdf:RDF>
  </metadata>
  <defs
     id="defs8" />
  <sodipodi:namedview
     pagecolor="#ffffff"
     bordercolor="#666666"
     borderopacity="1"
     objecttolerance="10"
     gridtolerance="10"
     guidetolerance="10"
     inkscape:pageopacity="0"
     inkscape:pageshadow="2"
     inkscape:window-width="751"
     inkscape:window-height="480"
     id="namedview6"
     showgrid="false"
     inkscape:zoom="3.1052632"
     inkscape:cx="-4.1864407"
     inkscape:cy="38"
     inkscape:window-x="1366"
     inkscape:window-y="24"
     inkscape:window-maximized="0"
     inkscape:current-layer="svg2" />
  <path
     d="M38 13.767c14.258 0 25.816 11.558 25.816 25.816S52.258 65.4 38 65.4 12.184 53.84 12.184 39.583c0-14.258 11.558-25.816 25.816-25.816zm0 6.454c-10.694 0-19.362 8.669-19.362 19.362 0 10.694 8.668 19.363 19.362 19.363 10.694 0 19.362-8.67 19.362-19.363S48.694 20.221 38 20.221zm-.645 5.163a2.582 2.582 0 0 1 2.581 2.582v9.681h9.681A2.582 2.582 0 0 1 52.2 40.23v1.29a2.582 2.582 0 0 1-2.582 2.582H38c-1.29-.215-2.582-.43-3.335-1.183-.753-.753-.968-2.044-1.183-3.335V27.966a2.582 2.582 0 0 1 2.582-2.582z"
     id="path4"
     style="fill:#555555;fill-opacity:1" />
</svg>
