<svg xmlns="http://www.w3.org/2000/svg" width="76" height="76" viewBox="0 0 76.00 76.00"><path d="M38 13.767c14.258 0 25.816 11.558 25.816 25.816S52.258 65.4 38 65.4 12.184 53.84 12.184 39.583c0-14.258 11.558-25.816 25.816-25.816zm0 6.454c-10.694 0-19.362 8.669-19.362 19.362 0 10.694 8.668 19.363 19.362 19.363 10.694 0 19.362-8.67 19.362-19.363S48.694 20.221 38 20.221zm-.645 5.163a2.582 2.582 0 0 1 2.581 2.582v9.681h9.681A2.582 2.582 0 0 1 52.2 40.23v1.29a2.582 2.582 0 0 1-2.582 2.582H38c-1.29-.215-2.582-.43-3.335-1.183-.753-.753-.968-2.044-1.183-3.335V27.966a2.582 2.582 0 0 1 2.582-2.582z" fill="#555"/></svg>