<svg xmlns="http://www.w3.org/2000/svg" width="117.647" height="175.198" viewBox="0 0 110.29439 164.248"><g transform="translate(1597.356 -2383.727)"><path d="M-1545.208 2482.54c2.464-2.464 2.722-6.745.563-9.486-5.152-6.538-4.338-6.535-18.096-20.288-11.124-11.216-13.052-11.952-18.452-16.213-2.741-2.161-8.009-2.935-10.473-.471-2.464 2.464-1.69 7.732.472 10.472 4.26 5.402 4.997 7.328 16.212 18.453 13.753 13.758 13.75 12.944 20.288 18.095 2.741 2.16 7.023 1.902 9.486-.562z" fill="#ffa445"/><path d="M-1547.15 2480.597c.236-.236-1.389-2.296-3.607-4.569-5.289-5.422-4.876-5.087-17.481-17.692-10.231-10.241-11.509-11.403-15.99-15.775-2.274-2.219-5.257-4.772-5.493-4.536-.236.236 2.318 3.219 4.535 5.493 4.373 4.482 5.535 5.759 15.776 15.99 12.604 12.605 12.27 12.192 17.691 17.482 2.274 2.218 4.334 3.843 4.569 3.607z" fill="#f7f3e1"/><path d="M-1544.292 2503.607c1.77-2.777 1.133-6.778-1.422-8.865-6.088-4.978-5.336-5.142-20.839-15.015-12.554-8.071-14.481-8.355-20.337-11.182-2.969-1.433-7.986-1.069-9.756 1.708-1.768 2.776.022 7.478 2.577 9.563 5.035 4.111 6.106 5.737 18.727 13.707 15.499 9.877 15.331 9.127 22.415 12.542 2.97 1.432 6.865.318 8.635-2.458zM-1543.631 2517.881c.404-2.64-1.379-5.402-3.957-6.114-6.149-1.701-5.645-2.069-20.384-4.32-11.963-1.879-13.486-1.459-18.756-1.641-2.673-.091-6.279 1.822-6.683 4.462-.404 2.64 2.466 5.543 5.044 6.254 5.083 1.403 6.412 2.259 18.389 4.041 14.738 2.256 14.367 1.754 20.742 1.969 2.674.091 5.201-2.011 5.605-4.651z" fill="#ffa445"/><ellipse transform="scale(-1) rotate(-57.529 -4529.955 -2860.619)" cx="-1570.396" cy="2486.814" rx=".554" ry="27.991" fill="#f7f3e1"/><ellipse transform="rotate(98.314 -1567.998 2514.268)" cx="-1568.055" cy="2514.296" rx=".554" ry="21.872" fill="#f7f3e1"/><path d="M-1539.208 2482.54c-2.464-2.464-2.723-6.745-.563-9.486 5.151-6.538 4.337-6.535 18.096-20.288 11.124-11.216 13.052-11.952 18.452-16.213 2.74-2.161 8.009-2.935 10.473-.471 2.463 2.464 1.689 7.732-.471 10.472-4.262 5.402-4.998 7.328-16.213 18.453-13.753 13.758-13.75 12.944-20.288 18.095-2.742 2.16-7.024 1.902-9.486-.562z" fill="#ffa445"/><path d="M-1537.267 2480.597c-.235-.236 1.391-2.296 3.607-4.569 5.289-5.422 4.877-5.087 17.482-17.692 10.231-10.241 11.508-11.403 15.99-15.775 2.273-2.219 5.257-4.772 5.492-4.536.236.236-2.317 3.219-4.535 5.493-4.373 4.482-5.535 5.759-15.775 15.99-12.605 12.605-12.27 12.192-17.691 17.482-2.274 2.218-4.334 3.843-4.57 3.607z" fill="#f7f3e1"/><path d="M-1492.751 2436.083c2.463 2.464 1.689 7.732-.471 10.472-4.262 5.402-4.998 7.328-16.213 18.453-13.753 13.758-13.75 12.944-20.288 18.095-2.741 2.16-7.022 1.901-9.485-.562l46.457-46.458z" opacity=".1"/><path d="M-1540.125 2503.607c-1.769-2.777-1.132-6.778 1.422-8.865 6.088-4.978 5.336-5.142 20.84-15.015 12.554-8.071 14.481-8.355 20.336-11.182 2.969-1.433 7.986-1.069 9.756 1.708 1.768 2.776-.021 7.478-2.576 9.563-5.035 4.111-6.107 5.737-18.727 13.707-15.5 9.877-15.332 9.127-22.415 12.542-2.971 1.432-6.866.318-8.636-2.458zM-1540.785 2517.881c-.404-2.64 1.379-5.402 3.957-6.114 6.148-1.701 5.645-2.069 20.384-4.32 11.962-1.879 13.485-1.459 18.756-1.641 2.673-.091 6.278 1.822 6.683 4.462.402 2.64-2.467 5.543-5.045 6.254-5.082 1.403-6.412 2.259-18.389 4.041-14.738 2.256-14.367 1.754-20.742 1.969-2.674.091-5.201-2.011-5.604-4.651z" fill="#ffa445"/><ellipse transform="rotate(57.488 -1513.915 2486.703)" cx="-1514.02" cy="2486.814" rx=".554" ry="27.991" fill="#f7f3e1"/><path d="M-1487.771 2470.253c1.768 2.776-.021 7.478-2.576 9.563-5.035 4.111-6.107 5.737-18.727 13.707-15.5 9.877-15.332 9.127-22.415 12.542-2.972 1.432-6.866.318-8.636-2.458l52.354-33.354z" opacity=".1"/><ellipse transform="rotate(81.686 -1516.434 2514.297)" cx="-1516.361" cy="2514.296" rx=".554" ry="21.873" fill="#f7f3e1"/><path d="M-1491.005 2510.269c.402 2.64-2.467 5.543-5.045 6.254-5.082 1.403-6.412 2.259-18.389 4.041-14.738 2.256-14.367 1.754-20.742 1.969-2.674.09-5.201-2.012-5.604-4.652l49.78-7.612zM-1591.665 2436.083c-2.464 2.464-1.69 7.732.472 10.472 4.26 5.402 4.997 7.328 16.212 18.453 13.753 13.758 13.75 12.944 20.288 18.095 2.74 2.16 7.021 1.901 9.485-.562l-46.457-46.458zM-1596.646 2470.253c-1.768 2.776.022 7.478 2.577 9.563 5.035 4.111 6.106 5.737 18.727 13.707 15.499 9.877 15.331 9.127 22.415 12.542 2.971 1.432 6.865.318 8.635-2.458l-52.354-33.354zM-1593.411 2510.269c-.403 2.64 2.466 5.543 5.044 6.254 5.083 1.403 6.412 2.259 18.389 4.041 14.738 2.256 14.367 1.754 20.742 1.969 2.674.09 5.201-2.012 5.604-4.652l-49.779-7.612z" opacity=".1"/><path fill="#945f28" d="M-1539.101 2547.975h-6.197l2.391-121.537h1.413z"/><path d="M-1542.201 2466.205c4.375 0 8.404-3.571 8.92-7.921 1.23-10.376 1.952-9.65 1.947-34.072.08-19.832-.977-22.194-1.988-30.772-.514-4.35-4.504-9.713-8.879-9.713-4.374 0-8.363 5.363-8.877 9.713-1.013 8.579-2.069 10.941-1.989 30.772 0 24.421.716 23.696 1.946 34.072.517 4.351 4.546 7.921 8.92 7.921z" fill="#ffa445"/><ellipse cx="-1542.2" cy="2424.966" rx=".962" ry="38.982" fill="#f7f3e1"/><path d="M-1542.201 2466.205c4.375 0 8.404-3.571 8.92-7.921 1.23-10.376 1.952-9.65 1.947-34.072.08-19.832-.977-22.194-1.988-30.772-.514-4.35-4.504-9.713-8.879-9.713v82.478z" opacity=".1"/></g></svg>