<?xml version="1.0" encoding="UTF-8" standalone="no"?>
<!-- Created with Inkscape (http://www.inkscape.org/) -->

<svg
   xmlns:dc="http://purl.org/dc/elements/1.1/"
   xmlns:cc="http://creativecommons.org/ns#"
   xmlns:rdf="http://www.w3.org/1999/02/22-rdf-syntax-ns#"
   xmlns:svg="http://www.w3.org/2000/svg"
   xmlns="http://www.w3.org/2000/svg"
   xmlns:sodipodi="http://sodipodi.sourceforge.net/DTD/sodipodi-0.dtd"
   xmlns:inkscape="http://www.inkscape.org/namespaces/inkscape"
   width="31.127527mm"
   height="46.354435mm"
   viewBox="0 0 110.29439 164.248"
   id="svg4197"
   version="1.1"
   inkscape:version="0.91 r13725"
   sodipodi:docname="vivero.svg">
  <defs
     id="defs4199" />
  <sodipodi:namedview
     id="base"
     pagecolor="#ffffff"
     bordercolor="#666666"
     borderopacity="1.0"
     inkscape:pageopacity="0.0"
     inkscape:pageshadow="2"
     inkscape:zoom="0.35"
     inkscape:cx="-46.995701"
     inkscape:cy="-209.3046"
     inkscape:document-units="px"
     inkscape:current-layer="layer1"
     showgrid="false"
     fit-margin-top="0"
     fit-margin-left="0"
     fit-margin-right="0"
     fit-margin-bottom="0"
     inkscape:window-width="900"
     inkscape:window-height="1416"
     inkscape:window-x="0"
     inkscape:window-y="24"
     inkscape:window-maximized="1" />
  <metadata
     id="metadata4202">
    <rdf:RDF>
      <cc:Work
         rdf:about="">
        <dc:format>image/svg+xml</dc:format>
        <dc:type
           rdf:resource="http://purl.org/dc/dcmitype/StillImage" />
        <dc:title></dc:title>
      </cc:Work>
    </rdf:RDF>
  </metadata>
  <g
     inkscape:label="Capa 1"
     inkscape:groupmode="layer"
     id="layer1"
     transform="translate(-421.9957,-158.8096)">
    <g
       transform="translate(2019.3513,-2224.9174)"
       id="g545">
      <g
         id="g547">
        <path
           style="fill:#ffa445"
           inkscape:connector-curvature="0"
           d="m -1545.208,2482.54 c 2.464,-2.464 2.722,-6.745 0.563,-9.486 -5.152,-6.538 -4.338,-6.535 -18.096,-20.288 -11.124,-11.216 -13.052,-11.952 -18.452,-16.213 -2.741,-2.161 -8.009,-2.935 -10.473,-0.471 -2.464,2.464 -1.69,7.732 0.472,10.472 4.26,5.402 4.997,7.328 16.212,18.453 13.753,13.758 13.75,12.944 20.288,18.095 2.741,2.16 7.023,1.902 9.486,-0.562 z"
           id="path549" />
        <path
           style="fill:#f7f3e1"
           inkscape:connector-curvature="0"
           d="m -1547.15,2480.597 c 0.236,-0.236 -1.389,-2.296 -3.607,-4.569 -5.289,-5.422 -4.876,-5.087 -17.481,-17.692 -10.231,-10.241 -11.509,-11.403 -15.99,-15.775 -2.274,-2.219 -5.257,-4.772 -5.493,-4.536 -0.236,0.236 2.318,3.219 4.535,5.493 4.373,4.482 5.535,5.759 15.776,15.99 12.604,12.605 12.27,12.192 17.691,17.482 2.274,2.218 4.334,3.843 4.569,3.607 z"
           id="path551" />
        <path
           style="fill:#ffa445"
           inkscape:connector-curvature="0"
           d="m -1544.292,2503.607 c 1.77,-2.777 1.133,-6.778 -1.422,-8.865 -6.088,-4.978 -5.336,-5.142 -20.839,-15.015 -12.554,-8.071 -14.481,-8.355 -20.337,-11.182 -2.969,-1.433 -7.986,-1.069 -9.756,1.708 -1.768,2.776 0.022,7.478 2.577,9.563 5.035,4.111 6.106,5.737 18.727,13.707 15.499,9.877 15.331,9.127 22.415,12.542 2.97,1.432 6.865,0.318 8.635,-2.458 z"
           id="path553" />
        <path
           style="fill:#ffa445"
           inkscape:connector-curvature="0"
           d="m -1543.631,2517.881 c 0.404,-2.64 -1.379,-5.402 -3.957,-6.114 -6.149,-1.701 -5.645,-2.069 -20.384,-4.32 -11.963,-1.879 -13.486,-1.459 -18.756,-1.641 -2.673,-0.091 -6.279,1.822 -6.683,4.462 -0.404,2.64 2.466,5.543 5.044,6.254 5.083,1.403 6.412,2.259 18.389,4.041 14.738,2.256 14.367,1.754 20.742,1.969 2.674,0.091 5.201,-2.011 5.605,-4.651 z"
           id="path555" />
        <ellipse
           style="fill:#f7f3e1"
           transform="matrix(-0.5369,0.8437,-0.8437,-0.5369,-315.4749,5146.8062)"
           cx="-1570.396"
           cy="2486.814"
           rx="0.55400002"
           ry="27.990999"
           id="ellipse557" />
        <ellipse
           style="fill:#f7f3e1"
           transform="matrix(-0.1446,0.9895,-0.9895,-0.1446,693.1379,4429.3643)"
           cx="-1568.0551"
           cy="2514.2959"
           rx="0.55400002"
           ry="21.872"
           id="ellipse559" />
        <path
           style="fill:#ffa445"
           inkscape:connector-curvature="0"
           d="m -1539.208,2482.54 c -2.464,-2.464 -2.723,-6.745 -0.563,-9.486 5.151,-6.538 4.337,-6.535 18.096,-20.288 11.124,-11.216 13.052,-11.952 18.452,-16.213 2.74,-2.161 8.009,-2.935 10.473,-0.471 2.463,2.464 1.689,7.732 -0.471,10.472 -4.262,5.402 -4.998,7.328 -16.213,18.453 -13.753,13.758 -13.75,12.944 -20.288,18.095 -2.742,2.16 -7.024,1.902 -9.486,-0.562 z"
           id="path561" />
        <path
           style="fill:#f7f3e1"
           inkscape:connector-curvature="0"
           d="m -1537.267,2480.597 c -0.235,-0.236 1.391,-2.296 3.607,-4.569 5.289,-5.422 4.877,-5.087 17.482,-17.692 10.231,-10.241 11.508,-11.403 15.99,-15.775 2.273,-2.219 5.257,-4.772 5.492,-4.536 0.236,0.236 -2.317,3.219 -4.535,5.493 -4.373,4.482 -5.535,5.759 -15.775,15.99 -12.605,12.605 -12.27,12.192 -17.691,17.482 -2.274,2.218 -4.334,3.843 -4.57,3.607 z"
           id="path563" />
        <path
           style="opacity:0.1"
           inkscape:connector-curvature="0"
           d="m -1492.751,2436.083 c 2.463,2.464 1.689,7.732 -0.471,10.472 -4.262,5.402 -4.998,7.328 -16.213,18.453 -13.753,13.758 -13.75,12.944 -20.288,18.095 -2.741,2.16 -7.022,1.901 -9.485,-0.562 l 46.457,-46.458 z"
           id="path565" />
        <path
           style="fill:#ffa445"
           inkscape:connector-curvature="0"
           d="m -1540.125,2503.607 c -1.769,-2.777 -1.132,-6.778 1.422,-8.865 6.088,-4.978 5.336,-5.142 20.84,-15.015 12.554,-8.071 14.481,-8.355 20.336,-11.182 2.969,-1.433 7.986,-1.069 9.756,1.708 1.768,2.776 -0.021,7.478 -2.576,9.563 -5.035,4.111 -6.107,5.737 -18.727,13.707 -15.5,9.877 -15.332,9.127 -22.415,12.542 -2.971,1.432 -6.866,0.318 -8.636,-2.458 z"
           id="path567" />
        <path
           style="fill:#ffa445"
           inkscape:connector-curvature="0"
           d="m -1540.785,2517.881 c -0.404,-2.64 1.379,-5.402 3.957,-6.114 6.148,-1.701 5.645,-2.069 20.384,-4.32 11.962,-1.879 13.485,-1.459 18.756,-1.641 2.673,-0.091 6.278,1.822 6.683,4.462 0.402,2.64 -2.467,5.543 -5.045,6.254 -5.082,1.403 -6.412,2.259 -18.389,4.041 -14.738,2.256 -14.367,1.754 -20.742,1.969 -2.674,0.091 -5.201,-2.011 -5.604,-4.651 z"
           id="path569" />
        <ellipse
           style="fill:#f7f3e1"
           transform="matrix(0.5375,0.8433,-0.8433,0.5375,1396.8052,2426.8606)"
           cx="-1514.02"
           cy="2486.814"
           rx="0.55400002"
           ry="27.990999"
           id="ellipse571" />
        <path
           style="opacity:0.1"
           inkscape:connector-curvature="0"
           d="m -1487.771,2470.253 c 1.768,2.776 -0.021,7.478 -2.576,9.563 -5.035,4.111 -6.107,5.737 -18.727,13.707 -15.5,9.877 -15.332,9.127 -22.415,12.542 -2.972,1.432 -6.866,0.318 -8.636,-2.458 l 52.354,-33.354 z"
           id="path573" />
        <ellipse
           style="fill:#f7f3e1"
           transform="matrix(0.1446,0.9895,-0.9895,0.1446,1190.739,3651.2415)"
           cx="-1516.361"
           cy="2514.2959"
           rx="0.55400002"
           ry="21.872999"
           id="ellipse575" />
        <path
           style="opacity:0.1"
           inkscape:connector-curvature="0"
           d="m -1491.005,2510.269 c 0.402,2.64 -2.467,5.543 -5.045,6.254 -5.082,1.403 -6.412,2.259 -18.389,4.041 -14.738,2.256 -14.367,1.754 -20.742,1.969 -2.674,0.09 -5.201,-2.012 -5.604,-4.652 l 49.78,-7.612 z"
           id="path577" />
        <path
           style="opacity:0.1"
           inkscape:connector-curvature="0"
           d="m -1591.665,2436.083 c -2.464,2.464 -1.69,7.732 0.472,10.472 4.26,5.402 4.997,7.328 16.212,18.453 13.753,13.758 13.75,12.944 20.288,18.095 2.74,2.16 7.021,1.901 9.485,-0.562 l -46.457,-46.458 z"
           id="path579" />
        <path
           style="opacity:0.1"
           inkscape:connector-curvature="0"
           d="m -1596.646,2470.253 c -1.768,2.776 0.022,7.478 2.577,9.563 5.035,4.111 6.106,5.737 18.727,13.707 15.499,9.877 15.331,9.127 22.415,12.542 2.971,1.432 6.865,0.318 8.635,-2.458 l -52.354,-33.354 z"
           id="path581" />
        <path
           style="opacity:0.1"
           inkscape:connector-curvature="0"
           d="m -1593.411,2510.269 c -0.403,2.64 2.466,5.543 5.044,6.254 5.083,1.403 6.412,2.259 18.389,4.041 14.738,2.256 14.367,1.754 20.742,1.969 2.674,0.09 5.201,-2.012 5.604,-4.652 l -49.779,-7.612 z"
           id="path583" />
        <polygon
           style="fill:#945f28"
           points="-1539.101,2547.975 -1545.298,2547.975 -1542.907,2426.438 -1541.494,2426.438 "
           id="polygon585" />
        <path
           style="fill:#ffa445"
           inkscape:connector-curvature="0"
           d="m -1542.201,2466.205 c 4.375,0 8.404,-3.571 8.92,-7.921 1.23,-10.376 1.952,-9.65 1.947,-34.072 0.08,-19.832 -0.977,-22.194 -1.988,-30.772 -0.514,-4.35 -4.504,-9.713 -8.879,-9.713 -4.374,0 -8.363,5.363 -8.877,9.713 -1.013,8.579 -2.069,10.941 -1.989,30.772 0,24.421 0.716,23.696 1.946,34.072 0.517,4.351 4.546,7.921 8.92,7.921 z"
           id="path587" />
        <ellipse
           style="fill:#f7f3e1"
           cx="-1542.2"
           cy="2424.9661"
           rx="0.96200001"
           ry="38.981998"
           id="ellipse589" />
        <path
           style="opacity:0.1"
           inkscape:connector-curvature="0"
           d="m -1542.201,2466.205 c 4.375,0 8.404,-3.571 8.92,-7.921 1.23,-10.376 1.952,-9.65 1.947,-34.072 0.08,-19.832 -0.977,-22.194 -1.988,-30.772 -0.514,-4.35 -4.504,-9.713 -8.879,-9.713 l 0,82.478 z"
           id="path591" />
      </g>
    </g>
  </g>
</svg>
